<svg xmlns="http://www.w3.org/2000/svg" width="414.999" height="414.996"><path fill-rule="evenodd" clip-rule="evenodd" d="M124.046 94.794h98.5c32.411 0 60.002 15.878 59.973 47.985-.025 26.809-9.732 37.237-29.675 49.029 1.704 1.405 13.132 4.814 16.97 6.705 6.145 3.028 9.76 6.09 13.803 10.2 11.314 11.504 13.424 22.021 13.424 40.066 0 41.868-40.496 62.917-79.494 62.917h-93.918l.417-216.902zm53.524 56.986l-.007 28.167c25.371 0 49.211 3.342 49.211-24.167 0-25.467-26.97-21.271-49.229-21.271l.025 17.271zm-.014 119.99c27.8 0 62.145 4.58 62.748-26.982.631-32.922-35.281-26.98-62.732-26.98l-.016 53.962z"/></svg>