<svg width="177" height="32" fill="none" xmlns="http://www.w3.org/2000/svg"><mask id="a" maskUnits="userSpaceOnUse" x="154" y="6" width="23" height="26"><path d="M176.539 6.071v25.498h-21.581V6.071h21.581z" fill="#fff"/></mask><g mask="url(#a)"><path fill-rule="evenodd" clip-rule="evenodd" d="M171.806 18.27l-10.83-3.313c-.896-.275-1.522-1.135-1.522-2.094 0-1.204.957-2.184 2.132-2.184h12.705l1.204-4.608h-13.909c-3.654 0-6.628 3.047-6.628 6.792 0 2.98 1.946 5.656 4.733 6.509l10.829 3.312c.897.274 1.523 1.135 1.523 2.094 0 1.204-.957 2.184-2.132 2.184h-14.278v4.607h14.278c3.654 0 6.628-3.046 6.628-6.791 0-2.98-1.947-5.657-4.733-6.509z" fill="#0A0A0A"/></g><path fill-rule="evenodd" clip-rule="evenodd" d="M130.98 16.392c.975-3.33 4.033-5.768 7.643-5.768 3.611 0 6.669 2.437 7.643 5.768H130.98zm7.643-10.321c-6.858 0-12.438 5.651-12.438 12.598 0 6.946 5.58 12.597 12.438 12.597h8.536v-4.553h-8.536c-3.6 0-6.648-2.437-7.62-5.768h20.059v-2.276c0-6.947-5.58-12.598-12.439-12.598z" fill="#0A0A0A"/><mask id="b" maskUnits="userSpaceOnUse" x="102" y="0" width="26" height="32"><path d="M102.506 31.57h24.578V0h-24.578v31.57z" fill="#fff"/></mask><g mask="url(#b)"><path fill-rule="evenodd" clip-rule="evenodd" d="M121.802 0l-7.007 12.097L107.787 0h-5.281l10.003 17.268v14.301h4.572v-14.3L127.084 0h-5.282z" fill="#0A0A0A"/></g><mask id="c" maskUnits="userSpaceOnUse" x="85" y="0" width="14" height="32"><path d="M85.422 31.57H98.31V0H85.422v31.57z" fill="#fff"/></mask><g mask="url(#c)"><path fill-rule="evenodd" clip-rule="evenodd" d="M93.69 0l-8.268 31.57h4.62L98.31 0h-4.62z" fill="#0A0A0A"/></g><mask id="d" maskUnits="userSpaceOnUse" x="73" y="0" width="14" height="32"><path d="M73.733 31.57H86.62V0H73.733v31.57z" fill="#fff"/></mask><g mask="url(#d)"><path fill-rule="evenodd" clip-rule="evenodd" d="M82 0l-8.267 31.57h4.62L86.62 0H82z" fill="#0A0A0A"/></g><path fill-rule="evenodd" clip-rule="evenodd" d="M51.253 16.392c.975-3.33 4.033-5.768 7.643-5.768 3.61 0 6.668 2.437 7.643 5.768H51.253zM58.896 6.07c-6.858 0-12.438 5.651-12.438 12.598 0 6.946 5.58 12.597 12.438 12.597h7.843l1.198-4.553h-9.04c-3.6 0-6.649-2.437-7.62-5.768h20.058v-2.276c0-6.947-5.58-12.598-12.439-12.598z" fill="#0A0A0A"/><mask id="e" maskUnits="userSpaceOnUse" x="0" y="0" width="45" height="32"><path d="M44.66 31.57H0V0h44.66v31.57z" fill="#fff"/></mask><g mask="url(#e)"><path fill-rule="evenodd" clip-rule="evenodd" d="M39.99 0l-7.114 26.881L25.76 0h-6.862l-7.116 26.881L4.67 0H0l8.356 31.57h6.855L22.33 4.675l7.118 26.893h6.855L44.66 0h-4.668z" fill="#0A0A0A"/></g></svg>