<svg width="12" height="15" fill="none" xmlns="http://www.w3.org/2000/svg"><path d="M2.628 8.15c.018-.046.2-.768.214-.816-.286-.442-.604-1.886-.36-3.059.263-1.72 2.04-2.566 3.718-2.566v-.004c2.102.002 3.674 1.201 3.676 3.266.001 1.617-.948 3.754-2.57 3.754-.579 0-1.311-.27-1.503-.534-.222-.304-.277-.68-.16-1.082.288-.94.654-2.066.696-2.817.04-.708-.45-1.169-1.086-1.169-.478 0-1.1.285-1.409 1.086-.255.665-.25 1.361.017 2.129.104.3-.461 2.255-.643 2.892-.45 1.582-1.066 3.583-.934 4.698L2.41 15l.639-.859c.884-1.187 1.798-4.258 2.041-5.005.72.957 2.22.984 2.395.984 2.147 0 4.582-2.187 4.513-5.231C11.938 2.219 10.033 0 6.61 0v.003c-3.255 0-5.155 1.783-5.62 4.035-.426 2.088.521 3.677 1.637 4.113z" fill="#FFC000"/></svg>