<svg width="19" height="15" fill="none" xmlns="http://www.w3.org/2000/svg"><path d="M7.493 15c-.786 0-1.596-.064-2.41-.193-1.434-.226-2.886-.982-3.297-1.21L.71 13.006l1.166-.387c1.275-.422 2.051-.685 3.011-1.095-.961-.47-1.702-1.314-2.059-2.405l-.271-.83.222.034a4.073 4.073 0 0 1-.506-.63c-.46-.703-.703-1.563-.651-2.299l.05-.725.431.169a4.077 4.077 0 0 1-.39-1.102A4.223 4.223 0 0 1 2.156.912L2.53.218l.5.607c1.587 1.92 3.596 3.06 5.98 3.394a3.632 3.632 0 0 1 .218-1.915c.28-.682.781-1.26 1.446-1.672a4.325 4.325 0 0 1 2.522-.624 4.011 4.011 0 0 1 2.475 1.03 8.29 8.29 0 0 0 .906-.306c.199-.075.425-.16.706-.258l1.04-.361-.678 1.95.139-.01 1.109-.05-.656.903a1.746 1.746 0 0 0-.06.087c-.053.08-.119.18-1.019 1.391a1.719 1.719 0 0 0-.317 1.113c.08 1.574-.111 2.998-.57 4.232a7.493 7.493 0 0 1-1.994 2.978c-1.102 1-2.507 1.685-4.177 2.035-.819.172-1.698.258-2.608.258z" fill="#FFC000"/></svg>