<?xml version="1.0" standalone="no"?>
<!DOCTYPE svg PUBLIC "-//W3C//DTD SVG 1.1//EN" "http://www.w3.org/Graphics/SVG/1.1/DTD/svg11.dtd" >
<svg xmlns="http://www.w3.org/2000/svg" xmlns:xlink="http://www.w3.org/1999/xlink" version="1.1">
<metadata>
Created by FontForge 20170731 at Thu Mar 22 05:50:24 1928
 By Aleksey,,,
(c)1991,1993 Tilde Ltd. AG Fonts collection.
</metadata>
<defs>
<font id="AGFriquer-Bold" horiz-adv-x="580" >
  <font-face 
    font-family="AGFriquer"
    font-weight="700"
    font-stretch="normal"
    units-per-em="1000"
    panose-1="0 0 0 0 0 0 0 0 0 0"
    ascent="800"
    descent="-200"
    x-height="460"
    cap-height="658"
    bbox="-50 -211 1155 878"
    underline-thickness="20"
    underline-position="-163"
    unicode-range="U+0020-2122"
  />
<missing-glyph horiz-adv-x="800" 
d="M50 0v800h700v-800h-700zM700 50v700h-600v-700h600z" />
    <glyph glyph-name=".notdef" horiz-adv-x="800" 
d="M50 0v800h700v-800h-700zM700 50v700h-600v-700h600z" />
    <glyph glyph-name=".null" horiz-adv-x="0" 
 />
    <glyph glyph-name="nonmarkingreturn" horiz-adv-x="300" 
 />
    <glyph glyph-name="space" unicode=" " horiz-adv-x="300" 
 />
    <glyph glyph-name="exclam" unicode="!" horiz-adv-x="340" 
d="M247 209h-149l-25 449h200zM83 79q0 41 27.5 69.5t68.5 28.5q39 0 66 -27t27 -67q0 -41 -28.5 -68.5t-69.5 -27.5q-37 0 -64 27t-27 65z" />
    <glyph glyph-name="quotedbl" unicode="&#x22;" horiz-adv-x="320" 
d="M50 658h82v-231h-82v231zM188 658h82v-231h-82v231z" />
    <glyph glyph-name="numbersign" unicode="#" horiz-adv-x="560" 
d="M494 208h-101l-31 -208h-88l31 208h-84l-31 -208h-87l31 208h-98v86h111l14 82h-98v87h110l29 195h85l-28 -195h84l29 195h88l-29 -195h88v-87h-101l-11 -82h87v-86zM246 376l-11 -82h82l14 82h-85z" />
    <glyph glyph-name="dollar" unicode="$" horiz-adv-x="560" 
d="M57 185q83 -67 187 -67q39 0 62 11q32 16 32 51q0 42 -70 77q-116 57 -130 68q-71 53 -71 137q0 73 55 120q50 42 127 49v78h78v-78q55 -5 108 -24v-103q-26 17 -60.5 29t-64.5 12q-29 0 -53 -14.5t-24 -42.5q0 -24 22 -41q11 -8 44 -23l69 -33q63 -29 95 -66
q39 -45 39 -107q0 -77 -49 -128t-126 -62v-96h-78v96q-84 0 -161 30z" />
    <glyph glyph-name="percent" unicode="%" horiz-adv-x="820" 
d="M265 0h-88l376 658h90zM516 53q-20 28 -29.5 67t-9.5 79q0 80 38 137q44 66 122 66q76 0 119 -64q37 -55 37 -135q0 -41 -7.5 -75t-27.5 -63q-21 -34 -54 -53.5t-72 -19.5q-33 0 -64 16.5t-52 44.5zM688 206q0 46 -7 75q-12 50 -44 50q-26 0 -40.5 -36.5t-14.5 -102.5
q0 -47 7 -76q13 -53 45 -53q31 0 45 59q9 39 9 84zM62 316q-20 28 -29.5 67t-9.5 79q0 81 38 138q44 66 122 66q77 0 119 -64q37 -56 37 -136q0 -40 -7.5 -74.5t-26.5 -63.5q-22 -33 -55 -52.5t-72 -19.5q-33 0 -64.5 16.5t-51.5 43.5zM234 471q0 45 -7 74q-12 50 -44 50
q-26 0 -40.5 -36.5t-14.5 -102.5q0 -47 7 -76q13 -53 45 -53q24 0 39 39t15 105z" />
    <glyph glyph-name="ampersand" unicode="&#x26;" horiz-adv-x="820" 
d="M474 293q91 -90 175 -156q100 -78 197 -126l-170 -16q-68 0 -117 16t-94 59q-39 -46 -92 -66q-46 -17 -114 -17q-44 0 -83 9.5t-75 33.5t-57.5 62t-21.5 82q0 46 28 90q35 54 117 111q-45 51 -62 86t-17 64q0 73 61 112q52 33 129 33q36 0 61.5 -5.5t53.5 -23t45.5 -46
t17.5 -62.5q0 -35 -13 -61q-16 -32 -69 -79zM245 293q-21 -17 -31 -39.5t-10 -51.5q0 -49 29 -81t77 -32q28 0 49.5 11.5t38.5 35.5zM333 526q0 19 -13 32t-32 13q-15 0 -26 -9t-11 -25q0 -15 16 -36q2 -3 29 -33q17 14 25 25q12 16 12 33z" />
    <glyph glyph-name="quotesingle" unicode="'" horiz-adv-x="200" 
d="M59 427v231h82v-231h-82z" />
    <glyph glyph-name="parenleft" unicode="(" horiz-adv-x="280" 
d="M191 -121q-65 83 -99.5 186t-34.5 211q0 104 35.5 211t98.5 187h81q-48 -88 -73 -189.5t-25 -203.5q0 -215 98 -402h-81z" />
    <glyph glyph-name="parenright" unicode=")" horiz-adv-x="280" 
d="M93 674q63 -80 98.5 -186.5t35.5 -211.5q0 -108 -34.5 -211t-99.5 -186h-81q98 187 98 402q0 104 -24.5 204t-73.5 189h81z" />
    <glyph glyph-name="asterisk" unicode="*" horiz-adv-x="420" 
d="M167 510l-1 7q-29 9 -60 9q-16 0 -38 -5l33 93q13 -16 33.5 -28t44.5 -20l6 3q0 27 -5.5 47.5t-20.5 41.5h100q-12 -16 -17.5 -40t-5.5 -47l4 -5q37 12 53 23.5t25 28.5l33 -91l-27 2q-15 0 -30.5 -3.5t-39.5 -10.5l12 -15q17 -20 28 -28q15 -12 36 -19l-80 -58
q-2 23 -11 43t-25 42l-6 2q-14 -20 -23 -41t-13 -45l-79 57q22 8 34.5 16.5t27.5 25.5z" />
    <glyph glyph-name="plus" unicode="+" horiz-adv-x="600" 
d="M257 277v191h85v-191h191v-86h-191v-191h-85v191h-191v86h191z" />
    <glyph glyph-name="comma" unicode="," horiz-adv-x="280" 
d="M40 -122q35 32 54 56q26 33 36 65q-35 0 -60 25t-25 60q0 39 28 66t67 27q41 0 67.5 -29.5t26.5 -71.5q0 -37 -22 -83q-18 -37 -47 -73q-18 -23 -25 -29q-18 -16 -54 -16z" />
    <glyph glyph-name="hyphen" unicode="-" horiz-adv-x="440" 
d="M160 301h-14q-15 0 -21 -4t-17.5 -20.5t-16.5 -23.5l-51 -73q55 15 121 15h119h14q15 0 21 4t17.5 20.5t16.5 23.5l51 73q-55 -15 -121 -15h-119z" />
    <glyph glyph-name="period" unicode="." horiz-adv-x="280" 
d="M45 79q0 41 27.5 69.5t68.5 28.5q39 0 66 -27t27 -67q0 -41 -28.5 -68.5t-69.5 -27.5q-37 0 -64 27t-27 65z" />
    <glyph glyph-name="slash" unicode="/" horiz-adv-x="440" 
d="M319 670h117l-313 -796h-120z" />
    <glyph glyph-name="zero" unicode="0" horiz-adv-x="560" 
d="M79 95q-31 46 -46.5 109t-15.5 124q0 60 13.5 118t42.5 108q34 55 90 87.5t120 32.5q121 0 194 -101q36 -50 51 -108.5t15 -129.5q0 -66 -14 -124t-46 -107q-35 -53 -88 -85t-114 -32q-60 0 -114 29t-88 79zM367 348q0 79 -11 125q-20 84 -74 84q-24 0 -45 -24
q-17 -19 -28 -49t-14.5 -73t-3.5 -94q0 -73 13 -125q21 -85 73 -85q53 0 76 99q14 61 14 142z" />
    <glyph glyph-name="one" unicode="1" horiz-adv-x="560" 
d="M375 138q0 -56 5 -76q10 -41 46 -59l-287 -3q40 27 52 63q8 24 8 80v342l-99 26q93 30 150 62q74 41 122 101z" />
    <glyph glyph-name="two" unicode="2" horiz-adv-x="560" 
d="M101 641q81 33 176 33q81 0 141 -41q68 -47 68 -125q0 -46 -26 -104q-9 -20 -52 -97l-117 -184l-12 -18q16 -4 37.5 -6t41.5 -2q49 0 86.5 11t91.5 37l-46 -145h-473l153 251l77 140q18 32 27 54q15 35 15 59q0 30 -20 48t-51 18t-68.5 -13.5t-90.5 -52.5z" />
    <glyph glyph-name="three" unicode="3" horiz-adv-x="560" 
d="M129 407h21q62 0 94 15q46 22 46 77q0 40 -28 60t-69 20q-30 0 -70 -13q-31 -10 -66 -28l33 112q44 12 82.5 18t81.5 6q41 0 75.5 -7.5t69 -26.5t57 -50.5t22.5 -70.5q0 -49 -31.5 -86.5t-79.5 -50.5q67 -15 109 -61.5t42 -113.5q0 -109 -99 -169q-83 -51 -199 -51
q-36 0 -74.5 5t-77.5 14l-28 121q76 -42 155 -42q55 0 93 34t38 89q0 53 -40 84q-23 16 -48 21t-62 5h-33h-14v89z" />
    <glyph glyph-name="four" unicode="4" 
d="M-25 142l277 516h208v-428q35 0 62 7.5t51 27.5l-37 -123h-77v-10q0 -53 5.5 -75.5t34.5 -53.5l-263 -3q24 18 35.5 41.5t11.5 82.5v18h-308zM283 535l-163 -305h163v305z" />
    <glyph glyph-name="five" unicode="5" horiz-adv-x="560" 
d="M43 124q36 -20 78 -32.5t81 -12.5q60 0 98.5 35.5t38.5 95.5q0 68 -41.5 101.5t-112.5 33.5q-29 0 -60.5 -5t-60.5 -13l17 331h397v-131q-28 21 -71 28t-91 7q-18 0 -47 -2.5t-35 -2.5l-6 -126q27 8 61 8q103 0 171 -57q73 -62 73 -163q0 -49 -23.5 -95.5t-63 -77
t-89.5 -45t-104 -14.5q-52 0 -111 9q-14 2 -66 12z" />
    <glyph glyph-name="six" unicode="6" horiz-adv-x="560" 
d="M457 591q-259 -70 -259 -334q0 -64 17 -107q25 -64 78 -64q43 0 63 45q15 34 15 83q0 53 -19 89q-25 46 -74 46q-23 0 -41 -10l70 99l34 2q92 0 148 -61t56 -154q0 -108 -72.5 -173t-182.5 -65q-126 0 -197.5 77t-71.5 203q0 89 36.5 162.5t107.5 131.5q65 54 149 83.5
t181 29.5z" />
    <glyph glyph-name="seven" unicode="7" horiz-adv-x="560" 
d="M548 658l-195 -515q-8 -21 -16.5 -44t-8.5 -41q0 -16 8.5 -30.5t22.5 -24.5l-259 -3l226 551q-26 6 -59.5 9t-61.5 3q-57 0 -98 -9.5t-83 -36.5l48 141h476z" />
    <glyph glyph-name="eight" unicode="8" horiz-adv-x="560" 
d="M130 334q-47 27 -72 64q-28 41 -28 93q0 46 22 84t60 59.5t81.5 30.5t91.5 9q41 0 81 -7.5t71 -24.5q40 -22 64.5 -59.5t24.5 -82.5q0 -46 -26.5 -80t-71.5 -50q60 -29 90 -68q34 -45 34 -108q0 -105 -83 -160q-71 -47 -182 -47q-52 0 -95.5 8.5t-87 31.5t-69 62.5
t-25.5 89.5q0 57 32 96.5t88 58.5zM201 289q-51 -30 -51 -92q0 -50 34 -83t85 -33q39 0 69.5 21t30.5 59q0 36 -37 63q-16 12 -69 37zM352 410q15 11 23.5 30.5t8.5 39.5q0 44 -27.5 74.5t-72.5 30.5q-30 0 -52.5 -16t-22.5 -46q0 -36 43 -65q15 -10 76 -37z" />
    <glyph glyph-name="nine" unicode="9" horiz-adv-x="560" 
d="M102 63q259 70 259 337q0 65 -17 110q-24 64 -77 64q-44 0 -64 -45q-15 -34 -15 -84q0 -54 19 -90q25 -47 74 -47q23 0 41 10l-70 -100l-22 -2q-45 0 -81 11t-66 39q-35 31 -52 74.5t-17 92.5q0 109 73 175t182 66q125 0 197 -78t72 -205q0 -90 -36.5 -164.5
t-107.5 -132.5q-65 -55 -146 -85t-166 -30l-18 1z" />
    <glyph glyph-name="colon" unicode=":" horiz-adv-x="280" 
d="M46 342q0 41 27.5 69.5t68.5 28.5q39 0 66 -27t27 -67q0 -41 -28.5 -68.5t-69.5 -27.5q-37 0 -64 27t-27 65zM46 79q0 41 27.5 69.5t68.5 28.5q39 0 66 -27t27 -67q0 -41 -28.5 -68.5t-69.5 -27.5q-37 0 -64 27t-27 65z" />
    <glyph glyph-name="semicolon" unicode=";" horiz-adv-x="280" 
d="M36 -122q35 32 54 56q26 33 36 65q-35 0 -60 25t-25 60q0 39 28 66t67 27q41 0 67.5 -29.5t26.5 -71.5q0 -37 -22 -83q-18 -37 -47 -73q-18 -23 -25 -29q-18 -16 -54 -16zM41 342q0 41 27.5 69.5t68.5 28.5q39 0 66 -27t27 -67q0 -41 -28.5 -68.5t-69.5 -27.5
q-37 0 -64 27t-27 65z" />
    <glyph glyph-name="less" unicode="&#x3c;" horiz-adv-x="600" 
d="M549 0l-498 199v71l498 200v-74l-414 -162l414 -160v-74z" />
    <glyph glyph-name="equal" unicode="=" horiz-adv-x="600" 
d="M533 349v-86h-467v86h467zM533 205v-86h-467v86h467z" />
    <glyph glyph-name="greater" unicode="&#x3e;" horiz-adv-x="600" 
d="M465 234l-414 162v74l498 -200v-71l-498 -199v74z" />
    <glyph glyph-name="question" unicode="?" horiz-adv-x="460" 
d="M117 209l-3 36q0 52 39 97q85 98 85 130q0 42 -31.5 66t-76.5 24q-25 0 -51.5 -9t-51.5 -24l41 123q28 13 57 17.5t68 4.5q48 0 86 -10t72 -35q72 -55 72 -139q0 -88 -89 -156t-89 -101l4 -24h-132zM97 79q0 41 27.5 69.5t68.5 28.5q39 0 66 -27t27 -67
q0 -41 -28.5 -68.5t-69.5 -27.5q-37 0 -64 27t-27 65z" />
    <glyph glyph-name="at" unicode="@" horiz-adv-x="780" 
d="M506 286q-4 -7 -9.5 -22.5t-5.5 -23.5t6.5 -12.5t16.5 -4.5q26 0 55 18q22 14 44 38q48 56 48 122q0 95 -77 148q-36 27 -83.5 42t-94.5 15q-122 0 -208.5 -81.5t-86.5 -194.5q0 -119 87 -196.5t215 -77.5q81 0 149 31t109 92h66q-35 -94 -129 -145q-86 -47 -198 -47
q-75 0 -140 22t-119.5 69.5t-85.5 114t-31 137.5q0 69 28 131.5t81 112.5t121.5 75t146.5 25q62 0 118.5 -16.5t104 -52.5t76 -89t28.5 -111q0 -102 -72 -177q-75 -79 -183 -79q-28 0 -48.5 12t-20.5 37q-26 -20 -53.5 -33t-57.5 -13q-52 0 -79.5 32.5t-27.5 82.5
q0 86 58 164q64 86 153 86q21 0 38 -6.5t33 -21.5l6 13h111zM443 427q0 16 -15 16q-36 0 -78 -83q-38 -75 -38 -116q0 -21 18 -21q28 0 72 89q41 84 41 115z" />
    <glyph glyph-name="A" unicode="A" horiz-adv-x="720" 
d="M217 199l-24 -68q-5 -16 -11.5 -38t-6.5 -34q0 -15 5.5 -25.5t30.5 -30.5l-205 -3q27 27 42 54q12 21 27 64l138 399q9 25 13 39q9 29 9 41q0 19 -10 32.5t-28 25.5l245 3l189 -515q21 -55 22 -58q18 -39 64 -82v-3h-302q20 16 30.5 29t10.5 35q0 14 -1 19q-4 11 -7 19
l-33 97h-198zM313 489l-67 -197h136z" />
    <glyph glyph-name="B" unicode="B" 
d="M317 658q50 0 80 -5.5t59 -27.5q33 -26 50 -56t17 -68q0 -48 -28.5 -79.5t-77.5 -47.5q64 -9 104 -57t40 -114q0 -93 -71 -155q-36 -31 -82 -41q-33 -7 -96 -7h-293q26 18 34 45t8 65v33v373v33q0 50 -10 71.5t-32 34.5zM246 406q14 -4 19 -4q33 0 53 26t20 60
q0 32 -16 54.5t-47 22.5q-14 0 -29 -6v-153zM246 106q18 -12 44 -12q46 0 70 34q21 30 21 78q0 110 -111 110h-24v-210z" />
    <glyph glyph-name="C" unicode="C" horiz-adv-x="660" 
d="M565 521q-77 52 -167 52q-95 0 -139 -70q-37 -59 -37 -161q0 -110 52 -177q57 -73 164 -73q54 0 112 19q47 15 104 46l-50 -146q-48 -13 -94.5 -18.5t-104.5 -5.5q-83 0 -142 17q-69 20 -126.5 69t-87.5 116t-30 145q0 71 28.5 138t81.5 113t125.5 67.5t152.5 21.5
l151 -13z" />
    <glyph glyph-name="D" unicode="D" horiz-adv-x="680" 
d="M58 450v34v16v15v13v12q0 20 -1 37t-4 27q-7 36 -37 51l212 3q118 0 156 -5q83 -11 143 -53q66 -46 100.5 -118.5t34.5 -155.5q0 -74 -31 -143.5t-89 -116t-141 -59.5q-45 -7 -160 -7h-225q26 18 34 45t8 65v33v307zM243 107q11 -4 26 -6t28 -2q48 0 79.5 16.5t56.5 57.5
q18 31 26.5 72t8.5 81q0 93 -33 152q-41 74 -126 74q-14 0 -30 -1.5t-36 -5.5v-438z" />
    <glyph glyph-name="E" unicode="E" horiz-adv-x="500" 
d="M240 111q21 -8 48 -11.5t57 -3.5q49 0 80 10q39 13 66 45h5l-40 -151h-443q25 18 35 49q7 23 7 60v33v374v33q0 50 -10 71.5t-32 34.5l350 3h11q21 0 31 5l3 -145q-17 27 -43.5 34.5t-69.5 7.5h-23h-32v-162h93q26 0 37 5h5v-140h-5q-6 19 -22.5 27.5t-60.5 8.5h-14h-33
v-188z" />
    <glyph glyph-name="F" unicode="F" horiz-adv-x="420" 
d="M242 146q0 -57 5 -78q9 -37 39 -65l-271 -3q26 18 34 45t8 65v33v373v33q0 50 -10 71.5t-32 34.5l350 3q11 0 22 0.5t20 5.5l3 -145q-16 26 -42 33.5t-66 7.5h-28h-32v-162h73q26 0 37 5h5v-140h-5q-8 25 -29.5 30.5t-60.5 5.5l-20 1v-154z" />
    <glyph glyph-name="G" unicode="G" horiz-adv-x="620" 
d="M607 18q-56 -15 -106.5 -23t-106.5 -8q-164 0 -266 86q-110 92 -110 254q0 158 106 252.5t266 94.5q45 0 79 -4t76 -16v-139h-5q-24 23 -66.5 38t-80.5 15q-94 0 -142 -60q-44 -55 -44 -152q0 -110 39 -179q49 -86 149 -86q27 0 40 3v148q0 40 -6 58.5t-32 38.5l210 3
v-324z" />
    <glyph glyph-name="H" unicode="H" horiz-adv-x="660" 
d="M239 143v-33q0 -50 10.5 -71.5t31.5 -35.5l-269 -3q26 18 34 45t8 65v33v372v33q0 50 -10.5 71.5t-31.5 35.5l269 3q-26 -18 -34 -42.5t-8 -61.5v-39v-114h179v114v33q0 50 -10.5 71.5t-31.5 35.5l269 3q-26 -18 -34 -45t-8 -65v-33v-372v-33q0 -50 10.5 -71.5
t31.5 -35.5l-269 -3q26 18 34 45t8 65v33v157h-179v-157z" />
    <glyph glyph-name="I" unicode="I" horiz-adv-x="300" 
d="M242 142v-33q0 -50 10 -71t32 -35l-269 -3q25 18 35 49q7 23 7 60v33v373v33q0 50 -10.5 71.5t-31.5 35.5l269 3q-26 -18 -34 -45t-8 -65v-33v-373z" />
    <glyph glyph-name="J" unicode="J" horiz-adv-x="300" 
d="M59 515v33q0 50 -10.5 71.5t-31.5 35.5l269 3q-26 -18 -34 -45t-8 -65v-33v-488q0 -68 -14 -99q-17 -39 -72 -73q-46 -29 -85 -44q-50 -20 -93 -20q34 45 56 99q17 42 20 80t3 109v436z" />
    <glyph glyph-name="K" unicode="K" horiz-adv-x="660" 
d="M607 70q13 -22 26 -37.5t32 -29.5q-23 0 -44 -0.5t-40 -0.5q-112 0 -148 18.5t-80 93.5l-104 179v-150v-33q0 -50 10.5 -71.5t31.5 -35.5l-269 -3v3q26 16 34 43t8 64v33v372v33q0 50 -10.5 71.5t-31.5 35.5l269 3q-26 -18 -34 -45t-8 -65v-33v-153l125 159q24 29 29 37
q17 25 17 43q0 17 -12 31t-28 23l245 3l-221 -267z" />
    <glyph glyph-name="L" unicode="L" horiz-adv-x="500" 
d="M243 113q22 -10 48 -13.5t57 -3.5q44 0 76.5 9.5t65.5 34.5l-38 -140h-436q25 18 35 49q7 23 7 60v33v373v33q0 50 -10.5 71.5t-31.5 35.5l269 3q-26 -18 -34 -45t-8 -66v-33v-401z" />
    <glyph glyph-name="M" unicode="M" horiz-adv-x="880" 
d="M561 655l239 3q-24 -25 -26 -28q-10 -14 -10 -32q1 -7 1 -11l47 -433q6 -59 13 -82q12 -43 42 -69l-264 -3q15 17 24.5 36.5t7.5 37.5l-36 351l-133 -436q-22 5 -46.5 17.5t-48.5 28.5q-30 20 -49 54q-9 17 -29 70l-98 266l-37 -345q-2 -25 9.5 -45t34.5 -32l-197 -3
q28 25 40 66q6 20 12 77l48 420q1 8 1 12q0 46 -39 80l230 3l148 -386z" />
    <glyph glyph-name="N" unicode="N" horiz-adv-x="700" 
d="M633 -21q-25 0 -62 14q-24 9 -60 27t-62 41q-21 18 -78 93l-192 256l-3 -264q0 -57 6.5 -85.5t37.5 -57.5l-193 -3q30 30 39 67q6 24 6 79v345q0 63 -9 91.5t-49 72.5l208 3l307 -405v259q0 57 -5 78q-8 36 -39 65l192 3q-29 -30 -36.5 -61t-7.5 -85v-533z" />
    <glyph glyph-name="O" unicode="O" horiz-adv-x="780" 
d="M401 674q163 0 261 -88q103 -92 103 -254q0 -158 -112 -254q-106 -91 -264 -91q-157 0 -259 93q-105 96 -105 251q0 154 112 251q107 92 264 92zM266 173q23 -39 58 -62.5t77 -23.5q39 0 74 19t59 51q21 28 29 62t8 78q0 105 -39 181q-49 96 -143 96q-82 0 -129 -69
q-41 -61 -41 -147q0 -43 13 -95.5t34 -89.5z" />
    <glyph glyph-name="P" unicode="P" horiz-adv-x="520" 
d="M233 145q0 -56 5 -77q9 -37 39 -65l-267 -3q26 18 34 45t8 65v33v372v33q0 50 -10.5 71.5t-31.5 35.5l236 3q69 0 107 -3.5t72 -20.5q95 -47 95 -156q0 -100 -75 -152q-65 -45 -170 -45h-13h-11q-8 2 -12 2q47 20 72 57.5t25 88.5q0 59 -22 92q-26 38 -81 38v-414z" />
    <glyph glyph-name="Q" unicode="Q" horiz-adv-x="720" 
d="M353 -13q-143 0 -235.5 101.5t-92.5 244.5q0 152 99.5 246.5t253.5 94.5q70 0 129.5 -21.5t106.5 -68.5t73.5 -114t26.5 -135q0 -79 -30.5 -151.5t-88.5 -121.5q83 -81 117 -105q73 -52 144 -52q-33 -29 -80 -47.5t-90 -18.5q-63 0 -144 54q-35 23 -125 99zM529 285
q0 47 -8 92t-26 88q-22 53 -49 78q-34 32 -85 32q-79 0 -117 -63q-31 -51 -31 -136q0 -106 35 -184q47 -106 140 -106q76 0 112 65q29 52 29 134z" />
    <glyph glyph-name="R" unicode="R" horiz-adv-x="620" 
d="M240 143v-33q0 -50 10.5 -71.5t31.5 -35.5l-269 -3q26 18 34 45t8 65v33v372v33q0 50 -10.5 71.5t-31.5 35.5l296 3q52 0 77.5 -3t56.5 -20q89 -48 89 -152q0 -55 -32.5 -95t-86.5 -63l119 -199q21 -36 44.5 -66.5t51.5 -53.5l-138 -9q-45 0 -62 4q-42 10 -72 63
l-116 218v-139zM240 561v-226q46 8 77 44t31 83q0 26 -9.5 48t-30.5 37q-11 7 -27 10.5t-31 3.5h-10z" />
    <glyph glyph-name="S" unicode="S" horiz-adv-x="520" 
d="M10 167q42 -34 99.5 -56t110.5 -22q42 0 70 14q36 18 36 57q0 47 -79 87q-131 66 -147 78q-79 60 -79 156q0 92 74 145q35 25 80.5 36.5t93.5 11.5q90 0 168 -30v-117q-35 23 -69 35t-72 12q-34 0 -60.5 -15.5t-26.5 -48.5q0 -31 33 -53q13 -9 61.5 -30t69.5 -32
q37 -19 64 -43q38 -33 56 -68.5t18 -82.5q0 -103 -80 -162q-41 -30 -87.5 -41t-106.5 -11q-101 0 -194 36z" />
    <glyph glyph-name="T" unicode="T" horiz-adv-x="500" 
d="M336 145q0 -56 5 -77q9 -37 39 -65l-271 -3q26 18 34 45t8 65v33v402q-9 2 -24.5 3t-25.5 1q-59 0 -113 -37l-7 -5l39 154l19 -3h464l-34 -151q-11 24 -31.5 34t-50.5 10q-16 0 -27 -1t-24 -5v-400z" />
    <glyph glyph-name="U" unicode="U" horiz-adv-x="680" 
d="M427 81q-29 -43 -74.5 -68.5t-99.5 -25.5q-44 0 -80.5 13.5t-66 44t-38 65t-8.5 90.5v315v33q0 50 -10.5 71.5t-31.5 35.5l266 3q-26 -18 -34 -45t-8 -65v-33v-273q0 -42 3 -65t19 -45q11 -15 28 -23t37 -8q60 0 83 62q15 40 15 112v240v33q0 50 -10.5 71.5t-31.5 35.5
l267 3q-26 -18 -34 -45t-8 -65v-33v-372v-33q0 -50 10.5 -71.5t31.5 -35.5l-225 -3v81z" />
    <glyph glyph-name="V" unicode="V" horiz-adv-x="640" 
d="M497 531q7 21 10.5 33t3.5 25q0 24 -10.5 38t-33.5 28l179 3l-231 -679q-33 11 -65 21q-33 12 -61 29q-39 23 -56.5 48t-35.5 72l-152 419q-11 31 -19 47q-12 22 -30 40l226 3l-1 -8q0 -20 17 -72q11 -31 14 -41l127 -368z" />
    <glyph glyph-name="W" unicode="W" horiz-adv-x="960" 
d="M381 -11q-25 3 -52.5 13.5t-52.5 25.5q-45 26 -65 60q-14 23 -32 84l-109 374q-11 39 -23 60q-15 27 -42 49l217 3l122 -456l73 274q4 17 9.5 41t5.5 35q0 24 -13.5 56.5t-31.5 46.5l210 3q-4 -14 -4 -20q0 -20 3.5 -37t19.5 -71l96 -328l87 298q9 29 11 39q6 24 6 41
q0 21 -9.5 40t-24.5 35l169 3l-205 -671q-26 6 -50 16t-53 26q-35 19 -55 48q-16 23 -29 67l-74 242z" />
    <glyph glyph-name="X" unicode="X" horiz-adv-x="660" 
d="M557 146q45 -74 61 -95q21 -28 47 -48v-3h-235l-143 256l-82 -128q-8 -14 -15.5 -29t-7.5 -29q0 -20 8 -38.5t23 -28.5l-221 -3l237 344l-125 216q-27 47 -42.5 64t-37.5 31l235 3l115 -212l50 77q12 18 22.5 40.5t10.5 38.5t-11 32t-26 21l219 3l-209 -302z" />
    <glyph glyph-name="Y" unicode="Y" horiz-adv-x="560" 
d="M389 146q0 -57 6.5 -85.5t37.5 -57.5l-271 -3q25 18 35 50q7 24 7 61v33v154l-149 280q-11 20 -19 33q-18 29 -44 44l232 3l116 -239l56 114q10 21 16.5 37.5t6.5 31.5q0 35 -31 53l180 3l-179 -360v-152z" />
    <glyph glyph-name="Z" unicode="Z" horiz-adv-x="600" 
d="M259 105l121 -9q67 0 109.5 12.5t102.5 49.5l-56 -158h-538l298 559l-79 5q-48 0 -87.5 -11.5t-86.5 -36.5l53 142h459z" />
    <glyph glyph-name="bracketleft" unicode="[" horiz-adv-x="300" 
d="M194 -55h72v-66h-220q20 17 27 41.5t7 56.5v21v559v16q0 36 -5 55q-8 29 -29 46h220v-66h-72v-663z" />
    <glyph glyph-name="backslash" unicode="\" 
d="M75 670h92l281 -670h-93z" />
    <glyph glyph-name="bracketright" unicode="]" horiz-adv-x="300" 
d="M102 608h-72v66h220q-23 -19 -28.5 -46t-5.5 -71v-559q0 -48 4.5 -73t29.5 -46h-220v66h72v663z" />
    <glyph glyph-name="asciicircum" unicode="^" horiz-adv-x="600" 
d="M31 160l226 498h82l230 -498h-83l-189 408l-183 -408h-83z" />
    <glyph glyph-name="underscore" unicode="_" horiz-adv-x="740" 
d="M740 -74v-56h-740v56h740z" />
    <glyph glyph-name="grave" unicode="`" horiz-adv-x="420" 
d="M358 542l-58 -35l-234 87l50 86z" />
    <glyph glyph-name="a" unicode="a" horiz-adv-x="520" 
d="M491 -10l-40 -3q-43 0 -75 9.5t-60.5 36t-36 54t-7.5 73.5v22v33l-32 -15q-27 -13 -38 -22q-19 -16 -19 -38q0 -27 17 -46t44 -19l20 2l-43 -87l-51 -3q-29 0 -57.5 5.5t-49.5 18.5q-30 18 -48 50t-18 67q0 79 71 117q26 14 133 41q71 18 71 50q0 21 -20.5 31.5
t-43.5 10.5q-31 0 -63.5 -9t-62.5 -24l47 114q28 7 59.5 10.5t66.5 3.5q39 0 75.5 -9t63.5 -29q34 -26 46 -69q9 -32 9 -85v-80q0 -67 9 -87q16 -37 74 -37z" />
    <glyph glyph-name="b" unicode="b" horiz-adv-x="600" 
d="M227 84q10 -3 15 -4t15 -1q62 0 92 43q27 38 27 103q0 69 -28 110q-33 48 -97 48l47 85q12 4 21.5 5t24.5 1q41 0 82.5 -17.5t71.5 -47.5t46 -72.5t16 -88.5q0 -123 -91 -198q-43 -35 -99.5 -49t-122.5 -14q-54 0 -105 6.5t-112 20.5q17 17 20.5 32.5t3.5 45.5v456v16
q0 43 -7.5 58.5t-26.5 32.5l132 3q26 0 41.5 2.5t30.5 13.5z" />
    <glyph glyph-name="c" unicode="c" horiz-adv-x="500" 
d="M429 348q-27 17 -51 25t-54 8q-49 0 -76 -35q-15 -19 -20.5 -44t-5.5 -55q0 -34 10.5 -68t31.5 -57q15 -18 39.5 -26.5t51.5 -8.5q34 0 69.5 13t62.5 34l-29 -109q-40 -20 -82 -29t-90 -9q-107 0 -180 63q-77 67 -77 173q0 119 83 187q77 63 199 63q19 0 44 -3
q59 -7 74 -7v-115z" />
    <glyph glyph-name="d" unicode="d" horiz-adv-x="600" 
d="M360 281q0 23 -1.5 35t-10.5 26q-18 29 -54 29q-47 0 -68 -47q-15 -34 -15 -89q0 -35 7 -63.5t25 -50.5q30 -37 77 -37h14l-47 -85q-8 -3 -18 -4.5t-23 -1.5q-95 0 -157.5 69.5t-62.5 165.5q0 101 59 171q63 75 162 75q57 0 113 -34v108q0 43 -4 59q-7 27 -32 48l121 3
h12q26 0 40 2.5t33 13.5l3 -528q0 -57 5 -78q9 -38 39 -65l-217 -3v281z" />
    <glyph glyph-name="e" unicode="e" horiz-adv-x="540" 
d="M476 18q-34 -15 -75.5 -23t-81.5 -8q-60 0 -104 9q-57 12 -96 40q-45 32 -68 84.5t-23 111.5q0 105 70 173t175 68q118 0 177.5 -63.5t59.5 -181.5h-310q0 -65 40.5 -106.5t106.5 -41.5q41 0 81 13.5t87 37.5zM340 313q0 32 -16 52.5t-51 20.5q-32 0 -50.5 -20t-22.5 -53
h140z" />
    <glyph glyph-name="f" unicode="f" horiz-adv-x="340" 
d="M235 111q0 -43 5.5 -65t29.5 -43l-242 -3q21 19 27.5 39.5t6.5 50.5v21v256h-67l67 96v13q0 55 9 83q13 39 47 67t71.5 38t85.5 10q45 0 70 -2.5t51 -11.5l-67 -102q-10 8 -20 12.5t-21 4.5q-34 0 -43.5 -19t-9.5 -54v-18v-21h113v-116q-14 13 -26.5 16.5t-33.5 3.5h-25
h-28v-256z" />
    <glyph glyph-name="g" unicode="g" horiz-adv-x="520" 
d="M488 375h-46q17 -16 27 -39t10 -48q0 -35 -16.5 -63t-46 -50.5t-69.5 -34t-79 -11.5q-19 0 -34.5 -4.5t-15.5 -17.5q0 -12 16 -12l17 1l86 5q33 0 67.5 -6.5t59.5 -20.5q33 -19 52.5 -50t19.5 -69q0 -46 -28 -81t-73 -54q-37 -15 -83.5 -21t-99.5 -6q-39 0 -76 3.5
t-69 11.5q-40 11 -66 33q-32 27 -32 64q0 39 31 63t72 24q45 0 75 -17q-38 -7 -38 -42q0 -32 32 -46q23 -10 61 -10q43 0 71 13q37 17 37 53v8q-1 11 -6 22.5t-18.5 26.5t-31 19.5t-41.5 4.5q-17 0 -46 -2.5t-35 -2.5q-36 0 -57 28q-9 10 -19 29.5t-10 30.5q0 10 15 18
q4 2 23 9l28 11q-54 20 -85 56q-34 40 -34 96q0 82 65 131q60 45 145 45q19 0 36.5 -2.5t41.5 -8.5l212 6zM253 218q30 0 44.5 21t14.5 51q0 37 -12 61q-16 33 -49 33q-30 0 -44 -22.5t-14 -54.5q0 -35 12 -58q16 -31 48 -31z" />
    <glyph glyph-name="h" unicode="h" 
d="M228 431q23 23 56 32.5t69 9.5q43 0 78.5 -13.5t62.5 -44.5q18 -20 23 -43t5 -60v-37v-165v-46q4 -35 35 -61l-243 -3q26 23 32 50q3 13 3 60v157v18q0 18 -1.5 30.5t-6.5 22.5q-16 31 -53 31q-45 0 -56 -40q-2 -7 -3 -21.5t-1 -22.5v-27v-148q0 -56 6.5 -73t27.5 -34
l-241 -3q21 19 27.5 39.5t6.5 49.5v21v438v17q0 42 -7.5 58t-26.5 32l133 3q22 0 38.5 3.5t32.5 12.5z" />
    <glyph glyph-name="i" unicode="i" horiz-adv-x="280" 
d="M155 460q21 0 37.5 3t30.5 12l3 -365q0 -46 4.5 -65.5t30.5 -41.5l-243 -3q26 24 32 51q3 13 3 59v240v17q0 42 -7.5 58t-26.5 32zM39 572q0 41 27 70t68 29q38 0 66 -28t28 -66q0 -41 -28 -69t-70 -28q-37 0 -64 28t-27 64z" />
    <glyph glyph-name="j" unicode="j" horiz-adv-x="260" 
d="M144 460q28 0 43.5 2.5t31.5 12.5l3 -451v-30q0 -55 -8 -82q-12 -41 -50 -66t-90.5 -41t-99.5 -16l5 5q51 54 62 90q8 26 8 109v325v33q0 50 -10 71t-32 35zM35 572q0 41 27 70t68 29q38 0 66 -28t28 -66q0 -41 -28 -69t-70 -28q-37 0 -64 28t-27 64z" />
    <glyph glyph-name="k" unicode="k" horiz-adv-x="560" 
d="M225 262l80 92q10 12 21 24q10 14 10 28q0 17 -10.5 30.5t-26.5 20.5l231 3l-155 -175l132 -206q21 -33 29 -43q17 -20 38 -33q-32 -2 -64 -3q-86 -5 -108 -5q-38 0 -61 28q-6 7 -24 38l-92 152v-102q0 -46 4.5 -66t30.5 -42l-243 -3q26 24 32 51q3 13 3 60v437v16
q0 41 -8 58t-27 33l139 3q37 0 66 16z" />
    <glyph glyph-name="l" unicode="l" horiz-adv-x="280" 
d="M130 658q49 0 90 16l3 -564q0 -46 4.5 -65.5t29.5 -41.5l-241 -3q20 20 27 40.5t7 49.5v20v437v18q0 33 -5 50.5t-27 39.5z" />
    <glyph glyph-name="m" unicode="m" horiz-adv-x="840" 
d="M224 415q43 58 121 58q73 0 120 -58q28 30 64 44t82 14q36 0 66 -8.5t57.5 -30.5t38.5 -52t11 -71v-201q0 -46 4.5 -65.5t30.5 -41.5l-242 -3q21 20 27.5 40t6.5 49v21v165v16q0 37 -7 53q-11 25 -45 25q-38 0 -49 -32q-6 -17 -6 -62v-165q0 -46 4.5 -65.5t30.5 -41.5
l-242 -3q21 20 27.5 40t6.5 49v21v150v21q0 42 -7 59q-12 29 -47 29q-33 0 -45 -26q-8 -18 -8 -56v-27v-150q0 -46 4.5 -65.5t30.5 -41.5l-242 -3q21 20 27.5 40t6.5 49v21v240v17q0 42 -7.5 58t-26.5 32l139 3q35 0 65 15z" />
    <glyph glyph-name="n" unicode="n" 
d="M225 420q21 26 52.5 39.5t70.5 13.5q44 0 79 -13t62 -44q20 -24 27 -52t7 -65v-24v-165v-46q4 -35 35 -61l-243 -3q26 23 32 50q3 13 3 60v169q0 26 -2 38t-12 26q-17 28 -52 28q-29 0 -45 -23q-9 -11 -11.5 -29.5t-2.5 -39.5v-169v-46q4 -35 35 -61l-243 -3q26 23 32 50
q3 13 3 60v240v16q0 41 -8 58t-27 33l134 3q20 0 35 3t36 12z" />
    <glyph glyph-name="o" unicode="o" 
d="M29 226q0 114 72 180.5t188 66.5q53 0 96 -13t80.5 -44.5t59.5 -79.5t22 -100q0 -116 -74.5 -182.5t-191.5 -66.5q-110 0 -181 65t-71 174zM379 215q0 84 -28 126q-24 36 -66 36q-48 0 -70 -40q-18 -33 -18 -85q0 -71 15 -111q23 -61 81 -61q50 0 71 45q15 33 15 90z" />
    <glyph glyph-name="p" unicode="p" horiz-adv-x="600" 
d="M224 412q21 30 55 45.5t73 15.5q99 0 157 -68q55 -65 55 -167q0 -49 -14.5 -95t-44.5 -82q-33 -41 -77.5 -58t-102.5 -17l-43 4l-36 93q7 -2 14 -3t17 -1q58 0 82 45q18 34 18 99q0 56 -14 93q-21 54 -68 54t-62 -39q-9 -23 -9 -79v-350v-46q4 -35 35 -61l-242 -3
q21 19 27.5 39.5t6.5 49.5v21v448v16q0 43 -7.5 58.5t-26.5 32.5l136 3q20 0 36.5 3t31.5 12z" />
    <glyph glyph-name="q" unicode="q" horiz-adv-x="600" 
d="M368 357q-9 5 -23.5 7t-28.5 2q-52 0 -78.5 -40.5t-26.5 -94.5q0 -61 26 -104q31 -51 87 -51q8 1 12 1l-46 -84q-21 -6 -44 -6q-99 0 -158.5 65.5t-59.5 165.5q0 117 90 189q39 33 82.5 43t105.5 10h269q-21 -19 -27.5 -39.5t-6.5 -49.5v-21v-448q0 -46 4.5 -65.5
t29.5 -41.5l-241 -3q20 20 27 40.5t7 49.5v20v455z" />
    <glyph glyph-name="r" unicode="r" horiz-adv-x="360" 
d="M228 402q11 35 39.5 53t68.5 18l37 -3v-122q-13 3 -19 4q-19 4 -33 4q-48 0 -79 -34q-9 -10 -11.5 -19.5t-2.5 -24.5v-17v-151q0 -46 4.5 -66t29.5 -41l-241 -3q21 19 27.5 39.5t6.5 49.5v21v240v17q0 42 -7.5 58t-26.5 32l140 3q38 0 64 15z" />
    <glyph glyph-name="s" unicode="s" horiz-adv-x="480" 
d="M16 125q41 -25 86.5 -40t90.5 -15q28 0 46 8q25 11 25 36q0 26 -62 53q-99 44 -115 54q-62 40 -62 99q0 40 18.5 70t52.5 49.5t71.5 26.5t83.5 7q37 0 75.5 -4.5t79.5 -14.5v-104q-59 39 -128 39q-23 0 -41 -6.5t-18 -25.5q0 -20 19 -32q9 -6 37.5 -14.5t56.5 -16.5
q29 -10 53 -26q35 -23 55.5 -51.5t20.5 -65.5q0 -90 -87 -132q-66 -32 -168 -32q-37 0 -77 6t-91 17z" />
    <glyph glyph-name="t" unicode="t" horiz-adv-x="320" 
d="M38 368h-60v69q63 0 110.5 50t53.5 116h69v-143h111v-122q-18 19 -32.5 24t-38.5 5h-15h-25v-187q0 -36 4.5 -52t26.5 -31q16 -11 35.5 -14.5t44.5 -3.5l-44 -85q-13 0 -41 -3.5t-38 -3.5q-34 0 -68 9.5t-58 30.5t-29.5 49.5t-5.5 78.5v213z" />
    <glyph glyph-name="u" unicode="u" 
d="M230 218q-1 -21 -1 -33q0 -56 14.5 -75.5t42.5 -19.5q32 0 47 22q9 13 11.5 26.5t2.5 34.5v15v162v17q0 41 -8.5 57.5t-26.5 32.5l137 3q20 0 37 3t31 12l3 -365q0 -56 6.5 -73t27.5 -34l-207 -3v53q-48 -66 -137 -66q-33 0 -61 8.5t-53.5 30.5t-32 51.5t-6.5 78.5v194
v17q0 41 -8.5 57.5t-26.5 32.5l138 3q21 0 37 3t30 12z" />
    <glyph glyph-name="v" unicode="v" horiz-adv-x="460" 
d="M319 343q10 26 12 31q6 19 6 34q0 29 -23 49l143 3l-185 -484q-14 1 -23 4.5t-34 17.5q-54 29 -72.5 52t-41.5 85l-83 222q-16 42 -22 54q-13 26 -35 46l124 3h19q17 0 28 2.5t21 12.5l108 -291z" />
    <glyph glyph-name="w" unicode="w" horiz-adv-x="800" 
d="M358 366q-8 63 -53 91l199 3l88 -261l49 132q4 10 11 31t7 31q0 16 -9 35.5t-21 28.5l158 3l-184 -476q-27 6 -60 20t-50 29q-24 21 -50 95q-15 44 -19 58l-18 53l-102 -255q-30 10 -46 16q-25 10 -44 22q-24 16 -32 26t-18 37l-90 240q-19 51 -27 69q-18 40 -40 63
l116 3h11q24 0 37.5 2.5t29.5 12.5l97 -277z" />
    <glyph glyph-name="x" unicode="x" horiz-adv-x="520" 
d="M452 78q23 -35 27 -41q16 -22 35 -34l-220 -3q-7 20 -12 31.5t-31 56.5l-36 63l-39 -58q-7 -10 -11 -16q-10 -16 -10 -30q0 -16 10 -30q4 -6 13 -14l-176 -3l167 230l-95 150q-23 36 -28 43q-17 22 -37 34l218 3q4 -31 19 -61.5t43 -61.5l11 15q18 25 26 41.5t8 28.5
q0 11 -5 20t-14 15l165 3l-141 -198z" />
    <glyph glyph-name="y" unicode="y" horiz-adv-x="480" 
d="M346 350q7 19 10 31.5t3 26.5q0 17 -5.5 26.5t-18.5 22.5l147 3l-188 -497q-22 -61 -37 -83q-23 -35 -69 -60q-30 -15 -70 -21.5t-80 -6.5l-45 3l79 100q14 -4 22 -4q52 0 83 35q24 27 40 84q-30 20 -49 45t-35 63l-104 248q-13 31 -26 51q-17 27 -38 40l220 3
q2 -13 7.5 -28t11.5 -29l9 -23l77 -190z" />
    <glyph glyph-name="z" unicode="z" horiz-adv-x="480" 
d="M208 367q-28 7 -60 7q-38 0 -61 -4.5t-54 -19.5l36 110h387l-208 -364q41 -10 90 -10q58 0 87.5 6.5t56.5 19.5l-40 -112h-449z" />
    <glyph glyph-name="braceleft" unicode="{" horiz-adv-x="300" 
d="M198 -14q0 -45 14.5 -69t56.5 -38h-33q-29 0 -50 4.5t-43.5 20t-29.5 39.5t-7 60v172q0 27 -2.5 42t-16.5 31q-22 25 -54 31q45 11 59 33t14 71v151q0 42 4.5 65.5t23 43t47.5 25.5t65 6h23q-40 -12 -55.5 -36.5t-15.5 -68.5v-162q0 -57 -13 -83q-17 -34 -67 -45
q48 -11 64 -39t16 -81v-173z" />
    <glyph glyph-name="bar" unicode="|" horiz-adv-x="600" 
d="M257 670h85v-670h-85v670z" />
    <glyph glyph-name="braceright" unicode="}" horiz-adv-x="300" 
d="M197 3q0 -47 -9.5 -67t-29 -34t-44 -18.5t-55.5 -4.5h-25q42 14 56.5 37t14.5 70v173q0 54 14 78q18 30 66 42q-48 10 -66 45q-14 27 -14 83v162q0 43 -16 68t-55 37h23q40 0 66 -5.5t45 -25t24 -45.5t5 -64v-151q0 -48 14 -70.5t59 -33.5q-32 -6 -54 -31
q-13 -16 -16 -30t-3 -43v-172z" />
    <glyph glyph-name="asciitilde" unicode="~" horiz-adv-x="600" 
d="M563 272q-29 -40 -45 -58q-47 -52 -105 -52q-23 0 -49 7q-12 3 -47 16l-42 16q-34 14 -39 15q-24 8 -41 8q-31 0 -55 -25q-9 -9 -37 -52l-66 43q44 71 78.5 93.5t76.5 22.5q43 0 120 -31t101 -31q26 0 49 24q8 8 34 46z" />
    <glyph glyph-name="c128" horiz-adv-x="700" 
d="M506 220q0 60 -17 93q-20 40 -63 40q-25 0 -48 -7.5t-42 -20.5v-180q0 -58 5.5 -89t28.5 -53l-261 -3q26 18 34 45t8 65v33v402q-9 2 -24.5 3t-25.5 1q-59 0 -113 -37l-7 -5l39 154l19 -3h464l-34 -141q-8 17 -23.5 25.5t-58.5 8.5q-16 0 -27 -1t-24 -5v-119q37 22 68 33
q40 14 84 14q96 0 151 -73q51 -68 51 -172q0 -118 -56.5 -179.5t-152.5 -61.5q-12 0 -26 2t-30 5l-52 106q22 -8 28.5 -9.5t19.5 -1.5q45 0 65 35t20 96z" />
    <glyph glyph-name="c128" unicode="&#x402;" horiz-adv-x="700" 
d="M506 220q0 60 -17 93q-20 40 -63 40q-25 0 -48 -7.5t-42 -20.5v-180q0 -58 5.5 -89t28.5 -53l-261 -3q26 18 34 45t8 65v33v402q-9 2 -24.5 3t-25.5 1q-59 0 -113 -37l-7 -5l39 154l19 -3h464l-34 -141q-8 17 -23.5 25.5t-58.5 8.5q-16 0 -27 -1t-24 -5v-119q37 22 68 33
q40 14 84 14q96 0 151 -73q51 -68 51 -172q0 -118 -56.5 -179.5t-152.5 -61.5q-12 0 -26 2t-30 5l-52 106q22 -8 28.5 -9.5t19.5 -1.5q45 0 65 35t20 96z" />
    <glyph glyph-name="c129" horiz-adv-x="420" 
d="M242 146q0 -57 5 -78q9 -37 39 -65l-271 -3q26 18 34 45t8 65v33v373v33q0 50 -10 71.5t-32 34.5l350 3q11 0 22 0.5t20 5.5l3 -145q-16 26 -42 33.5t-66 7.5h-28h-32v-414zM380 792l-234 -87l-58 35l242 138z" />
    <glyph glyph-name="c129" unicode="&#x403;" horiz-adv-x="420" 
d="M242 146q0 -57 5 -78q9 -37 39 -65l-271 -3q26 18 34 45t8 65v33v373v33q0 50 -10 71.5t-32 34.5l350 3q11 0 22 0.5t20 5.5l3 -145q-16 26 -42 33.5t-66 7.5h-28h-32v-414zM380 792l-234 -87l-58 35l242 138z" />
    <glyph glyph-name="c141" horiz-adv-x="660" 
d="M607 70q13 -22 26 -37.5t32 -29.5q-23 0 -44 -0.5t-40 -0.5q-112 0 -148 18.5t-80 93.5l-104 179v-150v-33q0 -50 10.5 -71.5t31.5 -35.5l-269 -3v3q26 16 34 43t8 64v33v372v33q0 50 -10.5 71.5t-31.5 35.5l269 3q-26 -18 -34 -45t-8 -65v-33v-153l125 159q24 29 29 37
q17 25 17 43q0 17 -12 31t-28 23l245 3l-221 -267zM498 792l-234 -87l-58 35l242 138z" />
    <glyph glyph-name="c141" unicode="&#x40c;" horiz-adv-x="660" 
d="M607 70q13 -22 26 -37.5t32 -29.5q-23 0 -44 -0.5t-40 -0.5q-112 0 -148 18.5t-80 93.5l-104 179v-150v-33q0 -50 10.5 -71.5t31.5 -35.5l-269 -3v3q26 16 34 43t8 64v33v372v33q0 50 -10.5 71.5t-31.5 35.5l269 3q-26 -18 -34 -45t-8 -65v-33v-153l125 159q24 29 29 37
q17 25 17 43q0 17 -12 31t-28 23l245 3l-221 -267zM498 792l-234 -87l-58 35l242 138z" />
    <glyph glyph-name="c142" horiz-adv-x="700" 
d="M336 325v-180q0 -56 5 -77q9 -37 39 -65l-271 -3q26 18 34 45t8 65v33v402q-9 2 -24.5 3t-25.5 1q-59 0 -113 -37l-7 -5l39 154l19 -3h464l-34 -141q-8 17 -23.5 25.5t-58.5 8.5q-16 0 -27 -1t-24 -5v-119q35 21 78 34t94 13q69 0 115.5 -46.5t46.5 -115.5v-168v-33
q0 -50 10.5 -71.5t31.5 -35.5l-269 -3q25 17 35 46q7 21 7 57v40v151q0 59 -59 59q-25 0 -48 -7.5t-42 -20.5z" />
    <glyph glyph-name="c142" unicode="&#x40b;" horiz-adv-x="700" 
d="M336 325v-180q0 -56 5 -77q9 -37 39 -65l-271 -3q26 18 34 45t8 65v33v402q-9 2 -24.5 3t-25.5 1q-59 0 -113 -37l-7 -5l39 154l19 -3h464l-34 -141q-8 17 -23.5 25.5t-58.5 8.5q-16 0 -27 -1t-24 -5v-119q35 21 78 34t94 13q69 0 115.5 -46.5t46.5 -115.5v-168v-33
q0 -50 10.5 -71.5t31.5 -35.5l-269 -3q25 17 35 46q7 21 7 57v40v151q0 59 -59 59q-25 0 -48 -7.5t-42 -20.5z" />
    <glyph glyph-name="c143" horiz-adv-x="660" 
d="M217 0h-204q26 18 34 45t8 65v33v372v33q0 50 -10.5 71.5t-31.5 35.5l269 3q-26 -18 -34 -42.5t-8 -61.5v-39v-411q5 -1 9 -1q30 -5 50 -5h60q22 0 36 2t24 4v411v33q0 50 -10.5 71.5t-31.5 35.5l269 3q-26 -18 -34 -45t-8 -65v-33v-372v-39q0 -38 7.5 -61.5t33.5 -39.5
l-204 -3q-41 0 -70.5 -18t-41.5 -46q-12 28 -41.5 46t-70.5 18z" />
    <glyph glyph-name="c143" unicode="&#x40f;" horiz-adv-x="660" 
d="M217 0h-204q26 18 34 45t8 65v33v372v33q0 50 -10.5 71.5t-31.5 35.5l269 3q-26 -18 -34 -42.5t-8 -61.5v-39v-411q5 -1 9 -1q30 -5 50 -5h60q22 0 36 2t24 4v411v33q0 50 -10.5 71.5t-31.5 35.5l269 3q-26 -18 -34 -45t-8 -65v-33v-372v-39q0 -38 7.5 -61.5t33.5 -39.5
l-204 -3q-41 0 -70.5 -18t-41.5 -46q-12 28 -41.5 46t-70.5 18z" />
    <glyph glyph-name="c144" 
d="M349 267v18q0 18 -1.5 30.5t-6.5 22.5q-16 31 -53 31q-45 0 -56 -40q-2 -7 -3 -21.5t-1 -22.5v-27v-148q0 -56 6.5 -73t27.5 -34l-241 -3q21 19 27.5 39.5t6.5 49.5v21v404h-77v69q19 1 39.5 2t37.5 5q0 20 -7 34.5t-27 30.5l133 3q22 0 38.5 3.5t32.5 12.5l3 -68h192
v-93h-192v-82q23 23 56 32.5t69 9.5q43 0 78.5 -13.5t62.5 -44.5q18 -20 23 -43t5 -60v-37v-251v-30q0 -55 -8 -82q-12 -41 -50 -66t-90.5 -41t-99.5 -16l5 5q47 47 60 83q10 28 10 93v297z" />
    <glyph glyph-name="c144" unicode="&#x452;" 
d="M349 267v18q0 18 -1.5 30.5t-6.5 22.5q-16 31 -53 31q-45 0 -56 -40q-2 -7 -3 -21.5t-1 -22.5v-27v-148q0 -56 6.5 -73t27.5 -34l-241 -3q21 19 27.5 39.5t6.5 49.5v21v404h-77v69q19 1 39.5 2t37.5 5q0 20 -7 34.5t-27 30.5l133 3q22 0 38.5 3.5t32.5 12.5l3 -68h192
v-93h-192v-82q23 23 56 32.5t69 9.5q43 0 78.5 -13.5t62.5 -44.5q18 -20 23 -43t5 -60v-37v-251v-30q0 -55 -8 -82q-12 -41 -50 -66t-90.5 -41t-99.5 -16l5 5q47 47 60 83q10 28 10 93v297z" />
    <glyph glyph-name="c157" horiz-adv-x="560" 
d="M233 262l80 92q10 12 21 24q10 14 10 28q0 17 -10.5 30.5t-26.5 20.5l231 3l-155 -175l132 -206q21 -33 29 -43q17 -20 38 -33q-32 -2 -64 -3q-86 -5 -108 -5q-38 0 -61 28q-6 7 -24 38l-92 152v-102q0 -46 4.5 -66t30.5 -42l-243 -3q26 24 32 51q3 13 3 60v239v17
q0 41 -8.5 58t-26.5 32l243 3q-23 -21 -29 -40.5t-6 -52.5v-17v-88zM428 594l-234 -87l-58 35l242 138z" />
    <glyph glyph-name="c157" unicode="&#x45c;" horiz-adv-x="560" 
d="M233 262l80 92q10 12 21 24q10 14 10 28q0 17 -10.5 30.5t-26.5 20.5l231 3l-155 -175l132 -206q21 -33 29 -43q17 -20 38 -33q-32 -2 -64 -3q-86 -5 -108 -5q-38 0 -61 28q-6 7 -24 38l-92 152v-102q0 -46 4.5 -66t30.5 -42l-243 -3q26 24 32 51q3 13 3 60v239v17
q0 41 -8.5 58t-26.5 32l243 3q-23 -21 -29 -40.5t-6 -52.5v-17v-88zM428 594l-234 -87l-58 35l242 138z" />
    <glyph glyph-name="c158" 
d="M420 513h-192v-82q23 23 56 32.5t69 9.5q43 0 78.5 -13.5t62.5 -44.5q18 -20 23 -43t5 -60v-37v-165v-46q4 -35 35 -61l-243 -3q26 23 32 50q3 13 3 60v157v18q0 18 -1.5 30.5t-6.5 22.5q-16 31 -53 31q-45 0 -56 -40q-2 -7 -3 -21.5t-1 -22.5v-27v-148q0 -56 6.5 -73
t27.5 -34l-241 -3q21 19 27.5 39.5t6.5 49.5v21v404h-77v69q19 1 39.5 2t37.5 5q0 20 -7 34.5t-27 30.5l133 3q22 0 38.5 3.5t32.5 12.5l3 -68h192v-93z" />
    <glyph glyph-name="c158" unicode="&#x45b;" 
d="M420 513h-192v-82q23 23 56 32.5t69 9.5q43 0 78.5 -13.5t62.5 -44.5q18 -20 23 -43t5 -60v-37v-165v-46q4 -35 35 -61l-243 -3q26 23 32 50q3 13 3 60v157v18q0 18 -1.5 30.5t-6.5 22.5q-16 31 -53 31q-45 0 -56 -40q-2 -7 -3 -21.5t-1 -22.5v-27v-148q0 -56 6.5 -73
t27.5 -34l-241 -3q21 19 27.5 39.5t6.5 49.5v21v404h-77v69q19 1 39.5 2t37.5 5q0 20 -7 34.5t-27 30.5l133 3q22 0 38.5 3.5t32.5 12.5l3 -68h192v-93z" />
    <glyph glyph-name="nonbreakingspace" unicode="&#xa0;" horiz-adv-x="250" 
 />
    <glyph glyph-name="exclamdown" unicode="&#xa1;" horiz-adv-x="640" 
d="M308 166q-22 23 -34 37q-41 47 -60 81l-172 307q-10 18 -23.5 34.5t-32.5 29.5l241 3l-1 -6q0 -18 6 -34t25 -52l129 -237l101 233q6 13 10 23.5t4 19.5q0 18 -10.5 28.5t-33.5 21.5l179 3l-230 -509q-75 -164 -168 -164l-67 101h10q47 0 77.5 18t49.5 62zM210 854
q17 -31 48 -44t72 -13q42 0 71.5 12t48.5 45l54 -24q-26 -58 -68 -84t-106 -26q-66 0 -107 25.5t-67 84.5z" />
    <glyph glyph-name="exclamdown" unicode="&#x40e;" horiz-adv-x="640" 
d="M308 166q-22 23 -34 37q-41 47 -60 81l-172 307q-10 18 -23.5 34.5t-32.5 29.5l241 3l-1 -6q0 -18 6 -34t25 -52l129 -237l101 233q6 13 10 23.5t4 19.5q0 18 -10.5 28.5t-33.5 21.5l179 3l-230 -509q-75 -164 -168 -164l-67 101h10q47 0 77.5 18t49.5 62zM210 854
q17 -31 48 -44t72 -13q42 0 71.5 12t48.5 45l54 -24q-26 -58 -68 -84t-106 -26q-66 0 -107 25.5t-67 84.5z" />
    <glyph glyph-name="cent" unicode="&#xa2;" horiz-adv-x="480" 
d="M346 350q7 19 10 31.5t3 26.5q0 17 -5.5 26.5t-18.5 22.5l147 3l-188 -497q-22 -61 -37 -83q-23 -35 -69 -60q-30 -15 -70 -21.5t-80 -6.5l-45 3l79 100q14 -4 22 -4q52 0 83 35q24 27 40 84q-30 20 -49 45t-35 63l-104 248q-13 31 -26 51q-17 27 -38 40l220 3
q2 -13 7.5 -28t11.5 -29l9 -23l77 -190zM120 656l-54 -24q26 -58 67.5 -84t106.5 -26t106.5 25.5t67.5 84.5l-54 24q-18 -31 -49 -44t-71 -13q-42 0 -69 11q-33 14 -51 46z" />
    <glyph glyph-name="cent" unicode="&#x45e;" horiz-adv-x="480" 
d="M346 350q7 19 10 31.5t3 26.5q0 17 -5.5 26.5t-18.5 22.5l147 3l-188 -497q-22 -61 -37 -83q-23 -35 -69 -60q-30 -15 -70 -21.5t-80 -6.5l-45 3l79 100q14 -4 22 -4q52 0 83 35q24 27 40 84q-30 20 -49 45t-35 63l-104 248q-13 31 -26 51q-17 27 -38 40l220 3
q2 -13 7.5 -28t11.5 -29l9 -23l77 -190zM120 656l-54 -24q26 -58 67.5 -84t106.5 -26t106.5 25.5t67.5 84.5l-54 24q-18 -31 -49 -44t-71 -13q-42 0 -69 11q-33 14 -51 46z" />
    <glyph glyph-name="sterling" unicode="&#xa3;" horiz-adv-x="300" 
d="M59 515v33q0 50 -10.5 71.5t-31.5 35.5l269 3q-26 -18 -34 -45t-8 -65v-33v-488q0 -68 -14 -99q-17 -39 -72 -73q-46 -29 -85 -44q-50 -20 -93 -20q34 45 56 99q17 42 20 80t3 109v436z" />
    <glyph glyph-name="sterling" unicode="&#x408;" horiz-adv-x="300" 
d="M59 515v33q0 50 -10.5 71.5t-31.5 35.5l269 3q-26 -18 -34 -45t-8 -65v-33v-488q0 -68 -14 -99q-17 -39 -72 -73q-46 -29 -85 -44q-50 -20 -93 -20q34 45 56 99q17 42 20 80t3 109v436z" />
    <glyph glyph-name="currency" unicode="&#xa4;" horiz-adv-x="560" 
d="M93 209q-17 30 -25.5 57.5t-8.5 59.5q0 65 34 120l-40 40l70 72l41 -41q54 35 118 35q67 0 122 -35l41 41l69 -72l-41 -40q35 -53 35 -119q0 -68 -35 -118l41 -40l-69 -71l-41 40q-27 -16 -57.5 -25.5t-60.5 -9.5q-69 0 -122 35l-41 -40l-70 71zM196 326q0 -38 26 -62
t65 -24q36 0 60 26t24 62q0 34 -24.5 60.5t-59.5 26.5q-38 0 -64.5 -25.5t-26.5 -63.5z" />
    <glyph glyph-name="yen" unicode="&#xa5;" horiz-adv-x="420" 
d="M242 146q0 -57 5 -78q9 -37 39 -65l-271 -3q26 18 34 45t8 65v33v373v33q0 50 -10 71.5t-32 34.5l249 3q58 0 82 5q39 8 61 36l3 -170q-17 21 -51 26t-85 5h-32v-414z" />
    <glyph glyph-name="yen" unicode="&#x490;" horiz-adv-x="420" 
d="M242 146q0 -57 5 -78q9 -37 39 -65l-271 -3q26 18 34 45t8 65v33v373v33q0 50 -10 71.5t-32 34.5l249 3q58 0 82 5q39 8 61 36l3 -170q-17 21 -51 26t-85 5h-32v-414z" />
    <glyph glyph-name="brokenbar" unicode="&#xa6;" horiz-adv-x="600" 
d="M257 670h85v-223h-85v223zM257 223h85v-223h-85v223z" />
    <glyph glyph-name="section" unicode="&#xa7;" horiz-adv-x="500" 
d="M427 485q-46 36 -68 48q-38 21 -80 21q-22 0 -44 -7.5t-22 -25.5q0 -13 9.5 -20.5t27.5 -17t27 -14.5q53 -26 80 -42q16 -9 44 -31q62 -46 62 -125q0 -35 -10.5 -60t-35.5 -60q17 -20 24 -43t7 -51q0 -92 -74 -152q-33 -27 -75.5 -39.5t-89.5 -12.5q-44 0 -86 9.5
t-86 27.5v161q43 -30 78 -46q47 -22 89 -22q33 0 58 13q33 17 33 46q0 28 -66 64q-104 56 -124 72q-68 54 -68 123q0 36 14.5 68t41.5 60q-16 18 -22.5 41t-6.5 50q0 76 65 118q56 36 136 36q81 0 162 -28v-161zM227 334l-35 20q-2 -5 -3 -10q-5 -14 -5 -18q0 -27 56 -59
q39 -22 79 -44q4 9 4 21q0 25 -21 44q-12 11 -43 28z" />
    <glyph glyph-name="dieresis" unicode="&#xa8;" horiz-adv-x="500" 
d="M240 111q21 -8 48 -11.5t57 -3.5q49 0 80 10q39 13 66 45h5l-40 -151h-443q25 18 35 49q7 23 7 60v33v374v33q0 50 -10 71.5t-32 34.5l350 3h11q21 0 31 5l3 -145q-17 27 -43.5 34.5t-69.5 7.5h-23h-32v-162h93q26 0 37 5h5v-140h-5q-6 19 -22.5 27.5t-60.5 8.5h-14h-33
v-188zM258 787q0 36 23.5 60.5t58.5 24.5q34 0 57.5 -23.5t23.5 -57.5q0 -35 -25 -59t-60 -24q-31 0 -54.5 23.5t-23.5 55.5zM61 787q0 36 23.5 60.5t58.5 24.5q34 0 57.5 -23.5t23.5 -57.5q0 -35 -25 -59t-60 -24q-32 0 -55 23t-23 56z" />
    <glyph glyph-name="dieresis" unicode="&#x401;" horiz-adv-x="500" 
d="M240 111q21 -8 48 -11.5t57 -3.5q49 0 80 10q39 13 66 45h5l-40 -151h-443q25 18 35 49q7 23 7 60v33v374v33q0 50 -10 71.5t-32 34.5l350 3h11q21 0 31 5l3 -145q-17 27 -43.5 34.5t-69.5 7.5h-23h-32v-162h93q26 0 37 5h5v-140h-5q-6 19 -22.5 27.5t-60.5 8.5h-14h-33
v-188zM258 787q0 36 23.5 60.5t58.5 24.5q34 0 57.5 -23.5t23.5 -57.5q0 -35 -25 -59t-60 -24q-31 0 -54.5 23.5t-23.5 55.5zM61 787q0 36 23.5 60.5t58.5 24.5q34 0 57.5 -23.5t23.5 -57.5q0 -35 -25 -59t-60 -24q-32 0 -55 23t-23 56z" />
    <glyph glyph-name="copyright" unicode="&#xa9;" horiz-adv-x="720" 
d="M21 331q0 143 99 243t241 100q138 0 238 -100t100 -241q0 -144 -99 -245t-243 -101q-139 0 -237.5 101.5t-98.5 242.5zM653 329q0 125 -85 212t-209 87q-120 0 -206 -87t-86 -209q0 -123 86 -210t209 -87q119 0 205 86t86 208zM545 244q-18 -56 -70 -86t-114 -30
q-88 0 -140.5 55.5t-52.5 144.5q0 92 57.5 151.5t147.5 59.5q58 0 106 -28q54 -32 66 -86l-62 -14q-8 44 -37.5 66.5t-75.5 22.5q-67 0 -106 -52q-35 -47 -35 -117t35.5 -116t103.5 -46q46 0 76.5 23.5t45.5 67.5z" />
    <glyph glyph-name="ordfeminine" unicode="&#xaa;" horiz-adv-x="660" 
d="M654 157l-50 -146q-48 -13 -94.5 -18.5t-104.5 -5.5q-83 0 -142 17q-69 20 -126.5 69t-87.5 116t-30 145q0 71 28.5 138t81.5 113t125.5 67.5t152.5 21.5l151 -13l7 -140q-77 52 -167 52q-81 0 -125 -50q-38 -44 -48 -124h236q26 0 37 5h5v-140h-5q-6 19 -22.5 27.5
t-60.5 8.5h-14h-177q10 -94 61 -148q56 -60 153 -60q54 0 112 19q47 15 104 46z" />
    <glyph glyph-name="ordfeminine" unicode="&#x404;" horiz-adv-x="660" 
d="M654 157l-50 -146q-48 -13 -94.5 -18.5t-104.5 -5.5q-83 0 -142 17q-69 20 -126.5 69t-87.5 116t-30 145q0 71 28.5 138t81.5 113t125.5 67.5t152.5 21.5l151 -13l7 -140q-77 52 -167 52q-81 0 -125 -50q-38 -44 -48 -124h236q26 0 37 5h5v-140h-5q-6 19 -22.5 27.5
t-60.5 8.5h-14h-177q10 -94 61 -148q56 -60 153 -60q54 0 112 19q47 15 104 46z" />
    <glyph glyph-name="guillemotleft" unicode="&#xab;" horiz-adv-x="520" 
d="M269 108h-92l-118 140l118 142h92l-89 -142zM452 108h-92l-118 140l118 142h92l-89 -142z" />
    <glyph glyph-name="logicalnot" unicode="&#xac;" horiz-adv-x="600" 
d="M450 263h-383v86h467v-284h-84v198z" />
    <glyph glyph-name="minus" unicode="&#xad;" 
d="M512 541h-446v96h446v-96z" />
    <glyph glyph-name="registered" unicode="&#xae;" horiz-adv-x="720" 
d="M21 333q0 143 100 242t242 99q141 0 239 -100t98 -243t-99.5 -243.5t-241.5 -100.5q-141 0 -239.5 101.5t-98.5 244.5zM655 333q0 123 -87 209t-209 86q-119 0 -205 -87t-86 -207q0 -123 84.5 -211.5t205.5 -88.5q123 0 210 87t87 212zM543 130h-67l-109 185h-88v-185
h-57v410h182q69 0 102 -20q44 -27 44 -92q0 -56 -33.5 -84.5t-89.5 -28.5zM384 360q50 0 74 11q35 16 35 61q0 30 -20 46q-24 19 -82 19h-112v-137h105z" />
    <glyph glyph-name="macron" unicode="&#xaf;" horiz-adv-x="300" 
d="M242 142v-33q0 -50 10 -71t32 -35l-269 -3q25 18 35 49q7 23 7 60v33v373v33q0 50 -10.5 71.5t-31.5 35.5l269 3q-26 -18 -34 -45t-8 -65v-33v-373zM163 784q0 36 23.5 60.5t58.5 24.5q34 0 57.5 -23.5t23.5 -57.5q0 -35 -25 -59t-60 -24q-31 0 -54.5 23.5t-23.5 55.5z
M-34 784q0 36 23.5 60.5t58.5 24.5q34 0 57.5 -23.5t23.5 -57.5q0 -35 -25 -59t-60 -24q-32 0 -55 23t-23 56z" />
    <glyph glyph-name="macron" unicode="&#x407;" horiz-adv-x="300" 
d="M242 142v-33q0 -50 10 -71t32 -35l-269 -3q25 18 35 49q7 23 7 60v33v373v33q0 50 -10.5 71.5t-31.5 35.5l269 3q-26 -18 -34 -45t-8 -65v-33v-373zM163 784q0 36 23.5 60.5t58.5 24.5q34 0 57.5 -23.5t23.5 -57.5q0 -35 -25 -59t-60 -24q-31 0 -54.5 23.5t-23.5 55.5z
M-34 784q0 36 23.5 60.5t58.5 24.5q34 0 57.5 -23.5t23.5 -57.5q0 -35 -25 -59t-60 -24q-32 0 -55 23t-23 56z" />
    <glyph glyph-name="degree" unicode="&#xb0;" horiz-adv-x="400" 
d="M200 374q-62 0 -106 44t-44 106t44 106t106 44t106 -44t44 -106t-44 -106t-106 -44zM200 624q-42 0 -71 -29t-29 -71t29 -71t71 -29t71 29t29 71t-29 71t-71 29z" />
    <glyph glyph-name="plusminus" unicode="&#xb1;" horiz-adv-x="600" 
d="M257 342v126h86v-126h191v-86h-191v-126h-86v126h-191v86h191zM66 86h468v-86h-468v86z" />
    <glyph glyph-name="twosuperior" unicode="&#xb2;" horiz-adv-x="300" 
d="M242 142v-33q0 -50 10 -71t32 -35l-269 -3q25 18 35 49q7 23 7 60v33v373v33q0 50 -10.5 71.5t-31.5 35.5l269 3q-26 -18 -34 -45t-8 -65v-33v-373z" />
    <glyph glyph-name="twosuperior" unicode="&#x406;" horiz-adv-x="300" 
d="M242 142v-33q0 -50 10 -71t32 -35l-269 -3q25 18 35 49q7 23 7 60v33v373v33q0 50 -10.5 71.5t-31.5 35.5l269 3q-26 -18 -34 -45t-8 -65v-33v-373z" />
    <glyph glyph-name="threesuperior" unicode="&#xb3;" horiz-adv-x="280" 
d="M155 460q21 0 37.5 3t30.5 12l3 -365q0 -46 4.5 -65.5t30.5 -41.5l-243 -3q26 24 32 51q3 13 3 59v240v17q0 42 -7.5 58t-26.5 32zM39 572q0 41 27 70t68 29q38 0 66 -28t28 -66q0 -41 -28 -69t-70 -28q-37 0 -64 28t-27 64z" />
    <glyph glyph-name="threesuperior" unicode="&#x456;" horiz-adv-x="280" 
d="M155 460q21 0 37.5 3t30.5 12l3 -365q0 -46 4.5 -65.5t30.5 -41.5l-243 -3q26 24 32 51q3 13 3 59v240v17q0 42 -7.5 58t-26.5 32zM39 572q0 41 27 70t68 29q38 0 66 -28t28 -66q0 -41 -28 -69t-70 -28q-37 0 -64 28t-27 64z" />
    <glyph glyph-name="acute" unicode="&#xb4;" horiz-adv-x="400" 
d="M233 110v-46q4 -35 35 -61l-243 -3q26 23 32 50q3 13 3 60v240v17q0 41 -8.5 58t-26.5 32l263 3q37 0 58.5 9.5t33.5 34.5v-165q-8 17 -23.5 25.5t-58.5 8.5q-28 0 -44 -2t-21 -2v-259z" />
    <glyph glyph-name="acute" unicode="&#x491;" horiz-adv-x="400" 
d="M233 110v-46q4 -35 35 -61l-243 -3q26 23 32 50q3 13 3 60v240v17q0 41 -8.5 58t-26.5 32l263 3q37 0 58.5 9.5t33.5 34.5v-165q-8 17 -23.5 25.5t-58.5 8.5q-28 0 -44 -2t-21 -2v-259z" />
    <glyph glyph-name="mu" unicode="&#xb5;" 
d="M347 53q-43 -58 -115 -65l11 -196h-200l17 294q-3 33 -3 54v16v194v17q0 41 -8.5 57.5t-26.5 32.5l138 3q21 0 37 3t30 12l3 -257q-1 -21 -1 -33q0 -56 14.5 -75.5t42.5 -19.5q32 0 47 22q9 13 11.5 26.5t2.5 34.5v15v162v17q0 41 -8.5 57.5t-26.5 32.5l137 3q20 0 37 3
t31 12l3 -365q0 -56 6.5 -73t27.5 -34l-207 -3v53z" />
    <glyph glyph-name="paragraph" unicode="&#xb6;" horiz-adv-x="540" 
d="M309 564v-677h-127q21 19 27.5 39.5t6.5 49.5v21v298q-75 0 -129 53t-54 128q0 90 67 142q32 26 65.5 33t83.5 7h255q-21 -19 -27.5 -39.5t-6.5 -49.5v-21v-551q0 -56 6.5 -73t27.5 -34l-127 -3v677h-68z" />
    <glyph glyph-name="periodcentered" unicode="&#xb7;" horiz-adv-x="280" 
d="M45 231q0 41 27.5 69.5t68.5 28.5q39 0 66 -27t27 -67q0 -42 -28 -69t-70 -27q-37 0 -64 27t-27 65z" />
    <glyph glyph-name="periodcentered" unicode="&#x2219;" horiz-adv-x="280" 
d="M45 231q0 41 27.5 69.5t68.5 28.5q39 0 66 -27t27 -67q0 -42 -28 -69t-70 -27q-37 0 -64 27t-27 65z" />
    <glyph glyph-name="cedilla" unicode="&#xb8;" horiz-adv-x="540" 
d="M476 18q-34 -15 -75.5 -23t-81.5 -8q-60 0 -104 9q-57 12 -96 40q-45 32 -68 84.5t-23 111.5q0 105 70 173t175 68q118 0 177.5 -63.5t59.5 -181.5h-310q0 -65 40.5 -106.5t106.5 -41.5q41 0 81 13.5t87 37.5zM283 586q0 36 23.5 60.5t58.5 24.5q34 0 57.5 -23.5
t23.5 -57.5q0 -35 -25 -59t-60 -24q-31 0 -54.5 23.5t-23.5 55.5zM86 586q0 36 23.5 60.5t58.5 24.5q34 0 57.5 -23.5t23.5 -57.5q0 -35 -25 -59t-60 -24q-32 0 -55 23t-23 56zM340 313q0 32 -16 52.5t-51 20.5q-32 0 -50.5 -20t-22.5 -53h140z" />
    <glyph glyph-name="cedilla" unicode="&#x451;" horiz-adv-x="540" 
d="M476 18q-34 -15 -75.5 -23t-81.5 -8q-60 0 -104 9q-57 12 -96 40q-45 32 -68 84.5t-23 111.5q0 105 70 173t175 68q118 0 177.5 -63.5t59.5 -181.5h-310q0 -65 40.5 -106.5t106.5 -41.5q41 0 81 13.5t87 37.5zM283 586q0 36 23.5 60.5t58.5 24.5q34 0 57.5 -23.5
t23.5 -57.5q0 -35 -25 -59t-60 -24q-31 0 -54.5 23.5t-23.5 55.5zM86 586q0 36 23.5 60.5t58.5 24.5q34 0 57.5 -23.5t23.5 -57.5q0 -35 -25 -59t-60 -24q-32 0 -55 23t-23 56zM340 313q0 32 -16 52.5t-51 20.5q-32 0 -50.5 -20t-22.5 -53h140z" />
    <glyph glyph-name="onesuperior" unicode="&#xb9;" horiz-adv-x="1080" 
d="M746 535q0 63 41 99.5t105 36.5t104.5 -36.5t40.5 -100.5q0 -63 -42.5 -99.5t-106.5 -36.5t-103 37t-39 100zM942 526q0 35 -9 58q-13 33 -43 33q-28 0 -39 -20t-11 -51q0 -41 8 -62q13 -34 46 -34q29 0 40 25q8 18 8 51zM1037 336v-53h-291v53h291zM633 -21
q-25 0 -62 14q-24 9 -60 27t-62 41q-21 18 -78 93l-192 256l-3 -264q0 -57 6.5 -85.5t37.5 -57.5l-193 -3q30 30 39 67q6 24 6 79v345q0 63 -9 91.5t-49 72.5l208 3l307 -405v259q0 57 -5 78q-8 36 -39 65l192 3q-29 -30 -36.5 -61t-7.5 -85v-533z" />
    <glyph glyph-name="onesuperior" unicode="&#x2116;" horiz-adv-x="1080" 
d="M746 535q0 63 41 99.5t105 36.5t104.5 -36.5t40.5 -100.5q0 -63 -42.5 -99.5t-106.5 -36.5t-103 37t-39 100zM942 526q0 35 -9 58q-13 33 -43 33q-28 0 -39 -20t-11 -51q0 -41 8 -62q13 -34 46 -34q29 0 40 25q8 18 8 51zM1037 336v-53h-291v53h291zM633 -21
q-25 0 -62 14q-24 9 -60 27t-62 41q-21 18 -78 93l-192 256l-3 -264q0 -57 6.5 -85.5t37.5 -57.5l-193 -3q30 30 39 67q6 24 6 79v345q0 63 -9 91.5t-49 72.5l208 3l307 -405v259q0 57 -5 78q-8 36 -39 65l192 3q-29 -30 -36.5 -61t-7.5 -85v-533z" />
    <glyph glyph-name="ordmasculine" unicode="&#xba;" horiz-adv-x="500" 
d="M227 200q5 -24 13 -42.5t23.5 -36t40 -26t51.5 -8.5q34 0 69.5 13t62.5 34l-29 -109q-40 -20 -82 -29t-90 -9q-107 0 -180 63q-77 67 -77 173q0 119 83 187q77 63 199 63q19 0 44 -3q59 -7 74 -7v-115q-27 17 -51 25t-54 8q-49 0 -76 -35q-9 -12 -15 -26.5t-8 -30.5h154
v-89h-152z" />
    <glyph glyph-name="ordmasculine" unicode="&#x454;" horiz-adv-x="500" 
d="M227 200q5 -24 13 -42.5t23.5 -36t40 -26t51.5 -8.5q34 0 69.5 13t62.5 34l-29 -109q-40 -20 -82 -29t-90 -9q-107 0 -180 63q-77 67 -77 173q0 119 83 187q77 63 199 63q19 0 44 -3q59 -7 74 -7v-115q-27 17 -51 25t-54 8q-49 0 -76 -35q-9 -12 -15 -26.5t-8 -30.5h154
v-89h-152z" />
    <glyph glyph-name="guillemotright" unicode="&#xbb;" horiz-adv-x="520" 
d="M334 108h-92l89 140l-89 142h92l118 -142zM151 108h-92l89 140l-89 142h92l118 -142z" />
    <glyph glyph-name="onequarter" unicode="&#xbc;" horiz-adv-x="260" 
d="M144 460q28 0 43.5 2.5t31.5 12.5l3 -451v-30q0 -55 -8 -82q-12 -41 -50 -66t-90.5 -41t-99.5 -16l5 5q51 54 62 90q8 26 8 109v325v33q0 50 -10 71t-32 35zM35 572q0 41 27 70t68 29q38 0 66 -28t28 -66q0 -41 -28 -69t-70 -28q-37 0 -64 28t-27 64z" />
    <glyph glyph-name="onequarter" unicode="&#x458;" horiz-adv-x="260" 
d="M144 460q28 0 43.5 2.5t31.5 12.5l3 -451v-30q0 -55 -8 -82q-12 -41 -50 -66t-90.5 -41t-99.5 -16l5 5q51 54 62 90q8 26 8 109v325v33q0 50 -10 71t-32 35zM35 572q0 41 27 70t68 29q38 0 66 -28t28 -66q0 -41 -28 -69t-70 -28q-37 0 -64 28t-27 64z" />
    <glyph glyph-name="onehalf" unicode="&#xbd;" horiz-adv-x="520" 
d="M10 167q42 -34 99.5 -56t110.5 -22q42 0 70 14q36 18 36 57q0 47 -79 87q-131 66 -147 78q-79 60 -79 156q0 92 74 145q35 25 80.5 36.5t93.5 11.5q90 0 168 -30v-117q-35 23 -69 35t-72 12q-34 0 -60.5 -15.5t-26.5 -48.5q0 -31 33 -53q13 -9 61.5 -30t69.5 -32
q37 -19 64 -43q38 -33 56 -68.5t18 -82.5q0 -103 -80 -162q-41 -30 -87.5 -41t-106.5 -11q-101 0 -194 36z" />
    <glyph glyph-name="onehalf" unicode="&#x405;" horiz-adv-x="520" 
d="M10 167q42 -34 99.5 -56t110.5 -22q42 0 70 14q36 18 36 57q0 47 -79 87q-131 66 -147 78q-79 60 -79 156q0 92 74 145q35 25 80.5 36.5t93.5 11.5q90 0 168 -30v-117q-35 23 -69 35t-72 12q-34 0 -60.5 -15.5t-26.5 -48.5q0 -31 33 -53q13 -9 61.5 -30t69.5 -32
q37 -19 64 -43q38 -33 56 -68.5t18 -82.5q0 -103 -80 -162q-41 -30 -87.5 -41t-106.5 -11q-101 0 -194 36z" />
    <glyph glyph-name="threequarters" unicode="&#xbe;" horiz-adv-x="480" 
d="M16 125q41 -25 86.5 -40t90.5 -15q28 0 46 8q25 11 25 36q0 26 -62 53q-99 44 -115 54q-62 40 -62 99q0 40 18.5 70t52.5 49.5t71.5 26.5t83.5 7q37 0 75.5 -4.5t79.5 -14.5v-104q-59 39 -128 39q-23 0 -41 -6.5t-18 -25.5q0 -20 19 -32q9 -6 37.5 -14.5t56.5 -16.5
q29 -10 53 -26q35 -23 55.5 -51.5t20.5 -65.5q0 -90 -87 -132q-66 -32 -168 -32q-37 0 -77 6t-91 17z" />
    <glyph glyph-name="threequarters" unicode="&#x455;" horiz-adv-x="480" 
d="M16 125q41 -25 86.5 -40t90.5 -15q28 0 46 8q25 11 25 36q0 26 -62 53q-99 44 -115 54q-62 40 -62 99q0 40 18.5 70t52.5 49.5t71.5 26.5t83.5 7q37 0 75.5 -4.5t79.5 -14.5v-104q-59 39 -128 39q-23 0 -41 -6.5t-18 -25.5q0 -20 19 -32q9 -6 37.5 -14.5t56.5 -16.5
q29 -10 53 -26q35 -23 55.5 -51.5t20.5 -65.5q0 -90 -87 -132q-66 -32 -168 -32q-37 0 -77 6t-91 17z" />
    <glyph glyph-name="questiondown" unicode="&#xbf;" horiz-adv-x="280" 
d="M155 460q21 0 37.5 3t30.5 12l3 -365q0 -46 4.5 -65.5t30.5 -41.5l-243 -3q26 24 32 51q3 13 3 59v240v17q0 42 -7.5 58t-26.5 32zM153 586q0 36 23.5 60.5t58.5 24.5q34 0 57.5 -23.5t23.5 -57.5q0 -35 -25 -59t-60 -24q-31 0 -54.5 23.5t-23.5 55.5zM-44 586
q0 36 23.5 60.5t58.5 24.5q34 0 57.5 -23.5t23.5 -57.5q0 -35 -25 -59t-60 -24q-32 0 -55 23t-23 56z" />
    <glyph glyph-name="questiondown" unicode="&#x457;" horiz-adv-x="280" 
d="M155 460q21 0 37.5 3t30.5 12l3 -365q0 -46 4.5 -65.5t30.5 -41.5l-243 -3q26 24 32 51q3 13 3 59v240v17q0 42 -7.5 58t-26.5 32zM153 586q0 36 23.5 60.5t58.5 24.5q34 0 57.5 -23.5t23.5 -57.5q0 -35 -25 -59t-60 -24q-31 0 -54.5 23.5t-23.5 55.5zM-44 586
q0 36 23.5 60.5t58.5 24.5q34 0 57.5 -23.5t23.5 -57.5q0 -35 -25 -59t-60 -24q-32 0 -55 23t-23 56z" />
    <glyph glyph-name="Agrave" unicode="&#xc0;" horiz-adv-x="720" 
d="M217 199l-24 -68q-5 -16 -11.5 -38t-6.5 -34q0 -15 5.5 -25.5t30.5 -30.5l-205 -3q27 27 42 54q12 21 27 64l138 399q9 25 13 39q9 29 9 41q0 19 -10 32.5t-28 25.5l245 3l189 -515q21 -55 22 -58q18 -39 64 -82v-3h-302q20 16 30.5 29t10.5 35q0 14 -1 19q-4 11 -7 19
l-33 97h-198zM313 489l-67 -197h136z" />
    <glyph glyph-name="Agrave" unicode="&#x410;" horiz-adv-x="720" 
d="M217 199l-24 -68q-5 -16 -11.5 -38t-6.5 -34q0 -15 5.5 -25.5t30.5 -30.5l-205 -3q27 27 42 54q12 21 27 64l138 399q9 25 13 39q9 29 9 41q0 19 -10 32.5t-28 25.5l245 3l189 -515q21 -55 22 -58q18 -39 64 -82v-3h-302q20 16 30.5 29t10.5 35q0 14 -1 19q-4 11 -7 19
l-33 97h-198zM313 489l-67 -197h136z" />
    <glyph glyph-name="Aacute" unicode="&#xc1;" 
d="M246 560v-461q59 0 93 29q42 35 42 108q0 55 -36 98.5t-90 62.5q31 4 42 4.5t18 0.5q103 0 171 -49q75 -54 75 -150q0 -93 -71 -155q-30 -26 -75 -37t-103 -11h-293q26 18 34 45t8 65v33v373v33q0 50 -10 71.5t-32 34.5l365 3q11 0 22 0.5t20 5.5l3 -145q-16 26 -42 33.5
t-66 7.5h-28h-47z" />
    <glyph glyph-name="Aacute" unicode="&#x411;" 
d="M246 560v-461q59 0 93 29q42 35 42 108q0 55 -36 98.5t-90 62.5q31 4 42 4.5t18 0.5q103 0 171 -49q75 -54 75 -150q0 -93 -71 -155q-30 -26 -75 -37t-103 -11h-293q26 18 34 45t8 65v33v373v33q0 50 -10 71.5t-32 34.5l365 3q11 0 22 0.5t20 5.5l3 -145q-16 26 -42 33.5
t-66 7.5h-28h-47z" />
    <glyph glyph-name="Acircumflex" unicode="&#xc2;" 
d="M317 658q50 0 80 -5.5t59 -27.5q33 -26 50 -56t17 -68q0 -48 -28.5 -79.5t-77.5 -47.5q64 -9 104 -57t40 -114q0 -93 -71 -155q-36 -31 -82 -41q-33 -7 -96 -7h-293q26 18 34 45t8 65v33v373v33q0 50 -10 71.5t-32 34.5zM246 406q14 -4 19 -4q33 0 53 26t20 60
q0 32 -16 54.5t-47 22.5q-14 0 -29 -6v-153zM246 106q18 -12 44 -12q46 0 70 34q21 30 21 78q0 110 -111 110h-24v-210z" />
    <glyph glyph-name="Acircumflex" unicode="&#x412;" 
d="M317 658q50 0 80 -5.5t59 -27.5q33 -26 50 -56t17 -68q0 -48 -28.5 -79.5t-77.5 -47.5q64 -9 104 -57t40 -114q0 -93 -71 -155q-36 -31 -82 -41q-33 -7 -96 -7h-293q26 18 34 45t8 65v33v373v33q0 50 -10 71.5t-32 34.5zM246 406q14 -4 19 -4q33 0 53 26t20 60
q0 32 -16 54.5t-47 22.5q-14 0 -29 -6v-153zM246 106q18 -12 44 -12q46 0 70 34q21 30 21 78q0 110 -111 110h-24v-210z" />
    <glyph glyph-name="Atilde" unicode="&#xc3;" horiz-adv-x="420" 
d="M242 146q0 -57 5 -78q9 -37 39 -65l-271 -3q26 18 34 45t8 65v33v373v33q0 50 -10 71.5t-32 34.5l350 3q11 0 22 0.5t20 5.5l3 -145q-16 26 -42 33.5t-66 7.5h-28h-32v-414z" />
    <glyph glyph-name="Atilde" unicode="&#x413;" horiz-adv-x="420" 
d="M242 146q0 -57 5 -78q9 -37 39 -65l-271 -3q26 18 34 45t8 65v33v373v33q0 50 -10 71.5t-32 34.5l350 3q11 0 22 0.5t20 5.5l3 -145q-16 26 -42 33.5t-66 7.5h-28h-32v-414z" />
    <glyph glyph-name="Adieresis" unicode="&#xc4;" horiz-adv-x="680" 
d="M20 104l27 4q25 15 44 58l122 351q7 21 14.5 44.5t7.5 35.5q0 19 -10 32.5t-28 25.5l245 3q0 -16 8.5 -46t34.5 -103l147 -405h51l-37 -168q-12 28 -41.5 46t-70.5 18h-411q-43 0 -83.5 -19t-62.5 -45zM433 101l-5 20l-127 368l-108 -333q-6 -16 -13.5 -30.5t-16.5 -24.5
h270z" />
    <glyph glyph-name="Adieresis" unicode="&#x414;" horiz-adv-x="680" 
d="M20 104l27 4q25 15 44 58l122 351q7 21 14.5 44.5t7.5 35.5q0 19 -10 32.5t-28 25.5l245 3q0 -16 8.5 -46t34.5 -103l147 -405h51l-37 -168q-12 28 -41.5 46t-70.5 18h-411q-43 0 -83.5 -19t-62.5 -45zM433 101l-5 20l-127 368l-108 -333q-6 -16 -13.5 -30.5t-16.5 -24.5
h270z" />
    <glyph glyph-name="Aring" unicode="&#xc5;" horiz-adv-x="500" 
d="M240 111q21 -8 48 -11.5t57 -3.5q49 0 80 10q39 13 66 45h5l-40 -151h-443q25 18 35 49q7 23 7 60v33v374v33q0 50 -10 71.5t-32 34.5l350 3h11q21 0 31 5l3 -145q-17 27 -43.5 34.5t-69.5 7.5h-23h-32v-162h93q26 0 37 5h5v-140h-5q-6 19 -22.5 27.5t-60.5 8.5h-14h-33
v-188z" />
    <glyph glyph-name="Aring" unicode="&#x415;" horiz-adv-x="500" 
d="M240 111q21 -8 48 -11.5t57 -3.5q49 0 80 10q39 13 66 45h5l-40 -151h-443q25 18 35 49q7 23 7 60v33v374v33q0 50 -10 71.5t-32 34.5l350 3h11q21 0 31 5l3 -145q-17 27 -43.5 34.5t-69.5 7.5h-23h-32v-162h93q26 0 37 5h5v-140h-5q-6 19 -22.5 27.5t-60.5 8.5h-14h-33
v-188z" />
    <glyph glyph-name="AE" unicode="&#xc6;" horiz-adv-x="1000" 
d="M634 658q-26 -18 -34 -45t-8 -65v-33v-153l123 159q25 31 29 37q16 24 16 43q0 17 -12 31t-28 23l245 3l-221 -267l203 -321q13 -22 26 -37.5t32 -29.5q-23 0 -44 -0.5t-40 -0.5q-112 0 -148 18.5t-80 93.5l-101 179v-150v-33q0 -50 10.5 -71.5t31.5 -35.5l-268 -3
q26 18 34 45t8 65v33v150l-101 -179q-49 -84 -91.5 -99t-220.5 -15q16 14 30.5 31.5t27.5 38.5l203 321l-221 264l245 3q-18 -13 -27 -24q-13 -16 -13 -33q0 -18 15 -39.5t30 -40.5l123 -159v153v33q0 50 -10.5 71.5t-31.5 35.5z" />
    <glyph glyph-name="AE" unicode="&#x416;" horiz-adv-x="1000" 
d="M634 658q-26 -18 -34 -45t-8 -65v-33v-153l123 159q25 31 29 37q16 24 16 43q0 17 -12 31t-28 23l245 3l-221 -267l203 -321q13 -22 26 -37.5t32 -29.5q-23 0 -44 -0.5t-40 -0.5q-112 0 -148 18.5t-80 93.5l-101 179v-150v-33q0 -50 10.5 -71.5t31.5 -35.5l-268 -3
q26 18 34 45t8 65v33v150l-101 -179q-49 -84 -91.5 -99t-220.5 -15q16 14 30.5 31.5t27.5 38.5l203 321l-221 264l245 3q-18 -13 -27 -24q-13 -16 -13 -33q0 -18 15 -39.5t30 -40.5l123 -159v153v33q0 50 -10.5 71.5t-31.5 35.5z" />
    <glyph glyph-name="Ccedilla" unicode="&#xc7;" horiz-adv-x="540" 
d="M129 397h41q57 0 89 18q41 23 41 74q0 42 -26 66t-71 24q-33 0 -60.5 -10t-57.5 -31v124q93 12 179 12q88 0 152 -38q72 -43 72 -117q0 -49 -33 -86t-83 -51q67 -21 104 -62q42 -47 42 -113q0 -109 -99 -169q-83 -51 -199 -51q-36 0 -72 4.5t-76 14.5l-51 121
q92 -42 174 -42q57 0 94 29t37 84t-39 79.5t-111 24.5h-47v95z" />
    <glyph glyph-name="Ccedilla" unicode="&#x417;" horiz-adv-x="540" 
d="M129 397h41q57 0 89 18q41 23 41 74q0 42 -26 66t-71 24q-33 0 -60.5 -10t-57.5 -31v124q93 12 179 12q88 0 152 -38q72 -43 72 -117q0 -49 -33 -86t-83 -51q67 -21 104 -62q42 -47 42 -113q0 -109 -99 -169q-83 -51 -199 -51q-36 0 -72 4.5t-76 14.5l-51 121
q92 -42 174 -42q57 0 94 29t37 84t-39 79.5t-111 24.5h-47v95z" />
    <glyph glyph-name="Egrave" unicode="&#xc8;" horiz-adv-x="680" 
d="M441 443l-172 -349q-18 -37 -36 -54q-24 -22 -75 -39q-18 -6 -53.5 -14t-50.5 -8v536v33q0 50 -10.5 71.5t-31.5 35.5l278 3q-34 -23 -45 -64q-7 -26 -7 -79v-255l193 395l236 3q-26 -18 -34 -45t-8 -65v-33v-372v-33q0 -50 10.5 -71.5t31.5 -35.5l-278 -3q33 23 44 64
q8 29 8 79v300z" />
    <glyph glyph-name="Egrave" unicode="&#x418;" horiz-adv-x="680" 
d="M441 443l-172 -349q-18 -37 -36 -54q-24 -22 -75 -39q-18 -6 -53.5 -14t-50.5 -8v536v33q0 50 -10.5 71.5t-31.5 35.5l278 3q-34 -23 -45 -64q-7 -26 -7 -79v-255l193 395l236 3q-26 -18 -34 -45t-8 -65v-33v-372v-33q0 -50 10.5 -71.5t31.5 -35.5l-278 -3q33 23 44 64
q8 29 8 79v300z" />
    <glyph glyph-name="Eacute" unicode="&#xc9;" horiz-adv-x="680" 
d="M230 854q17 -31 48 -44t72 -13q42 0 71.5 12t48.5 45l54 -24q-26 -58 -68 -84t-106 -26q-66 0 -107 25.5t-67 84.5zM441 443l-172 -349q-18 -37 -36 -54q-24 -22 -75 -39q-18 -6 -53.5 -14t-50.5 -8v536v33q0 50 -10.5 71.5t-31.5 35.5l278 3q-34 -23 -45 -64
q-7 -26 -7 -79v-255l193 395l236 3q-26 -18 -34 -45t-8 -65v-33v-372v-33q0 -50 10.5 -71.5t31.5 -35.5l-278 -3q33 23 44 64q8 29 8 79v300z" />
    <glyph glyph-name="Eacute" unicode="&#x419;" horiz-adv-x="680" 
d="M230 854q17 -31 48 -44t72 -13q42 0 71.5 12t48.5 45l54 -24q-26 -58 -68 -84t-106 -26q-66 0 -107 25.5t-67 84.5zM441 443l-172 -349q-18 -37 -36 -54q-24 -22 -75 -39q-18 -6 -53.5 -14t-50.5 -8v536v33q0 50 -10.5 71.5t-31.5 35.5l278 3q-34 -23 -45 -64
q-7 -26 -7 -79v-255l193 395l236 3q-26 -18 -34 -45t-8 -65v-33v-372v-33q0 -50 10.5 -71.5t31.5 -35.5l-278 -3q33 23 44 64q8 29 8 79v300z" />
    <glyph glyph-name="Ecircumflex" unicode="&#xca;" horiz-adv-x="660" 
d="M607 70q13 -22 26 -37.5t32 -29.5q-23 0 -44 -0.5t-40 -0.5q-112 0 -148 18.5t-80 93.5l-104 179v-150v-33q0 -50 10.5 -71.5t31.5 -35.5l-269 -3v3q26 16 34 43t8 64v33v372v33q0 50 -10.5 71.5t-31.5 35.5l269 3q-26 -18 -34 -45t-8 -65v-33v-153l125 159q24 29 29 37
q17 25 17 43q0 17 -12 31t-28 23l245 3l-221 -267z" />
    <glyph glyph-name="Ecircumflex" unicode="&#x41a;" horiz-adv-x="660" 
d="M607 70q13 -22 26 -37.5t32 -29.5q-23 0 -44 -0.5t-40 -0.5q-112 0 -148 18.5t-80 93.5l-104 179v-150v-33q0 -50 10.5 -71.5t31.5 -35.5l-269 -3v3q26 16 34 43t8 64v33v372v33q0 50 -10.5 71.5t-31.5 35.5l269 3q-26 -18 -34 -45t-8 -65v-33v-153l125 159q24 29 29 37
q17 25 17 43q0 17 -12 31t-28 23l245 3l-221 -267z" />
    <glyph glyph-name="Edieresis" unicode="&#xcb;" horiz-adv-x="680" 
d="M91 166l122 351q6 15 14 41.5t8 38.5q0 19 -10 32.5t-28 25.5l245 3q0 -17 8 -46t35 -103l133 -366q20 -54 22 -58q18 -40 63 -82v-3h-302q20 16 30.5 29t10.5 35q0 18 -8 38l-133 387l-108 -333q-23 -69 -65 -116q-49 -55 -107 -55l-57 101q48 0 77 16q34 19 50 64z" />
    <glyph glyph-name="Edieresis" unicode="&#x41b;" horiz-adv-x="680" 
d="M91 166l122 351q6 15 14 41.5t8 38.5q0 19 -10 32.5t-28 25.5l245 3q0 -17 8 -46t35 -103l133 -366q20 -54 22 -58q18 -40 63 -82v-3h-302q20 16 30.5 29t10.5 35q0 18 -8 38l-133 387l-108 -333q-23 -69 -65 -116q-49 -55 -107 -55l-57 101q48 0 77 16q34 19 50 64z" />
    <glyph glyph-name="Igrave" unicode="&#xcc;" horiz-adv-x="880" 
d="M561 655l239 3q-24 -25 -26 -28q-10 -14 -10 -32q1 -7 1 -11l47 -433q6 -59 13 -82q12 -43 42 -69l-264 -3q15 17 24.5 36.5t7.5 37.5l-36 351l-133 -436q-22 5 -46.5 17.5t-48.5 28.5q-30 20 -49 54q-9 17 -29 70l-98 266l-37 -345q-2 -25 9.5 -45t34.5 -32l-197 -3
q28 25 40 66q6 20 12 77l48 420q1 8 1 12q0 46 -39 80l230 3l148 -386z" />
    <glyph glyph-name="Igrave" unicode="&#x41c;" horiz-adv-x="880" 
d="M561 655l239 3q-24 -25 -26 -28q-10 -14 -10 -32q1 -7 1 -11l47 -433q6 -59 13 -82q12 -43 42 -69l-264 -3q15 17 24.5 36.5t7.5 37.5l-36 351l-133 -436q-22 5 -46.5 17.5t-48.5 28.5q-30 20 -49 54q-9 17 -29 70l-98 266l-37 -345q-2 -25 9.5 -45t34.5 -32l-197 -3
q28 25 40 66q6 20 12 77l48 420q1 8 1 12q0 46 -39 80l230 3l148 -386z" />
    <glyph glyph-name="Iacute" unicode="&#xcd;" horiz-adv-x="660" 
d="M239 143v-33q0 -50 10.5 -71.5t31.5 -35.5l-269 -3q26 18 34 45t8 65v33v372v33q0 50 -10.5 71.5t-31.5 35.5l269 3q-26 -18 -34 -42.5t-8 -61.5v-39v-114h179v114v33q0 50 -10.5 71.5t-31.5 35.5l269 3q-26 -18 -34 -45t-8 -65v-33v-372v-33q0 -50 10.5 -71.5
t31.5 -35.5l-269 -3q26 18 34 45t8 65v33v157h-179v-157z" />
    <glyph glyph-name="Iacute" unicode="&#x41d;" horiz-adv-x="660" 
d="M239 143v-33q0 -50 10.5 -71.5t31.5 -35.5l-269 -3q26 18 34 45t8 65v33v372v33q0 50 -10.5 71.5t-31.5 35.5l269 3q-26 -18 -34 -42.5t-8 -61.5v-39v-114h179v114v33q0 50 -10.5 71.5t-31.5 35.5l269 3q-26 -18 -34 -45t-8 -65v-33v-372v-33q0 -50 10.5 -71.5
t31.5 -35.5l-269 -3q26 18 34 45t8 65v33v157h-179v-157z" />
    <glyph glyph-name="Icircumflex" unicode="&#xce;" horiz-adv-x="780" 
d="M396 674q163 0 261 -88q103 -92 103 -254q0 -158 -112 -254q-106 -91 -264 -91q-157 0 -259 93q-105 96 -105 251q0 154 112 251q107 92 264 92zM261 173q23 -39 58 -62.5t77 -23.5q39 0 74 19t59 51q21 28 29 62t8 78q0 105 -39 181q-49 96 -143 96q-82 0 -129 -69
q-41 -61 -41 -147q0 -43 13 -95.5t34 -89.5z" />
    <glyph glyph-name="Icircumflex" unicode="&#x41e;" horiz-adv-x="780" 
d="M396 674q163 0 261 -88q103 -92 103 -254q0 -158 -112 -254q-106 -91 -264 -91q-157 0 -259 93q-105 96 -105 251q0 154 112 251q107 92 264 92zM261 173q23 -39 58 -62.5t77 -23.5q39 0 74 19t59 51q21 28 29 62t8 78q0 105 -39 181q-49 96 -143 96q-82 0 -129 -69
q-41 -61 -41 -147q0 -43 13 -95.5t34 -89.5z" />
    <glyph glyph-name="Idieresis" unicode="&#xcf;" horiz-adv-x="660" 
d="M239 143v-33q0 -50 10.5 -71.5t31.5 -35.5l-269 -3q26 18 34 45t8 65v33v372v33q0 50 -10.5 71.5t-31.5 35.5l633 3q-26 -18 -34 -45t-8 -65v-33v-372v-33q0 -50 10.5 -71.5t31.5 -35.5l-269 -3q26 18 34 45t8 65v33v414h-179v-414z" />
    <glyph glyph-name="Idieresis" unicode="&#x41f;" horiz-adv-x="660" 
d="M239 143v-33q0 -50 10.5 -71.5t31.5 -35.5l-269 -3q26 18 34 45t8 65v33v372v33q0 50 -10.5 71.5t-31.5 35.5l633 3q-26 -18 -34 -45t-8 -65v-33v-372v-33q0 -50 10.5 -71.5t31.5 -35.5l-269 -3q26 18 34 45t8 65v33v414h-179v-414z" />
    <glyph glyph-name="Eth" unicode="&#xd0;" horiz-adv-x="520" 
d="M233 145q0 -56 5 -77q9 -37 39 -65l-267 -3q26 18 34 45t8 65v33v372v33q0 50 -10.5 71.5t-31.5 35.5l236 3q69 0 107 -3.5t72 -20.5q95 -47 95 -156q0 -100 -75 -152q-65 -45 -170 -45h-13h-11q-8 2 -12 2q47 20 72 57.5t25 88.5q0 59 -22 92q-26 38 -81 38v-414z" />
    <glyph glyph-name="Eth" unicode="&#x420;" horiz-adv-x="520" 
d="M233 145q0 -56 5 -77q9 -37 39 -65l-267 -3q26 18 34 45t8 65v33v372v33q0 50 -10.5 71.5t-31.5 35.5l236 3q69 0 107 -3.5t72 -20.5q95 -47 95 -156q0 -100 -75 -152q-65 -45 -170 -45h-13h-11q-8 2 -12 2q47 20 72 57.5t25 88.5q0 59 -22 92q-26 38 -81 38v-414z" />
    <glyph glyph-name="Ntilde" unicode="&#xd1;" horiz-adv-x="660" 
d="M565 521q-77 52 -167 52q-95 0 -139 -70q-37 -59 -37 -161q0 -110 52 -177q57 -73 164 -73q54 0 112 19q47 15 104 46l-50 -146q-48 -13 -94.5 -18.5t-104.5 -5.5q-83 0 -142 17q-69 20 -126.5 69t-87.5 116t-30 145q0 71 28.5 138t81.5 113t125.5 67.5t152.5 21.5
l151 -13z" />
    <glyph glyph-name="Ntilde" unicode="&#x421;" horiz-adv-x="660" 
d="M565 521q-77 52 -167 52q-95 0 -139 -70q-37 -59 -37 -161q0 -110 52 -177q57 -73 164 -73q54 0 112 19q47 15 104 46l-50 -146q-48 -13 -94.5 -18.5t-104.5 -5.5q-83 0 -142 17q-69 20 -126.5 69t-87.5 116t-30 145q0 71 28.5 138t81.5 113t125.5 67.5t152.5 21.5
l151 -13z" />
    <glyph glyph-name="Ograve" unicode="&#xd2;" horiz-adv-x="500" 
d="M336 145q0 -56 5 -77q9 -37 39 -65l-271 -3q26 18 34 45t8 65v33v402q-9 2 -24.5 3t-25.5 1q-59 0 -113 -37l-7 -5l39 154l19 -3h464l-34 -151q-11 24 -31.5 34t-50.5 10q-16 0 -27 -1t-24 -5v-400z" />
    <glyph glyph-name="Ograve" unicode="&#x422;" horiz-adv-x="500" 
d="M336 145q0 -56 5 -77q9 -37 39 -65l-271 -3q26 18 34 45t8 65v33v402q-9 2 -24.5 3t-25.5 1q-59 0 -113 -37l-7 -5l39 154l19 -3h464l-34 -151q-11 24 -31.5 34t-50.5 10q-16 0 -27 -1t-24 -5v-400z" />
    <glyph glyph-name="Oacute" unicode="&#xd3;" horiz-adv-x="640" 
d="M308 166q-22 23 -34 37q-41 47 -60 81l-172 307q-10 18 -23.5 34.5t-32.5 29.5l241 3l-1 -6q0 -18 6 -34t25 -52l129 -237l101 233q6 13 10 23.5t4 19.5q0 18 -10.5 28.5t-33.5 21.5l179 3l-230 -509q-75 -164 -168 -164l-67 101h10q47 0 77.5 18t49.5 62z" />
    <glyph glyph-name="Oacute" unicode="&#x423;" horiz-adv-x="640" 
d="M308 166q-22 23 -34 37q-41 47 -60 81l-172 307q-10 18 -23.5 34.5t-32.5 29.5l241 3l-1 -6q0 -18 6 -34t25 -52l129 -237l101 233q6 13 10 23.5t4 19.5q0 18 -10.5 28.5t-33.5 21.5l179 3l-230 -509q-75 -164 -168 -164l-67 101h10q47 0 77.5 18t49.5 62z" />
    <glyph glyph-name="Ocircumflex" unicode="&#xd4;" horiz-adv-x="780" 
d="M298 552q0 36 -7 57q-10 30 -35 46l269 3q-26 -19 -34 -44.5t-8 -61.5h42q107 0 173 -51q72 -56 72 -157q0 -115 -75 -175q-65 -52 -170 -52h-13h-11q-8 2 -12 2q47 24 72 69.5t25 106.5q0 73 -22 112q-26 46 -81 46v-311v-33q0 -50 10 -71t32 -35l-269 -3q25 18 35 49
q7 23 7 60v33v311q-55 0 -81 -46q-22 -39 -22 -112q0 -61 25 -106.5t72 -69.5q-9 -1 -19.5 -1.5t-16.5 -0.5q-103 0 -169 52q-76 60 -76 175q0 101 72 157q66 51 173 51h42z" />
    <glyph glyph-name="Ocircumflex" unicode="&#x424;" horiz-adv-x="780" 
d="M298 552q0 36 -7 57q-10 30 -35 46l269 3q-26 -19 -34 -44.5t-8 -61.5h42q107 0 173 -51q72 -56 72 -157q0 -115 -75 -175q-65 -52 -170 -52h-13h-11q-8 2 -12 2q47 24 72 69.5t25 106.5q0 73 -22 112q-26 46 -81 46v-311v-33q0 -50 10 -71t32 -35l-269 -3q25 18 35 49
q7 23 7 60v33v311q-55 0 -81 -46q-22 -39 -22 -112q0 -61 25 -106.5t72 -69.5q-9 -1 -19.5 -1.5t-16.5 -0.5q-103 0 -169 52q-76 60 -76 175q0 101 72 157q66 51 173 51h42z" />
    <glyph glyph-name="Otilde" unicode="&#xd5;" horiz-adv-x="660" 
d="M557 146q45 -74 61 -95q21 -28 47 -48v-3h-235l-143 256l-82 -128q-8 -14 -15.5 -29t-7.5 -29q0 -20 8 -38.5t23 -28.5l-221 -3l237 344l-125 216q-27 47 -42.5 64t-37.5 31l235 3l115 -212l50 77q12 18 22.5 40.5t10.5 38.5t-11 32t-26 21l219 3l-209 -302z" />
    <glyph glyph-name="Otilde" unicode="&#x425;" horiz-adv-x="660" 
d="M557 146q45 -74 61 -95q21 -28 47 -48v-3h-235l-143 256l-82 -128q-8 -14 -15.5 -29t-7.5 -29q0 -20 8 -38.5t23 -28.5l-221 -3l237 344l-125 216q-27 47 -42.5 64t-37.5 31l235 3l115 -212l50 77q12 18 22.5 40.5t10.5 38.5t-11 32t-26 21l219 3l-209 -302z" />
    <glyph glyph-name="Odieresis" unicode="&#xd6;" horiz-adv-x="660" 
d="M607 104h56l-37 -168q-12 28 -41.5 46t-70.5 18h-501q26 18 34 45t8 65v33v372v33q0 50 -10.5 71.5t-31.5 35.5l269 3q-26 -18 -34 -42.5t-8 -61.5v-39v-411q5 -1 9 -1q30 -5 50 -5h60q22 0 36 2t24 4v411v33q0 50 -10.5 71.5t-31.5 35.5l269 3q-26 -18 -34 -45t-8 -65
v-33v-372q0 -10 0.5 -19t2.5 -20z" />
    <glyph glyph-name="Odieresis" unicode="&#x426;" horiz-adv-x="660" 
d="M607 104h56l-37 -168q-12 28 -41.5 46t-70.5 18h-501q26 18 34 45t8 65v33v372v33q0 50 -10.5 71.5t-31.5 35.5l269 3q-26 -18 -34 -42.5t-8 -61.5v-39v-411q5 -1 9 -1q30 -5 50 -5h60q22 0 36 2t24 4v411v33q0 50 -10.5 71.5t-31.5 35.5l269 3q-26 -18 -34 -45t-8 -65
v-33v-372q0 -10 0.5 -19t2.5 -20z" />
    <glyph glyph-name="multiply" unicode="&#xd7;" horiz-adv-x="620" 
d="M44 515v33q0 50 -10.5 71.5t-31.5 35.5l269 3q-26 -18 -34 -42.5t-8 -61.5v-39v-83q0 -57 59 -57q25 0 48.5 7t41.5 19v114v33q0 50 -10.5 71.5t-31.5 35.5l269 3q-26 -18 -34 -45t-8 -65v-33v-372v-33q0 -50 10.5 -71.5t31.5 -35.5l-269 -3q26 18 34 45t8 65v33v157
q-35 -21 -78 -34t-94 -13q-67 0 -114.5 46.5t-47.5 115.5v100z" />
    <glyph glyph-name="multiply" unicode="&#x427;" horiz-adv-x="620" 
d="M44 515v33q0 50 -10.5 71.5t-31.5 35.5l269 3q-26 -18 -34 -42.5t-8 -61.5v-39v-83q0 -57 59 -57q25 0 48.5 7t41.5 19v114v33q0 50 -10.5 71.5t-31.5 35.5l269 3q-26 -18 -34 -45t-8 -65v-33v-372v-33q0 -50 10.5 -71.5t31.5 -35.5l-269 -3q26 18 34 45t8 65v33v157
q-35 -21 -78 -34t-94 -13q-67 0 -114.5 46.5t-47.5 115.5v100z" />
    <glyph glyph-name="Oslash" unicode="&#xd8;" horiz-adv-x="920" 
d="M368 515v34q0 39 -6 59q-9 30 -36 47l269 3q-26 -18 -34 -42.5t-8 -61.5v-39v-411q11 -2 26 -4t38 -2q22 0 38 2t27 4v411v33q0 50 -10.5 71.5t-31.5 35.5l269 3q-26 -18 -34 -45t-8 -65v-33v-372v-33q0 -50 10.5 -71.5t31.5 -35.5l-897 -3q26 18 34 45t8 65v33v372v33
q0 50 -10.5 71.5t-31.5 35.5l269 3q-26 -18 -34 -42.5t-8 -61.5v-39v-411q12 -2 27.5 -4t36.5 -2q22 0 38 2t27 4v411z" />
    <glyph glyph-name="Oslash" unicode="&#x428;" horiz-adv-x="920" 
d="M368 515v34q0 39 -6 59q-9 30 -36 47l269 3q-26 -18 -34 -42.5t-8 -61.5v-39v-411q11 -2 26 -4t38 -2q22 0 38 2t27 4v411v33q0 50 -10.5 71.5t-31.5 35.5l269 3q-26 -18 -34 -45t-8 -65v-33v-372v-33q0 -50 10.5 -71.5t31.5 -35.5l-897 -3q26 18 34 45t8 65v33v372v33
q0 50 -10.5 71.5t-31.5 35.5l269 3q-26 -18 -34 -42.5t-8 -61.5v-39v-411q12 -2 27.5 -4t36.5 -2q22 0 38 2t27 4v411z" />
    <glyph glyph-name="Ugrave" unicode="&#xd9;" horiz-adv-x="920" 
d="M368 515v34q0 39 -6 59q-9 30 -36 47l269 3q-26 -18 -34 -42.5t-8 -61.5v-39v-411q12 -2 27 -4t37 -2t38 2t27 4v411v33q0 50 -10.5 71.5t-31.5 35.5l269 3q-26 -18 -34 -45t-8 -65v-33v-372q0 -10 0.5 -19t2.5 -20h56l-37 -168q-12 28 -41.5 46t-70.5 18h-765
q26 18 34 45t8 65v33v372v33q0 50 -10.5 71.5t-31.5 35.5l269 3q-26 -18 -34 -42.5t-8 -61.5v-39v-411q12 -2 27 -4t37 -2t38 2t27 4v411z" />
    <glyph glyph-name="Ugrave" unicode="&#x429;" horiz-adv-x="920" 
d="M368 515v34q0 39 -6 59q-9 30 -36 47l269 3q-26 -18 -34 -42.5t-8 -61.5v-39v-411q12 -2 27 -4t37 -2t38 2t27 4v411v33q0 50 -10.5 71.5t-31.5 35.5l269 3q-26 -18 -34 -45t-8 -65v-33v-372q0 -10 0.5 -19t2.5 -20h56l-37 -168q-12 28 -41.5 46t-70.5 18h-765
q26 18 34 45t8 65v33v372v33q0 50 -10.5 71.5t-31.5 35.5l269 3q-26 -18 -34 -42.5t-8 -61.5v-39v-411q12 -2 27 -4t37 -2t38 2t27 4v411z" />
    <glyph glyph-name="Uacute" unicode="&#xda;" horiz-adv-x="600" 
d="M357 658q-29 -29 -36.5 -60.5t-7.5 -84.5v-414q55 0 81 38q22 33 22 92q0 105 -97 146q9 2 19.5 2h16.5q104 0 169 -45q76 -52 76 -152q0 -52 -24.5 -92.5t-70.5 -63.5q-32 -16 -76 -20t-103 -4h-236q26 18 34 45t8 65v33v372v30q-13 4 -31 4q-61 0 -113 -37l-7 -5
l39 154l19 -3h318z" />
    <glyph glyph-name="Uacute" unicode="&#x42a;" horiz-adv-x="600" 
d="M357 658q-29 -29 -36.5 -60.5t-7.5 -84.5v-414q55 0 81 38q22 33 22 92q0 105 -97 146q9 2 19.5 2h16.5q104 0 169 -45q76 -52 76 -152q0 -52 -24.5 -92.5t-70.5 -63.5q-32 -16 -76 -20t-103 -4h-236q26 18 34 45t8 65v33v372v30q-13 4 -31 4q-61 0 -113 -37l-7 -5
l39 154l19 -3h318z" />
    <glyph glyph-name="Ucircumflex" unicode="&#xdb;" horiz-adv-x="820" 
d="M233 513v-414q55 0 81 38q22 33 22 92q0 105 -97 146q9 2 19.5 2h16.5q104 0 169 -45q76 -52 76 -152q0 -52 -24.5 -92.5t-70.5 -63.5q-32 -16 -76 -20t-103 -4h-236q26 18 34 45t8 65v33v372v33q0 50 -10.5 71.5t-31.5 35.5l267 3q-29 -29 -36.5 -60.5t-7.5 -84.5z
M762 142v-33q0 -50 10 -71t32 -35l-269 -3q25 18 35 49q7 23 7 60v33v373v33q0 50 -10.5 71.5t-31.5 35.5l269 3q-26 -18 -34 -45t-8 -65v-33v-373z" />
    <glyph glyph-name="Ucircumflex" unicode="&#x42b;" horiz-adv-x="820" 
d="M233 513v-414q55 0 81 38q22 33 22 92q0 105 -97 146q9 2 19.5 2h16.5q104 0 169 -45q76 -52 76 -152q0 -52 -24.5 -92.5t-70.5 -63.5q-32 -16 -76 -20t-103 -4h-236q26 18 34 45t8 65v33v372v33q0 50 -10.5 71.5t-31.5 35.5l267 3q-29 -29 -36.5 -60.5t-7.5 -84.5z
M762 142v-33q0 -50 10 -71t32 -35l-269 -3q25 18 35 49q7 23 7 60v33v373v33q0 50 -10.5 71.5t-31.5 35.5l269 3q-26 -18 -34 -45t-8 -65v-33v-373z" />
    <glyph glyph-name="Udieresis" unicode="&#xdc;" horiz-adv-x="520" 
d="M233 513v-414q55 0 81 38q22 33 22 92q0 105 -97 146q9 2 19.5 2h16.5q104 0 169 -45q76 -52 76 -152q0 -52 -24.5 -92.5t-70.5 -63.5q-32 -16 -76 -20t-103 -4h-236q26 18 34 45t8 65v33v372v33q0 50 -10.5 71.5t-31.5 35.5l267 3q-29 -29 -36.5 -60.5t-7.5 -84.5z" />
    <glyph glyph-name="Udieresis" unicode="&#x42c;" horiz-adv-x="520" 
d="M233 513v-414q55 0 81 38q22 33 22 92q0 105 -97 146q9 2 19.5 2h16.5q104 0 169 -45q76 -52 76 -152q0 -52 -24.5 -92.5t-70.5 -63.5q-32 -16 -76 -20t-103 -4h-236q26 18 34 45t8 65v33v372v33q0 50 -10.5 71.5t-31.5 35.5l267 3q-29 -29 -36.5 -60.5t-7.5 -84.5z" />
    <glyph glyph-name="Yacute" unicode="&#xdd;" horiz-adv-x="660" 
d="M437 300h-178q-56 0 -72.5 -7t-24.5 -29h-5v140h5q7 -3 20.5 -4t16.5 -1h234q-12 82 -52 124q-46 49 -131 49q-49 0 -89.5 -11.5t-75.5 -37.5v140l150 8q87 0 147 -13q80 -18 136 -61t89.5 -109.5t33.5 -135.5q0 -79 -25.5 -147t-79.5 -120t-118.5 -75t-144.5 -23h-50
q-58 0 -88.5 2.5t-60.5 9.5l-59 143q53 -24 108.5 -38.5t110.5 -14.5q92 0 146 62q49 56 57 149z" />
    <glyph glyph-name="Yacute" unicode="&#x42d;" horiz-adv-x="660" 
d="M437 300h-178q-56 0 -72.5 -7t-24.5 -29h-5v140h5q7 -3 20.5 -4t16.5 -1h234q-12 82 -52 124q-46 49 -131 49q-49 0 -89.5 -11.5t-75.5 -37.5v140l150 8q87 0 147 -13q80 -18 136 -61t89.5 -109.5t33.5 -135.5q0 -79 -25.5 -147t-79.5 -120t-118.5 -75t-144.5 -23h-50
q-58 0 -88.5 2.5t-60.5 9.5l-59 143q53 -24 108.5 -38.5t110.5 -14.5q92 0 146 62q49 56 57 149z" />
    <glyph glyph-name="Thorn" unicode="&#xde;" horiz-adv-x="1040" 
d="M301 300h-62v-157v-33q0 -50 10.5 -71.5t31.5 -35.5l-269 -3q26 18 34 45t8 65v33v372v33q0 50 -10.5 71.5t-31.5 35.5l269 3q-26 -18 -34 -42.5t-8 -61.5v-39v-114h65q24 127 123.5 200t238.5 73q161 0 257.5 -89.5t96.5 -252.5q0 -159 -107 -254q-102 -91 -259 -91
q-151 0 -250 84q-103 87 -103 229zM666 87q82 0 124 65q36 56 36 145q0 109 -34 181q-45 96 -138 96q-82 0 -124 -69q-36 -59 -36 -147q0 -109 42 -185q48 -86 130 -86z" />
    <glyph glyph-name="Thorn" unicode="&#x42e;" horiz-adv-x="1040" 
d="M301 300h-62v-157v-33q0 -50 10.5 -71.5t31.5 -35.5l-269 -3q26 18 34 45t8 65v33v372v33q0 50 -10.5 71.5t-31.5 35.5l269 3q-26 -18 -34 -42.5t-8 -61.5v-39v-114h65q24 127 123.5 200t238.5 73q161 0 257.5 -89.5t96.5 -252.5q0 -159 -107 -254q-102 -91 -259 -91
q-151 0 -250 84q-103 87 -103 229zM666 87q82 0 124 65q36 56 36 145q0 109 -34 181q-45 96 -138 96q-82 0 -124 -69q-36 -59 -36 -147q0 -109 42 -185q48 -86 130 -86z" />
    <glyph glyph-name="germandbls" unicode="&#xdf;" horiz-adv-x="620" 
d="M380 143v139l-116 -218q-25 -44 -55 -57q-23 -10 -79 -10l-138 9q29 24 53 55q18 23 43 65l119 199q-53 22 -84 61q-35 43 -35 97q0 104 89 152q29 15 58.5 19t75.5 4h296q-26 -18 -34 -45t-8 -65v-33v-372v-33q0 -50 10.5 -71.5t31.5 -35.5l-269 -3q26 18 34 45t8 65v33
zM380 561h-10q-20 0 -32.5 -2.5t-25.5 -11.5q-20 -14 -30 -36.5t-10 -48.5q0 -48 30 -83.5t78 -43.5v226z" />
    <glyph glyph-name="germandbls" unicode="&#x42f;" horiz-adv-x="620" 
d="M380 143v139l-116 -218q-25 -44 -55 -57q-23 -10 -79 -10l-138 9q29 24 53 55q18 23 43 65l119 199q-53 22 -84 61q-35 43 -35 97q0 104 89 152q29 15 58.5 19t75.5 4h296q-26 -18 -34 -45t-8 -65v-33v-372v-33q0 -50 10.5 -71.5t31.5 -35.5l-269 -3q26 18 34 45t8 65v33
zM380 561h-10q-20 0 -32.5 -2.5t-25.5 -11.5q-20 -14 -30 -36.5t-10 -48.5q0 -48 30 -83.5t78 -43.5v226z" />
    <glyph glyph-name="agrave" unicode="&#xe0;" horiz-adv-x="520" 
d="M491 -10l-40 -3q-43 0 -75 9.5t-60.5 36t-36 54t-7.5 73.5v22v33l-32 -15q-27 -13 -38 -22q-19 -16 -19 -38q0 -27 17 -46t44 -19l20 2l-43 -87l-51 -3q-29 0 -57.5 5.5t-49.5 18.5q-30 18 -48 50t-18 67q0 79 71 117q26 14 133 41q71 18 71 50q0 21 -20.5 31.5
t-43.5 10.5q-31 0 -63.5 -9t-62.5 -24l47 114q28 7 59.5 10.5t66.5 3.5q39 0 75.5 -9t63.5 -29q34 -26 46 -69q9 -32 9 -85v-80q0 -67 9 -87q16 -37 74 -37z" />
    <glyph glyph-name="agrave" unicode="&#x430;" horiz-adv-x="520" 
d="M491 -10l-40 -3q-43 0 -75 9.5t-60.5 36t-36 54t-7.5 73.5v22v33l-32 -15q-27 -13 -38 -22q-19 -16 -19 -38q0 -27 17 -46t44 -19l20 2l-43 -87l-51 -3q-29 0 -57.5 5.5t-49.5 18.5q-30 18 -48 50t-18 67q0 79 71 117q26 14 133 41q71 18 71 50q0 21 -20.5 31.5
t-43.5 10.5q-31 0 -63.5 -9t-62.5 -24l47 114q28 7 59.5 10.5t66.5 3.5q39 0 75.5 -9t63.5 -29q34 -26 46 -69q9 -32 9 -85v-80q0 -67 9 -87q16 -37 74 -37z" />
    <glyph glyph-name="aacute" unicode="&#xe1;" 
d="M197 637q36 21 108 44q24 7 67 19q54 18 67 24q35 15 42 30q2 -94 -37 -145q-29 -38 -84 -54l-94 -29q-50 -15 -83.5 -50t-46.5 -82q26 37 72 58t101 21q99 0 168.5 -68.5t69.5 -168.5q0 -116 -74.5 -182.5t-191.5 -66.5q-110 0 -181 65t-71 174q0 152 31 241
q39 112 137 170zM379 215q0 84 -28 126q-24 36 -66 36q-48 0 -70 -40q-18 -33 -18 -85q0 -71 15 -111q23 -61 81 -61q50 0 71 45q15 33 15 90z" />
    <glyph glyph-name="aacute" unicode="&#x431;" 
d="M197 637q36 21 108 44q24 7 67 19q54 18 67 24q35 15 42 30q2 -94 -37 -145q-29 -38 -84 -54l-94 -29q-50 -15 -83.5 -50t-46.5 -82q26 37 72 58t101 21q99 0 168.5 -68.5t69.5 -168.5q0 -116 -74.5 -182.5t-191.5 -66.5q-110 0 -181 65t-71 174q0 152 31 241
q39 112 137 170zM379 215q0 84 -28 126q-24 36 -66 36q-48 0 -70 -40q-18 -33 -18 -85q0 -71 15 -111q23 -61 81 -61q50 0 71 45q15 33 15 90z" />
    <glyph glyph-name="acircumflex" unicode="&#xe2;" horiz-adv-x="540" 
d="M25 0q26 23 32 50q3 13 3 60v240v17q0 41 -8.5 58t-26.5 32l301 3q70 0 114.5 -27.5t44.5 -82.5q0 -34 -25 -58q-21 -21 -59 -31q48 -5 82 -39t34 -80q0 -68 -54.5 -105t-141.5 -37h-296zM233 290q2 -1 14.5 -2t15.5 -1q25 0 39.5 14.5t14.5 36.5q0 20 -14 35t-36 15
q-23 0 -34 -3v-95zM233 80q7 -4 22.5 -5.5t20.5 -1.5q31 0 48.5 20.5t17.5 52.5q0 36 -20 51.5t-60 15.5h-29v-133z" />
    <glyph glyph-name="acircumflex" unicode="&#x432;" horiz-adv-x="540" 
d="M25 0q26 23 32 50q3 13 3 60v240v17q0 41 -8.5 58t-26.5 32l301 3q70 0 114.5 -27.5t44.5 -82.5q0 -34 -25 -58q-21 -21 -59 -31q48 -5 82 -39t34 -80q0 -68 -54.5 -105t-141.5 -37h-296zM233 290q2 -1 14.5 -2t15.5 -1q25 0 39.5 14.5t14.5 36.5q0 20 -14 35t-36 15
q-23 0 -34 -3v-95zM233 80q7 -4 22.5 -5.5t20.5 -1.5q31 0 48.5 20.5t17.5 52.5q0 36 -20 51.5t-60 15.5h-29v-133z" />
    <glyph glyph-name="atilde" unicode="&#xe3;" horiz-adv-x="400" 
d="M233 110v-46q4 -35 35 -61l-243 -3q26 23 32 50q3 13 3 60v240v17q0 41 -8.5 58t-26.5 32l355 3v-131q-11 24 -31.5 34t-50.5 10q-28 0 -44 -2t-21 -2v-259z" />
    <glyph glyph-name="atilde" unicode="&#x433;" horiz-adv-x="400" 
d="M233 110v-46q4 -35 35 -61l-243 -3q26 23 32 50q3 13 3 60v240v17q0 41 -8.5 58t-26.5 32l355 3v-131q-11 24 -31.5 34t-50.5 10q-28 0 -44 -2t-21 -2v-259z" />
    <glyph glyph-name="adieresis" unicode="&#xe4;" horiz-adv-x="540" 
d="M499 84h49l-32 -148q-12 28 -41.5 46t-70.5 18h-291q-43 0 -83.5 -19t-62.5 -45l38 148h38q18 15 27 42l83 235q7 18 10 28q7 20 7 28q0 13 -8.5 23t-23.5 18l216 2q3 -13 6 -24q8 -25 30 -80zM311 79l-2 6l-82 225l-59 -178q-6 -18 -15 -32.5t-16 -20.5h174z" />
    <glyph glyph-name="adieresis" unicode="&#x434;" horiz-adv-x="540" 
d="M499 84h49l-32 -148q-12 28 -41.5 46t-70.5 18h-291q-43 0 -83.5 -19t-62.5 -45l38 148h38q18 15 27 42l83 235q7 18 10 28q7 20 7 28q0 13 -8.5 23t-23.5 18l216 2q3 -13 6 -24q8 -25 30 -80zM311 79l-2 6l-82 225l-59 -178q-6 -18 -15 -32.5t-16 -20.5h174z" />
    <glyph glyph-name="aring" unicode="&#xe5;" horiz-adv-x="540" 
d="M476 18q-34 -15 -75.5 -23t-81.5 -8q-60 0 -104 9q-57 12 -96 40q-45 32 -68 84.5t-23 111.5q0 105 70 173t175 68q118 0 177.5 -63.5t59.5 -181.5h-310q0 -65 40.5 -106.5t106.5 -41.5q41 0 81 13.5t87 37.5zM340 313q0 32 -16 52.5t-51 20.5q-32 0 -50.5 -20t-22.5 -53
h140z" />
    <glyph glyph-name="aring" unicode="&#x435;" horiz-adv-x="540" 
d="M476 18q-34 -15 -75.5 -23t-81.5 -8q-60 0 -104 9q-57 12 -96 40q-45 32 -68 84.5t-23 111.5q0 105 70 173t175 68q118 0 177.5 -63.5t59.5 -181.5h-310q0 -65 40.5 -106.5t106.5 -41.5q41 0 81 13.5t87 37.5zM340 313q0 32 -16 52.5t-51 20.5q-32 0 -50.5 -20t-22.5 -53
h140z" />
    <glyph glyph-name="ae" unicode="&#xe6;" horiz-adv-x="820" 
d="M531 460q-23 -21 -29 -40.5t-6 -52.5v-17v-88l77 92q10 12 21 24q10 14 10 28q0 17 -10.5 30.5t-26.5 20.5l231 3l-155 -175l132 -206q21 -33 29 -43q17 -20 38 -33q-32 -2 -64 -3q-86 -5 -108 -5q-38 0 -61 28q-6 7 -24 38l-89 152v-102q0 -46 4.5 -66t30.5 -42l-242 -3
q24 23 31 51q4 17 4 60v102l-89 -152q-19 -33 -33 -46q-21 -20 -52 -20q-37 0 -98.5 2.5t-73.5 2.5q20 14 37 35q10 13 30 44l132 206l-155 172l231 3q-15 -9 -26 -23.5t-11 -30.5q0 -14 10 -27t21 -25l77 -92v88v17q0 41 -8.5 58t-26.5 32z" />
    <glyph glyph-name="ae" unicode="&#x436;" horiz-adv-x="820" 
d="M531 460q-23 -21 -29 -40.5t-6 -52.5v-17v-88l77 92q10 12 21 24q10 14 10 28q0 17 -10.5 30.5t-26.5 20.5l231 3l-155 -175l132 -206q21 -33 29 -43q17 -20 38 -33q-32 -2 -64 -3q-86 -5 -108 -5q-38 0 -61 28q-6 7 -24 38l-89 152v-102q0 -46 4.5 -66t30.5 -42l-242 -3
q24 23 31 51q4 17 4 60v102l-89 -152q-19 -33 -33 -46q-21 -20 -52 -20q-37 0 -98.5 2.5t-73.5 2.5q20 14 37 35q10 13 30 44l132 206l-155 172l231 3q-15 -9 -26 -23.5t-11 -30.5q0 -14 10 -27t21 -25l77 -92v88v17q0 41 -8.5 58t-26.5 32z" />
    <glyph glyph-name="ccedilla" unicode="&#xe7;" horiz-adv-x="460" 
d="M94 287h47q40 0 64.5 11.5t24.5 35.5q0 48 -63 48q-28 0 -56 -11t-52 -27v121q32 4 73 6t83 2q78 0 129 -25q64 -31 64 -92q0 -31 -17 -53t-47 -37q41 -18 64.5 -47.5t23.5 -70.5q0 -81 -85 -124q-71 -36 -166 -36q-34 0 -64.5 3.5t-63.5 10.5l-60 120q45 -19 86.5 -29.5
t81.5 -10.5q43 0 66.5 15.5t23.5 44.5q0 59 -105 59h-52v86z" />
    <glyph glyph-name="ccedilla" unicode="&#x437;" horiz-adv-x="460" 
d="M94 287h47q40 0 64.5 11.5t24.5 35.5q0 48 -63 48q-28 0 -56 -11t-52 -27v121q32 4 73 6t83 2q78 0 129 -25q64 -31 64 -92q0 -31 -17 -53t-47 -37q41 -18 64.5 -47.5t23.5 -70.5q0 -81 -85 -124q-71 -36 -166 -36q-34 0 -64.5 3.5t-63.5 10.5l-60 120q45 -19 86.5 -29.5
t81.5 -10.5q43 0 66.5 15.5t23.5 44.5q0 59 -105 59h-52v86z" />
    <glyph glyph-name="egrave" unicode="&#xe8;" horiz-adv-x="600" 
d="M540 110v-46q4 -35 35 -61l-243 -3q26 23 32 50q3 13 3 60v183l-106 -187q-18 -33 -33 -49.5t-38 -29.5q-36 -19 -70.5 -30t-59.5 -11v364v17q0 41 -8.5 58t-26.5 32l243 3q-23 -21 -29 -40.5t-6 -52.5v-17v-118l126 225l216 3q-23 -21 -29 -40t-6 -53v-17v-240z" />
    <glyph glyph-name="egrave" unicode="&#x438;" horiz-adv-x="600" 
d="M540 110v-46q4 -35 35 -61l-243 -3q26 23 32 50q3 13 3 60v183l-106 -187q-18 -33 -33 -49.5t-38 -29.5q-36 -19 -70.5 -30t-59.5 -11v364v17q0 41 -8.5 58t-26.5 32l243 3q-23 -21 -29 -40.5t-6 -52.5v-17v-118l126 225l216 3q-23 -21 -29 -40t-6 -53v-17v-240z" />
    <glyph glyph-name="eacute" unicode="&#xe9;" horiz-adv-x="600" 
d="M180 656l-54 -24q26 -58 67.5 -84t106.5 -26t106.5 25.5t67.5 84.5l-54 24q-18 -31 -49 -44t-71 -13q-42 0 -69 11q-33 14 -51 46zM540 110v-46q4 -35 35 -61l-243 -3q26 23 32 50q3 13 3 60v183l-106 -187q-18 -33 -33 -49.5t-38 -29.5q-36 -19 -70.5 -30t-59.5 -11v364
v17q0 41 -8.5 58t-26.5 32l243 3q-23 -21 -29 -40.5t-6 -52.5v-17v-118l126 225l216 3q-23 -21 -29 -40t-6 -53v-17v-240z" />
    <glyph glyph-name="eacute" unicode="&#x439;" horiz-adv-x="600" 
d="M180 656l-54 -24q26 -58 67.5 -84t106.5 -26t106.5 25.5t67.5 84.5l-54 24q-18 -31 -49 -44t-71 -13q-42 0 -69 11q-33 14 -51 46zM540 110v-46q4 -35 35 -61l-243 -3q26 23 32 50q3 13 3 60v183l-106 -187q-18 -33 -33 -49.5t-38 -29.5q-36 -19 -70.5 -30t-59.5 -11v364
v17q0 41 -8.5 58t-26.5 32l243 3q-23 -21 -29 -40.5t-6 -52.5v-17v-118l126 225l216 3q-23 -21 -29 -40t-6 -53v-17v-240z" />
    <glyph glyph-name="ecircumflex" unicode="&#xea;" horiz-adv-x="560" 
d="M233 262l80 92q10 12 21 24q10 14 10 28q0 17 -10.5 30.5t-26.5 20.5l231 3l-155 -175l132 -206q21 -33 29 -43q17 -20 38 -33q-32 -2 -64 -3q-86 -5 -108 -5q-38 0 -61 28q-6 7 -24 38l-92 152v-102q0 -46 4.5 -66t30.5 -42l-243 -3q26 24 32 51q3 13 3 60v239v17
q0 41 -8.5 58t-26.5 32l243 3q-23 -21 -29 -40.5t-6 -52.5v-17v-88z" />
    <glyph glyph-name="ecircumflex" unicode="&#x43a;" horiz-adv-x="560" 
d="M233 262l80 92q10 12 21 24q10 14 10 28q0 17 -10.5 30.5t-26.5 20.5l231 3l-155 -175l132 -206q21 -33 29 -43q17 -20 38 -33q-32 -2 -64 -3q-86 -5 -108 -5q-38 0 -61 28q-6 7 -24 38l-92 152v-102q0 -46 4.5 -66t30.5 -42l-243 -3q26 24 32 51q3 13 3 60v239v17
q0 41 -8.5 58t-26.5 32l243 3q-23 -21 -29 -40.5t-6 -52.5v-17v-88z" />
    <glyph glyph-name="edieresis" unicode="&#xeb;" horiz-adv-x="520" 
d="M309 85l-82 225l-68 -201q-20 -60 -59.5 -89.5t-91.5 -29.5h-4l-25 85q38 0 59 10t32 41l83 235q7 18 10 28q7 20 7 28q0 13 -8.5 23t-23.5 18l216 2q4 -14 7 -25q10 -32 29 -79l117 -293q7 -17 11 -25q11 -20 30 -36l-263 -2q19 13 25 19q10 10 10 26q0 9 -2.5 18
t-8.5 22z" />
    <glyph glyph-name="edieresis" unicode="&#x43b;" horiz-adv-x="520" 
d="M309 85l-82 225l-68 -201q-20 -60 -59.5 -89.5t-91.5 -29.5h-4l-25 85q38 0 59 10t32 41l83 235q7 18 10 28q7 20 7 28q0 13 -8.5 23t-23.5 18l216 2q4 -14 7 -25q10 -32 29 -79l117 -293q7 -17 11 -25q11 -20 30 -36l-263 -2q19 13 25 19q10 10 10 26q0 9 -2.5 18
t-8.5 22z" />
    <glyph glyph-name="igrave" unicode="&#xec;" horiz-adv-x="720" 
d="M654 460q-16 -15 -22 -24.5t-6 -25.5q1 -6 1 -9l36 -283q6 -50 14.5 -75t28.5 -40l-235 -3q14 13 20.5 28t4.5 33l-25 217l-106 -288l-13 3q-24 6 -37 11.5t-33 21t-34 40.5q-8 13 -22 47l-66 165l-24 -213q-2 -22 7 -38t27 -24l-163 -3q18 14 28 49q7 23 12 61l37 275
q1 6 1 16q0 31 -30 56l203 3l99 -242l86 239z" />
    <glyph glyph-name="igrave" unicode="&#x43c;" horiz-adv-x="720" 
d="M654 460q-16 -15 -22 -24.5t-6 -25.5q1 -6 1 -9l36 -283q6 -50 14.5 -75t28.5 -40l-235 -3q14 13 20.5 28t4.5 33l-25 217l-106 -288l-13 3q-24 6 -37 11.5t-33 21t-34 40.5q-8 13 -22 47l-66 165l-24 -213q-2 -22 7 -38t27 -24l-163 -3q18 14 28 49q7 23 12 61l37 275
q1 6 1 16q0 31 -30 56l203 3l99 -242l86 239z" />
    <glyph glyph-name="iacute" unicode="&#xed;" 
d="M520 110v-46q4 -35 35 -61l-243 -3q26 23 32 50q3 13 3 60v91h-114v-91v-46q4 -35 35 -61l-243 -3q26 23 32 50q3 13 3 60v240v17q0 41 -8.5 58t-26.5 32l243 3q-23 -21 -29 -40.5t-6 -52.5v-17v-62h114v62v17q0 41 -8.5 58t-26.5 32l243 3q-23 -21 -29 -40.5t-6 -52.5
v-17v-240z" />
    <glyph glyph-name="iacute" unicode="&#x43d;" 
d="M520 110v-46q4 -35 35 -61l-243 -3q26 23 32 50q3 13 3 60v91h-114v-91v-46q4 -35 35 -61l-243 -3q26 23 32 50q3 13 3 60v240v17q0 41 -8.5 58t-26.5 32l243 3q-23 -21 -29 -40.5t-6 -52.5v-17v-62h114v62v17q0 41 -8.5 58t-26.5 32l243 3q-23 -21 -29 -40.5t-6 -52.5
v-17v-240z" />
    <glyph glyph-name="icircumflex" unicode="&#xee;" 
d="M29 226q0 114 72 180.5t188 66.5q53 0 96 -13t80.5 -44.5t59.5 -79.5t22 -100q0 -116 -74.5 -182.5t-191.5 -66.5q-110 0 -181 65t-71 174zM379 215q0 84 -28 126q-24 36 -66 36q-48 0 -70 -40q-18 -33 -18 -85q0 -71 15 -111q23 -61 81 -61q50 0 71 45q15 33 15 90z" />
    <glyph glyph-name="icircumflex" unicode="&#x43e;" 
d="M29 226q0 114 72 180.5t188 66.5q53 0 96 -13t80.5 -44.5t59.5 -79.5t22 -100q0 -116 -74.5 -182.5t-191.5 -66.5q-110 0 -181 65t-71 174zM379 215q0 84 -28 126q-24 36 -66 36q-48 0 -70 -40q-18 -33 -18 -85q0 -71 15 -111q23 -61 81 -61q50 0 71 45q15 33 15 90z" />
    <glyph glyph-name="idieresis" unicode="&#xef;" 
d="M520 110v-46q4 -35 35 -61l-243 -3q26 23 32 50q3 13 3 60v263h-114v-263v-46q4 -35 35 -61l-243 -3q26 23 32 50q3 13 3 60v240v17q0 41 -8.5 58t-26.5 32l530 3q-23 -21 -29 -40.5t-6 -52.5v-17v-240z" />
    <glyph glyph-name="idieresis" unicode="&#x43f;" 
d="M520 110v-46q4 -35 35 -61l-243 -3q26 23 32 50q3 13 3 60v263h-114v-263v-46q4 -35 35 -61l-243 -3q26 23 32 50q3 13 3 60v240v17q0 41 -8.5 58t-26.5 32l530 3q-23 -21 -29 -40.5t-6 -52.5v-17v-240z" />
    <glyph glyph-name="eth" unicode="&#xf0;" horiz-adv-x="600" 
d="M224 412q21 30 55 45.5t73 15.5q99 0 157 -68q55 -65 55 -167q0 -49 -14.5 -95t-44.5 -82q-33 -41 -77.5 -58t-102.5 -17l-43 4l-36 93q7 -2 14 -3t17 -1q58 0 82 45q18 34 18 99q0 56 -14 93q-21 54 -68 54t-62 -39q-9 -23 -9 -79v-350v-46q4 -35 35 -61l-242 -3
q21 19 27.5 39.5t6.5 49.5v21v448v16q0 43 -7.5 58.5t-26.5 32.5l136 3q20 0 36.5 3t31.5 12z" />
    <glyph glyph-name="eth" unicode="&#x440;" horiz-adv-x="600" 
d="M224 412q21 30 55 45.5t73 15.5q99 0 157 -68q55 -65 55 -167q0 -49 -14.5 -95t-44.5 -82q-33 -41 -77.5 -58t-102.5 -17l-43 4l-36 93q7 -2 14 -3t17 -1q58 0 82 45q18 34 18 99q0 56 -14 93q-21 54 -68 54t-62 -39q-9 -23 -9 -79v-350v-46q4 -35 35 -61l-242 -3
q21 19 27.5 39.5t6.5 49.5v21v448v16q0 43 -7.5 58.5t-26.5 32.5l136 3q20 0 36.5 3t31.5 12z" />
    <glyph glyph-name="ntilde" unicode="&#xf1;" horiz-adv-x="500" 
d="M429 348q-27 17 -51 25t-54 8q-49 0 -76 -35q-15 -19 -20.5 -44t-5.5 -55q0 -34 10.5 -68t31.5 -57q15 -18 39.5 -26.5t51.5 -8.5q34 0 69.5 13t62.5 34l-29 -109q-40 -20 -82 -29t-90 -9q-107 0 -180 63q-77 67 -77 173q0 119 83 187q77 63 199 63q19 0 44 -3
q59 -7 74 -7v-115z" />
    <glyph glyph-name="ntilde" unicode="&#x441;" horiz-adv-x="500" 
d="M429 348q-27 17 -51 25t-54 8q-49 0 -76 -35q-15 -19 -20.5 -44t-5.5 -55q0 -34 10.5 -68t31.5 -57q15 -18 39.5 -26.5t51.5 -8.5q34 0 69.5 13t62.5 34l-29 -109q-40 -20 -82 -29t-90 -9q-107 0 -180 63q-77 67 -77 173q0 119 83 187q77 63 199 63q19 0 44 -3
q59 -7 74 -7v-115z" />
    <glyph glyph-name="ograve" unicode="&#xf2;" horiz-adv-x="480" 
d="M154 370q-12 3 -34 3q-56 0 -113 -39l-7 -5l30 134q11 -3 19 -3h429l-29 -131q-11 24 -31.5 34t-50.5 10l-40 -3v-260q0 -38 9 -61.5t36 -45.5l-263 -3q27 25 36 48t9 62v260z" />
    <glyph glyph-name="ograve" unicode="&#x442;" horiz-adv-x="480" 
d="M154 370q-12 3 -34 3q-56 0 -113 -39l-7 -5l30 134q11 -3 19 -3h429l-29 -131q-11 24 -31.5 34t-50.5 10l-40 -3v-260q0 -38 9 -61.5t36 -45.5l-263 -3q27 25 36 48t9 62v260z" />
    <glyph glyph-name="oacute" unicode="&#xf3;" horiz-adv-x="480" 
d="M346 350q7 19 10 31.5t3 26.5q0 17 -5.5 26.5t-18.5 22.5l147 3l-188 -497q-22 -61 -37 -83q-23 -35 -69 -60q-30 -15 -70 -21.5t-80 -6.5l-45 3l79 100q14 -4 22 -4q52 0 83 35q24 27 40 84q-30 20 -49 45t-35 63l-104 248q-13 31 -26 51q-17 27 -38 40l220 3
q2 -13 7.5 -28t11.5 -29l9 -23l77 -190z" />
    <glyph glyph-name="oacute" unicode="&#x443;" horiz-adv-x="480" 
d="M346 350q7 19 10 31.5t3 26.5q0 17 -5.5 26.5t-18.5 22.5l147 3l-188 -497q-22 -61 -37 -83q-23 -35 -69 -60q-30 -15 -70 -21.5t-80 -6.5l-45 3l79 100q14 -4 22 -4q52 0 83 35q24 27 40 84q-30 20 -49 45t-35 63l-104 248q-13 31 -26 51q-17 27 -38 40l220 3
q2 -13 7.5 -28t11.5 -29l9 -23l77 -190z" />
    <glyph glyph-name="ocircumflex" unicode="&#xf4;" horiz-adv-x="889" 
d="M531 437q47 36 121 36q99 0 157 -68q55 -65 55 -167q0 -49 -14.5 -95t-44.5 -82q-33 -41 -77.5 -58t-102.5 -17l-43 4l-36 93q7 -2 14 -3t17 -1q58 0 82 45q18 34 18 99q0 56 -14 93q-21 54 -68 54q-29 0 -45 -19q-12 -15 -19 -42v-407v-46q4 -35 35 -61l-242 -3
q21 19 27.5 39.5t6.5 49.5v21v407q-9 36 -24.5 48.5t-39.5 12.5q-46 0 -67 -54q-15 -39 -15 -93q0 -84 30 -117q24 -27 70 -27q8 0 17 1.5t14 2.5l-36 -93l-43 -4q-60 0 -99 15q-47 18 -81 60q-28 34 -43.5 82t-15.5 95q0 103 55.5 169t156.5 66q72 0 121 -36v111
q0 43 -4 59q-7 27 -32 48l121 3h12q26 0 40 2.5t33 13.5z" />
    <glyph glyph-name="ocircumflex" unicode="&#x444;" horiz-adv-x="889" 
d="M531 437q47 36 121 36q99 0 157 -68q55 -65 55 -167q0 -49 -14.5 -95t-44.5 -82q-33 -41 -77.5 -58t-102.5 -17l-43 4l-36 93q7 -2 14 -3t17 -1q58 0 82 45q18 34 18 99q0 56 -14 93q-21 54 -68 54q-29 0 -45 -19q-12 -15 -19 -42v-407v-46q4 -35 35 -61l-242 -3
q21 19 27.5 39.5t6.5 49.5v21v407q-9 36 -24.5 48.5t-39.5 12.5q-46 0 -67 -54q-15 -39 -15 -93q0 -84 30 -117q24 -27 70 -27q8 0 17 1.5t14 2.5l-36 -93l-43 -4q-60 0 -99 15q-47 18 -81 60q-28 34 -43.5 82t-15.5 95q0 103 55.5 169t156.5 66q72 0 121 -36v111
q0 43 -4 59q-7 27 -32 48l121 3h12q26 0 40 2.5t33 13.5z" />
    <glyph glyph-name="otilde" unicode="&#xf5;" horiz-adv-x="520" 
d="M452 78q23 -35 27 -41q16 -22 35 -34l-220 -3q-7 20 -12 31.5t-31 56.5l-36 63l-39 -58q-7 -10 -11 -16q-10 -16 -10 -30q0 -16 10 -30q4 -6 13 -14l-176 -3l167 230l-95 150q-23 36 -28 43q-17 22 -37 34l218 3q4 -31 19 -61.5t43 -61.5l11 15q18 25 26 41.5t8 28.5
q0 11 -5 20t-14 15l165 3l-141 -198z" />
    <glyph glyph-name="otilde" unicode="&#x445;" horiz-adv-x="520" 
d="M452 78q23 -35 27 -41q16 -22 35 -34l-220 -3q-7 20 -12 31.5t-31 56.5l-36 63l-39 -58q-7 -10 -11 -16q-10 -16 -10 -30q0 -16 10 -30q4 -6 13 -14l-176 -3l167 230l-95 150q-23 36 -28 43q-17 22 -37 34l218 3q4 -31 19 -61.5t43 -61.5l11 15q18 25 26 41.5t8 28.5
q0 11 -5 20t-14 15l165 3l-141 -198z" />
    <glyph glyph-name="odieresis" unicode="&#xf6;" 
d="M25 0q26 23 32 50q3 13 3 60v240v17q0 41 -8.5 58t-26.5 32l243 3q-23 -21 -29 -40.5t-6 -52.5v-17v-261q8 -2 18 -3t22 -1h34q16 0 25.5 1t14.5 3v261v17q0 41 -8.5 58t-26.5 32l243 3q-23 -21 -29 -40t-6 -53v-17v-240l1 -26h52l-32 -148q-12 28 -41.5 46t-70.5 18
h-404z" />
    <glyph glyph-name="odieresis" unicode="&#x446;" 
d="M25 0q26 23 32 50q3 13 3 60v240v17q0 41 -8.5 58t-26.5 32l243 3q-23 -21 -29 -40.5t-6 -52.5v-17v-261q8 -2 18 -3t22 -1h34q16 0 25.5 1t14.5 3v261v17q0 41 -8.5 58t-26.5 32l243 3q-23 -21 -29 -40t-6 -53v-17v-240l1 -26h52l-32 -148q-12 28 -41.5 46t-70.5 18
h-404z" />
    <glyph glyph-name="divide" unicode="&#xf7;" horiz-adv-x="560" 
d="M500 110v-46q4 -35 35 -61l-253 -3q27 25 36 48t9 62v86q-26 -20 -60.5 -31t-83.5 -11q-55 0 -94 38t-39 96v62v17q0 41 -8.5 58t-26.5 32l243 3q-23 -21 -29 -40.5t-6 -52.5v-17v-43q0 -41 40 -41q37 0 64 25v59v17q0 41 -8.5 58t-26.5 32l243 3q-23 -21 -29 -40t-6 -53
v-17v-240z" />
    <glyph glyph-name="divide" unicode="&#x447;" horiz-adv-x="560" 
d="M500 110v-46q4 -35 35 -61l-253 -3q27 25 36 48t9 62v86q-26 -20 -60.5 -31t-83.5 -11q-55 0 -94 38t-39 96v62v17q0 41 -8.5 58t-26.5 32l243 3q-23 -21 -29 -40.5t-6 -52.5v-17v-43q0 -41 40 -41q37 0 64 25v59v17q0 41 -8.5 58t-26.5 32l243 3q-23 -21 -29 -40t-6 -53
v-17v-240z" />
    <glyph glyph-name="oslash" unicode="&#xf8;" horiz-adv-x="800" 
d="M25 0q26 23 32 50q3 13 3 60v240v17q0 41 -8.5 58t-26.5 32l243 3q-23 -21 -29 -40.5t-6 -52.5v-17v-261q8 -2 18 -3t22 -1q16 0 25.5 1t14.5 3v261v17q0 41 -8.5 58t-26.5 32l243 3q-23 -21 -29 -40.5t-6 -52.5v-17v-261q8 -2 18.5 -3t22.5 -1q16 0 25.5 1t14.5 3v261
v17q0 41 -8.5 58t-26.5 32l243 3q-23 -21 -29 -40t-6 -53v-17v-240v-46q4 -35 35 -61z" />
    <glyph glyph-name="oslash" unicode="&#x448;" horiz-adv-x="800" 
d="M25 0q26 23 32 50q3 13 3 60v240v17q0 41 -8.5 58t-26.5 32l243 3q-23 -21 -29 -40.5t-6 -52.5v-17v-261q8 -2 18 -3t22 -1q16 0 25.5 1t14.5 3v261v17q0 41 -8.5 58t-26.5 32l243 3q-23 -21 -29 -40.5t-6 -52.5v-17v-261q8 -2 18.5 -3t22.5 -1q16 0 25.5 1t14.5 3v261
v17q0 41 -8.5 58t-26.5 32l243 3q-23 -21 -29 -40t-6 -53v-17v-240v-46q4 -35 35 -61z" />
    <glyph glyph-name="ugrave" unicode="&#xf9;" horiz-adv-x="800" 
d="M25 0q26 23 32 50q3 13 3 60v240v17q0 41 -8.5 58t-26.5 32l243 3q-23 -21 -29 -40.5t-6 -52.5v-17v-261q8 -2 18 -3t22 -1q16 0 25.5 1t14.5 3v261v17q0 41 -8.5 58t-26.5 32l243 3q-23 -21 -29 -40.5t-6 -52.5v-17v-261q8 -2 18.5 -3t22.5 -1q16 0 25.5 1t14.5 3v261
v17q0 41 -8.5 58t-26.5 32l243 3q-23 -21 -29 -40t-6 -53v-17v-240l1 -26h52l-32 -148q-12 28 -41.5 46t-70.5 18h-624z" />
    <glyph glyph-name="ugrave" unicode="&#x449;" horiz-adv-x="800" 
d="M25 0q26 23 32 50q3 13 3 60v240v17q0 41 -8.5 58t-26.5 32l243 3q-23 -21 -29 -40.5t-6 -52.5v-17v-261q8 -2 18 -3t22 -1q16 0 25.5 1t14.5 3v261v17q0 41 -8.5 58t-26.5 32l243 3q-23 -21 -29 -40.5t-6 -52.5v-17v-261q8 -2 18.5 -3t22.5 -1q16 0 25.5 1t14.5 3v261
v17q0 41 -8.5 58t-26.5 32l243 3q-23 -21 -29 -40t-6 -53v-17v-240l1 -26h52l-32 -148q-12 28 -41.5 46t-70.5 18h-624z" />
    <glyph glyph-name="uacute" unicode="&#xfa;" horiz-adv-x="520" 
d="M310 460q-24 -20 -30.5 -46t-6.5 -65v-273q40 0 57.5 23t17.5 64q0 35 -19 61.5t-51 37.5q7 1 20 1.5t18 0.5q92 0 143 -29q61 -35 61 -109q0 -76 -80 -109q-32 -14 -77 -15.5t-76 -1.5h-222q24 22 31 50q4 17 4 60v263q-28 0 -50 -9t-53 -30l-7 -5l30 134q11 -3 19 -3
h271z" />
    <glyph glyph-name="uacute" unicode="&#x44a;" horiz-adv-x="520" 
d="M310 460q-24 -20 -30.5 -46t-6.5 -65v-273q40 0 57.5 23t17.5 64q0 35 -19 61.5t-51 37.5q7 1 20 1.5t18 0.5q92 0 143 -29q61 -35 61 -109q0 -76 -80 -109q-32 -14 -77 -15.5t-76 -1.5h-222q24 22 31 50q4 17 4 60v263q-28 0 -50 -9t-53 -30l-7 -5l30 134q11 -3 19 -3
h271z" />
    <glyph glyph-name="ucircumflex" unicode="&#xfb;" horiz-adv-x="780" 
d="M233 349v-273q40 0 57.5 23t17.5 64q0 35 -19 61.5t-51 37.5q7 1 20 1.5t18 0.5q92 0 143 -29q61 -35 61 -109q0 -76 -80 -109q-32 -14 -77 -15.5t-76 -1.5h-222q24 22 31 50q4 17 4 60v240v17q0 41 -8 58t-27 33l245 2q-24 -20 -30.5 -46t-6.5 -65zM720 110v-46
q4 -35 35 -61l-243 -3q26 23 32 50q3 13 3 60v240v17q0 41 -8.5 58t-26.5 32l243 3q-23 -21 -29 -40t-6 -53v-17v-240z" />
    <glyph glyph-name="ucircumflex" unicode="&#x44b;" horiz-adv-x="780" 
d="M233 349v-273q40 0 57.5 23t17.5 64q0 35 -19 61.5t-51 37.5q7 1 20 1.5t18 0.5q92 0 143 -29q61 -35 61 -109q0 -76 -80 -109q-32 -14 -77 -15.5t-76 -1.5h-222q24 22 31 50q4 17 4 60v240v17q0 41 -8 58t-27 33l245 2q-24 -20 -30.5 -46t-6.5 -65zM720 110v-46
q4 -35 35 -61l-243 -3q26 23 32 50q3 13 3 60v240v17q0 41 -8.5 58t-26.5 32l243 3q-23 -21 -29 -40t-6 -53v-17v-240z" />
    <glyph glyph-name="udieresis" unicode="&#xfc;" horiz-adv-x="480" 
d="M233 349v-273q40 0 57.5 23t17.5 64q0 35 -19 61.5t-51 37.5q7 1 20 1.5t18 0.5q92 0 143 -29q61 -35 61 -109q0 -76 -80 -109q-32 -14 -77 -15.5t-76 -1.5h-222q24 22 31 50q4 17 4 60v240v17q0 41 -8 58t-27 33l245 2q-24 -20 -30.5 -46t-6.5 -65z" />
    <glyph glyph-name="udieresis" unicode="&#x44c;" horiz-adv-x="480" 
d="M233 349v-273q40 0 57.5 23t17.5 64q0 35 -19 61.5t-51 37.5q7 1 20 1.5t18 0.5q92 0 143 -29q61 -35 61 -109q0 -76 -80 -109q-32 -14 -77 -15.5t-76 -1.5h-222q24 22 31 50q4 17 4 60v240v17q0 41 -8 58t-27 33l245 2q-24 -20 -30.5 -46t-6.5 -65z" />
    <glyph glyph-name="yacute" unicode="&#xfd;" horiz-adv-x="500" 
d="M276 289q-5 42 -33 67t-67 25q-28 0 -52.5 -8t-49.5 -25l-3 115q19 0 44 3q59 7 74 7q122 0 199 -63q83 -68 83 -187q0 -106 -74.5 -171t-182.5 -65q-46 0 -89 9t-83 29l-32 109q29 -21 64.5 -34t70.5 -13q56 0 88 30t41 83h-153v89h155z" />
    <glyph glyph-name="yacute" unicode="&#x44d;" horiz-adv-x="500" 
d="M276 289q-5 42 -33 67t-67 25q-28 0 -52.5 -8t-49.5 -25l-3 115q19 0 44 3q59 7 74 7q122 0 199 -63q83 -68 83 -187q0 -106 -74.5 -171t-182.5 -65q-46 0 -89 9t-83 29l-32 109q29 -21 64.5 -34t70.5 -13q56 0 88 30t41 83h-153v89h155z" />
    <glyph glyph-name="thorn" unicode="&#xfe;" horiz-adv-x="820" 
d="M294 205h-61v-95v-46q4 -35 35 -61l-243 -3q26 23 32 50q3 13 3 60v240v17q0 41 -8.5 58t-26.5 32l243 3q-23 -21 -29 -40.5t-6 -52.5v-17v-66h63q17 89 83 139t164 50q110 0 179 -63.5t69 -173.5q0 -117 -70 -183t-186 -66q-104 0 -171 58q-70 61 -70 160zM623 215
q0 63 -15 104q-21 58 -69 58q-42 0 -62 -40q-16 -32 -16 -85q0 -72 13 -111q21 -61 73 -61q34 0 53 27q23 33 23 108z" />
    <glyph glyph-name="thorn" unicode="&#x44e;" horiz-adv-x="820" 
d="M294 205h-61v-95v-46q4 -35 35 -61l-243 -3q26 23 32 50q3 13 3 60v240v17q0 41 -8.5 58t-26.5 32l243 3q-23 -21 -29 -40.5t-6 -52.5v-17v-66h63q17 89 83 139t164 50q110 0 179 -63.5t69 -173.5q0 -117 -70 -183t-186 -66q-104 0 -171 58q-70 61 -70 160zM623 215
q0 63 -15 104q-21 58 -69 58q-42 0 -62 -40q-16 -32 -16 -85q0 -72 13 -111q21 -61 73 -61q34 0 53 27q23 33 23 108z" />
    <glyph glyph-name="ydieresis" unicode="&#xff;" horiz-adv-x="540" 
d="M515 460q-23 -21 -29 -40t-6 -53v-17v-240v-46q4 -35 35 -61l-243 -3q26 23 32 50q3 13 3 60v87l-77 -152q-17 -32 -47 -41q-20 -6 -72 -6l-146 6q26 18 50.5 39.5t40.5 44.5l89 129q-42 15 -70.5 48.5t-28.5 72.5q0 74 74 106q25 11 50 13.5t63 2.5h282zM307 371h-8
q-17 0 -27 -1t-22 -7q-33 -16 -33 -52q0 -32 24 -51.5t66 -25.5v137z" />
    <glyph glyph-name="ydieresis" unicode="&#x44f;" horiz-adv-x="540" 
d="M515 460q-23 -21 -29 -40t-6 -53v-17v-240v-46q4 -35 35 -61l-243 -3q26 23 32 50q3 13 3 60v87l-77 -152q-17 -32 -47 -41q-20 -6 -72 -6l-146 6q26 18 50.5 39.5t40.5 44.5l89 129q-42 15 -70.5 48.5t-28.5 72.5q0 74 74 106q25 11 50 13.5t63 2.5h282zM307 371h-8
q-17 0 -27 -1t-22 -7q-33 -16 -33 -52q0 -32 24 -51.5t66 -25.5v137z" />
    <glyph glyph-name="OE" unicode="&#x152;" horiz-adv-x="900" 
d="M418 300h-179v-157v-33q0 -50 10.5 -71.5t31.5 -35.5l-269 -3q26 18 34 45t8 65v33v372v33q0 50 -10.5 71.5t-31.5 35.5l269 3q-26 -18 -34 -42.5t-8 -61.5v-39v-114h179v114v33q0 50 -10.5 71.5t-31.5 35.5l267 3q-29 -29 -36.5 -60.5t-7.5 -84.5v-414q55 0 81 38
q22 33 22 92q0 105 -97 146q9 2 19.5 2h16.5q104 0 169 -45q76 -52 76 -152q0 -52 -24.5 -92.5t-70.5 -63.5q-32 -16 -76 -20t-103 -4h-236q26 18 34 45t8 65v33v157z" />
    <glyph glyph-name="OE" unicode="&#x40a;" horiz-adv-x="900" 
d="M418 300h-179v-157v-33q0 -50 10.5 -71.5t31.5 -35.5l-269 -3q26 18 34 45t8 65v33v372v33q0 50 -10.5 71.5t-31.5 35.5l269 3q-26 -18 -34 -42.5t-8 -61.5v-39v-114h179v114v33q0 50 -10.5 71.5t-31.5 35.5l267 3q-29 -29 -36.5 -60.5t-7.5 -84.5v-414q55 0 81 38
q22 33 22 92q0 105 -97 146q9 2 19.5 2h16.5q104 0 169 -45q76 -52 76 -152q0 -52 -24.5 -92.5t-70.5 -63.5q-32 -16 -76 -20t-103 -4h-236q26 18 34 45t8 65v33v157z" />
    <glyph glyph-name="oe" unicode="&#x153;" horiz-adv-x="780" 
d="M347 201h-114v-91v-46q4 -35 35 -61l-243 -3q26 23 32 50q3 13 3 60v240v17q0 41 -8.5 58t-26.5 32l243 3q-23 -21 -29 -40.5t-6 -52.5v-17v-62h114v62v17q0 41 -8 58t-27 33l245 2q-24 -20 -30.5 -46t-6.5 -65v-273q40 0 57.5 23t17.5 64q0 35 -19 61.5t-51 37.5
q7 1 20 1.5t18 0.5q92 0 143 -29q61 -35 61 -109q0 -76 -80 -109q-32 -14 -77 -15.5t-76 -1.5h-222q24 22 31 50q4 17 4 60v91z" />
    <glyph glyph-name="oe" unicode="&#x45a;" horiz-adv-x="780" 
d="M347 201h-114v-91v-46q4 -35 35 -61l-243 -3q26 23 32 50q3 13 3 60v240v17q0 41 -8.5 58t-26.5 32l243 3q-23 -21 -29 -40.5t-6 -52.5v-17v-62h114v62v17q0 41 -8 58t-27 33l245 2q-24 -20 -30.5 -46t-6.5 -65v-273q40 0 57.5 23t17.5 64q0 35 -19 61.5t-51 37.5
q7 1 20 1.5t18 0.5q92 0 143 -29q61 -35 61 -109q0 -76 -80 -109q-32 -14 -77 -15.5t-76 -1.5h-222q24 22 31 50q4 17 4 60v91z" />
    <glyph glyph-name="Scaron" unicode="&#x160;" horiz-adv-x="840" 
d="M360 557h-37l-130 -401q-23 -69 -65 -116q-49 -55 -107 -55l-57 101q48 0 77 16q34 19 50 64l122 351q6 15 14 41.5t8 38.5q0 19 -10 32.5t-28 25.5l388 3q-29 -29 -36.5 -60.5t-7.5 -84.5v-414q55 0 81 38q22 33 22 92q0 105 -97 146q9 2 19.5 2h16.5q104 0 169 -45
q76 -52 76 -152q0 -52 -24.5 -92.5t-70.5 -63.5q-32 -16 -76 -20t-103 -4h-236q26 18 34 45t8 65v33v414z" />
    <glyph glyph-name="Scaron" unicode="&#x409;" horiz-adv-x="840" 
d="M360 557h-37l-130 -401q-23 -69 -65 -116q-49 -55 -107 -55l-57 101q48 0 77 16q34 19 50 64l122 351q6 15 14 41.5t8 38.5q0 19 -10 32.5t-28 25.5l388 3q-29 -29 -36.5 -60.5t-7.5 -84.5v-414q55 0 81 38q22 33 22 92q0 105 -97 146q9 2 19.5 2h16.5q104 0 169 -45
q76 -52 76 -152q0 -52 -24.5 -92.5t-70.5 -63.5q-32 -16 -76 -20t-103 -4h-236q26 18 34 45t8 65v33v414z" />
    <glyph glyph-name="scaron" unicode="&#x161;" horiz-adv-x="700" 
d="M263 373h-16l-88 -264q-20 -59 -59.5 -89t-91.5 -30h-4l-25 85q38 0 59 10t32 41l83 235q7 18 10 28q7 20 7 28q0 13 -8.5 23t-23.5 18l335 2q-24 -20 -30.5 -46t-6.5 -65v-273q40 0 57.5 23t17.5 64q0 35 -19 61.5t-51 37.5q7 1 20 1.5t18 0.5q92 0 143 -29
q61 -35 61 -109q0 -76 -80 -109q-32 -14 -77 -15.5t-76 -1.5h-222q24 22 31 50q4 17 4 60v263z" />
    <glyph glyph-name="scaron" unicode="&#x459;" horiz-adv-x="700" 
d="M263 373h-16l-88 -264q-20 -59 -59.5 -89t-91.5 -30h-4l-25 85q38 0 59 10t32 41l83 235q7 18 10 28q7 20 7 28q0 13 -8.5 23t-23.5 18l335 2q-24 -20 -30.5 -46t-6.5 -65v-273q40 0 57.5 23t17.5 64q0 35 -19 61.5t-51 37.5q7 1 20 1.5t18 0.5q92 0 143 -29
q61 -35 61 -109q0 -76 -80 -109q-32 -14 -77 -15.5t-76 -1.5h-222q24 22 31 50q4 17 4 60v263z" />
    <glyph glyph-name="Ydieresis" unicode="&#x178;" 
d="M178 0h-153q26 23 32 50q3 13 3 60v240v17q0 41 -8.5 58t-26.5 32l243 3q-23 -21 -29 -40.5t-6 -52.5v-17v-261q8 -2 18 -3t22 -1h34q16 0 25.5 1t14.5 3v261v17q0 41 -8.5 58t-26.5 32l243 3q-23 -21 -29 -40t-6 -53v-17v-240v-46q4 -35 35 -61l-153 -3q-41 0 -70.5 -18
t-41.5 -46q-12 28 -41.5 46t-70.5 18z" />
    <glyph glyph-name="Ydieresis" unicode="&#x45f;" 
d="M178 0h-153q26 23 32 50q3 13 3 60v240v17q0 41 -8.5 58t-26.5 32l243 3q-23 -21 -29 -40.5t-6 -52.5v-17v-261q8 -2 18 -3t22 -1h34q16 0 25.5 1t14.5 3v261v17q0 41 -8.5 58t-26.5 32l243 3q-23 -21 -29 -40t-6 -53v-17v-240v-46q4 -35 35 -61l-153 -3q-41 0 -70.5 -18
t-41.5 -46q-12 28 -41.5 46t-70.5 18z" />
    <glyph glyph-name="florin" unicode="&#x192;" horiz-adv-x="400" 
d="M233 110v-46q4 -35 35 -61l-243 -3q26 23 32 50q3 13 3 60v240v17q0 41 -8.5 58t-26.5 32l355 3v-131q-11 24 -31.5 34t-50.5 10q-28 0 -44 -2t-21 -2v-259zM358 594l-234 -87l-58 35l242 138z" />
    <glyph glyph-name="florin" unicode="&#x453;" horiz-adv-x="400" 
d="M233 110v-46q4 -35 35 -61l-243 -3q26 23 32 50q3 13 3 60v240v17q0 41 -8.5 58t-26.5 32l355 3v-131q-11 24 -31.5 34t-50.5 10q-28 0 -44 -2t-21 -2v-259zM358 594l-234 -87l-58 35l242 138z" />
    <glyph glyph-name="endash" unicode="&#x2013;" horiz-adv-x="500" 
d="M70 301h-14q-15 0 -21 -4t-17.5 -20.5t-16.5 -23.5l-51 -73q55 15 121 15h359h14q15 0 21 4t17.5 20.5t16.5 23.5l51 73q-55 -15 -121 -15h-359z" />
    <glyph glyph-name="emdash" unicode="&#x2014;" horiz-adv-x="1000" 
d="M70 301h-14q-15 0 -21 -4t-17.5 -20.5t-16.5 -23.5l-51 -73q55 15 121 15h859h14q15 0 21 4t17.5 20.5t16.5 23.5l51 73q-55 -15 -121 -15h-859z" />
    <glyph glyph-name="quoteleft" unicode="&#x2018;" horiz-adv-x="280" 
d="M211 631q-31 -25 -46 -40t-24 -30q33 0 56.5 -21.5t23.5 -53.5q0 -31 -24 -54t-54 -23q-37 0 -60.5 25.5t-23.5 63.5q0 32 17 62q14 25 40 52q21 23 29 29q21 17 38 17q28 0 49 -10z" />
    <glyph glyph-name="quoteright" unicode="&#x2019;" horiz-adv-x="280" 
d="M68 436q31 25 46 40t24 30q-33 0 -56.5 21.5t-23.5 53.5q0 31 24 54t54 23q37 0 60.5 -25.5t23.5 -63.5q0 -32 -15.5 -59.5t-41.5 -54.5q-21 -23 -29 -29q-21 -17 -38 -17q-28 0 -49 10z" />
    <glyph glyph-name="quotesinglbase" unicode="&#x201a;" horiz-adv-x="280" 
d="M69 -74q31 25 46 40t24 30q-33 0 -56.5 21.5t-23.5 53.5q0 31 24 54t54 23q37 0 60.5 -25.5t23.5 -63.5q0 -32 -15.5 -59.5t-41.5 -54.5q-21 -23 -29 -29q-21 -17 -38 -17q-28 0 -49 10z" />
    <glyph glyph-name="quotedblleft" unicode="&#x201c;" horiz-adv-x="500" 
d="M424 631q-31 -25 -46 -40t-24 -30q33 0 56.5 -21.5t23.5 -53.5q0 -31 -24 -54t-54 -23q-37 0 -60.5 25.5t-23.5 63.5q0 32 17 62q14 25 40 52q21 23 29 29q21 17 38 17q28 0 49 -10zM212 631q-31 -25 -46 -40t-24 -30q33 0 56.5 -21.5t23.5 -53.5q0 -31 -24 -54t-54 -23
q-37 0 -60.5 25.5t-23.5 63.5q0 32 17 62q14 25 40 52q21 23 29 29q21 17 38 17q28 0 49 -10z" />
    <glyph glyph-name="quotedblright" unicode="&#x201d;" horiz-adv-x="500" 
d="M281 436q31 25 46 40t24 30q-33 0 -56.5 21.5t-23.5 53.5q0 31 24 54t54 23q37 0 60.5 -25.5t23.5 -63.5q0 -32 -15.5 -59.5t-41.5 -54.5q-21 -23 -29 -29q-21 -17 -38 -17q-28 0 -49 10zM69 436q31 25 46 40t24 30q-33 0 -56.5 21.5t-23.5 53.5q0 31 24 54t54 23
q37 0 60.5 -25.5t23.5 -63.5q0 -32 -15.5 -59.5t-41.5 -54.5q-21 -23 -29 -29q-21 -17 -38 -17q-28 0 -49 10z" />
    <glyph glyph-name="quotedblbase" unicode="&#x201e;" horiz-adv-x="500" 
d="M281 -74q31 25 46 40t24 30q-33 0 -56.5 21.5t-23.5 53.5q0 31 24 54t54 23q37 0 60.5 -25.5t23.5 -63.5q0 -32 -15.5 -59.5t-41.5 -54.5q-21 -23 -29 -29q-21 -17 -38 -17q-28 0 -49 10zM69 -74q31 25 46 40t24 30q-33 0 -56.5 21.5t-23.5 53.5q0 31 24 54t54 23
q37 0 60.5 -25.5t23.5 -63.5q0 -32 -15.5 -59.5t-41.5 -54.5q-21 -23 -29 -29q-21 -17 -38 -17q-28 0 -49 10z" />
    <glyph glyph-name="dagger" unicode="&#x2020;" 
d="M350 -5v-34q0 -35 4 -56t20 -40l-163 -3q12 15 19 40.5t7 69.5v23v363h-70q-44 0 -68.5 -4t-50.5 -22l-3 155q25 -14 53 -18t70 -4h69v77q0 42 -4 67t-22 46l163 3q-16 -25 -20 -49.5t-4 -66.5v-77h70q36 0 62 4.5t55 17.5l3 -155q-25 15 -55 20.5t-65 5.5h-70v-363z" />
    <glyph glyph-name="daggerdbl" unicode="&#x2021;" 
d="M350 -5v-35q0 -35 4 -56t20 -39l-163 -3q16 22 21 47.5t5 62.5v23v109h-69q-43 0 -68.5 -4t-51.5 -20l-3 155q29 -19 67.5 -22t61.5 -3h63v149h-70q-44 0 -68.5 -4t-50.5 -22l-3 154q25 -14 53 -18t70 -4h69v77q0 42 -4 67t-22 46l163 3q-16 -25 -20 -49.5t-4 -66.5v-77
h70q36 0 62 4.5t55 17.5l3 -154q-25 15 -55 20.5t-65 5.5h-70v-149h69q44 0 67 4t51 21l3 -155q-23 14 -54 19t-69 5h-67v-109z" />
    <glyph glyph-name="bullet" unicode="&#x2022;" horiz-adv-x="380" 
d="M48 338q0 61 41 104t103 43q58 0 99 -41t41 -100q0 -62 -42.5 -103.5t-104.5 -41.5q-55 0 -96 42t-41 97z" />
    <glyph glyph-name="ellipsis" unicode="&#x2026;" horiz-adv-x="1000" 
d="M72 79q0 41 27.5 69.5t68.5 28.5q39 0 66 -27t27 -67q0 -41 -28.5 -68.5t-69.5 -27.5q-37 0 -64 27t-27 65zM405 79q0 41 27.5 69.5t68.5 28.5q39 0 66 -27t27 -67q0 -41 -28.5 -68.5t-69.5 -27.5q-37 0 -64 27t-27 65zM738 79q0 41 27.5 69.5t68.5 28.5q39 0 66 -27
t27 -67q0 -41 -28.5 -68.5t-69.5 -27.5q-37 0 -64 27t-27 65z" />
    <glyph glyph-name="perthousand" unicode="&#x2030;" horiz-adv-x="1180" 
d="M265 0h-88l376 658h89zM516 52q-20 28 -29.5 67t-9.5 79q0 81 38 138q44 66 122 66q77 0 119 -64q37 -56 37 -136q0 -40 -7.5 -74.5t-26.5 -63.5q-22 -33 -55 -52.5t-72 -19.5q-33 0 -64.5 16.5t-51.5 43.5zM688 207q0 45 -7 74q-12 50 -44 50q-26 0 -40.5 -36.5
t-14.5 -102.5q0 -47 7 -76q13 -53 45 -53q24 0 39 39t15 105zM878 52q-20 28 -29.5 67t-9.5 79q0 81 38 138q44 66 122 66q77 0 119 -64q37 -56 37 -136q0 -40 -7.5 -74.5t-26.5 -63.5q-22 -33 -55 -52.5t-72 -19.5q-33 0 -64.5 16.5t-51.5 43.5zM1050 207q0 45 -7 74
q-12 50 -44 50q-26 0 -40.5 -36.5t-14.5 -102.5q0 -47 7 -76q13 -53 45 -53q24 0 39 39t15 105zM62 316q-20 28 -29.5 67t-9.5 79q0 81 38 138q44 66 122 66q77 0 119 -64q37 -56 37 -136q0 -40 -7.5 -74.5t-26.5 -63.5q-22 -33 -55 -52.5t-72 -19.5q-33 0 -64.5 16.5
t-51.5 43.5zM234 471q0 45 -7 74q-12 50 -44 50q-26 0 -40.5 -36.5t-14.5 -102.5q0 -47 7 -76q13 -53 45 -53q24 0 39 39t15 105z" />
    <glyph glyph-name="guilsinglleft" unicode="&#x2039;" horiz-adv-x="320" 
d="M269 108h-92l-118 140l118 142h92l-89 -144z" />
    <glyph glyph-name="guilsinglright" unicode="&#x203a;" horiz-adv-x="320" 
d="M151 108h-92l89 140l-89 142h92l118 -142z" />
    <glyph glyph-name="trademark" unicode="&#x2122;" horiz-adv-x="920" 
d="M779 283h-58v322l-130 -322h-35l-126 322v-322h-60v375h96l107 -265l112 265h94v-375zM304 605h-119v-322h-65v322h-120v53h304v-53z" />
    </font>
</defs>
</svg>
