<?xml version="1.0" standalone="no"?>
<!DOCTYPE svg PUBLIC "-//W3C//DTD SVG 1.1//EN" "http://www.w3.org/Graphics/SVG/1.1/DTD/svg11.dtd" >
<svg xmlns="http://www.w3.org/2000/svg" xmlns:xlink="http://www.w3.org/1999/xlink" version="1.1">
<metadata>
Created by FontForge 20160405 at Sun Nov  4 12:29:59 2018
 By www-data
Copyright (C) 1990-1992 ParaGraph JV.
</metadata>
<defs>
<font id="BodoniBoldCyrillic" horiz-adv-x="2281" >
  <font-face 
    font-family="Bodoni"
    font-weight="700"
    font-stretch="normal"
    units-per-em="4096"
    panose-1="2 11 -30 0 0 0 0 0 0 0"
    ascent="3276"
    descent="-820"
    x-height="1790"
    cap-height="2683"
    bbox="-229 -950 4583 3404"
    underline-thickness="56"
    underline-position="-316"
    unicode-range="U+0020-2122"
  />
<missing-glyph horiz-adv-x="3072" 
d="M512 0v2560h2048v-2560h-2048zM2494 66v2428h-1916v-2428h1916z" />
    <glyph glyph-name=".notdef" horiz-adv-x="3072" 
d="M512 0v2560h2048v-2560h-2048zM2494 66v2428h-1916v-2428h1916z" />
    <glyph glyph-name=".null" horiz-adv-x="0" 
 />
    <glyph glyph-name="nonmarkingreturn" horiz-adv-x="0" 
 />
    <glyph glyph-name="space" unicode=" " horiz-adv-x="1438" 
 />
    <glyph glyph-name="exclam" unicode="!" horiz-adv-x="1454" 
d="M938 1626q-56 -156 -107.5 -379.5t-68.5 -386.5h-70q-8 144 -65 365q-65 240 -144 450q-76 214 -107.5 326.5t-31.5 259.5q0 225 103.5 352t273.5 127q113 0 200.5 -55t138 -157t50.5 -234q0 -126 -26.5 -240t-68.5 -224.5t-77 -203.5zM385 287q0 136 96 240t248 104
q149 0 246.5 -105t97.5 -239q0 -135 -97.5 -239.5t-246.5 -104.5q-152 0 -248 104t-96 240z" />
    <glyph glyph-name="quotedbl" unicode="&#x22;" horiz-adv-x="1905" 
d="M139 2695h676l-229 -1077h-217zM1090 2695h675l-229 -1077h-217z" />
    <glyph glyph-name="numbersign" unicode="#" horiz-adv-x="3670" 
d="M2294 -242h-361l140 729h-766l-140 -729h-360l139 729h-717l70 369h717l147 778h-712l69 369h713l143 725h361l-140 -725h766l140 725h360l-139 -725h717l-70 -369h-717l-147 -778h717l-74 -369h-717zM2146 856l148 778h-766l-152 -778h770z" />
    <glyph glyph-name="dollar" unicode="$" horiz-adv-x="2359" 
d="M188 0l-16 954h107q82 -320 302 -563t529 -301v995l-295 115q-569 225 -569 762q0 188 83 367t264.5 295t455.5 116h61v283h139v-303q81 -12 238 -66q84 -33 139 -45h70q54 10 131 74h147v-762h-98q-182 481 -537 627q-49 19 -90 41v-836l348 -135q340 -133 465 -350.5
t125 -440.5q0 -200 -88.5 -402.5t-294.5 -342t-530 -139.5h-25v-353h-139v361q-152 23 -360 90q-178 57 -209 57q-54 0 -82 -4q-85 -15 -127 -94h-144zM1249 74h13q312 0 424 136.5t112 289.5q0 117 -44.5 200.5t-114 136.5t-130 81.5t-202.5 89.5l-58 24v-958zM1110 2613
h-49q-179 0 -317 -52t-138 -239q0 -147 60.5 -239.5t130.5 -132t215 -103.5l98 -41v807z" />
    <glyph glyph-name="percent" unicode="%" horiz-adv-x="3666" 
d="M3322 598q0 -309 -205 -480t-467 -171q-188 0 -339.5 88t-235.5 238t-84 325q0 173 84 323t235 239t340 89q172 0 327.5 -77.5t250 -226t94.5 -347.5zM2863 279v634q0 271 -205 271q-209 0 -209 -271v-634q0 -267 209 -267q205 0 205 267zM1847 2089q0 -200 -93.5 -348.5
t-248.5 -225.5t-329 -77q-182 0 -333.5 84t-239 233.5t-87.5 333.5q0 136 50 256t142.5 210.5t211.5 139.5t256 49q170 0 325 -79t250.5 -228.5t95.5 -347.5zM1389 1774v634q0 271 -209 271q-205 0 -205 -271v-634q0 -271 205 -271q209 0 209 271zM995 -336l-110 62
l1954 3289l106 -62z" />
    <glyph glyph-name="ampersand" unicode="&#x26;" horiz-adv-x="3166" 
d="M2433 1372q241 0 405 29.5t164 134.5q0 57 -20 57q-27 0 -57 -12q-67 -29 -103 -29q-98 0 -172 53.5t-74 172.5q0 100 68.5 170.5t177.5 70.5q126 0 206.5 -100.5t80.5 -288.5q0 -192 -101 -349t-279 -246t-394 -89h-45v-278q0 -159 -84 -327t-270 -283t-470 -115
q-270 0 -558 55t-512 228t-224 491q0 660 1040 794v21q-794 115 -794 602q0 153 95 291t316 226.5t572 88.5q268 0 440.5 -74.5t249 -188.5t76.5 -236q0 -136 -76.5 -215.5t-185.5 -79.5q-101 0 -184 70.5t-83 174.5q0 70 34.5 110t105.5 95q61 54 61 86q0 63 -102.5 115.5
t-290.5 52.5q-406 0 -406 -393v-270q0 -236 101.5 -323t259.5 -103q74 -9 127 -9h147v-90h-278q-131 0 -235.5 -34.5t-188.5 -181t-84 -451.5q0 -307 102 -477t239.5 -227.5t272.5 -57.5q138 0 295 64t271 219t114 409q0 118 -20 221l-230 4q-304 0 -436.5 -51t-132.5 -113
q0 -57 25 -57q36 0 57 8q63 25 98 25q95 0 160 -63.5t65 -174.5q0 -89 -69 -144.5t-156 -55.5q-107 0 -188.5 87t-81.5 281q0 187 97 344.5t270.5 248.5t390.5 91z" />
    <glyph glyph-name="quotesingle" unicode="'" horiz-adv-x="954" 
d="M139 2695h676l-229 -1077h-217z" />
    <glyph glyph-name="parenleft" unicode="(" horiz-adv-x="2216" 
d="M1642 -811v-98q-248 2 -489 145.5t-410.5 533.5t-169.5 1066q0 311 23.5 586t124.5 577.5t324.5 511.5t596.5 229v-98q-166 -17 -261.5 -113t-141 -250.5t-59 -318t-29.5 -522.5q-4 -172 -4 -516q0 -418 4 -627q8 -340 37.5 -559.5t135 -376t318.5 -170.5z" />
    <glyph glyph-name="parenright" unicode=")" horiz-adv-x="2216" 
d="M573 -909v98q217 14 319.5 169.5t128.5 358.5t44 578q12 252 12 504q0 319 -12 639q-12 326 -26.5 502t-60 333.5t-142 254.5t-263.5 114v98q311 -16 521 -167.5t329.5 -407t169 -585.5t49.5 -744q0 -612 -149.5 -1002.5t-392.5 -565.5t-527 -177z" />
    <glyph glyph-name="asterisk" unicode="*" horiz-adv-x="2089" 
d="M987 1765l-82 50q-52 -58 -154 -179t-149 -157.5t-106 -36.5q-93 0 -151 51.5t-58 128.5q0 84 49.5 136.5t125 78t180 43t206.5 33.5v94q-153 27 -247 43.5t-163.5 41.5t-110 73.5t-40.5 132.5q0 76 58 128t151 52q54 0 102.5 -36t115.5 -115.5t187 -221.5l86 49
q-51 161 -95 291t-44 156q0 81 56.5 143t139.5 62q93 0 143 -65.5t50 -139.5q0 -71 -139 -447l86 -49q79 85 168.5 194t133.5 144t107 35q96 0 152.5 -55.5t56.5 -124.5q0 -80 -43.5 -128.5t-114.5 -74.5t-166.5 -44.5t-236.5 -43.5v-98q248 -40 333.5 -58t156.5 -71.5
t71 -157.5q0 -66 -57.5 -123t-151.5 -57q-59 0 -106 36.5t-145.5 153.5t-157.5 183l-86 -50q139 -375 139 -446q0 -74 -50 -139.5t-143 -65.5q-82 0 -139 63.5t-57 141.5q0 26 44.5 156.5t94.5 289.5z" />
    <glyph glyph-name="plus" unicode="+" horiz-adv-x="2859" 
d="M1315 2523h229v-1114h1114v-229h-1114v-1110h-229v1110h-1114v229h1114v1114z" />
    <glyph glyph-name="comma" unicode="," horiz-adv-x="1581" 
d="M614 -733l-65 94q227 162 326.5 290t99.5 206t-10.5 100.5t-51.5 22.5q-10 0 -73 -21q-44 -16 -103 -16q-155 0 -245.5 112t-90.5 269q0 129 114 214t251 85q92 0 188 -49t161 -150t65 -252q0 -123 -39.5 -265.5t-164 -310.5t-362.5 -329z" />
    <glyph glyph-name="hyphen" unicode="-" horiz-adv-x="1548" 
d="M1262 1065v-311h-975v311h975z" />
    <glyph glyph-name="period" unicode="." horiz-adv-x="1491" 
d="M401 287q0 136 96 240t248 104q153 0 249 -104t96 -240q0 -137 -95.5 -240.5t-249.5 -103.5q-136 0 -240 96t-104 248z" />
    <glyph glyph-name="slash" unicode="/" horiz-adv-x="1999" 
d="M344 -946h-229l1536 3629h233z" />
    <glyph glyph-name="zero" unicode="0" horiz-adv-x="2327" 
d="M172 1360q0 365 105 681t321 507.5t524 191.5q361 0 593 -201t335.5 -516.5t103.5 -674.5q0 -351 -93 -671.5t-310.5 -527t-566.5 -206.5q-243 0 -432.5 109t-319 304.5t-195 453t-65.5 550.5zM889 2142v-1536q0 -208 13 -320t69 -182.5t176 -70.5q133 0 196 73.5t79 190
t16 309.5v1520q0 154 -15 260t-82 185t-206 79q-154 0 -200 -124.5t-46 -383.5z" />
    <glyph glyph-name="one" unicode="1" horiz-adv-x="2159" 
d="M795 90v2413q0 44 -32.5 56.5t-119.5 12.5h-147h-82v103h295q154 0 353 18.5t376 46.5q-13 -295 -13 -385v-2265h344v-90h-1318v90h344z" />
    <glyph glyph-name="two" unicode="2" horiz-adv-x="2433" 
d="M229 258l680 664q218 214 336 367.5t180 333t62 413.5q0 271 -119 434.5t-328 163.5q-126 0 -209 -44.5t-119 -101t-36 -96.5q0 -57 123 -147q89 -67 127 -115q73 -92 73 -201q0 -140 -100.5 -227.5t-243.5 -87.5q-173 0 -270.5 122.5t-97.5 291.5q0 150 99 316t308 281
t514 115q291 0 507 -99.5t332 -270t116 -375.5q0 -167 -70.5 -297.5t-191 -240.5t-360.5 -276t-284 -198l-577 -422h1110q144 0 203.5 68t103.5 231h94l-37 -860h-1925v258z" />
    <glyph glyph-name="three" unicode="3" horiz-adv-x="2298" 
d="M1274 1962v283q0 195 -58 302t-212 107q-137 0 -220.5 -45t-83.5 -98q0 -56 18.5 -81.5t67 -67.5t72 -84.5t23.5 -118.5q0 -117 -76 -196t-227 -79q-143 0 -219 104.5t-76 256.5q0 131 89 244.5t260 182t400 68.5q238 0 445 -73.5t331.5 -218.5t124.5 -347
q0 -174 -81.5 -284.5t-218 -176t-359.5 -133.5q78 -34 180 -65q154 -44 254 -103q360 -208 360 -663q0 -220 -149.5 -387.5t-388 -256.5t-486.5 -89q-211 0 -409.5 66.5t-324.5 205t-126 342.5q0 185 103 285t250 100q137 0 230 -90.5t93 -220.5q0 -117 -98 -209
q-34 -33 -115.5 -90t-81.5 -94q0 -78 113.5 -141.5t296.5 -63.5q377 0 377 495v484q0 207 -74 312.5t-184 105.5q-99 0 -176 -17q-145 -20 -164 -20q-148 0 -148 102q0 94 152 94q20 0 94 -14t131 -14q76 0 135.5 20.5t107.5 109t48 271.5z" />
    <glyph glyph-name="four" unicode="4" horiz-adv-x="2388" 
d="M1184 90v598h-967v381l1110 1671h488v-1671h327v-381h-327v-598h344v-90h-1319v90h344zM1184 1069v1262l-832 -1262h832z" />
    <glyph glyph-name="five" unicode="5" horiz-adv-x="2454" 
d="M602 2154l-24 -655q222 258 679 258q229 0 440 -97.5t346.5 -307t135.5 -525.5q0 -161 -64 -315.5t-198 -283.5t-350.5 -207t-505.5 -78q-236 0 -420 81.5t-285.5 219.5t-101.5 301q0 170 104.5 287.5t272.5 117.5q151 0 243.5 -91t92.5 -212q0 -179 -115 -266
q-29 -24 -83.5 -57t-82 -57.5t-27.5 -53.5q0 -67 86.5 -123.5t253.5 -56.5q252 0 357.5 160t105.5 454v316q0 307 -88.5 479t-316.5 172q-124 0 -262 -67.5t-205 -178.5l-115 29l49 1310q180 -71 356.5 -96.5t385.5 -25.5q487 0 696 155h98q-40 -99 -131 -229.5
t-312.5 -255.5t-567.5 -125q-37 0 -447 24z" />
    <glyph glyph-name="six" unicode="6" horiz-adv-x="2359" 
d="M926 1950v-385q155 155 417 155q274 0 461.5 -111t279 -297.5t91.5 -410.5q0 -212 -83 -430.5t-292 -373t-555 -154.5q-307 0 -538.5 166.5t-354.5 462.5t-123 673q0 281 55 543t176.5 479t323.5 345t486 128q202 0 383.5 -55.5t292 -157.5t110.5 -237q0 -136 -85 -236
t-238 -100q-138 0 -227 91.5t-89 223.5q0 81 21 119t63 67.5t59 51t17 73.5q0 34 -95.5 54t-183.5 20q-136 0 -213 -45.5t-118 -195.5t-41 -463zM926 1135v-603q0 -168 19 -273t84.5 -165.5t195.5 -60.5q150 0 191.5 103t41.5 274v790q0 402 -262 402q-119 0 -178.5 -66
t-75.5 -162.5t-16 -238.5z" />
    <glyph glyph-name="seven" unicode="7" horiz-adv-x="2232" 
d="M365 1716h-107l94 967h1581q28 0 34.5 -7.5t6.5 -41.5q0 -133 -209 -729q-131 -384 -188 -599t-111 -491q-90 -433 -102 -815h-799q36 359 168 613.5t320 484.5q27 33 189 232.5t231.5 296.5t133.5 217.5t117 273.5h-1065q-86 0 -140 -51.5t-80.5 -115.5t-45.5 -132
q-7 -32 -11.5 -48.5t-8.5 -28.5t-8 -26z" />
    <glyph glyph-name="eight" unicode="8" horiz-adv-x="2327" 
d="M786 1401l-213 131q-145 90 -207.5 223t-62.5 322q0 170 94.5 321.5t298.5 246.5t508 95q272 0 461 -82t278 -213.5t89 -277.5q0 -199 -123.5 -331.5t-347.5 -254.5l274 -197q295 -210 295 -630q0 -126 -46 -264.5t-154.5 -264t-294.5 -204t-451 -78.5
q-326 0 -549.5 109.5t-330.5 283t-107 360.5q0 427 589 705zM885 2040l520 -357q131 84 198.5 206.5t67.5 264.5q0 133 -53 245t-165.5 181.5t-281.5 69.5q-231 0 -326 -129t-95 -301q0 -88 135 -180zM1475 946l-533 352q-150 -115 -232.5 -224.5t-109.5 -205.5t-27 -204
q0 -196 82 -338.5t223.5 -217.5t317.5 -75q190 0 313 84t177.5 197.5t54.5 205.5q0 242 -266 426z" />
    <glyph glyph-name="nine" unicode="9" horiz-adv-x="2347" 
d="M1446 733v385q-156 -155 -418 -155q-405 0 -618 235t-213 584q0 210 82.5 428t291.5 374t555 156q237 0 426 -95.5t321 -270.5t200.5 -411.5t68.5 -520.5q0 -501 -140.5 -839.5t-377 -499t-522.5 -160.5q-315 0 -551 127.5t-236 322.5q0 132 80 234t244 102
q153 0 234 -95t81 -220q0 -79 -21.5 -119.5t-64 -73.5t-58 -51.5t-15.5 -67.5q0 -37 100.5 -55t177.5 -18q155 0 235.5 71t109 219t28.5 414zM1446 1548v606q0 155 -15 254.5t-80 170.5t-204 71q-150 0 -192 -103t-42 -274v-790q0 -97 13.5 -180.5t71.5 -152.5t178 -69
q172 0 221 126t49 341z" />
    <glyph glyph-name="colon" unicode=":" horiz-adv-x="1495" 
d="M406 1503q0 149 104.5 246.5t239.5 97.5q96 0 175.5 -50.5t124 -129.5t44.5 -164q0 -135 -98 -239.5t-246 -104.5q-152 0 -248 104t-96 240zM401 287q0 136 96 240t248 104q153 0 249 -104t96 -240q0 -137 -95.5 -240.5t-249.5 -103.5q-136 0 -240 96t-104 248z" />
    <glyph glyph-name="semicolon" unicode=";" horiz-adv-x="1581" 
d="M614 -733l-65 94q227 162 326.5 290t99.5 206t-10.5 100.5t-51.5 22.5q-28 0 -75 -18.5t-101 -18.5q-155 0 -245.5 112t-90.5 269q0 75 48 143t132.5 109.5t184.5 41.5q168 0 291 -125.5t123 -320.5q0 -522 -566 -905zM438 1491q0 135 98 239.5t246 104.5
q153 0 248.5 -104t95.5 -240t-95 -240t-249 -104q-148 0 -246 104.5t-98 239.5z" />
    <glyph glyph-name="less" unicode="&#x3c;" horiz-adv-x="2179" 
d="M57 1348l1889 1089l118 -221l-1503 -868l1503 -869l-118 -221z" />
    <glyph glyph-name="equal" unicode="=" horiz-adv-x="2859" 
d="M201 1696h2457v-230h-2457v230zM201 1008h2457v-230h-2457v230z" />
    <glyph glyph-name="greater" unicode="&#x3e;" horiz-adv-x="2179" 
d="M2122 1348l-1889 -1090l-118 221l1503 869l-1503 868l118 221z" />
    <glyph glyph-name="question" unicode="?" horiz-adv-x="2523" 
d="M1212 868h-143q-4 33 -4 95q0 133 34 230t109 228q95 163 146 309t51 347q0 198 -98 367t-320 169q-94 0 -185 -38t-147.5 -99.5t-56.5 -128.5q0 -66 17 -92.5t69 -26.5q14 0 39 4t35 4q134 0 239 -69.5t105 -233.5q0 -122 -91 -216.5t-266 -94.5q-168 0 -256 123.5
t-88 286.5q0 154 61.5 313.5t235 277t482.5 117.5q334 0 546.5 -109.5t304 -273t91.5 -334.5q0 -445 -488 -643q-182 -69 -302 -169t-120 -285v-58zM856 287q0 136 96 240t248 104q149 0 246.5 -105t97.5 -239q0 -135 -97.5 -239.5t-246.5 -104.5q-152 0 -248 104t-96 240z
" />
    <glyph glyph-name="at" unicode="@" horiz-adv-x="4133" 
d="M3215 2249l-299 -1012q-65 -244 -65 -348q0 -303 278 -303q165 0 287.5 90t201 236.5t114.5 307t36 304.5q0 316 -119 599.5t-339 496.5t-532 332.5t-685 119.5q-395 0 -712.5 -135.5t-535.5 -373.5t-331 -546t-113 -649q0 -437 151.5 -767t402 -541.5t542.5 -311.5
t580 -100q540 0 987 340l151 -201q-513 -397 -1138 -397q-532 0 -984.5 247t-715 689.5t-262.5 1000.5q0 408 143 769t407.5 633t630.5 424t797 152q428 0 785 -139.5t612 -388t391.5 -574.5t136.5 -692q0 -293 -95.5 -562.5t-316.5 -445t-567 -175.5q-434 0 -602 348
q-371 -344 -713 -344q-205 0 -387 94.5t-292.5 280.5t-110.5 444q0 230 76.5 454t219 405t339 287.5t422.5 106.5q70 0 181.5 -23t242.5 -105t219 -240l82 213h499zM2298 913l233 848q-16 115 -94 211t-237 96q-216 0 -377 -142t-246.5 -364t-85.5 -444q0 -224 97 -362
t276 -138q263 0 434 295z" />
    <glyph glyph-name="A" unicode="A" horiz-adv-x="2675" 
d="M1761 90l-258 692h-856l-61 -176q-58 -165 -58 -205q0 -121 29.5 -181.5t109 -89t234.5 -40.5v-90h-901v90q137 4 216.5 54.5t123 135.5t111.5 269l798 2191h221l955 -2650h250v-90h-1241v90h327zM1487 877l-410 1110l-405 -1110h815z" />
    <glyph glyph-name="B" unicode="B" horiz-adv-x="2933" 
d="M172 2683h1307q520 0 835.5 -122t315.5 -443q0 -209 -151.5 -342t-342.5 -192.5t-371 -84.5l4 -24q947 -186 947 -758q0 -320 -198 -479t-436.5 -198.5t-492.5 -39.5h-1417v90h344v2503h-344v90zM1147 90h262q316 0 453 118t137 402v287q0 557 -537 557h-315v-1364z
M1147 1544h291q310 0 402.5 141.5t92.5 260.5v270q0 377 -495 377h-291v-1049z" />
    <glyph glyph-name="C" unicode="C" horiz-adv-x="2609" 
d="M2380 950h114l-32 -950h-115q-23 83 -102 106h-86q-41 -8 -163.5 -55.5t-250 -77.5t-299.5 -30q-236 0 -457.5 108t-397 305t-275 457.5t-99.5 546.5q0 356 178.5 675t483 512t653.5 193q150 0 223 -17.5t141 -53t117 -50t158 -14.5q46 0 88.5 30.5t50.5 104.5h115
l8 -921h-86q-40 200 -147 392t-276 315.5t-380 123.5q-204 0 -329 -86.5t-185.5 -229t-78 -300.5t-17.5 -367v-565q0 -558 164.5 -815.5t441.5 -257.5q157 0 329.5 83.5t316 291.5t194.5 546z" />
    <glyph glyph-name="D" unicode="D" horiz-adv-x="3031" 
d="M172 2683h1462q266 0 491 -98.5t390.5 -281.5t254.5 -433.5t89 -546.5q0 -287 -94 -532t-264.5 -421t-408.5 -273t-519 -97h-1401v90h344v2503h-344v90zM1147 2593v-2503h90q324 0 510.5 71.5t270 198.5t104 288.5t20.5 428.5v660v86q0 244 -48.5 403t-237 265
t-578.5 106q-20 0 -64 -2t-67 -2z" />
    <glyph glyph-name="E" unicode="E" horiz-adv-x="2712" 
d="M516 90v2503h-344v90h2306l33 -860h-111q-62 419 -299.5 594.5t-564.5 175.5h-389v-1073h270q134 0 231 73.5t146 186t49 227.5h107v-1073h-107q-7 219 -105 357.5t-321 138.5h-270v-1340h385q229 0 431.5 105t338.5 289t168 405h115l-45 -889h-2368v90h344z" />
    <glyph glyph-name="F" unicode="F" horiz-adv-x="2568" 
d="M516 90v2503h-344v90h2306l33 -860h-111q-62 419 -299.5 594.5t-564.5 175.5h-389v-1073h270q134 0 231 73.5t146 186t49 227.5h107v-1073h-107q-7 219 -105 357.5t-321 138.5h-270v-1340h344v-90h-1319v90h344z" />
    <glyph glyph-name="G" unicode="G" horiz-adv-x="2986" 
d="M1589 1114h1282v-90h-286v-160q0 -279 -125 -464t-312 -284t-373.5 -136t-328.5 -37q-215 0 -433.5 104t-400.5 299t-288.5 455.5t-106.5 558.5q0 265 102.5 514.5t286.5 445.5t425.5 308t504.5 112q139 0 215.5 -18t153.5 -53.5t125 -49.5t145 -14q43 0 85 30.5
t50 104.5h115l8 -921h-86q-41 205 -144.5 394.5t-270.5 313t-384 123.5q-185 0 -307 -72.5t-188 -204.5t-92.5 -309t-26.5 -397v-565q0 -1069 528 -1069q471 0 471 528v463h-344v90z" />
    <glyph glyph-name="H" unicode="H" horiz-adv-x="3244" 
d="M1147 1372v-1282h287v-90h-1262v90h344v2503h-344v90h1262v-90h-287v-1131h950v1131h-287v90h1262v-90h-344v-2503h344v-90h-1262v90h287v1282h-950z" />
    <glyph glyph-name="I" unicode="I" horiz-adv-x="1663" 
d="M516 2593h-344v90h1319v-90h-344v-2503h344v-90h-1319v90h344v2503z" />
    <glyph glyph-name="J" unicode="J" horiz-adv-x="2052" 
d="M905 2593h-344v90h1319v-90h-344v-1557q0 -378 -55 -607t-228 -357.5t-512 -128.5q-199 0 -355.5 73.5t-242.5 199t-86 271.5q0 174 103 271.5t229 97.5q150 0 235 -106t85 -250q0 -93 -71.5 -175t-158.5 -96q-39 -3 -60.5 -5.5t-42 -14t-20.5 -37.5q0 -37 82 -78
t185 -41q114 0 198 70.5t84 179.5v2290z" />
    <glyph glyph-name="K" unicode="K" horiz-adv-x="2953" 
d="M1147 90h344v-90h-1319v90h344v2503h-344v90h1319v-90h-344v-1315l680 639q181 168 262.5 275t81.5 192q0 209 -279 209v90h1004v-90q-159 -30 -277.5 -110t-279.5 -234q-30 -28 -123 -112t-143 -134l-250 -242l934 -1671h139v-90h-1208v90h335l-684 1221l-192 -176
v-1045z" />
    <glyph glyph-name="L" unicode="L" horiz-adv-x="2556" 
d="M516 90v2503h-344v90h1319v-90h-344v-2503h299q229 0 431.5 105t338.5 289t168 405h115l-45 -889h-2282v90h344z" />
    <glyph glyph-name="M" unicode="M" horiz-adv-x="3654" 
d="M1839 954l635 1729h1008v-90h-340v-2503h340v-90h-1315v90h344v2376l-897 -2466h-82l-905 2466v-1852q0 -168 25 -280t96.5 -178t201.5 -66v-90h-778v90q215 15 283.5 157.5t68.5 383.5v1663q0 166 -76 228t-255 71v90h995z" />
    <glyph glyph-name="N" unicode="N" horiz-adv-x="3064" 
d="M1139 2683l1327 -1712v1085q0 256 -77.5 389.5t-274.5 147.5v90h778v-90q-185 0 -254.5 -137.5t-69.5 -382.5v-2130h-139l-1802 2318v-1647q0 -250 68.5 -387t254.5 -137v-90h-778v90q215 15 283.5 157.5t68.5 383.5v1663q0 115 -32.5 176.5t-101 87t-193.5 35.5v90h942z
" />
    <glyph glyph-name="O" unicode="O" horiz-adv-x="3121" 
d="M205 1339q0 291 108.5 549t298.5 449.5t436 297t508 105.5q358 0 671.5 -186.5t501 -509t187.5 -705.5q0 -417 -201 -736.5t-517 -489.5t-642 -170q-215 0 -450.5 88t-441 264t-332.5 441t-127 603zM930 1778q-4 -95 -4 -373q0 -389 4 -508q14 -359 131.5 -611.5
t494.5 -252.5q266 0 404 133t180.5 316.5t50.5 414.5q0 170 9 508q0 274 -9 373q-26 430 -167 651t-468 221q-218 0 -350 -103.5t-195.5 -295.5t-80.5 -473z" />
    <glyph glyph-name="P" unicode="P" horiz-adv-x="2851" 
d="M516 90v2503h-344v90h1294q199 0 389.5 -18.5t388 -88.5t330.5 -224.5t133 -405.5q0 -377 -264 -588t-919 -211h-377v-1057h344v-90h-1319v90h344zM1147 1237h205q222 0 353.5 44.5t193 123.5t77 175.5t15.5 250.5v291q0 159 -34 255.5t-164.5 156t-399.5 59.5h-246
v-1356z" />
    <glyph glyph-name="Q" unicode="Q" horiz-adv-x="3146" 
d="M958 -369l-86 86q182 196 418 254q-227 49 -424.5 175t-343 310t-225.5 412t-80 471q0 291 108.5 548t299 449.5t436.5 298t508 105.5q358 0 671.5 -186.5t501 -509t187.5 -705.5q0 -231 -75 -455.5t-221.5 -415t-362.5 -323.5t-488 -182q116 -51 187.5 -119t148.5 -176
q161 -217 229 -217q52 0 93.5 27t41.5 80q0 19 -24 45q-7 9 -36.5 43.5t-42 61.5t-12.5 59q0 95 70 174t172 79q108 0 173 -86t65 -167q0 -109 -129 -233t-329.5 -208t-401.5 -84q-78 0 -139.5 22t-112 60t-114 104.5t-105.5 108.5q-7 7 -76 81t-107.5 101t-79.5 27
q-72 0 -158.5 -38t-136.5 -77zM942 1778q-8 -180 -8 -414q0 -213 8 -467q13 -252 62.5 -438.5t184 -306t380.5 -119.5q242 0 378 113.5t189.5 300t67.5 450.5q4 102 4 418q0 377 -4 463q-26 430 -167 651t-468 221q-219 0 -351 -103.5t-195.5 -295.5t-80.5 -473z" />
    <glyph glyph-name="R" unicode="R" horiz-adv-x="3060" 
d="M1147 90h344v-90h-1319v90h344v2503h-344v90h1409q263 0 499.5 -32.5t434 -170t197.5 -420.5q0 -298 -229 -447t-648 -196v-37q295 -33 459.5 -110t236 -192.5t91.5 -239.5t49 -428q24 -291 196 -291q63 0 115 33l45 -82q-190 -127 -447 -127q-259 0 -382 100t-160 268.5
t-72 552.5q-23 246 -107.5 369t-351.5 123h-360v-1266zM1147 1446h283q235 0 357.5 63.5t161 161.5t38.5 238v237q0 187 -99.5 317t-441.5 130h-299v-1147z" />
    <glyph glyph-name="S" unicode="S" horiz-adv-x="2359" 
d="M188 0l-16 954h107q67 -281 215 -481.5t335.5 -299.5t374.5 -99q226 0 359 67t186 164.5t53 194.5q0 211 -132 313.5t-363 194.5l-488 192q-216 84 -394.5 259.5t-178.5 502.5q0 183 89 362t284 297.5t487 118.5q125 0 222.5 -25t188.5 -63.5t113 -42.5h66q54 10 131 74
h147v-762h-94q-60 175 -157.5 331t-248.5 258.5t-356 102.5q-241 0 -376.5 -74.5t-135.5 -216.5q0 -208 110.5 -302.5t299.5 -172.5l581 -229q215 -83 402.5 -265.5t187.5 -525.5q0 -155 -56.5 -310.5t-174 -285.5t-303.5 -209t-432 -79q-154 0 -248 23t-244 79
q-164 53 -184 53q-160 0 -213 -98h-144z" />
    <glyph glyph-name="T" unicode="T" horiz-adv-x="2666" 
d="M1991 0h-1319v90h344v2503q-29 4 -86 4q-211 0 -368.5 -114.5t-247.5 -295.5t-109 -372h-115l25 868h2437l24 -868h-114q-57 289 -177 463t-281.5 244.5t-356.5 70.5v-2503h344v-90z" />
    <glyph glyph-name="U" unicode="U" horiz-adv-x="3011" 
d="M1147 2593v-2020q0 -170 118 -320.5t455 -150.5q443 0 570 250.5t127 515.5v1188q0 259 -77 392.5t-280 144.5v90h779v-90q-188 0 -254 -135.5t-66 -286.5v-1348q0 -287 -173 -583.5t-773 -296.5q-481 0 -714 157.5t-288 352t-55 432.5v1708h-344v90h1319v-90h-344z" />
    <glyph glyph-name="V" unicode="V" horiz-adv-x="2765" 
d="M1724 696l455 1409q33 115 33 271q0 217 -344 217v90h839v-90q-129 -5 -208.5 -79t-114 -158t-94.5 -267l-697 -2089h-262l-971 2593h-303v90h1274v-90h-315z" />
    <glyph glyph-name="W" unicode="W" horiz-adv-x="4289" 
d="M57 2593v90h1254v-90h-307l634 -1843l418 1159l-217 684h-246v90h1278v-90h-327l634 -1843l398 1110q127 355 127 487q0 144 -90 190t-291 56v90h909v-90q-103 -30 -177 -91t-121 -137t-84 -170.5t-64 -166.5l-742 -2028h-323l-590 1696l-623 -1696h-323l-893 2593h-234z
" />
    <glyph glyph-name="X" unicode="X" horiz-adv-x="3043" 
d="M1634 1704l254 373q123 183 123 278q0 238 -287 238v90h963v-90q-207 0 -350.5 -115t-308.5 -369l-332 -499l991 -1520h266v-90h-1257v90h246l-668 1008l-348 -496q-123 -176 -123 -242q0 -164 82 -217t270 -53v-90h-1028v90q214 8 337.5 106.5t289.5 335.5l458 656
l-933 1405h-189v90h1262v-90h-303z" />
    <glyph glyph-name="Y" unicode="Y" horiz-adv-x="2789" 
d="M1114 1237l-831 1356h-226v90h1286v-90h-319l696 -1135l312 533q5 9 52 81.5t65 116.5t18 92q0 312 -283 312v90h848v-90q-109 -39 -223 -146.5t-298 -384t-466 -792.5v-1180h344v-90h-1319v90h344v1147z" />
    <glyph glyph-name="Z" unicode="Z" horiz-adv-x="2736" 
d="M2552 987l-86 -987h-2294l1577 2593h-385q-184 0 -334 -73t-258.5 -193.5t-179 -266t-105.5 -299.5h-118l49 922h2146l-1573 -2593h287q226 0 460 97t423 299t276 501h115z" />
    <glyph glyph-name="bracketleft" unicode="[" horiz-adv-x="1802" 
d="M1196 -831h320v-115h-828v3629h828v-115h-320v-3399z" />
    <glyph glyph-name="backslash" unicode="\" horiz-adv-x="1999" 
d="M1655 -946h229l-1536 3629h-233z" />
    <glyph glyph-name="bracketright" unicode="]" horiz-adv-x="1802" 
d="M606 -831v3399h-319v115h827v-3629h-827v115h319z" />
    <glyph glyph-name="asciicircum" unicode="^" horiz-adv-x="1491" 
d="M745 2351l-331 -332h-344l675 676l676 -676h-344z" />
    <glyph glyph-name="underscore" unicode="_" horiz-adv-x="2179" 
d="M0 -803v230h2179v-230h-2179z" />
    <glyph glyph-name="grave" unicode="`" horiz-adv-x="1229" 
d="M840 2695l250 -643h-111l-840 643h701z" />
    <glyph glyph-name="a" unicode="a" horiz-adv-x="2150" 
d="M2093 238l57 -54q-203 -241 -499 -241q-118 0 -228.5 87.5t-148.5 207.5q-242 -295 -615 -295q-243 0 -400 136.5t-157 354.5q0 224 151.5 346t401.5 168t619 60v475q0 115 -50 178t-114 83.5t-123 20.5q-159 0 -245.5 -40t-86.5 -95q0 -29 14 -52.5t40 -50t41 -40.5
q65 -71 65 -164q0 -103 -73 -178.5t-189 -75.5q-130 0 -208.5 85t-78.5 194q0 127 97 242t292 186t471 71q721 0 721 -368v-1123q0 -8 -2 -38t-2 -48q0 -114 49 -114q140 0 201 82zM1274 315v623q-246 -11 -365.5 -86t-146.5 -166t-29 -215q0 -139 38 -229t183 -90
q149 0 320 163z" />
    <glyph glyph-name="b" unicode="b" horiz-adv-x="2265" 
d="M852 279v-279h-774v82h201v2474h-209v82h438q199 0 344 57v-1155q38 140 178 223.5t293 83.5q138 0 287.5 -62.5t279 -186t207.5 -301.5t78 -400q0 -267 -103.5 -486t-287.5 -343.5t-412 -124.5q-178 0 -311 69t-209 267zM1544 705v446q0 573 -315 573q-364 0 -369 -602
v-237q5 -346 74.5 -595t298.5 -249q186 0 248.5 181t62.5 483z" />
    <glyph glyph-name="c" unicode="c" horiz-adv-x="1884" 
d="M1720 549l74 -29q-131 -357 -325.5 -467t-407.5 -110q-264 0 -488 122t-353.5 332.5t-129.5 462.5q0 213 80 396.5t219.5 316.5t314 203.5t361.5 70.5q147 0 298.5 -70t250 -194t98.5 -276q0 -150 -85.5 -233t-205.5 -83q-126 0 -192 93t-66 219q0 46 19 78.5t54 69.5
t46 56q25 44 25 66q0 97 -75 155t-200 58q-178 0 -244.5 -130.5t-66.5 -381.5v-643q0 -264 68 -437.5t301 -173.5q197 0 354 120.5t276 408.5z" />
    <glyph glyph-name="d" unicode="d" horiz-adv-x="2257" 
d="M1413 0v279q-83 -200 -211 -268t-309 -68q-177 0 -326 75.5t-256.5 210t-164 307t-56.5 361.5q0 312 144.5 527.5t356.5 319t408 103.5q133 0 253.5 -92t160.5 -215v1016h-209v82h438q199 0 345 57v-2613h200v-82h-774zM721 1233v-615q0 -310 90 -443.5t217 -133.5
q147 0 229 118t112.5 298t35.5 428v237q-20 602 -373 602q-65 0 -136.5 -44t-123 -155t-51.5 -292z" />
    <glyph glyph-name="e" unicode="e" horiz-adv-x="1925" 
d="M1737 463l65 -45q-287 -475 -712 -475q-242 0 -474.5 118.5t-379 338.5t-146.5 501q0 231 114 451t314 357.5t440 137.5q223 0 424 -106.5t325 -308t128 -469.5h-1114v-373q0 -290 89 -427.5t292 -137.5q368 0 635 438zM721 1040h545v193q0 242 -54 387t-225 145
q-245 0 -262 -323q0 -53 -2 -87t-2 -48v-267z" />
    <glyph glyph-name="f" unicode="f" horiz-adv-x="1352" 
d="M332 1630h-250v78h250q0 338 64 556t211 324.5t392 106.5q336 0 459 -122.5t123 -258.5q0 -85 -73.5 -151t-188.5 -66q-98 0 -166 68t-68 166q0 49 29 102q11 19 52.5 68t41.5 71q0 41 -155 41q-115 0 -158 -77.5t-43 -172.5q0 -102 25 -204q28 -133 28 -320v-131h365
v-78h-365v-1548h201v-82h-975v82h201v1548z" />
    <glyph glyph-name="g" unicode="g" horiz-adv-x="1946" 
d="M1356 -127l-692 -12q-594 0 -594 450q0 142 77 272t218 208q-238 181 -238 454q0 263 161.5 397.5t338.5 169.5t307 35q209 0 389 -41q146 299 377 299q101 0 173.5 -64t72.5 -177q0 -77 -49.5 -120.5t-127.5 -43.5q-68 0 -100.5 23t-66.5 67q-50 61 -82 61
q-50 0 -82 -82q171 -77 265.5 -182t94.5 -276q0 -174 -75 -322t-257.5 -243t-482.5 -95q-152 0 -265.5 14.5t-254.5 67.5q-42 -31 -78.5 -83.5t-36.5 -92.5q0 -62 58 -113t204 -51l615 17q202 0 355 -28.5t255 -124.5t102 -282q0 -145 -63 -292t-194.5 -273t-334.5 -202
t-477 -76q-762 0 -762 426q0 112 77.5 178.5t172.5 66.5q128 0 217 -90q-106 -80 -106 -225q0 -83 96.5 -162.5t325.5 -79.5q204 0 367 54.5t252 146t89 193.5q0 96 -63 164.5t-178 68.5zM778 1499v-426q0 -185 46.5 -252t146.5 -67q180 0 180 266v442q0 283 -193 283
q-115 0 -147.5 -70.5t-32.5 -175.5z" />
    <glyph glyph-name="h" unicode="h" horiz-adv-x="2257" 
d="M852 2695v-1196q147 219 326 283.5t288 64.5q233 0 349 -90.5t144 -201.5t28 -232v-1241h200v-82h-946v82h172v1110q0 243 -44 328.5t-165 85.5q-139 0 -245.5 -116.5t-106.5 -268.5v-1139h172v-82h-946v82h201v2474h-209v82h438q199 0 344 57z" />
    <glyph glyph-name="i" unicode="i" horiz-adv-x="1130" 
d="M287 1708h-205v82h434q205 0 344 57v-1765h201v-82h-975v82h201v1626zM270 2408q0 114 80 200.5t207 86.5t207 -86.5t80 -200.5q0 -126 -87.5 -206t-199.5 -80q-126 0 -206.5 87t-80.5 199z" />
    <glyph glyph-name="j" unicode="j" horiz-adv-x="1298" 
d="M438 1708h-266v82h496q199 0 344 57v-1659q0 -337 -84.5 -563.5t-243.5 -337t-377 -110.5q-227 0 -381.5 93.5t-154.5 278.5q0 150 79 224.5t183 74.5q112 0 181 -75.5t69 -161.5q0 -36 -13 -66q-17 -51 -34 -63.5t-39.5 -16t-31.5 -22t-9 -78.5q0 -86 86 -98h53
q149 19 168 233v127q-4 92 -12 189q-13 100 -13 217v1675zM389 2408q0 111 80.5 199t206.5 88q127 0 207 -86.5t80 -200.5q0 -113 -80 -199.5t-207 -86.5q-126 0 -206.5 88t-80.5 198z" />
    <glyph glyph-name="k" unicode="k" horiz-adv-x="2204" 
d="M279 2556h-209v82h438q199 0 344 57v-1818l389 393q143 143 143 258q0 103 -100 141.5t-215 38.5v82h963v-82h-58q-140 0 -364 -213l-250 -233l737 -1180h78v-82h-856v82h78l-459 733l-86 -82v-651h172v-82h-946v82h201v2474z" />
    <glyph glyph-name="l" unicode="l" horiz-adv-x="1122" 
d="M279 2556h-209v82h438q199 0 344 57v-2613h201v-82h-975v82h201v2474z" />
    <glyph glyph-name="m" unicode="m" horiz-adv-x="3400" 
d="M860 1847v-348q105 148 261.5 248t353.5 100q438 0 512 -364q48 73 131 154.5t209.5 145.5t281.5 64q336 0 428 -158.5t92 -365.5v-1241h201v-82h-946v82h172v1110q0 231 -41 322.5t-164 91.5q-141 0 -248.5 -117t-107.5 -268v-1139h172v-82h-918v82h172v1110
q0 231 -40.5 322.5t-163.5 91.5q-142 0 -249.5 -117t-107.5 -268v-1139h172v-82h-946v82h201v1626h-205v82h434q205 0 344 57z" />
    <glyph glyph-name="n" unicode="n" horiz-adv-x="2269" 
d="M864 1847v-348q115 169 280 258.5t335 89.5q336 0 428 -158.5t92 -365.5v-1241h201v-82h-947v82h172v1110q0 231 -40.5 322.5t-163.5 91.5q-89 0 -172.5 -55t-134 -145t-50.5 -185v-1139h176v-82h-958v82h209v1626h-209v82h442q201 0 340 57z" />
    <glyph glyph-name="o" unicode="o" horiz-adv-x="2044" 
d="M90 893q0 261 131.5 481.5t347 346.5t451.5 126q232 0 449 -127.5t351 -347.5t134 -479q0 -196 -77 -369.5t-209.5 -304t-301.5 -203.5t-346 -73q-231 0 -447.5 127t-349.5 345.5t-133 477.5zM721 1270v-754q0 -157 23.5 -263.5t89 -167t186.5 -60.5q179 0 241 125.5
t62 365.5v754q0 243 -62 369t-241 126q-177 0 -238 -125.5t-61 -369.5z" />
    <glyph glyph-name="p" unicode="p" horiz-adv-x="2261" 
d="M848 1847v-340q49 145 179.5 242.5t340.5 97.5q236 0 419 -130t283.5 -350t100.5 -474q0 -239 -86 -421.5t-225.5 -299t-298 -173t-299.5 -56.5q-113 0 -233 73.5t-181 229.5v-1020h201v-82h-975v82h200v2482h-204v82h434q205 0 344 57zM1540 639q0 49 2 145t2 146
q0 164 -4 241q-16 263 -75.5 418.5t-231.5 155.5q-214 0 -292 -230.5t-85 -609.5v-237q0 -201 71 -401.5t302 -200.5q177 0 236.5 145t74.5 428z" />
    <glyph glyph-name="q" unicode="q" horiz-adv-x="2261" 
d="M1413 1507v340q139 -57 344 -57h434v-82h-204v-2478h200v-78h-975v78h201v1016q-55 -143 -185 -223t-294 -80q-195 0 -391.5 112t-324.5 328.5t-128 509.5q0 188 57 362.5t163 307.5t257 208.5t326 75.5q388 0 520 -340zM721 1171q-8 -204 -8 -307t8 -307
q31 -491 311 -491q353 0 373 602v237q-5 249 -35.5 428t-112.5 295.5t-229 116.5q-172 0 -231.5 -155.5t-75.5 -418.5z" />
    <glyph glyph-name="r" unicode="r" horiz-adv-x="1765" 
d="M291 1708h-209v82h438q199 0 344 57v-233h4q41 72 153.5 152.5t313.5 80.5q148 0 303.5 -70.5t155.5 -306.5q0 -138 -83 -230.5t-228 -92.5q-98 0 -182 60.5t-84 197.5q0 115 36 184q54 85 54 123q0 41 -90 41q-163 0 -258 -169t-95 -433v-1069h201v-82h-975v82h201v1626
z" />
    <glyph glyph-name="s" unicode="s" horiz-adv-x="1651" 
d="M90 -29v705h103q21 -122 74 -232t141 -202t201.5 -144.5t246.5 -52.5q214 0 297.5 82t83.5 180q0 139 -95.5 210t-269.5 118l-372 106q-150 46 -265.5 179.5t-115.5 390.5q0 216 115 335.5t267 160t285 40.5q106 0 291 -69q125 -49 156 -49q106 0 135 90h82v-553h-78
q-73 268 -251.5 381.5t-338.5 113.5q-167 0 -263.5 -62t-96.5 -155q0 -139 89.5 -201t221.5 -102l389 -106q439 -119 439 -566q0 -230 -115.5 -371t-283.5 -198t-339 -57q-155 0 -299 65q-33 14 -82 40.5t-77.5 38t-57.5 11.5q-52 0 -83 -35t-31 -92h-103z" />
    <glyph glyph-name="t" unicode="t" horiz-adv-x="1286" 
d="M291 2347l573 152v-709h340v-82h-340v-1307q0 -109 32 -171t132 -62q73 0 131 33l45 -78q-214 -180 -483 -180q-273 0 -351.5 136.5t-78.5 276.5v1352h-209v82h209v557z" />
    <glyph glyph-name="u" unicode="u" 
d="M1438 520v1188h-209v82h438q199 0 344 57v-1765h201v-82h-774v303q-238 -339 -693 -360h-90q-176 9 -276 111t-100 261v1393h-209v82h438q199 0 344 57v-1466q0 -117 59.5 -173t145.5 -56q72 0 164 49.5t154.5 133.5t62.5 185z" />
    <glyph glyph-name="v" unicode="v" horiz-adv-x="1982" 
d="M0 1790h1028v-82h-217l446 -1098l267 701q39 99 49 155v90q-29 148 -230 152v82h639v-82q-142 -19 -202.5 -106t-137.5 -291l-512 -1311h-237l-688 1708h-205v82z" />
    <glyph glyph-name="w" unicode="w" horiz-adv-x="3064" 
d="M0 1790h987v-82h-196l512 -1110l229 557l-229 553h-144v82h934v-82h-209l451 -1110l245 573q78 178 78 304q0 112 -69.5 172.5t-188.5 60.5v82h664v-82q-131 -74 -197.5 -169t-134.5 -261l-532 -1278h-172l-455 1032l-414 -1032h-172l-790 1708h-197v82z" />
    <glyph glyph-name="x" unicode="x" horiz-adv-x="2159" 
d="M819 737l-610 971h-176v82h1040v-82h-196l372 -590l209 283q61 88 78 135q8 16 8 49q0 37 -8 49q-37 74 -180 74h-45v82h704v-82q-129 0 -201.5 -47.5t-166.5 -169.5l-336 -442l610 -967h205v-82h-1118v82h233l-369 594l-307 -393q-41 -54 -41 -95q0 -56 70.5 -81
t142.5 -25h62v-82h-766v82h61q94 0 190.5 54t149.5 122z" />
    <glyph glyph-name="y" unicode="y" horiz-adv-x="2028" 
d="M1061 -258l-897 1966h-164v82h995v-82h-217l553 -1184l275 832q28 80 28 147q0 205 -266 205h-61v82h835v-82h-53q-161 0 -248 -89.5t-141 -254.5l-463 -1413q-99 -305 -213 -483.5t-239 -249t-277 -70.5q-119 0 -224 53t-168 145t-63 203q0 139 94.5 221.5t221.5 82.5
q95 0 170 -61.5t75 -180.5q0 -61 -13.5 -92.5t-55.5 -108.5q-21 -45 -21 -86q0 -22 21 -45.5t65 -23.5q241 0 451 487z" />
    <glyph glyph-name="z" unicode="z" horiz-adv-x="1806" 
d="M135 1053l41 737h1520l-930 -1708q90 -8 131 -8q281 0 475.5 158.5t278.5 508.5h86l-37 -741h-1643l926 1708q-225 0 -381.5 -74.5t-248 -220t-136.5 -360.5h-82z" />
    <glyph glyph-name="braceleft" unicode="{" horiz-adv-x="1561" 
d="M1323 2982l20 -139q-315 -67 -315 -389q0 -51 21 -406v-221q-18 -290 -134.5 -463t-361.5 -299q262 -122 371 -304t125 -454v-221q-21 -355 -21 -405q0 -152 87 -261.5t228 -128.5l-20 -139q-312 0 -518.5 188.5t-206.5 630.5q0 50 6 149t6 150q0 367 -108 535t-273 178
v168q381 34 381 713q0 48 -6 140t-6 159q0 440 206.5 629.5t518.5 189.5z" />
    <glyph glyph-name="bar" unicode="|" horiz-adv-x="2122" 
d="M946 -918v4314h230v-4314h-230z" />
    <glyph glyph-name="braceright" unicode="}" horiz-adv-x="1561" 
d="M250 -848l-21 139q316 66 316 390q0 68 -3 116t-8 124.5t-10 164.5v221q12 197 67.5 336t160.5 241t268 185q-176 82 -283 193.5t-154.5 247.5t-58.5 317v221q5 87 10 164t8 125t3 117q0 151 -88 261t-228 128l21 139q312 0 518.5 -189t206.5 -630q0 -50 -6 -149t-6 -150
q0 -367 108 -535t272 -178v-168q-380 -34 -380 -713q0 -48 6 -140t6 -159q0 -443 -206 -631t-519 -188z" />
    <glyph glyph-name="asciitilde" unicode="~" horiz-adv-x="2159" 
d="M1892 1573h95q-167 -463 -525 -463q-165 0 -442 61q-314 74 -426 74q-87 0 -147 -27t-123 -133h-95q104 298 217.5 391t241.5 93q238 0 578 -74q287 -61 413 -61q128 0 213 139z" />
    <glyph glyph-name="nonbreakingspace" unicode="&#xa0;" horiz-adv-x="1229" 
 />
    <glyph glyph-name="afii10062" unicode="&#xa1;" horiz-adv-x="2630" 
d="M1729 1049l413 1048q45 106 45 221q0 128 -76.5 201.5t-222.5 73.5h-53v90h909v-90q-144 -6 -225 -44t-117.5 -95.5t-74.5 -155.5l-365 -918q-173 -439 -298.5 -707t-238 -427.5t-237.5 -231t-287 -71.5q-186 0 -325 80t-212 208.5t-73 264.5q0 144 98.5 237.5
t245.5 93.5q143 0 225 -91.5t82 -207.5q0 -74 -37 -135q-61 -103 -192 -143q-17 -7 -51 -19t-55 -24.5t-21 -30.5q0 -47 77.5 -95t237.5 -48q303 0 471 340l-1114 2220h-258v90h1270v-90h-312zM1479 2879q151 0 239 20t88 91q0 23 -61 94q-41 54 -41 107q0 84 60.5 148.5
t164.5 64.5q108 0 173 -64t65 -162q0 -164 -175 -266t-513 -102q-358 0 -523 111.5t-165 256.5q0 85 61 155.5t180 70.5q102 0 161.5 -62.5t59.5 -150.5q0 -53 -41 -107q-61 -71 -61 -94q0 -73 87 -92t241 -19z" />
    <glyph glyph-name="afii10110" unicode="&#xa2;" horiz-adv-x="2028" 
d="M995 1790v-82h-217l553 -1184l275 832q28 80 28 147q0 205 -266 205h-61v82h835v-82h-53q-161 0 -248 -89.5t-141 -254.5l-463 -1413q-99 -305 -213 -483.5t-239 -249t-277 -70.5q-119 0 -224 53t-168 145t-63 203q0 139 94.5 221.5t221.5 82.5q95 0 170 -61.5t75 -180.5
q0 -59 -24 -115q-8 -19 -27.5 -56.5t-29 -65.5t-9.5 -50t21 -45.5t65 -23.5q241 0 451 487l-897 1966h-164v82h995zM1135 2081q-281 0 -495 117.5t-214 353.5q0 129 78.5 187.5t167.5 58.5q94 0 161.5 -70.5t67.5 -167.5q0 -48 -24 -86q-20 -35 -67.5 -80.5t-47.5 -75.5
q0 -53 84 -106t289 -53q187 0 279.5 49.5t92.5 109.5q0 30 -48.5 76.5t-65.5 79.5q-25 56 -25 86q0 95 67.5 166.5t161.5 71.5q60 0 118 -28t95 -83t37 -135q0 -130 -86 -238t-247.5 -170.5t-378.5 -62.5z" />
    <glyph glyph-name="afii10057" unicode="&#xa3;" horiz-adv-x="2052" 
d="M905 2593h-344v90h1319v-90h-344v-1557q0 -378 -55 -607t-228 -357.5t-512 -128.5q-199 0 -355.5 73.5t-242.5 199t-86 271.5q0 174 103 271.5t229 97.5q150 0 235 -106t85 -250q0 -93 -71.5 -175t-158.5 -96q-39 -3 -60.5 -5.5t-42 -14t-20.5 -37.5q0 -37 82 -78
t185 -41q114 0 198 70.5t84 179.5v2290z" />
    <glyph glyph-name="currency" unicode="&#xa4;" horiz-adv-x="3584" 
d="M3011 -57l-484 483q-310 -246 -737 -246t-737 246l-480 -483l-286 286l483 484q-229 319 -229 721q0 401 229 720l-483 484l286 287l480 -484q310 246 737 246t737 -246l484 484l286 -287l-483 -484q229 -319 229 -720q0 -402 -229 -721l483 -484zM1790 504
q227 0 443.5 117.5t351.5 330.5t135 482q0 265 -135.5 479t-351 332t-443.5 118q-174 0 -339.5 -67t-299 -192t-210.5 -296t-77 -374q0 -205 77 -375.5t209.5 -295t300 -192t339.5 -67.5z" />
    <glyph glyph-name="afii10050" unicode="&#xa5;" horiz-adv-x="2314" 
d="M2212 2388h-107q-34 134 -129 169.5t-231 35.5h-598v-2503h344v-90h-1319v90h344v2503h-344v90h1339q114 0 205.5 30.5t191 146t189.5 343.5h94z" />
    <glyph glyph-name="brokenbar" unicode="&#xa6;" horiz-adv-x="1495" 
d="M406 1503q0 149 104.5 246.5t239.5 97.5q96 0 175.5 -50.5t124 -129.5t44.5 -164q0 -135 -98 -239.5t-246 -104.5q-152 0 -248 104t-96 240zM401 287q0 136 96 240t248 104q153 0 249 -104t96 -240q0 -137 -95.5 -240.5t-249.5 -103.5q-136 0 -240 96t-104 248z" />
    <glyph glyph-name="section" unicode="&#xa7;" horiz-adv-x="2429" 
d="M725 1597q-311 224 -311 525q0 189 101 355.5t292 268t442 101.5q278 0 528.5 -127.5t250.5 -417.5q0 -130 -76.5 -216.5t-214.5 -86.5q-164 0 -248 94t-84 201q0 138 139 254q41 31 41 94q0 61 -106.5 96t-208.5 35q-215 0 -355.5 -108t-140.5 -265q0 -180 129 -277.5
t428 -221.5q290 -122 453.5 -210.5t289.5 -248t126 -398.5q0 -158 -64 -287t-185 -205t-280 -77q162 -85 288 -253t126 -423q0 -193 -106 -355t-298 -255.5t-436 -93.5q-205 0 -398.5 61t-315 178t-121.5 277q0 154 97 249t247 95q124 0 203 -80.5t79 -198.5
q0 -167 -139 -262q-49 -31 -49 -90q0 -63 113.5 -105t259.5 -42q244 0 386 111.5t142 260.5q0 150 -60 241t-150 138t-253 105q-271 96 -446.5 174t-315.5 185.5t-217.5 254t-77.5 340.5q0 220 89.5 351.5t200 185.5t206.5 73zM1630 1130l-774 283q-139 49 -238 49
q-69 0 -130.5 -48t-61.5 -116q0 -83 18.5 -149t92 -135t217.5 -121l716 -266q154 -62 275 -62q97 0 183.5 55.5t86.5 165.5q0 130 -93.5 202.5t-291.5 141.5z" />
    <glyph glyph-name="afii10023" unicode="&#xa8;" horiz-adv-x="2699" 
d="M1618 3138q0 79 71.5 143.5t231.5 64.5q177 0 240 -69t63 -139q0 -73 -62.5 -141t-240.5 -68q-160 0 -231.5 65.5t-71.5 143.5zM651 3138q0 74 71.5 141t231.5 67q163 0 233 -64t70 -144q0 -72 -63.5 -140.5t-239.5 -68.5q-159 0 -231 66t-72 143zM516 90v2503h-344v90
h2310l33 -860h-115q-28 277 -218.5 523.5t-645.5 246.5h-389v-1073h270q208 0 313.5 146.5t116.5 340.5h103v-1073h-103q-16 496 -430 496h-270v-1340h389q228 0 433 105.5t340.5 289t164.5 404.5h111l-41 -889h-2372v90h344z" />
    <glyph glyph-name="copyright" unicode="&#xa9;" horiz-adv-x="3142" 
d="M172 1339q0 264 98 515t283.5 452t447.5 317.5t572 116.5q309 0 566.5 -115.5t445 -316.5t286.5 -452t99 -517q0 -262 -100 -512t-285.5 -450t-445 -317t-566.5 -117q-414 0 -734 200.5t-493.5 523t-173.5 672.5zM344 1339q0 -302 153.5 -586t435.5 -461t640 -177
q267 0 495 103.5t391.5 280t251 394.5t87.5 446q0 227 -89 449.5t-253 398.5t-390 278.5t-493 102.5q-269 0 -496.5 -103t-392 -281t-252.5 -399t-88 -446zM2077 1667h-70q-25 183 -126 325t-325 142q-223 0 -308 -202.5t-97 -407.5v-201q22 -778 442 -778q160 0 303 142
t193 378h74l-21 -565h-74q0 33 -14 55.5t-31 22.5q-13 0 -70 -31t-140.5 -53.5t-223.5 -22.5q-262 0 -445 113t-272.5 302t-89.5 417q0 182 52.5 347t154 292.5t244.5 198.5t323 71q116 0 180.5 -10.5t123.5 -26.5t86 -16q29 0 45 53h61z" />
    <glyph glyph-name="afii10053" unicode="&#xaa;" horiz-adv-x="2560" 
d="M2343 1843h-115q-98 398 -292 602.5t-511 204.5q-276 0 -383.5 -218t-107.5 -577v-393h1102v-90h-1102l4 -282q5 -319 48 -544.5t169 -369t365 -143.5q222 0 315.5 74.5t93.5 162.5q0 66 -86 152q-94 114 -94 196q0 66 37.5 131.5t104 106.5t149.5 41q89 0 164 -39
t119 -115.5t44 -177.5q0 -190 -128.5 -331.5t-334.5 -216t-425 -74.5q-381 0 -669 192.5t-440.5 519.5t-152.5 713q0 314 91.5 571.5t253 436t374 271.5t448.5 93q139 0 249 -21.5t229.5 -55t156.5 -33.5q127 0 148 110h119z" />
    <glyph glyph-name="guillemotleft" unicode="&#xab;" horiz-adv-x="1589" 
d="M1167 45l-49 -45q-106 126 -226 247.5t-243 229t-254 205.5t-280 190q579 358 1003 869l49 -45q-98 -213 -215.5 -419t-259.5 -405q91 -129 177.5 -270.5t157.5 -274t140 -282.5zM1475 418l-62 -21q-255 280 -577 475q332 194 577 476l62 -21q-94 -260 -242 -455
q145 -198 242 -454z" />
    <glyph glyph-name="logicalnot" unicode="&#xac;" horiz-adv-x="3150" 
d="M2920 1126v-725h-225v500h-2466v225h2691z" />
    <glyph glyph-name="registered" unicode="&#xae;" horiz-adv-x="3166" 
d="M1356 614h176v-45h-688v45h180v1434h-180v45h667q290 0 481 -64.5t191 -271.5q0 -308 -479 -373v-12q252 -56 330 -143.5t92 -237.5q3 -38 10 -124.5t15 -132.5t24 -76.5t41 -30.5t64 29t59 53l37 -41q-76 -81 -132.5 -102t-138.5 -21q-128 0 -193 38t-87.5 107.5
t-34.5 202.5q-18 213 -47 308t-79.5 123t-156.5 28h-151v-738zM1356 1397h127q156 0 246 70.5t90 289.5q0 162 -69.5 226.5t-250.5 64.5h-143v-651zM184 1339q0 258 100 510t287 454.5t444.5 319.5t565.5 117q261 0 511 -99.5t451.5 -285t320 -445.5t118.5 -571
q0 -262 -100 -512t-286.5 -450.5t-446 -317t-568.5 -116.5q-306 0 -565.5 116.5t-445 316t-286 451.5t-100.5 512zM356 1339q0 -354 176.5 -635.5t460.5 -435t588 -153.5q358 0 638.5 177t433.5 460t153 587q0 270 -103.5 497.5t-278.5 389.5t-395.5 250t-447.5 88
q-303 0 -587 -154.5t-461 -435.5t-177 -635z" />
    <glyph glyph-name="afii10056" unicode="&#xaf;" horiz-adv-x="1663" 
d="M516 2593h-344v90h1319v-90h-344v-2503h344v-90h-1319v90h344v2503zM1012 3138q0 80 70 144t233 64q177 0 240 -69t63 -139q0 -209 -303 -209q-163 0 -233 65t-70 144zM45 3138q0 75 71 141.5t232 66.5q167 0 235 -63t68 -145q0 -73 -62.5 -141t-240.5 -68
q-163 0 -233 65t-70 144z" />
    <glyph glyph-name="degree" unicode="&#xb0;" horiz-adv-x="1229" 
d="M229 2437q0 146 109.5 265.5t275.5 119.5q109 0 198 -56.5t138 -146t49 -182.5t-49 -182.5t-138 -146t-198 -56.5q-165 0 -275 119.5t-110 265.5zM356 2437q0 -101 71 -179.5t187 -78.5q112 0 185 78.5t73 179.5q0 67 -34 126.5t-93.5 95.5t-130.5 36q-114 0 -186 -77.5
t-72 -180.5z" />
    <glyph glyph-name="plusminus" unicode="&#xb1;" horiz-adv-x="3031" 
d="M1401 2306h229v-741h1114v-230h-1114v-618h-229v618h-1114v230h1114v741zM2744 406v-226h-2457v226h2457z" />
    <glyph glyph-name="afii10055" unicode="&#xb2;" horiz-adv-x="1663" 
d="M516 2593h-344v90h1319v-90h-344v-2503h344v-90h-1319v90h344v2503z" />
    <glyph glyph-name="afii10103" unicode="&#xb3;" horiz-adv-x="1130" 
d="M287 1708h-205v82h434q205 0 344 57v-1765h201v-82h-975v82h201v1626zM270 2408q0 114 80 200.5t207 86.5t207 -86.5t80 -200.5q0 -126 -87.5 -206t-199.5 -80q-126 0 -206.5 87t-80.5 199z" />
    <glyph glyph-name="afii10098" unicode="&#xb4;" horiz-adv-x="1663" 
d="M283 82v1626h-201v82h856q232 0 380.5 171t201.5 443h102l8 -1204h-86q-80 271 -251 389.5t-437 118.5v-1626h201v-82h-975v82h201z" />
    <glyph glyph-name="mu" unicode="&#xb5;" 
d="M1438 520v1270h573v-1708h201v-82h-774v262q-167 -332 -504 -332q-168 0 -279 87.5t-143 232.5h-25q7 -171 45 -361q19 -96 36.5 -160t33.5 -120t24.5 -101t8.5 -98q0 -177 -73.5 -268.5t-184.5 -91.5q-116 0 -199.5 98.5t-83.5 273.5q0 135 82 439q52 197 77.5 339
t25.5 341v1249h573v-1270q0 -360 266 -360q151 0 235.5 115t84.5 245z" />
    <glyph glyph-name="paragraph" unicode="&#xb6;" horiz-adv-x="2003" 
d="M856 -856v2159q-208 4 -371 100.5t-254.5 253t-91.5 334.5q0 180 91.5 338t255 254t370.5 100h287v-3539h-287zM1430 -856v3539h286v-3539h-286z" />
    <glyph glyph-name="periodcentered" unicode="&#xb7;" horiz-adv-x="918" 
d="M172 1511q0 111 80.5 199t206.5 88q127 0 206.5 -86t79.5 -201q0 -114 -79.5 -200t-206.5 -86q-126 0 -206.5 88t-80.5 198z" />
    <glyph glyph-name="afii10071" unicode="&#xb8;" horiz-adv-x="1925" 
d="M238 2408q0 114 80 200.5t206 86.5t206.5 -87.5t80.5 -199.5q0 -111 -80.5 -198.5t-206.5 -87.5q-125 0 -205.5 87t-80.5 199zM1118 2408q0 114 80 200.5t207 86.5q126 0 206.5 -87.5t80.5 -199.5q0 -111 -80.5 -198.5t-206.5 -87.5t-206.5 87t-80.5 199zM1737 463
l65 -45q-287 -475 -712 -475q-242 0 -474.5 118.5t-379 338.5t-146.5 501q0 231 114 451t314 357.5t440 137.5q223 0 424 -106.5t325 -308t128 -469.5h-1114v-373q0 -290 89 -427.5t292 -137.5q368 0 635 438zM721 1040h545v193q0 242 -54 387t-225 145q-245 0 -262 -323
q0 -53 -2 -87t-2 -48v-267z" />
    <glyph glyph-name="afii61352" unicode="&#xb9;" horiz-adv-x="4645" 
d="M2855 -57h-180l-1508 2424v-1826q0 -299 -118.5 -448.5t-380.5 -149.5q-119 0 -233 46t-188.5 142t-74.5 234q0 160 85 247.5t202 87.5q121 0 193.5 -78.5t72.5 -199.5q0 -54 -37 -119q-10 -18 -34.5 -53t-36 -55.5t-11.5 -42.5q0 -107 185 -107q154 0 208 134t54 349
v1766q0 180 -75 233t-216 53h-74v103h975l1094 -1708v1278q0 197 127 342t393 145q136 0 242.5 -62.5t165.5 -167t59 -224.5q0 -138 -86 -218.5t-221 -80.5q-124 0 -193.5 80.5t-69.5 189.5q0 91 58 168q13 16 27.5 34.5t22 33t7.5 30.5q0 103 -131 103
q-152 0 -227.5 -122.5t-75.5 -258.5v-2302zM3764 279q-181 0 -341.5 98t-257.5 274t-97 393q0 178 91 350t251 278t350 106q197 0 358.5 -99.5t252 -262t90.5 -343.5q0 -230 -101 -412t-262.5 -282t-333.5 -100zM3568 1475v-889q0 -226 200 -226q126 0 159.5 66.5
t33.5 159.5v893q0 221 -197 221q-196 0 -196 -225zM4473 143v-143h-1401v143h1401z" />
    <glyph glyph-name="afii10101" unicode="&#xba;" horiz-adv-x="1794" 
d="M1647 1143h-86q-55 338 -188 480t-283 142q-154 0 -235 -67.5t-107.5 -190.5t-26.5 -319v-209h598v-78h-598v-364q0 -512 332 -512q290 0 290 172q0 46 -19.5 67.5t-65.5 50.5t-68.5 60t-22.5 92q0 97 70.5 175.5t187.5 78.5q129 0 214 -86t85 -205q0 -120 -77.5 -233
t-231 -183.5t-366.5 -70.5q-274 0 -494 140.5t-342.5 364t-122.5 461.5q0 254 117 469.5t327.5 342t477.5 126.5q143 0 227 -13.5t154.5 -32.5t97.5 -19q20 0 33 65h94z" />
    <glyph glyph-name="guillemotright" unicode="&#xbb;" horiz-adv-x="1589" 
d="M422 1696l49 45q426 -512 1004 -869q-289 -181 -537 -397t-467 -475l-49 45q104 222 217 421.5t254 405.5q-139 202 -252 399t-219 425zM115 1327l61 21q242 -278 574 -476q-323 -199 -574 -475l-61 21q95 255 241 454q-149 197 -241 455z" />
    <glyph glyph-name="afii10105" unicode="&#xbc;" horiz-adv-x="1298" 
d="M438 1708h-266v82h496q199 0 344 57v-1659q0 -337 -84.5 -563.5t-243.5 -337t-377 -110.5q-227 0 -381.5 93.5t-154.5 278.5q0 150 79 224.5t183 74.5q112 0 181 -75.5t69 -161.5q0 -36 -13 -66q-17 -51 -34 -63.5t-39.5 -16t-31.5 -22t-9 -78.5q0 -86 86 -98h53
q149 19 168 233v127q-4 92 -12 189q-13 100 -13 217v1675zM389 2408q0 111 80.5 199t206.5 88q127 0 207 -86.5t80 -200.5q0 -113 -80 -199.5t-207 -86.5q-126 0 -206.5 88t-80.5 198z" />
    <glyph glyph-name="afii10054" unicode="&#xbd;" horiz-adv-x="2359" 
d="M188 0l-16 954h107q67 -281 215 -481.5t335.5 -299.5t374.5 -99q226 0 359 67t186 164.5t53 194.5q0 211 -132 313.5t-363 194.5l-488 192q-216 84 -394.5 259.5t-178.5 502.5q0 183 89 362t284 297.5t487 118.5q125 0 222.5 -25t188.5 -63.5t113 -42.5h66q54 10 131 74
h147v-762h-94q-60 175 -157.5 331t-248.5 258.5t-356 102.5q-241 0 -376.5 -74.5t-135.5 -216.5q0 -208 110.5 -302.5t299.5 -172.5l581 -229q215 -83 402.5 -265.5t187.5 -525.5q0 -155 -56.5 -310.5t-174 -285.5t-303.5 -209t-432 -79q-154 0 -248 23t-244 79
q-164 53 -184 53q-160 0 -213 -98h-144z" />
    <glyph glyph-name="afii10102" unicode="&#xbe;" horiz-adv-x="1651" 
d="M90 -29v705h103q21 -122 74 -232t141 -202t201.5 -144.5t246.5 -52.5q214 0 297.5 82t83.5 180q0 139 -95.5 210t-269.5 118l-372 106q-150 46 -265.5 179.5t-115.5 390.5q0 216 115 335.5t267 160t285 40.5q106 0 291 -69q125 -49 156 -49q106 0 135 90h82v-553h-78
q-73 268 -251.5 381.5t-338.5 113.5q-167 0 -263.5 -62t-96.5 -155q0 -139 89.5 -201t221.5 -102l389 -106q439 -119 439 -566q0 -230 -115.5 -371t-283.5 -198t-339 -57q-155 0 -299 65q-33 14 -82 40.5t-77.5 38t-57.5 11.5q-52 0 -83 -35t-31 -92h-103z" />
    <glyph glyph-name="afii10104" unicode="&#xbf;" horiz-adv-x="1126" 
d="M283 1708h-205v82h434q205 0 344 57v-1765h201v-82h-975v82h201v1626zM-164 2408q0 131 83.5 209t199.5 78q128 0 207.5 -87.5t79.5 -199.5q0 -111 -79.5 -198.5t-207.5 -87.5q-114 0 -198.5 78t-84.5 208zM713 2408q0 113 83 200t208 87q113 0 199.5 -79.5t86.5 -207.5
q0 -127 -87.5 -206.5t-198.5 -79.5q-124 0 -207.5 87.5t-83.5 198.5z" />
    <glyph glyph-name="afii10017" unicode="&#xc0;" horiz-adv-x="2675" 
d="M1761 90l-258 692h-856l-61 -176q-58 -165 -58 -205q0 -121 29.5 -181.5t109 -89t234.5 -40.5v-90h-901v90q137 4 216.5 54.5t123 135.5t111.5 269l798 2191h221l955 -2650h250v-90h-1241v90h327zM1487 877l-410 1110l-405 -1110h815z" />
    <glyph glyph-name="afii10017" unicode="&#x410;" horiz-adv-x="2675" 
d="M1761 90l-258 692h-856l-61 -176q-58 -165 -58 -205q0 -121 29.5 -181.5t109 -89t234.5 -40.5v-90h-901v90q137 4 216.5 54.5t123 135.5t111.5 269l798 2191h221l955 -2650h250v-90h-1241v90h327zM1487 877l-410 1110l-405 -1110h815z" />
    <glyph glyph-name="afii10018" unicode="&#xc1;" horiz-adv-x="2810" 
d="M516 90v2503h-344v90h2183l33 -811h-115q-53 394 -202 557.5t-506 163.5h-418v-1037l295 -4q497 -7 754.5 -163.5t327 -333.5t69.5 -314q0 -741 -1069 -741h-1352v90h344zM1147 90h229q144 0 247 32.5t174.5 147t78.5 344.5v349q-7 146 -43.5 252.5t-149.5 176.5t-327 70
h-209v-1372z" />
    <glyph glyph-name="afii10018" unicode="&#x411;" horiz-adv-x="2810" 
d="M516 90v2503h-344v90h2183l33 -811h-115q-53 394 -202 557.5t-506 163.5h-418v-1037l295 -4q497 -7 754.5 -163.5t327 -333.5t69.5 -314q0 -741 -1069 -741h-1352v90h344zM1147 90h229q144 0 247 32.5t174.5 147t78.5 344.5v349q-7 146 -43.5 252.5t-149.5 176.5t-327 70
h-209v-1372z" />
    <glyph glyph-name="afii10019" unicode="&#xc2;" horiz-adv-x="2933" 
d="M172 2683h1307q520 0 835.5 -122t315.5 -443q0 -209 -151.5 -342t-342.5 -192.5t-371 -84.5l4 -24q947 -186 947 -758q0 -320 -198 -479t-436.5 -198.5t-492.5 -39.5h-1417v90h344v2503h-344v90zM1147 90h262q316 0 453 118t137 402v287q0 557 -537 557h-315v-1364z
M1147 1544h291q310 0 402.5 141.5t92.5 260.5v270q0 377 -495 377h-291v-1049z" />
    <glyph glyph-name="afii10019" unicode="&#x412;" horiz-adv-x="2933" 
d="M172 2683h1307q520 0 835.5 -122t315.5 -443q0 -209 -151.5 -342t-342.5 -192.5t-371 -84.5l4 -24q947 -186 947 -758q0 -320 -198 -479t-436.5 -198.5t-492.5 -39.5h-1417v90h344v2503h-344v90zM1147 90h262q316 0 453 118t137 402v287q0 557 -537 557h-315v-1364z
M1147 1544h291q310 0 402.5 141.5t92.5 260.5v270q0 377 -495 377h-291v-1049z" />
    <glyph glyph-name="afii10020" unicode="&#xc3;" horiz-adv-x="2380" 
d="M2351 1823h-115q-64 280 -151 446t-228 245t-366 79h-344v-2503h344v-90h-1319v90h344v2503h-344v90h2159z" />
    <glyph glyph-name="afii10020" unicode="&#x413;" horiz-adv-x="2380" 
d="M2351 1823h-115q-64 280 -151 446t-228 245t-366 79h-344v-2503h344v-90h-1319v90h344v2503h-344v90h2159z" />
    <glyph glyph-name="afii10021" unicode="&#xc4;" horiz-adv-x="2851" 
d="M2769 -774h-115q-58 343 -233 516t-347.5 215.5t-320.5 42.5h-807q-124 0 -227.5 -18t-213.5 -91.5t-200 -236.5t-137 -428h-135l49 864h319q247 295 271 782l53 1065q2 48 5 90.5t3 65.5q0 190 -22 295t-92 157t-213 52q-58 0 -91 -4v90h2351v-90h-344v-2503h406z
M1692 90v2503h-443q-140 0 -204 -9.5t-105.5 -51.5t-63 -139.5t-32.5 -278.5l-70 -1242q-30 -499 -242 -782h1160z" />
    <glyph glyph-name="afii10021" unicode="&#x414;" horiz-adv-x="2851" 
d="M2769 -774h-115q-58 343 -233 516t-347.5 215.5t-320.5 42.5h-807q-124 0 -227.5 -18t-213.5 -91.5t-200 -236.5t-137 -428h-135l49 864h319q247 295 271 782l53 1065q2 48 5 90.5t3 65.5q0 190 -22 295t-92 157t-213 52q-58 0 -91 -4v90h2351v-90h-344v-2503h406z
M1692 90v2503h-443q-140 0 -204 -9.5t-105.5 -51.5t-63 -139.5t-32.5 -278.5l-70 -1242q-30 -499 -242 -782h1160z" />
    <glyph glyph-name="afii10022" unicode="&#xc5;" horiz-adv-x="2712" 
d="M516 90v2503h-344v90h2306l33 -860h-111q-62 419 -299.5 594.5t-564.5 175.5h-389v-1073h270q134 0 231 73.5t146 186t49 227.5h107v-1073h-107q-7 219 -105 357.5t-321 138.5h-270v-1340h385q229 0 431.5 105t338.5 289t168 405h115l-45 -889h-2368v90h344z" />
    <glyph glyph-name="afii10022" unicode="&#x415;" horiz-adv-x="2712" 
d="M516 90v2503h-344v90h2306l33 -860h-111q-62 419 -299.5 594.5t-564.5 175.5h-389v-1073h270q134 0 231 73.5t146 186t49 227.5h107v-1073h-107q-7 219 -105 357.5t-321 138.5h-270v-1340h385q229 0 431.5 105t338.5 289t168 405h115l-45 -889h-2368v90h344z" />
    <glyph glyph-name="afii10024" unicode="&#xc6;" horiz-adv-x="4387" 
d="M1880 1450v1143h-344v90h1319v-90h-344v-1143h192q123 0 207.5 26.5t146 131.5t68.5 317q11 311 69 487t176 252t316 76q197 0 307.5 -117t110.5 -256q0 -137 -85 -236t-238 -99q-166 0 -232.5 97t-66.5 226q0 23 6 57t6 54q0 61 -25 61q-72 0 -113 -24.5t-67 -106.5
q-34 -115 -43 -198t-22 -273q-12 -198 -40 -290.5t-92 -135.5q-9 -7 -34 -20.5t-32 -18t-7 -10.5q0 -36 161 -43t311 -61t272.5 -266.5t127.5 -649.5q5 -319 160 -319q51 0 131 49l45 -70q-203 -147 -442 -147q-184 0 -293.5 47.5t-166.5 145t-81.5 223.5t-60.5 419
q-34 302 -117 440t-359 138h-196v-1266h344v-90h-1319v90h344v1266h-197q-279 0 -364 -140t-107 -360q-27 -303 -45 -427t-71.5 -240t-172 -181t-321.5 -65q-236 0 -442 147l45 70q96 -58 147 -58q80 0 108.5 102.5t39.5 303.5q12 232 39.5 369.5t119.5 252.5
q109 136 230 195t240.5 70t181 16t61.5 39q0 7 -35.5 25.5t-42.5 23.5q-58 40 -84.5 123.5t-42.5 302.5q-21 282 -51.5 407.5t-74 160t-123.5 34.5q-21 0 -21 -61q0 -20 6 -53t6 -58q0 -128 -66.5 -225.5t-236.5 -97.5q-159 0 -239 100.5t-80 234.5q0 85 45.5 171.5t139 144
t228.5 57.5q233 0 354 -110.5t161 -279t51 -425.5q10 -214 69.5 -318t143 -130.5t209.5 -26.5h192z" />
    <glyph glyph-name="afii10024" unicode="&#x416;" horiz-adv-x="4387" 
d="M1880 1450v1143h-344v90h1319v-90h-344v-1143h192q123 0 207.5 26.5t146 131.5t68.5 317q11 311 69 487t176 252t316 76q197 0 307.5 -117t110.5 -256q0 -137 -85 -236t-238 -99q-166 0 -232.5 97t-66.5 226q0 23 6 57t6 54q0 61 -25 61q-72 0 -113 -24.5t-67 -106.5
q-34 -115 -43 -198t-22 -273q-12 -198 -40 -290.5t-92 -135.5q-9 -7 -34 -20.5t-32 -18t-7 -10.5q0 -36 161 -43t311 -61t272.5 -266.5t127.5 -649.5q5 -319 160 -319q51 0 131 49l45 -70q-203 -147 -442 -147q-184 0 -293.5 47.5t-166.5 145t-81.5 223.5t-60.5 419
q-34 302 -117 440t-359 138h-196v-1266h344v-90h-1319v90h344v1266h-197q-279 0 -364 -140t-107 -360q-27 -303 -45 -427t-71.5 -240t-172 -181t-321.5 -65q-236 0 -442 147l45 70q96 -58 147 -58q80 0 108.5 102.5t39.5 303.5q12 232 39.5 369.5t119.5 252.5
q109 136 230 195t240.5 70t181 16t61.5 39q0 7 -35.5 25.5t-42.5 23.5q-58 40 -84.5 123.5t-42.5 302.5q-21 282 -51.5 407.5t-74 160t-123.5 34.5q-21 0 -21 -61q0 -20 6 -53t6 -58q0 -128 -66.5 -225.5t-236.5 -97.5q-159 0 -239 100.5t-80 234.5q0 85 45.5 171.5t139 144
t228.5 57.5q233 0 354 -110.5t161 -279t51 -425.5q10 -214 69.5 -318t143 -130.5t209.5 -26.5h192z" />
    <glyph glyph-name="afii10025" unicode="&#xc7;" horiz-adv-x="2560" 
d="M426 1884h-86l66 856h86q0 -57 29.5 -85.5t109.5 -28.5q87 0 200.5 39.5t191.5 57t259 17.5q309 0 533.5 -80t341 -217t116.5 -301q0 -202 -106 -326t-274 -189t-418 -120v-37q254 -67 439.5 -151.5t307 -227t121.5 -350.5q0 -175 -99 -355t-370.5 -311.5t-743.5 -131.5
q-284 0 -500.5 94t-331 251.5t-114.5 342.5q0 166 103 263t245 97q154 0 231 -96t77 -211q0 -94 -55.5 -148t-170.5 -122q-86 -56 -86 -103q0 -103 165.5 -190.5t436.5 -87.5q317 0 406.5 179.5t89.5 422.5v250q0 565 -508 565h-327v90h368q193 0 305.5 108.5t112.5 317.5
v234q0 249 -109.5 349.5t-271.5 100.5q-599 0 -770 -766z" />
    <glyph glyph-name="afii10025" unicode="&#x417;" horiz-adv-x="2560" 
d="M426 1884h-86l66 856h86q0 -57 29.5 -85.5t109.5 -28.5q87 0 200.5 39.5t191.5 57t259 17.5q309 0 533.5 -80t341 -217t116.5 -301q0 -202 -106 -326t-274 -189t-418 -120v-37q254 -67 439.5 -151.5t307 -227t121.5 -350.5q0 -175 -99 -355t-370.5 -311.5t-743.5 -131.5
q-284 0 -500.5 94t-331 251.5t-114.5 342.5q0 166 103 263t245 97q154 0 231 -96t77 -211q0 -94 -55.5 -148t-170.5 -122q-86 -56 -86 -103q0 -103 165.5 -190.5t436.5 -87.5q317 0 406.5 179.5t89.5 422.5v250q0 565 -508 565h-327v90h368q193 0 305.5 108.5t112.5 317.5
v234q0 249 -109.5 349.5t-271.5 100.5q-599 0 -770 -766z" />
    <glyph glyph-name="afii10026" unicode="&#xc8;" horiz-adv-x="3244" 
d="M516 90v2503h-344v90h1262v-90h-287v-2061l950 1848v213h-287v90h1262v-90h-344v-2503h344v-90h-1262v90h287v2052l-950 -1863v-189h287v-90h-1262v90h344z" />
    <glyph glyph-name="afii10026" unicode="&#x418;" horiz-adv-x="3244" 
d="M516 90v2503h-344v90h1262v-90h-287v-2061l950 1848v213h-287v90h1262v-90h-344v-2503h344v-90h-1262v90h287v2052l-950 -1863v-189h287v-90h-1262v90h344z" />
    <glyph glyph-name="afii10027" unicode="&#xc9;" horiz-adv-x="3244" 
d="M1626 2879q328 0 328 111q0 23 -49 82q-54 51 -54 119q0 85 61 149t165 64q107 0 172 -64t65 -162q0 -164 -175 -266t-513 -102q-359 0 -523.5 111.5t-164.5 256.5q0 84 61.5 155t180.5 71q102 0 161.5 -62.5t59.5 -150.5q0 -66 -53 -119q-50 -58 -50 -82q0 -73 87.5 -92
t240.5 -19zM516 90v2503h-344v90h1262v-90h-287v-2061l950 1848v213h-287v90h1262v-90h-344v-2503h344v-90h-1262v90h287v2052l-950 -1863v-189h287v-90h-1262v90h344z" />
    <glyph glyph-name="afii10027" unicode="&#x419;" horiz-adv-x="3244" 
d="M1626 2879q328 0 328 111q0 23 -49 82q-54 51 -54 119q0 85 61 149t165 64q107 0 172 -64t65 -162q0 -164 -175 -266t-513 -102q-359 0 -523.5 111.5t-164.5 256.5q0 84 61.5 155t180.5 71q102 0 161.5 -62.5t59.5 -150.5q0 -66 -53 -119q-50 -58 -50 -82q0 -73 87.5 -92
t240.5 -19zM516 90v2503h-344v90h1262v-90h-287v-2061l950 1848v213h-287v90h1262v-90h-344v-2503h344v-90h-1262v90h287v2052l-950 -1863v-189h287v-90h-1262v90h344z" />
    <glyph glyph-name="afii10028" unicode="&#xca;" horiz-adv-x="2966" 
d="M1147 1450h250q122 0 206.5 26.5t146 130t69.5 318.5q11 310 68.5 486t176 252.5t316.5 76.5q197 0 307.5 -117t110.5 -256q0 -135 -84.5 -235t-239.5 -100q-166 0 -232.5 97t-66.5 226q0 23 6 57t6 54q0 61 -24 61q-72 0 -113.5 -24.5t-67.5 -106.5q-58 -191 -65 -471
q-4 -183 -41 -300t-172 -179l8 -16q378 -6 570 -154t246.5 -354t60.5 -492q5 -319 155 -319q51 0 131 49l45 -70q-202 -147 -442 -147q-184 0 -293.5 47.5t-167 145.5t-82.5 231.5t-59 410.5q-34 302 -117 440t-358 138h-254v-1266h344v-90h-1319v90h344v2503h-344v90h1319
v-90h-344v-1143z" />
    <glyph glyph-name="afii10028" unicode="&#x41a;" horiz-adv-x="2966" 
d="M1147 1450h250q122 0 206.5 26.5t146 130t69.5 318.5q11 310 68.5 486t176 252.5t316.5 76.5q197 0 307.5 -117t110.5 -256q0 -135 -84.5 -235t-239.5 -100q-166 0 -232.5 97t-66.5 226q0 23 6 57t6 54q0 61 -24 61q-72 0 -113.5 -24.5t-67.5 -106.5q-58 -191 -65 -471
q-4 -183 -41 -300t-172 -179l8 -16q378 -6 570 -154t246.5 -354t60.5 -492q5 -319 155 -319q51 0 131 49l45 -70q-202 -147 -442 -147q-184 0 -293.5 47.5t-167 145.5t-82.5 231.5t-59 410.5q-34 302 -117 440t-358 138h-254v-1266h344v-90h-1319v90h344v2503h-344v90h1319
v-90h-344v-1143z" />
    <glyph glyph-name="afii10029" unicode="&#xcb;" horiz-adv-x="3064" 
d="M508 2593v90h2384v-90h-344v-2503h344v-90h-1319v90h344v2503h-377q-222 0 -316.5 -72.5t-111 -180t-18.5 -345.5q0 -105 -17 -549q-2 -50 -4 -109t-3.5 -106t-2 -69.5t-2.5 -84.5q-4 -174 -11 -409.5t-47.5 -388t-150.5 -244.5t-311 -92q-146 0 -253.5 67.5t-164.5 178
t-57 233.5q0 144 98.5 231.5t245.5 87.5q129 0 216 -83t87 -220q0 -131 -62 -200q-11 -14 -32 -37t-31 -39.5t-10 -30.5q0 -21 11.5 -41t29.5 -20q212 0 274 192q51 163 66 545q9 272 18.5 680t9.5 631q0 302 -96.5 388.5t-296.5 86.5h-90z" />
    <glyph glyph-name="afii10029" unicode="&#x41b;" horiz-adv-x="3064" 
d="M508 2593v90h2384v-90h-344v-2503h344v-90h-1319v90h344v2503h-377q-222 0 -316.5 -72.5t-111 -180t-18.5 -345.5q0 -105 -17 -549q-2 -50 -4 -109t-3.5 -106t-2 -69.5t-2.5 -84.5q-4 -174 -11 -409.5t-47.5 -388t-150.5 -244.5t-311 -92q-146 0 -253.5 67.5t-164.5 178
t-57 233.5q0 144 98.5 231.5t245.5 87.5q129 0 216 -83t87 -220q0 -131 -62 -200q-11 -14 -32 -37t-31 -39.5t-10 -30.5q0 -21 11.5 -41t29.5 -20q212 0 274 192q51 163 66 545q9 272 18.5 680t9.5 631q0 302 -96.5 388.5t-296.5 86.5h-90z" />
    <glyph glyph-name="afii10030" unicode="&#xcc;" horiz-adv-x="3654" 
d="M1839 954l635 1729h1008v-90h-340v-2503h340v-90h-1315v90h344v2376l-897 -2466h-82l-905 2466v-1852q0 -168 25 -280t96.5 -178t201.5 -66v-90h-778v90q215 15 283.5 157.5t68.5 383.5v1663q0 166 -76 228t-255 71v90h995z" />
    <glyph glyph-name="afii10030" unicode="&#x41c;" horiz-adv-x="3654" 
d="M1839 954l635 1729h1008v-90h-340v-2503h340v-90h-1315v90h344v2376l-897 -2466h-82l-905 2466v-1852q0 -168 25 -280t96.5 -178t201.5 -66v-90h-778v90q215 15 283.5 157.5t68.5 383.5v1663q0 166 -76 228t-255 71v90h995z" />
    <glyph glyph-name="afii10031" unicode="&#xcd;" horiz-adv-x="3244" 
d="M1147 1372v-1282h287v-90h-1262v90h344v2503h-344v90h1262v-90h-287v-1131h950v1131h-287v90h1262v-90h-344v-2503h344v-90h-1262v90h287v1282h-950z" />
    <glyph glyph-name="afii10031" unicode="&#x41d;" horiz-adv-x="3244" 
d="M1147 1372v-1282h287v-90h-1262v90h344v2503h-344v90h1262v-90h-287v-1131h950v1131h-287v90h1262v-90h-344v-2503h344v-90h-1262v90h287v1282h-950z" />
    <glyph glyph-name="afii10032" unicode="&#xce;" horiz-adv-x="3121" 
d="M205 1339q0 291 108.5 549t298.5 449.5t436 297t508 105.5q358 0 671.5 -186.5t501 -509t187.5 -705.5q0 -417 -201 -736.5t-517 -489.5t-642 -170q-215 0 -450.5 88t-441 264t-332.5 441t-127 603zM930 1778q-4 -95 -4 -373q0 -389 4 -508q14 -359 131.5 -611.5
t494.5 -252.5q266 0 404 133t180.5 316.5t50.5 414.5q0 170 9 508q0 274 -9 373q-26 430 -167 651t-468 221q-218 0 -350 -103.5t-195.5 -295.5t-80.5 -473z" />
    <glyph glyph-name="afii10032" unicode="&#x41e;" horiz-adv-x="3121" 
d="M205 1339q0 291 108.5 549t298.5 449.5t436 297t508 105.5q358 0 671.5 -186.5t501 -509t187.5 -705.5q0 -417 -201 -736.5t-517 -489.5t-642 -170q-215 0 -450.5 88t-441 264t-332.5 441t-127 603zM930 1778q-4 -95 -4 -373q0 -389 4 -508q14 -359 131.5 -611.5
t494.5 -252.5q266 0 404 133t180.5 316.5t50.5 414.5q0 170 9 508q0 274 -9 373q-26 430 -167 651t-468 221q-218 0 -350 -103.5t-195.5 -295.5t-80.5 -473z" />
    <glyph glyph-name="afii10033" unicode="&#xcf;" horiz-adv-x="3252" 
d="M1147 2593v-2503h287v-90h-1262v90h344v2503h-344v90h2908v-90h-344v-2503h344v-90h-1261v90h286v2503h-958z" />
    <glyph glyph-name="afii10033" unicode="&#x41f;" horiz-adv-x="3252" 
d="M1147 2593v-2503h287v-90h-1262v90h344v2503h-344v90h2908v-90h-344v-2503h344v-90h-1261v90h286v2503h-958z" />
    <glyph glyph-name="afii10034" unicode="&#xd0;" horiz-adv-x="2851" 
d="M516 90v2503h-344v90h1294q199 0 389.5 -18.5t388 -88.5t330.5 -224.5t133 -405.5q0 -377 -264 -588t-919 -211h-377v-1057h344v-90h-1319v90h344zM1147 1237h205q222 0 353.5 44.5t193 123.5t77 175.5t15.5 250.5v291q0 159 -34 255.5t-164.5 156t-399.5 59.5h-246
v-1356z" />
    <glyph glyph-name="afii10034" unicode="&#x420;" horiz-adv-x="2851" 
d="M516 90v2503h-344v90h1294q199 0 389.5 -18.5t388 -88.5t330.5 -224.5t133 -405.5q0 -377 -264 -588t-919 -211h-377v-1057h344v-90h-1319v90h344zM1147 1237h205q222 0 353.5 44.5t193 123.5t77 175.5t15.5 250.5v291q0 159 -34 255.5t-164.5 156t-399.5 59.5h-246
v-1356z" />
    <glyph glyph-name="afii10035" unicode="&#xd1;" horiz-adv-x="2609" 
d="M2380 950h114l-32 -950h-115q-23 83 -102 106h-86q-41 -8 -163.5 -55.5t-250 -77.5t-299.5 -30q-236 0 -457.5 108t-397 305t-275 457.5t-99.5 546.5q0 356 178.5 675t483 512t653.5 193q150 0 223 -17.5t141 -53t117 -50t158 -14.5q46 0 88.5 30.5t50.5 104.5h115
l8 -921h-86q-40 200 -147 392t-276 315.5t-380 123.5q-204 0 -329 -86.5t-185.5 -229t-78 -300.5t-17.5 -367v-565q0 -558 164.5 -815.5t441.5 -257.5q157 0 329.5 83.5t316 291.5t194.5 546z" />
    <glyph glyph-name="afii10035" unicode="&#x421;" horiz-adv-x="2609" 
d="M2380 950h114l-32 -950h-115q-23 83 -102 106h-86q-41 -8 -163.5 -55.5t-250 -77.5t-299.5 -30q-236 0 -457.5 108t-397 305t-275 457.5t-99.5 546.5q0 356 178.5 675t483 512t653.5 193q150 0 223 -17.5t141 -53t117 -50t158 -14.5q46 0 88.5 30.5t50.5 104.5h115
l8 -921h-86q-40 200 -147 392t-276 315.5t-380 123.5q-204 0 -329 -86.5t-185.5 -229t-78 -300.5t-17.5 -367v-565q0 -558 164.5 -815.5t441.5 -257.5q157 0 329.5 83.5t316 291.5t194.5 546z" />
    <glyph glyph-name="afii10036" unicode="&#xd2;" horiz-adv-x="2666" 
d="M1991 0h-1319v90h344v2503q-29 4 -86 4q-211 0 -368.5 -114.5t-247.5 -295.5t-109 -372h-115l25 868h2437l24 -868h-114q-57 289 -177 463t-281.5 244.5t-356.5 70.5v-2503h344v-90z" />
    <glyph glyph-name="afii10036" unicode="&#x422;" horiz-adv-x="2666" 
d="M1991 0h-1319v90h344v2503q-29 4 -86 4q-211 0 -368.5 -114.5t-247.5 -295.5t-109 -372h-115l25 868h2437l24 -868h-114q-57 289 -177 463t-281.5 244.5t-356.5 70.5v-2503h344v-90z" />
    <glyph glyph-name="afii10037" unicode="&#xd3;" horiz-adv-x="2630" 
d="M1729 1049l413 1048q45 106 45 221q0 128 -76.5 201.5t-222.5 73.5h-53v90h909v-90q-144 -6 -225 -44t-117.5 -95.5t-74.5 -155.5l-365 -918q-173 -439 -298.5 -707t-238 -427.5t-237.5 -231t-287 -71.5q-186 0 -325 80t-212 208.5t-73 264.5q0 144 98.5 237.5
t245.5 93.5q143 0 225 -91.5t82 -207.5q0 -199 -229 -278q-17 -7 -51 -19t-55 -24.5t-21 -30.5q0 -47 77.5 -95t237.5 -48q303 0 471 340l-1114 2220h-258v90h1270v-90h-312z" />
    <glyph glyph-name="afii10037" unicode="&#x423;" horiz-adv-x="2630" 
d="M1729 1049l413 1048q45 106 45 221q0 128 -76.5 201.5t-222.5 73.5h-53v90h909v-90q-144 -6 -225 -44t-117.5 -95.5t-74.5 -155.5l-365 -918q-173 -439 -298.5 -707t-238 -427.5t-237.5 -231t-287 -71.5q-186 0 -325 80t-212 208.5t-73 264.5q0 144 98.5 237.5
t245.5 93.5q143 0 225 -91.5t82 -207.5q0 -199 -229 -278q-17 -7 -51 -19t-55 -24.5t-21 -30.5q0 -47 77.5 -95t237.5 -48q303 0 471 340l-1114 2220h-258v90h1270v-90h-312z" />
    <glyph glyph-name="afii10038" unicode="&#xd4;" horiz-adv-x="3670" 
d="M1176 2740h1318v-90h-344v-237h91q517 0 796.5 -173t370 -403t90.5 -461q0 -421 -195 -654.5t-462 -313.5t-539 -80q-111 0 -152 4v-242h344v-90h-1318v90h344v242q-58 -4 -172 -4q-402 0 -648 119t-358.5 291.5t-141 328.5t-28.5 309q0 390 177.5 621t459 323.5
t621.5 92.5h90v237h-344v90zM2150 2318v-1892h185q166 0 306 104.5t140 391.5v942q0 174 -106 314t-410 140h-115zM1520 426v1896q-314 -3 -472.5 -103t-158.5 -355v-942q0 -287 140.5 -391.5t309.5 -104.5h181z" />
    <glyph glyph-name="afii10038" unicode="&#x424;" horiz-adv-x="3670" 
d="M1176 2740h1318v-90h-344v-237h91q517 0 796.5 -173t370 -403t90.5 -461q0 -421 -195 -654.5t-462 -313.5t-539 -80q-111 0 -152 4v-242h344v-90h-1318v90h344v242q-58 -4 -172 -4q-402 0 -648 119t-358.5 291.5t-141 328.5t-28.5 309q0 390 177.5 621t459 323.5
t621.5 92.5h90v237h-344v90zM2150 2318v-1892h185q166 0 306 104.5t140 391.5v942q0 174 -106 314t-410 140h-115zM1520 426v1896q-314 -3 -472.5 -103t-158.5 -355v-942q0 -287 140.5 -391.5t309.5 -104.5h181z" />
    <glyph glyph-name="afii10039" unicode="&#xd5;" horiz-adv-x="3043" 
d="M1634 1704l254 373q123 183 123 278q0 238 -287 238v90h963v-90q-207 0 -350.5 -115t-308.5 -369l-332 -499l991 -1520h266v-90h-1257v90h246l-668 1008l-348 -496q-123 -176 -123 -242q0 -164 82 -217t270 -53v-90h-1028v90q214 8 337.5 106.5t289.5 335.5l458 656
l-933 1405h-189v90h1262v-90h-303z" />
    <glyph glyph-name="afii10039" unicode="&#x425;" horiz-adv-x="3043" 
d="M1634 1704l254 373q123 183 123 278q0 238 -287 238v90h963v-90q-207 0 -350.5 -115t-308.5 -369l-332 -499l991 -1520h266v-90h-1257v90h246l-668 1008l-348 -496q-123 -176 -123 -242q0 -164 82 -217t270 -53v-90h-1028v90q214 8 337.5 106.5t289.5 335.5l458 656
l-933 1405h-189v90h1262v-90h-303z" />
    <glyph glyph-name="afii10040" unicode="&#xd6;" horiz-adv-x="3301" 
d="M2105 90v2503h-286v90h1261v-90h-344v-2503h422l53 -868h-114q-101 308 -240.5 480.5t-295 235t-329.5 62.5h-2060v90h344v2503h-344v90h1262v-90h-287v-2503h958z" />
    <glyph glyph-name="afii10040" unicode="&#x426;" horiz-adv-x="3301" 
d="M2105 90v2503h-286v90h1261v-90h-344v-2503h422l53 -868h-114q-101 308 -240.5 480.5t-295 235t-329.5 62.5h-2060v90h344v2503h-344v90h1262v-90h-287v-2503h958z" />
    <glyph glyph-name="afii10041" unicode="&#xd7;" horiz-adv-x="2998" 
d="M1851 1303v1290h-286v90h1261v-90h-344v-2503h344v-90h-1319v90h344v1122q-384 -196 -749 -196q-312 0 -466.5 106t-194.5 249.5t-40 336.5v885h-344v90h1262v-90h-287v-938q0 -170 13 -264.5t73 -157t189 -62.5q246 0 544 132z" />
    <glyph glyph-name="afii10041" unicode="&#x427;" horiz-adv-x="2998" 
d="M1851 1303v1290h-286v90h1261v-90h-344v-2503h344v-90h-1319v90h344v1122q-384 -196 -749 -196q-312 0 -466.5 106t-194.5 249.5t-40 336.5v885h-344v90h1262v-90h-287v-938q0 -170 13 -264.5t73 -157t189 -62.5q246 0 544 132z" />
    <glyph glyph-name="afii10042" unicode="&#xd8;" horiz-adv-x="4628" 
d="M4112 90h344v-90h-4284v90h344v2503h-344v90h1262v-90h-287v-2503h852v2503h-287v90h1204v-90h-286v-2503h852v2503h-287v90h1261v-90h-344v-2503z" />
    <glyph glyph-name="afii10042" unicode="&#x428;" horiz-adv-x="4628" 
d="M4112 90h344v-90h-4284v90h344v2503h-344v90h1262v-90h-287v-2503h852v2503h-287v90h1204v-90h-286v-2503h852v2503h-287v90h1261v-90h-344v-2503z" />
    <glyph glyph-name="afii10043" unicode="&#xd9;" horiz-adv-x="4674" 
d="M172 0v90h344v2503h-344v90h1262v-90h-287v-2503h852v2503h-287v90h1204v-90h-286v-2503h852v2503h-287v90h1261v-90h-344v-2503h418l53 -868h-114q-102 306 -242 479.5t-295 236t-328 62.5h-3432z" />
    <glyph glyph-name="afii10043" unicode="&#x429;" horiz-adv-x="4674" 
d="M172 0v90h344v2503h-344v90h1262v-90h-287v-2503h852v2503h-287v90h1204v-90h-286v-2503h852v2503h-287v90h1261v-90h-344v-2503h418l53 -868h-114q-102 306 -242 479.5t-295 236t-328 62.5h-3432z" />
    <glyph glyph-name="afii10044" unicode="&#xda;" horiz-adv-x="3117" 
d="M172 1769h-115l29 914h1884v-90h-344v-1061h172q243 0 460.5 -44t384 -138t263 -244.5t96.5 -351.5q0 -463 -344 -608.5t-790 -145.5h-1217v90h344v2503q-74 8 -106 8q-185 0 -342.5 -89.5t-258 -276.5t-116.5 -466zM1626 90h148q222 0 334.5 70t145 178t32.5 268v320
q0 236 -73 349t-171.5 140t-243.5 27h-172v-1352z" />
    <glyph glyph-name="afii10044" unicode="&#x42a;" horiz-adv-x="3117" 
d="M172 1769h-115l29 914h1884v-90h-344v-1061h172q243 0 460.5 -44t384 -138t263 -244.5t96.5 -351.5q0 -463 -344 -608.5t-790 -145.5h-1217v90h344v2503q-74 8 -106 8q-185 0 -342.5 -89.5t-258 -276.5t-116.5 -466zM1626 90h148q222 0 334.5 70t145 178t32.5 268v320
q0 236 -73 349t-171.5 140t-243.5 27h-172v-1352z" />
    <glyph glyph-name="afii10045" unicode="&#xdb;" horiz-adv-x="4059" 
d="M2912 90v2503h-344v90h1319v-90h-344v-2503h344v-90h-1319v90h344zM1147 1532h172q248 0 465.5 -44t383.5 -138t260.5 -243.5t94.5 -352.5q0 -464 -345 -609t-794 -145h-1212v90h344v2503h-344v90h1319v-90h-344v-1061zM1147 90h147q222 0 334.5 70t145 178t32.5 268v320
q0 173 -36.5 283.5t-143.5 171.5t-307 61h-172v-1352z" />
    <glyph glyph-name="afii10045" unicode="&#x42b;" horiz-adv-x="4059" 
d="M2912 90v2503h-344v90h1319v-90h-344v-2503h344v-90h-1319v90h344zM1147 1532h172q248 0 465.5 -44t383.5 -138t260.5 -243.5t94.5 -352.5q0 -464 -345 -609t-794 -145h-1212v90h344v2503h-344v90h1319v-90h-344v-1061zM1147 90h147q222 0 334.5 70t145 178t32.5 268v320
q0 173 -36.5 283.5t-143.5 171.5t-307 61h-172v-1352z" />
    <glyph glyph-name="afii10046" unicode="&#xdc;" horiz-adv-x="2638" 
d="M1147 1532h172q248 0 465.5 -44t383.5 -138t260.5 -243.5t94.5 -352.5q0 -463 -344 -608.5t-790 -145.5h-1217v90h344v2503h-344v90h1319v-90h-344v-1061zM1147 90h147q222 0 334.5 70t145 178t32.5 268v320q0 173 -36.5 283.5t-143.5 171.5t-307 61h-172v-1352z" />
    <glyph glyph-name="afii10046" unicode="&#x42c;" horiz-adv-x="2638" 
d="M1147 1532h172q248 0 465.5 -44t383.5 -138t260.5 -243.5t94.5 -352.5q0 -463 -344 -608.5t-790 -145.5h-1217v90h344v2503h-344v90h1319v-90h-344v-1061zM1147 90h147q222 0 334.5 70t145 178t32.5 268v320q0 173 -36.5 283.5t-143.5 171.5t-307 61h-172v-1352z" />
    <glyph glyph-name="afii10047" unicode="&#xdd;" horiz-adv-x="2437" 
d="M283 1843h-111l53 897h90q35 -110 148 -110q55 0 254 57q186 53 381 53q281 0 501 -110.5t368 -303t223 -440t75 -518.5q0 -292 -85.5 -548.5t-251 -455.5t-399.5 -310t-521 -111q-194 0 -359.5 50t-286 139t-184 200t-63.5 233q0 154 95.5 243t231.5 89
q128 0 209.5 -85.5t81.5 -193.5q0 -98 -98 -196q-30 -36 -42.5 -51.5t-26 -43t-13.5 -57.5q0 -97 106 -167t304 -70q345 0 465 284.5t120 772.5v282h-1044v90h1044v393q0 795 -487 795q-240 0 -408 -125t-257 -309t-113 -373z" />
    <glyph glyph-name="afii10047" unicode="&#x42d;" horiz-adv-x="2437" 
d="M283 1843h-111l53 897h90q35 -110 148 -110q55 0 254 57q186 53 381 53q281 0 501 -110.5t368 -303t223 -440t75 -518.5q0 -292 -85.5 -548.5t-251 -455.5t-399.5 -310t-521 -111q-194 0 -359.5 50t-286 139t-184 200t-63.5 233q0 154 95.5 243t231.5 89
q128 0 209.5 -85.5t81.5 -193.5q0 -98 -98 -196q-30 -36 -42.5 -51.5t-26 -43t-13.5 -57.5q0 -97 106 -167t304 -70q345 0 465 284.5t120 772.5v282h-1044v90h1044v393q0 795 -487 795q-240 0 -408 -125t-257 -309t-113 -373z" />
    <glyph glyph-name="afii10048" unicode="&#xde;" horiz-adv-x="4362" 
d="M1147 1327v-1237h344v-90h-1319v90h344v2503h-344v90h1319v-90h-344v-1176h446q6 264 96.5 503.5t254.5 424.5t392.5 290t497.5 105q367 0 668 -177.5t472 -481t171 -660.5q0 -393 -154 -732.5t-443 -542.5t-669 -203q-363 0 -655.5 177.5t-458.5 494t-172 712.5h-446z
M2310 1651v-688q0 -300 43.5 -501t164.5 -317t341 -116q324 0 446.5 242.5t122.5 691.5v684q0 479 -118.5 741t-454.5 262q-233 0 -353 -126t-156 -335t-36 -538z" />
    <glyph glyph-name="afii10048" unicode="&#x42e;" horiz-adv-x="4362" 
d="M1147 1327v-1237h344v-90h-1319v90h344v2503h-344v90h1319v-90h-344v-1176h446q6 264 96.5 503.5t254.5 424.5t392.5 290t497.5 105q367 0 668 -177.5t472 -481t171 -660.5q0 -393 -154 -732.5t-443 -542.5t-669 -203q-363 0 -655.5 177.5t-458.5 494t-172 712.5h-446z
M2310 1651v-688q0 -300 43.5 -501t164.5 -317t341 -116q324 0 446.5 242.5t122.5 691.5v684q0 479 -118.5 741t-454.5 262q-233 0 -353 -126t-156 -335t-36 -538z" />
    <glyph glyph-name="afii10049" unicode="&#xdf;" horiz-adv-x="3088" 
d="M1942 90v1266h-361q-195 0 -294 -75t-125 -169.5t-40 -247.5q-22 -278 -46 -429t-82 -263t-173.5 -170.5t-312.5 -58.5q-273 0 -475 143l45 82q77 -49 143 -49q82 0 124 51.5t56.5 129t24.5 208.5q23 260 44 371.5t97 214.5t244 176.5t463 118.5v28q-540 43 -718.5 229.5
t-178.5 413.5q0 201 102 328.5t265 190t348.5 83.5t410.5 21h1413v-90h-344v-2503h344v-90h-1319v90h345zM1942 1446v1147h-300q-340 0 -442 -131.5t-102 -315.5v-237q0 -140 39 -238.5t161 -161.5t357 -63h287z" />
    <glyph glyph-name="afii10049" unicode="&#x42f;" horiz-adv-x="3088" 
d="M1942 90v1266h-361q-195 0 -294 -75t-125 -169.5t-40 -247.5q-22 -278 -46 -429t-82 -263t-173.5 -170.5t-312.5 -58.5q-273 0 -475 143l45 82q77 -49 143 -49q82 0 124 51.5t56.5 129t24.5 208.5q23 260 44 371.5t97 214.5t244 176.5t463 118.5v28q-540 43 -718.5 229.5
t-178.5 413.5q0 201 102 328.5t265 190t348.5 83.5t410.5 21h1413v-90h-344v-2503h344v-90h-1319v90h345zM1942 1446v1147h-300q-340 0 -442 -131.5t-102 -315.5v-237q0 -140 39 -238.5t161 -161.5t357 -63h287z" />
    <glyph glyph-name="afii10065" unicode="&#xe0;" horiz-adv-x="2150" 
d="M2093 238l57 -54q-203 -241 -499 -241q-118 0 -228.5 87.5t-148.5 207.5q-242 -295 -615 -295q-243 0 -400 136.5t-157 354.5q0 224 151.5 346t401.5 168t619 60v475q0 115 -50 178t-114 83.5t-123 20.5q-159 0 -245.5 -40t-86.5 -95q0 -29 14 -52.5t40 -50t41 -40.5
q65 -71 65 -164q0 -103 -73 -178.5t-189 -75.5q-130 0 -208.5 85t-78.5 194q0 127 97 242t292 186t471 71q721 0 721 -368v-1123q0 -8 -2 -38t-2 -48q0 -114 49 -114q140 0 201 82zM1274 315v623q-246 -11 -365.5 -86t-146.5 -166t-29 -215q0 -139 38 -229t183 -90
q149 0 320 163z" />
    <glyph glyph-name="afii10065" unicode="&#x430;" horiz-adv-x="2150" 
d="M2093 238l57 -54q-203 -241 -499 -241q-118 0 -228.5 87.5t-148.5 207.5q-242 -295 -615 -295q-243 0 -400 136.5t-157 354.5q0 224 151.5 346t401.5 168t619 60v475q0 115 -50 178t-114 83.5t-123 20.5q-159 0 -245.5 -40t-86.5 -95q0 -29 14 -52.5t40 -50t41 -40.5
q65 -71 65 -164q0 -103 -73 -178.5t-189 -75.5q-130 0 -208.5 85t-78.5 194q0 127 97 242t292 186t471 71q721 0 721 -368v-1123q0 -8 -2 -38t-2 -48q0 -114 49 -114q140 0 201 82zM1274 315v623q-246 -11 -365.5 -86t-146.5 -166t-29 -215q0 -139 38 -229t183 -90
q149 0 320 163z" />
    <glyph glyph-name="afii10066" unicode="&#xe1;" horiz-adv-x="2048" 
d="M201 1266h45q51 168 172 301.5t281.5 206.5t324.5 73q181 0 350.5 -70.5t301 -200t207 -306t75.5 -377.5q0 -296 -149.5 -513t-368.5 -327t-416 -110q-208 0 -419.5 97.5t-363 362t-151.5 727.5q0 466 121.5 779.5t314 486.5t406.5 251.5t448 109.5q129 18 210.5 29.5
t132 27.5t81 48.5t43.5 90.5h70q0 -207 -94 -350t-231.5 -226.5t-247 -119.5t-304.5 -86q-266 -65 -439.5 -143t-288.5 -241t-115 -439q0 -12 2 -40t2 -42zM725 1270v-754q0 -157 23.5 -263.5t89 -167t186.5 -60.5q179 0 241 125.5t62 365.5v754q0 243 -62 369t-241 126
q-177 0 -238 -125.5t-61 -369.5z" />
    <glyph glyph-name="afii10066" unicode="&#x431;" horiz-adv-x="2048" 
d="M201 1266h45q51 168 172 301.5t281.5 206.5t324.5 73q181 0 350.5 -70.5t301 -200t207 -306t75.5 -377.5q0 -296 -149.5 -513t-368.5 -327t-416 -110q-208 0 -419.5 97.5t-363 362t-151.5 727.5q0 466 121.5 779.5t314 486.5t406.5 251.5t448 109.5q129 18 210.5 29.5
t132 27.5t81 48.5t43.5 90.5h70q0 -207 -94 -350t-231.5 -226.5t-247 -119.5t-304.5 -86q-266 -65 -439.5 -143t-288.5 -241t-115 -439q0 -12 2 -40t2 -42zM725 1270v-754q0 -157 23.5 -263.5t89 -167t186.5 -60.5q179 0 241 125.5t62 365.5v754q0 243 -62 369t-241 126
q-177 0 -238 -125.5t-61 -369.5z" />
    <glyph glyph-name="afii10067" unicode="&#xe2;" horiz-adv-x="2126" 
d="M1311 987v-12q211 -37 363.5 -91.5t244.5 -148t92 -231.5q0 -163 -123.5 -305.5t-384.5 -182.5q-115 -16 -266 -16h-1155v82h201v1626h-201v82h872q309 0 503 -21.5t323 -106.5t129 -261q0 -190 -161 -277.5t-437 -136.5zM856 1024h172q195 0 247 81.5t52 209.5v180
q0 213 -307 213h-164v-684zM856 82h279q245 0 245 336v160q0 149 -56 258.5t-255 109.5h-213v-864z" />
    <glyph glyph-name="afii10067" unicode="&#x432;" horiz-adv-x="2126" 
d="M1311 987v-12q211 -37 363.5 -91.5t244.5 -148t92 -231.5q0 -163 -123.5 -305.5t-384.5 -182.5q-115 -16 -266 -16h-1155v82h201v1626h-201v82h872q309 0 503 -21.5t323 -106.5t129 -261q0 -190 -161 -277.5t-437 -136.5zM856 1024h172q195 0 247 81.5t52 209.5v180
q0 213 -307 213h-164v-684zM856 82h279q245 0 245 336v160q0 149 -56 258.5t-255 109.5h-213v-864z" />
    <glyph glyph-name="afii10068" unicode="&#xe3;" horiz-adv-x="1712" 
d="M283 82v1626h-201v82h1569l28 -696h-102q-54 274 -201 444t-381 170h-139v-1626h201v-82h-975v82h201z" />
    <glyph glyph-name="afii10068" unicode="&#x433;" horiz-adv-x="1712" 
d="M283 82v1626h-201v82h1569l28 -696h-102q-54 274 -201 444t-381 170h-139v-1626h201v-82h-975v82h201z" />
    <glyph glyph-name="afii10069" unicode="&#xe4;" horiz-adv-x="2077" 
d="M131 -647h-106l32 729q213 0 315 164.5t125 394t23 584.5v106v144q0 111 -35 172t-174 61h-82v82h1704v-82h-200v-1626h282l29 -729h-102q-54 296 -213 471.5t-443 175.5h-549q-481 0 -606 -647zM1159 82v1626h-377q-67 0 -102 -20.5t-56.5 -110.5t-21.5 -291
q0 -392 -26 -633.5t-79.5 -368.5t-144.5 -202h807z" />
    <glyph glyph-name="afii10069" unicode="&#x434;" horiz-adv-x="2077" 
d="M131 -647h-106l32 729q213 0 315 164.5t125 394t23 584.5v106v144q0 111 -35 172t-174 61h-82v82h1704v-82h-200v-1626h282l29 -729h-102q-54 296 -213 471.5t-443 175.5h-549q-481 0 -606 -647zM1159 82v1626h-377q-67 0 -102 -20.5t-56.5 -110.5t-21.5 -291
q0 -392 -26 -633.5t-79.5 -368.5t-144.5 -202h807z" />
    <glyph glyph-name="afii10070" unicode="&#xe5;" horiz-adv-x="1925" 
d="M1737 463l65 -45q-287 -475 -712 -475q-242 0 -474.5 118.5t-379 338.5t-146.5 501q0 231 114 451t314 357.5t440 137.5q223 0 424 -106.5t325 -308t128 -469.5h-1114v-373q0 -290 89 -427.5t292 -137.5q368 0 635 438zM721 1040h545v193q0 242 -54 387t-225 145
q-245 0 -262 -323q0 -53 -2 -87t-2 -48v-267z" />
    <glyph glyph-name="afii10070" unicode="&#x435;" horiz-adv-x="1925" 
d="M1737 463l65 -45q-287 -475 -712 -475q-242 0 -474.5 118.5t-379 338.5t-146.5 501q0 231 114 451t314 357.5t440 137.5q223 0 424 -106.5t325 -308t128 -469.5h-1114v-373q0 -290 89 -427.5t292 -137.5q368 0 635 438zM721 1040h545v193q0 242 -54 387t-225 145
q-245 0 -262 -323q0 -53 -2 -87t-2 -48v-267z" />
    <glyph glyph-name="afii10072" unicode="&#xe6;" horiz-adv-x="3346" 
d="M1962 983h78h106q89 0 146 26t102 116t76 268q43 240 124 347t277 107q145 0 234.5 -88.5t89.5 -206.5q0 -134 -71 -212t-171 -78q-102 0 -168.5 59t-72.5 170q0 127 -41 127q-97 0 -119 -188q-52 -397 -193 -455q266 -65 391 -137.5t176.5 -200.5t75.5 -391
q11 -123 95 -123q80 0 151 94l53 -45q-148 -229 -397 -229q-158 0 -244 62t-131.5 187.5t-99.5 376.5q-29 144 -100.5 240t-272.5 96h-94v-823h201v-82h-975v82h201v823h-99q-201 0 -269.5 -93.5t-98.5 -242.5q-55 -250 -102.5 -375t-135.5 -188t-242 -63q-111 0 -220 62.5
t-177 166.5l53 45q71 -94 152 -94q56 0 72.5 34t21.5 89q24 260 76 390t177.5 203.5t393.5 135.5q-78 37 -121.5 133.5t-74.5 321.5q-14 80 -34 134t-81 54q-41 0 -41 -111q-3 -99 -63.5 -172t-182.5 -73q-114 0 -177.5 82t-63.5 208q0 116 92 205.5t231 89.5
q218 0 292.5 -121t109.5 -333q32 -180 77 -268.5t102.5 -115t143.5 -26.5h107h82v725h-201v82h975v-82h-201v-725z" />
    <glyph glyph-name="afii10072" unicode="&#x436;" horiz-adv-x="3346" 
d="M1962 983h78h106q89 0 146 26t102 116t76 268q43 240 124 347t277 107q145 0 234.5 -88.5t89.5 -206.5q0 -134 -71 -212t-171 -78q-102 0 -168.5 59t-72.5 170q0 127 -41 127q-97 0 -119 -188q-52 -397 -193 -455q266 -65 391 -137.5t176.5 -200.5t75.5 -391
q11 -123 95 -123q80 0 151 94l53 -45q-148 -229 -397 -229q-158 0 -244 62t-131.5 187.5t-99.5 376.5q-29 144 -100.5 240t-272.5 96h-94v-823h201v-82h-975v82h201v823h-99q-201 0 -269.5 -93.5t-98.5 -242.5q-55 -250 -102.5 -375t-135.5 -188t-242 -63q-111 0 -220 62.5
t-177 166.5l53 45q71 -94 152 -94q56 0 72.5 34t21.5 89q24 260 76 390t177.5 203.5t393.5 135.5q-78 37 -121.5 133.5t-74.5 321.5q-14 80 -34 134t-81 54q-41 0 -41 -111q-3 -99 -63.5 -172t-182.5 -73q-114 0 -177.5 82t-63.5 208q0 116 92 205.5t231 89.5
q218 0 292.5 -121t109.5 -333q32 -180 77 -268.5t102.5 -115t143.5 -26.5h107h82v725h-201v82h975v-82h-201v-725z" />
    <glyph glyph-name="afii10073" unicode="&#xe7;" horiz-adv-x="1700" 
d="M225 1126h-61l4 709l90 4q20 -50 66 -61h77q33 6 141.5 34t215.5 35h180q219 -16 352.5 -81.5t191.5 -155.5t58 -185q0 -130 -89 -216t-225.5 -134t-312.5 -80v-20q244 -26 399.5 -104.5t222.5 -177t67 -189.5q0 -134 -81 -262t-271 -213.5t-492 -85.5
q-328 0 -522.5 132.5t-194.5 334.5q0 120 71.5 213.5t190.5 93.5q102 0 186 -59t84 -179q0 -119 -114 -213q-62 -43 -62 -123q0 -58 87.5 -90.5t195.5 -32.5q178 0 234.5 110t56.5 362q0 190 -27.5 280t-78 119t-152.5 43q-82 8 -201 8l4 82h78q220 0 286 62t70 188v135
q-3 211 -55 283.5t-182 72.5q-207 0 -323 -197.5t-165 -441.5z" />
    <glyph glyph-name="afii10073" unicode="&#x437;" horiz-adv-x="1700" 
d="M225 1126h-61l4 709l90 4q20 -50 66 -61h77q33 6 141.5 34t215.5 35h180q219 -16 352.5 -81.5t191.5 -155.5t58 -185q0 -130 -89 -216t-225.5 -134t-312.5 -80v-20q244 -26 399.5 -104.5t222.5 -177t67 -189.5q0 -134 -81 -262t-271 -213.5t-492 -85.5
q-328 0 -522.5 132.5t-194.5 334.5q0 120 71.5 213.5t190.5 93.5q102 0 186 -59t84 -179q0 -119 -114 -213q-62 -43 -62 -123q0 -58 87.5 -90.5t195.5 -32.5q178 0 234.5 110t56.5 362q0 190 -27.5 280t-78 119t-152.5 43q-82 8 -201 8l4 82h78q220 0 286 62t70 188v135
q-3 211 -55 283.5t-182 72.5q-207 0 -323 -197.5t-165 -441.5z" />
    <glyph glyph-name="afii10074" unicode="&#xe8;" 
d="M856 373l569 1278v57h-172v82h947v-82h-201v-1626h201v-82h-947v82h172v1368l-569 -1286v-82h172v-82h-946v82h201v1626h-201v82h946v-82h-172v-1335z" />
    <glyph glyph-name="afii10074" unicode="&#x438;" 
d="M856 373l569 1278v57h-172v82h947v-82h-201v-1626h201v-82h-947v82h172v1368l-569 -1286v-82h172v-82h-946v82h201v1626h-201v82h946v-82h-172v-1335z" />
    <glyph glyph-name="afii10075" unicode="&#xe9;" horiz-adv-x="2286" 
d="M1143 2081q-230 0 -391.5 66.5t-241.5 174t-80 230.5q0 118 76 182t174 64q94 0 161.5 -70.5t67.5 -167.5q0 -56 -21 -86t-73 -82q-45 -45 -45 -74q0 -51 84 -105t289 -54q184 0 278.5 50.5t94.5 108.5q0 26 -50 74q-90 82 -90 168q0 95 68 166.5t162 71.5q97 0 173 -64
t76 -182q0 -130 -86 -238t-247.5 -170.5t-378.5 -62.5zM856 373l574 1278v57h-173v82h947v-82h-201v-1626h201v-82h-947v82h173v1368l-574 -1286v-82h172v-82h-946v82h201v1626h-201v82h946v-82h-172v-1335z" />
    <glyph glyph-name="afii10075" unicode="&#x439;" horiz-adv-x="2286" 
d="M1143 2081q-230 0 -391.5 66.5t-241.5 174t-80 230.5q0 118 76 182t174 64q94 0 161.5 -70.5t67.5 -167.5q0 -56 -21 -86t-73 -82q-45 -45 -45 -74q0 -51 84 -105t289 -54q184 0 278.5 50.5t94.5 108.5q0 26 -50 74q-90 82 -90 168q0 95 68 166.5t162 71.5q97 0 173 -64
t76 -182q0 -130 -86 -238t-247.5 -170.5t-378.5 -62.5zM856 373l574 1278v57h-173v82h947v-82h-201v-1626h201v-82h-947v82h173v1368l-574 -1286v-82h172v-82h-946v82h201v1626h-201v82h946v-82h-172v-1335z" />
    <glyph glyph-name="afii10076" unicode="&#xea;" horiz-adv-x="2241" 
d="M856 983h78h106q89 0 146 26t102 116t76 268q43 240 124 347t277 107q147 0 235.5 -88.5t88.5 -206.5q0 -134 -71 -212t-171 -78q-102 0 -168.5 59t-72.5 170q0 127 -41 127q-97 0 -119 -188q-31 -233 -82.5 -335.5t-130.5 -131.5l4 -13q155 -3 298 -51.5t218 -136.5
q52 -59 77 -152.5t45.5 -228t46 -196.5t81.5 -62q78 0 139 94l53 -45q-70 -108 -180.5 -168.5t-245.5 -60.5q-172 0 -256.5 54t-116.5 147t-81 331q-34 157 -68.5 244.5t-109.5 136.5t-215 49h-66v-823h201v-82h-975v82h201v1626h-201v82h975v-82h-201v-725z" />
    <glyph glyph-name="afii10076" unicode="&#x43a;" horiz-adv-x="2241" 
d="M856 983h78h106q89 0 146 26t102 116t76 268q43 240 124 347t277 107q147 0 235.5 -88.5t88.5 -206.5q0 -134 -71 -212t-171 -78q-102 0 -168.5 59t-72.5 170q0 127 -41 127q-97 0 -119 -188q-31 -233 -82.5 -335.5t-130.5 -131.5l4 -13q155 -3 298 -51.5t218 -136.5
q52 -59 77 -152.5t45.5 -228t46 -196.5t81.5 -62q78 0 139 94l53 -45q-70 -108 -180.5 -168.5t-245.5 -60.5q-172 0 -256.5 54t-116.5 147t-81 331q-34 157 -68.5 244.5t-109.5 136.5t-215 49h-66v-823h201v-82h-975v82h201v1626h-201v82h975v-82h-201v-725z" />
    <glyph glyph-name="afii10077" unicode="&#xeb;" horiz-adv-x="2187" 
d="M1331 1708h-348q-95 0 -125.5 -61.5t-30.5 -188.5v-680q0 -275 -22 -441t-118.5 -280t-301.5 -114q-146 0 -259.5 86t-113.5 217q0 118 67 200t191 82q120 0 159.5 -65t49.5 -156q13 -147 139 -147q83 0 107.5 134.5t24.5 356.5v107v696q0 127 -40.5 190.5t-205.5 63.5
h-78v82h1679v-82h-200v-1630h200v-78h-975v78h201v1630z" />
    <glyph glyph-name="afii10077" unicode="&#x43b;" horiz-adv-x="2187" 
d="M1331 1708h-348q-95 0 -125.5 -61.5t-30.5 -188.5v-680q0 -275 -22 -441t-118.5 -280t-301.5 -114q-146 0 -259.5 86t-113.5 217q0 118 67 200t191 82q120 0 159.5 -65t49.5 -156q13 -147 139 -147q83 0 107.5 134.5t24.5 356.5v107v696q0 127 -40.5 190.5t-205.5 63.5
h-78v82h1679v-82h-200v-1630h200v-78h-975v78h201v1630z" />
    <glyph glyph-name="afii10078" unicode="&#xec;" horiz-adv-x="2634" 
d="M94 1708v82h795l463 -1098l442 1098h758v-82h-201v-1626h201v-82h-975v82h201v1454l-611 -1536h-65l-656 1548v-1249q0 -111 38 -164t175 -53h54v-82h-631v82q177 0 230 40t53 157v1171q0 151 -42.5 204.5t-183.5 53.5h-45z" />
    <glyph glyph-name="afii10078" unicode="&#x43c;" horiz-adv-x="2634" 
d="M94 1708v82h795l463 -1098l442 1098h758v-82h-201v-1626h201v-82h-975v82h201v1454l-611 -1536h-65l-656 1548v-1249q0 -111 38 -164t175 -53h54v-82h-631v82q177 0 230 40t53 157v1171q0 151 -42.5 204.5t-183.5 53.5h-45z" />
    <glyph glyph-name="afii10079" unicode="&#xed;" 
d="M856 913v-831h172v-82h-946v82h201v1626h-201v82h946v-82h-172v-717h569v717h-172v82h947v-82h-201v-1626h201v-82h-947v82h172v831h-569z" />
    <glyph glyph-name="afii10079" unicode="&#x43d;" 
d="M856 913v-831h172v-82h-946v82h201v1626h-201v82h946v-82h-172v-717h569v717h-172v82h947v-82h-201v-1626h201v-82h-947v82h172v831h-569z" />
    <glyph glyph-name="afii10080" unicode="&#xee;" horiz-adv-x="2044" 
d="M90 893q0 261 131.5 481.5t347 346.5t451.5 126q232 0 449 -127.5t351 -347.5t134 -479q0 -196 -77 -369.5t-209.5 -304t-301.5 -203.5t-346 -73q-231 0 -447.5 127t-349.5 345.5t-133 477.5zM721 1270v-754q0 -157 23.5 -263.5t89 -167t186.5 -60.5q179 0 241 125.5
t62 365.5v754q0 243 -62 369t-241 126q-177 0 -238 -125.5t-61 -369.5z" />
    <glyph glyph-name="afii10080" unicode="&#x43e;" horiz-adv-x="2044" 
d="M90 893q0 261 131.5 481.5t347 346.5t451.5 126q232 0 449 -127.5t351 -347.5t134 -479q0 -196 -77 -369.5t-209.5 -304t-301.5 -203.5t-346 -73q-231 0 -447.5 127t-349.5 345.5t-133 477.5zM721 1270v-754q0 -157 23.5 -263.5t89 -167t186.5 -60.5q179 0 241 125.5
t62 365.5v754q0 243 -62 369t-241 126q-177 0 -238 -125.5t-61 -369.5z" />
    <glyph glyph-name="afii10081" unicode="&#xef;" 
d="M856 1708v-1626h180v-82h-954v82h201v1626h-201v82h2118v-82h-201v-1626h201v-82h-947v82h172v1626h-569z" />
    <glyph glyph-name="afii10081" unicode="&#x43f;" 
d="M856 1708v-1626h180v-82h-954v82h201v1626h-201v82h2118v-82h-201v-1626h201v-82h-947v82h172v1626h-569z" />
    <glyph glyph-name="afii10082" unicode="&#xf0;" horiz-adv-x="2261" 
d="M848 1847v-340q49 145 179.5 242.5t340.5 97.5q236 0 419 -130t283.5 -350t100.5 -474q0 -239 -86 -421.5t-225.5 -299t-298 -173t-299.5 -56.5q-113 0 -233 73.5t-181 229.5v-1020h201v-82h-975v82h200v2482h-204v82h434q205 0 344 57zM1540 639q0 49 2 145t2 146
q0 164 -4 241q-16 263 -75.5 418.5t-231.5 155.5q-214 0 -292 -230.5t-85 -609.5v-237q0 -201 71 -401.5t302 -200.5q177 0 236.5 145t74.5 428z" />
    <glyph glyph-name="afii10082" unicode="&#x440;" horiz-adv-x="2261" 
d="M848 1847v-340q49 145 179.5 242.5t340.5 97.5q236 0 419 -130t283.5 -350t100.5 -474q0 -239 -86 -421.5t-225.5 -299t-298 -173t-299.5 -56.5q-113 0 -233 73.5t-181 229.5v-1020h201v-82h-975v82h200v2482h-204v82h434q205 0 344 57zM1540 639q0 49 2 145t2 146
q0 164 -4 241q-16 263 -75.5 418.5t-231.5 155.5q-214 0 -292 -230.5t-85 -609.5v-237q0 -201 71 -401.5t302 -200.5q177 0 236.5 145t74.5 428z" />
    <glyph glyph-name="afii10083" unicode="&#xf1;" horiz-adv-x="1884" 
d="M1720 549l74 -29q-131 -357 -325.5 -467t-407.5 -110q-264 0 -488 122t-353.5 332.5t-129.5 462.5q0 213 80 396.5t219.5 316.5t314 203.5t361.5 70.5q147 0 298.5 -70t250 -194t98.5 -276q0 -150 -85.5 -233t-205.5 -83q-126 0 -192 93t-66 219q0 46 19 78.5t54 69.5
t46 56q25 44 25 66q0 97 -75 155t-200 58q-178 0 -244.5 -130.5t-66.5 -381.5v-643q0 -264 68 -437.5t301 -173.5q197 0 354 120.5t276 408.5z" />
    <glyph glyph-name="afii10083" unicode="&#x441;" horiz-adv-x="1884" 
d="M1720 549l74 -29q-131 -357 -325.5 -467t-407.5 -110q-264 0 -488 122t-353.5 332.5t-129.5 462.5q0 213 80 396.5t219.5 316.5t314 203.5t361.5 70.5q147 0 298.5 -70t250 -194t98.5 -276q0 -150 -85.5 -233t-205.5 -83q-126 0 -192 93t-66 219q0 46 19 78.5t54 69.5
t46 56q25 44 25 66q0 97 -75 155t-200 58q-178 0 -244.5 -130.5t-66.5 -381.5v-643q0 -264 68 -437.5t301 -173.5q197 0 354 120.5t276 408.5z" />
    <glyph glyph-name="afii10084" unicode="&#xf2;" horiz-adv-x="1950" 
d="M74 1790h1802l41 -729h-98q-25 203 -106.5 351t-181 222t-175.5 74h-94v-1626h200v-82h-975v82h201v1626h-94q-88 0 -186 -72t-174.5 -217.5t-102.5 -357.5h-98z" />
    <glyph glyph-name="afii10084" unicode="&#x442;" horiz-adv-x="1950" 
d="M74 1790h1802l41 -729h-98q-25 203 -106.5 351t-181 222t-175.5 74h-94v-1626h200v-82h-975v82h201v1626h-94q-88 0 -186 -72t-174.5 -217.5t-102.5 -357.5h-98z" />
    <glyph glyph-name="afii10085" unicode="&#xf3;" horiz-adv-x="2028" 
d="M1061 -258l-897 1966h-164v82h995v-82h-217l553 -1184l275 832q28 80 28 147q0 205 -266 205h-61v82h835v-82h-53q-161 0 -248 -89.5t-141 -254.5l-463 -1413q-99 -305 -213 -483.5t-239 -249t-277 -70.5q-119 0 -224 53t-168 145t-63 203q0 139 94.5 221.5t221.5 82.5
q95 0 170 -61.5t75 -180.5q0 -61 -13.5 -92.5t-55.5 -108.5q-21 -45 -21 -86q0 -22 21 -45.5t65 -23.5q241 0 451 487z" />
    <glyph glyph-name="afii10085" unicode="&#x443;" horiz-adv-x="2028" 
d="M1061 -258l-897 1966h-164v82h995v-82h-217l553 -1184l275 832q28 80 28 147q0 205 -266 205h-61v82h835v-82h-53q-161 0 -248 -89.5t-141 -254.5l-463 -1413q-99 -305 -213 -483.5t-239 -249t-277 -70.5q-119 0 -224 53t-168 145t-63 203q0 139 94.5 221.5t221.5 82.5
q95 0 170 -61.5t75 -180.5q0 -61 -13.5 -92.5t-55.5 -108.5q-21 -45 -21 -86q0 -22 21 -45.5t65 -23.5q241 0 451 487z" />
    <glyph glyph-name="afii10086" unicode="&#xf4;" horiz-adv-x="3203" 
d="M1888 2695v-1069q140 221 393 221q131 0 275 -56t270.5 -171t206.5 -298.5t80 -428.5q0 -197 -66 -370t-179.5 -303.5t-256.5 -203.5t-293 -73q-299 0 -430 200v-970h201v-78h-975v78h201v970q-143 -200 -430 -200q-203 0 -387.5 127.5t-296 347t-111.5 475.5
q0 245 80 428.5t206.5 298.5t270.5 171t275 56q116 0 223.5 -57t169.5 -164v930h-209v82h438q205 0 344 57zM1888 1307v-725q0 -557 332 -557q164 0 213 135t49 323v848q0 194 -84 300t-211 106q-120 0 -209.5 -116.5t-89.5 -313.5zM721 1331v-848q0 -208 52.5 -333
t205.5 -125q336 0 336 557v725q0 216 -94 323t-205 107q-127 0 -211 -106.5t-84 -299.5z" />
    <glyph glyph-name="afii10086" unicode="&#x444;" horiz-adv-x="3203" 
d="M1888 2695v-1069q140 221 393 221q131 0 275 -56t270.5 -171t206.5 -298.5t80 -428.5q0 -197 -66 -370t-179.5 -303.5t-256.5 -203.5t-293 -73q-299 0 -430 200v-970h201v-78h-975v78h201v970q-143 -200 -430 -200q-203 0 -387.5 127.5t-296 347t-111.5 475.5
q0 245 80 428.5t206.5 298.5t270.5 171t275 56q116 0 223.5 -57t169.5 -164v930h-209v82h438q205 0 344 57zM1888 1307v-725q0 -557 332 -557q164 0 213 135t49 323v848q0 194 -84 300t-211 106q-120 0 -209.5 -116.5t-89.5 -313.5zM721 1331v-848q0 -208 52.5 -333
t205.5 -125q336 0 336 557v725q0 216 -94 323t-205 107q-127 0 -211 -106.5t-84 -299.5z" />
    <glyph glyph-name="afii10087" unicode="&#xf5;" horiz-adv-x="2159" 
d="M819 737l-610 971h-176v82h1040v-82h-196l372 -590l209 283q61 88 78 135q8 16 8 49q0 37 -8 49q-37 74 -180 74h-45v82h704v-82q-129 0 -201.5 -47.5t-166.5 -169.5l-336 -442l610 -967h205v-82h-1118v82h233l-369 594l-307 -393q-41 -54 -41 -95q0 -56 70.5 -81
t142.5 -25h62v-82h-766v82h61q94 0 190.5 54t149.5 122z" />
    <glyph glyph-name="afii10087" unicode="&#x445;" horiz-adv-x="2159" 
d="M819 737l-610 971h-176v82h1040v-82h-196l372 -590l209 283q61 88 78 135q8 16 8 49q0 37 -8 49q-37 74 -180 74h-45v82h704v-82q-129 0 -201.5 -47.5t-166.5 -169.5l-336 -442l610 -967h205v-82h-1118v82h233l-369 594l-307 -393q-41 -54 -41 -95q0 -56 70.5 -81
t142.5 -25h62v-82h-766v82h61q94 0 190.5 54t149.5 122z" />
    <glyph glyph-name="afii10088" unicode="&#xf6;" horiz-adv-x="2310" 
d="M1425 82v1626h-180v82h955v-82h-201v-1626h282l29 -746h-98q-43 303 -157 450t-240 180.5t-291 33.5h-1442v82h201v1626h-201v82h946v-82h-172v-1626h569z" />
    <glyph glyph-name="afii10088" unicode="&#x446;" horiz-adv-x="2310" 
d="M1425 82v1626h-180v82h955v-82h-201v-1626h282l29 -746h-98q-43 303 -157 450t-240 180.5t-291 33.5h-1442v82h201v1626h-201v82h946v-82h-172v-1626h569z" />
    <glyph glyph-name="afii10089" unicode="&#xf7;" horiz-adv-x="2122" 
d="M1266 82v758q-140 -67 -311.5 -111.5t-303.5 -44.5q-197 0 -323.5 104t-126.5 252v668h-201v82h946v-82h-172v-721q0 -74 57 -112.5t127 -38.5q136 0 308 86v786h-172v82h946v-82h-201v-1626h201v-82h-975v82h201z" />
    <glyph glyph-name="afii10089" unicode="&#x447;" horiz-adv-x="2122" 
d="M1266 82v758q-140 -67 -311.5 -111.5t-303.5 -44.5q-197 0 -323.5 104t-126.5 252v668h-201v82h946v-82h-172v-721q0 -74 57 -112.5t127 -38.5q136 0 308 86v786h-172v82h946v-82h-201v-1626h201v-82h-975v82h201z" />
    <glyph glyph-name="afii10090" unicode="&#xf8;" horiz-adv-x="3293" 
d="M3011 82h200v-82h-3129v82h201v1626h-201v82h946v-82h-172v-1626h504v1626h-172v82h917v-82h-172v-1626h504v1626h-172v82h946v-82h-200v-1626z" />
    <glyph glyph-name="afii10090" unicode="&#x448;" horiz-adv-x="3293" 
d="M3011 82h200v-82h-3129v82h201v1626h-201v82h946v-82h-172v-1626h504v1626h-172v82h917v-82h-172v-1626h504v1626h-172v82h946v-82h-200v-1626z" />
    <glyph glyph-name="afii10091" unicode="&#xf9;" horiz-adv-x="3322" 
d="M82 0v82h201v1626h-201v82h946v-82h-172v-1626h504v1626h-172v82h917v-82h-172v-1626h504v1626h-172v82h946v-82h-200v-1626h282l29 -746h-98q-45 306 -158.5 451.5t-239 179t-291.5 33.5h-2453z" />
    <glyph glyph-name="afii10091" unicode="&#x449;" horiz-adv-x="3322" 
d="M82 0v82h201v1626h-201v82h946v-82h-172v-1626h504v1626h-172v82h917v-82h-172v-1626h504v1626h-172v82h946v-82h-200v-1626h282l29 -746h-98q-45 306 -158.5 451.5t-239 179t-291.5 33.5h-2453z" />
    <glyph glyph-name="afii10092" unicode="&#xfa;" horiz-adv-x="2429" 
d="M1298 1098h127q516 0 731.5 -153.5t215.5 -379.5q0 -150 -82 -280t-244 -207.5t-387 -77.5h-1135v82h201v1626h-139q-223 0 -336 -195t-148 -477h-102l20 754h1479v-82h-201v-610zM1298 82h115q127 0 190 20t98.5 99t39.5 254v200q-12 209 -84.5 287t-243.5 78h-115v-938
z" />
    <glyph glyph-name="afii10092" unicode="&#x44a;" horiz-adv-x="2429" 
d="M1298 1098h127q516 0 731.5 -153.5t215.5 -379.5q0 -150 -82 -280t-244 -207.5t-387 -77.5h-1135v82h201v1626h-139q-223 0 -336 -195t-148 -477h-102l20 754h1479v-82h-201v-610zM1298 82h115q127 0 190 20t98.5 99t39.5 254v200q-12 209 -84.5 287t-243.5 78h-115v-938
z" />
    <glyph glyph-name="afii10093" unicode="&#xfb;" horiz-adv-x="2961" 
d="M856 1098h127q354 0 566 -76t296 -194t84 -255q0 -155 -82.5 -285.5t-244.5 -209t-385 -78.5h-1135v82h201v1626h-201v82h975v-82h-201v-610zM856 82h115q173 0 248.5 53.5t78.5 274.5v245q-3 218 -89 291.5t-238 73.5h-115v-938zM2707 82h172v-82h-946v82h201v1626h-201
v82h946v-82h-172v-1626z" />
    <glyph glyph-name="afii10093" unicode="&#x44b;" horiz-adv-x="2961" 
d="M856 1098h127q354 0 566 -76t296 -194t84 -255q0 -155 -82.5 -285.5t-244.5 -209t-385 -78.5h-1135v82h201v1626h-201v82h975v-82h-201v-610zM856 82h115q173 0 248.5 53.5t78.5 274.5v245q-3 218 -89 291.5t-238 73.5h-115v-938zM2707 82h172v-82h-946v82h201v1626h-201
v82h946v-82h-172v-1626z" />
    <glyph glyph-name="afii10094" unicode="&#xfc;" horiz-adv-x="1987" 
d="M856 1098h127q354 0 566 -76t296 -194t84 -255q0 -155 -82.5 -285.5t-244.5 -209t-385 -78.5h-1135v82h201v1626h-201v82h975v-82h-201v-610zM856 82h115q122 0 187 18.5t102.5 89.5t37.5 224v241q0 216 -89.5 290.5t-237.5 74.5h-115v-938z" />
    <glyph glyph-name="afii10094" unicode="&#x44c;" horiz-adv-x="1987" 
d="M856 1098h127q354 0 566 -76t296 -194t84 -255q0 -155 -82.5 -285.5t-244.5 -209t-385 -78.5h-1135v82h201v1626h-201v82h975v-82h-201v-610zM856 82h115q122 0 187 18.5t102.5 89.5t37.5 224v241q0 216 -89.5 290.5t-237.5 74.5h-115v-938z" />
    <glyph glyph-name="afii10095" unicode="&#xfd;" horiz-adv-x="1794" 
d="M233 1143h-81l24 704h98q0 -65 29 -65q27 0 96 19t154.5 32.5t232.5 13.5q199 0 370.5 -73.5t293.5 -203.5t188 -300.5t66 -360.5q0 -238 -122.5 -461.5t-342.5 -364t-494 -140.5q-179 0 -334.5 62.5t-248 174.5t-92.5 250q0 119 86 205t213 86q114 0 186 -74t72 -180
q0 -70 -37 -127q-10 -15 -72.5 -65.5t-62.5 -77.5q0 -172 286 -172q332 0 332 512v364h-598v78h598v209q0 298 -70.5 437.5t-293.5 139.5q-147 0 -240 -84t-144 -217.5t-92 -320.5z" />
    <glyph glyph-name="afii10095" unicode="&#x44d;" horiz-adv-x="1794" 
d="M233 1143h-81l24 704h98q0 -65 29 -65q27 0 96 19t154.5 32.5t232.5 13.5q199 0 370.5 -73.5t293.5 -203.5t188 -300.5t66 -360.5q0 -238 -122.5 -461.5t-342.5 -364t-494 -140.5q-179 0 -334.5 62.5t-248 174.5t-92.5 250q0 119 86 205t213 86q114 0 186 -74t72 -180
q0 -70 -37 -127q-10 -15 -72.5 -65.5t-62.5 -77.5q0 -172 286 -172q332 0 332 512v364h-598v78h598v209q0 298 -70.5 437.5t-293.5 139.5q-147 0 -240 -84t-144 -217.5t-92 -320.5z" />
    <glyph glyph-name="afii10096" unicode="&#xfe;" horiz-adv-x="3097" 
d="M283 82v1626h-201v82h975v-82h-201v-754h279q13 279 160 482t359.5 307t413.5 104q194 0 413.5 -103.5t372 -320t152.5 -530.5q0 -313 -152 -527.5t-372 -318.5t-414 -104q-190 0 -410 102t-371.5 313.5t-151.5 518.5h-279v-795h201v-82h-975v82h201zM1769 1270v-754
q6 -234 58.5 -362.5t240.5 -128.5q192 0 246 132t58 359v754q-4 231 -57.5 363t-246.5 132q-189 0 -241 -128t-58 -367z" />
    <glyph glyph-name="afii10096" unicode="&#x44e;" horiz-adv-x="3097" 
d="M283 82v1626h-201v82h975v-82h-201v-754h279q13 279 160 482t359.5 307t413.5 104q194 0 413.5 -103.5t372 -320t152.5 -530.5q0 -313 -152 -527.5t-372 -318.5t-414 -104q-190 0 -410 102t-371.5 313.5t-151.5 518.5h-279v-795h201v-82h-975v82h201zM1769 1270v-754
q6 -234 58.5 -362.5t240.5 -128.5q192 0 246 132t58 359v754q-4 231 -57.5 363t-246.5 132q-189 0 -241 -128t-58 -367z" />
    <glyph glyph-name="afii10097" unicode="&#xff;" horiz-adv-x="2257" 
d="M1401 885h-70q-135 0 -215.5 -60.5t-122 -152t-84.5 -242.5q-46 -167 -94.5 -269t-98 -147t-105.5 -58t-148 -13q-130 0 -230 44.5t-221 196.5l54 49q37 -65 69 -65q73 0 103.5 31t44.5 92q48 194 84.5 285t109 158t208.5 111t376 73v12q-240 2 -412.5 39t-273.5 135
t-101 272q0 241 181 317t454 85q137 4 163 8t116 4h987v-82h-201v-1626h201v-82h-975v82h201v803zM1401 963v745q-106 8 -144 8q-224 0 -288 -92t-64 -268q0 -129 21 -207t115 -132t294 -54h66z" />
    <glyph glyph-name="afii10097" unicode="&#x44f;" horiz-adv-x="2257" 
d="M1401 885h-70q-135 0 -215.5 -60.5t-122 -152t-84.5 -242.5q-46 -167 -94.5 -269t-98 -147t-105.5 -58t-148 -13q-130 0 -230 44.5t-221 196.5l54 49q37 -65 69 -65q73 0 103.5 31t44.5 92q48 194 84.5 285t109 158t208.5 111t376 73v12q-240 2 -412.5 39t-273.5 135
t-101 272q0 241 181 317t454 85q137 4 163 8t116 4h987v-82h-201v-1626h201v-82h-975v82h201v803zM1401 963v745q-106 8 -144 8q-224 0 -288 -92t-64 -268q0 -129 21 -207t115 -132t294 -54h66z" />
    <glyph glyph-name="afii10059" unicode="&#x152;" horiz-adv-x="4219" 
d="M1147 1372v-1282h287v-90h-1262v90h344v2503h-344v90h1262v-90h-287v-1131h950v1131h-287v90h1262v-90h-344v-1061h172q248 0 465.5 -44t383.5 -138t260.5 -243.5t94.5 -352.5q0 -463 -344 -608.5t-790 -145.5h-1160v90h287v1282h-950zM2728 90h147q223 0 335.5 70
t144.5 178t32 268v320q0 236 -75 350t-174 140t-238 26h-172v-1352z" />
    <glyph glyph-name="afii10107" unicode="&#x153;" horiz-adv-x="3133" 
d="M856 913v-831h172v-82h-946v82h201v1626h-201v82h946v-82h-172v-717h569v717h-172v82h947v-82h-201v-610h131q494 0 720 -145t226 -351q0 -154 -71.5 -290.5t-232 -224t-409.5 -87.5h-1110v82h172v831h-569zM1999 82h119q125 0 190 21.5t101 102.5t36 249v200
q0 217 -88.5 291t-238.5 74h-119v-938z" />
    <glyph glyph-name="afii10058" unicode="&#x160;" horiz-adv-x="4039" 
d="M508 2593v90h2384v-90h-344v-1061h172q248 0 465.5 -44t383.5 -138t260.5 -243.5t94.5 -352.5q0 -463 -344.5 -608.5t-790.5 -145.5h-1216v90h344v2503h-377q-222 0 -316.5 -72.5t-111 -180t-18.5 -345.5q0 -105 -17 -549q-2 -50 -4 -109t-3.5 -106t-2 -69.5t-2.5 -84.5
q-4 -174 -11 -409.5t-47.5 -388t-150.5 -244.5t-311 -92q-146 0 -253.5 67.5t-164.5 178t-57 233.5q0 144 98.5 231.5t245.5 87.5q129 0 216 -83t87 -220q0 -131 -62 -200q-11 -14 -32 -37t-31 -39.5t-10 -30.5q0 -21 11.5 -41t29.5 -20q212 0 274 192q51 163 66 545
q9 272 18.5 680t9.5 631q0 302 -96.5 388.5t-296.5 86.5h-90zM2548 90h147q222 0 334.5 70t145 178t32.5 268v320q0 306 -120 411t-367 105h-172v-1352z" />
    <glyph glyph-name="afii10106" unicode="&#x161;" horiz-adv-x="3035" 
d="M1905 1098h127q336 0 548.5 -71.5t305 -183t92.5 -237.5q0 -219 -156.5 -412.5t-556.5 -193.5h-1135v82h201v1626h-348q-101 0 -128.5 -66t-27.5 -184v-680q0 -275 -22 -441t-118.5 -280t-301.5 -114q-146 0 -259.5 86t-113.5 217q0 118 67 200t191 82q120 0 159.5 -65
t49.5 -156q13 -147 139 -147q79 0 100.5 107t26.5 286q0 66 2.5 115.5t2.5 89.5v696q0 171 -59.5 212.5t-186.5 41.5h-78v82h1679v-82h-200v-610zM1905 82h114q129 0 193.5 20t99.5 99.5t35 253.5v200q0 217 -88.5 291t-239.5 74h-114v-938z" />
    <glyph glyph-name="afii10193" unicode="&#x178;" horiz-adv-x="2265" 
d="M1409 82v1626h-180v82h954v-82h-201v-1626h201v-82h-786q-121 -180 -172 -377q-47 -192 -54 -287h-81q-31 348 -222 664h-786v82h201v1626h-201v82h946v-82h-172v-1626h553z" />
    <glyph glyph-name="afii10100" unicode="&#x192;" horiz-adv-x="1712" 
d="M283 82v1626h-201v82h1569l28 -696h-102q-54 274 -201 444t-381 170h-139v-1626h201v-82h-975v82h201z" />
    <glyph glyph-name="emdash" unicode="&#x2013;" horiz-adv-x="2859" 
d="M201 1409h2457v-229h-2457v229z" />
    <glyph glyph-name="endash" unicode="&#x2014;" horiz-adv-x="4477" 
d="M4248 1126v-225h-4019v225h4019z" />
    <glyph glyph-name="quoteleft" unicode="&#x2018;" horiz-adv-x="1581" 
d="M971 2957l65 -94q-172 -125 -242.5 -181.5t-127 -138t-56.5 -176.5q0 -79 9.5 -100.5t48.5 -21.5q13 0 73 20q44 16 103 16q158 0 247 -108t89 -268q0 -100 -58.5 -168.5t-143.5 -101.5t-163 -33q-93 0 -189 50t-160.5 152t-64.5 248q0 140 49.5 292.5t177.5 313.5
t343 299z" />
    <glyph glyph-name="quoteright" unicode="&#x2019;" horiz-adv-x="1581" 
d="M610 1372l-65 94q426 300 426 500q0 79 -9 99t-49 20q-26 0 -73 -21q-44 -16 -107 -16q-153 0 -242.5 110t-89.5 271q0 133 110 216t255 83q105 0 200 -56t154.5 -159.5t59.5 -231.5q0 -113 -36 -254.5t-162.5 -318.5t-371.5 -336z" />
    <glyph glyph-name="quotesinglbase" unicode="&#x201a;" horiz-adv-x="1581" 
d="M614 -733l-65 94q227 162 326.5 290t99.5 206t-10.5 100.5t-51.5 22.5q-10 0 -73 -21q-44 -16 -103 -16q-155 0 -245.5 112t-90.5 269q0 129 114 214t251 85q92 0 188 -49t161 -150t65 -252q0 -123 -39.5 -265.5t-164 -310.5t-362.5 -329z" />
    <glyph glyph-name="quotedblleft" unicode="&#x201c;" horiz-adv-x="2662" 
d="M971 2953l65 -94q-172 -125 -242.5 -181.5t-127 -138t-56.5 -176.5q0 -79 9.5 -100.5t48.5 -21.5q33 0 78 18t102 18q156 0 246 -111.5t90 -264.5q0 -123 -113.5 -213.5t-251.5 -90.5q-110 0 -264 86.5t-154 364.5q0 129 52.5 286t180.5 321t337 298zM2052 2953l66 -94
q-426 -300 -426 -496q0 -79 9 -100.5t48 -21.5q26 0 76 18t104 18q155 0 243.5 -109t88.5 -272q0 -133 -110 -216t-255 -83q-92 0 -187.5 48t-160.5 150.5t-65 252.5q0 78 17 173.5t72.5 217t175.5 258t304 256.5z" />
    <glyph glyph-name="quotedblright" unicode="&#x201d;" horiz-adv-x="2662" 
d="M1692 1368l-62 94q53 38 142.5 101t149.5 120t97 126.5t37 148.5q0 78 -10.5 100.5t-50.5 22.5q-26 0 -75 -18.5t-101 -18.5q-160 0 -248 111t-88 266q0 145 117.5 224t246.5 79q94 0 190 -49t160 -150.5t64 -251.5q0 -137 -49.5 -290t-175.5 -313.5t-344 -301.5z
M614 1368l-65 94q426 300 426 500q0 77 -10.5 98t-51.5 21q-14 0 -70.5 -18.5t-105.5 -18.5q-154 0 -245 113t-91 268q0 126 112 212.5t253 86.5q95 0 192 -48t161.5 -149t64.5 -250q0 -134 -52.5 -290.5t-179.5 -319t-338 -299.5z" />
    <glyph glyph-name="quotedblbase" unicode="&#x201e;" horiz-adv-x="2662" 
d="M1692 -733l-66 94q172 125 242.5 181.5t127 138t56.5 176.5q0 80 -9 101.5t-48 21.5q-26 0 -75.5 -18.5t-104.5 -18.5q-154 0 -243 107t-89 269q0 146 118.5 225t245.5 79q94 0 190 -49t160 -150.5t64 -251.5q0 -140 -50.5 -292t-177 -312.5t-341.5 -300.5zM614 -733
l-65 94q227 162 326.5 290t99.5 206t-10.5 100.5t-51.5 22.5q-28 0 -75 -18.5t-101 -18.5q-155 0 -245.5 112t-90.5 269q0 129 114 214t251 85q141 0 277.5 -104.5t136.5 -346.5q0 -206 -113 -441t-453 -464z" />
    <glyph glyph-name="dagger" unicode="&#x2020;" horiz-adv-x="2503" 
d="M1237 2753q128 0 221.5 -88.5t93.5 -239.5q0 -82 -86 -275q-139 -281 -163 -544q213 17 401 139q117 73 180.5 104t147.5 31q89 0 157 -51.5t105 -134.5t37 -170q0 -132 -98.5 -215.5t-204.5 -83.5q-74 0 -145.5 33t-190.5 102q-113 64 -192.5 91.5t-196.5 27.5
q0 -253 28 -459q14 -108 21 -189q24 -216 78 -491q27 -148 43.5 -225t29.5 -140q15 -56 34.5 -161t33.5 -214t14 -178q0 -170 -99.5 -261t-232.5 -91q-132 0 -229.5 95t-97.5 266q0 241 110 745q60 298 108 635.5t48 687.5q-120 -18 -193 -50.5t-196 -105.5
q-217 -126 -320 -126q-142 0 -226.5 95t-84.5 220q0 149 98.5 240.5t221.5 91.5q68 0 132 -31t183 -100q187 -111 385 -127q-12 219 -139 475q-119 244 -119 336q0 135 83.5 235.5t219.5 100.5z" />
    <glyph glyph-name="bullet" unicode="&#x2022;" horiz-adv-x="2810" 
d="M1004 1409q0 101 50 193t141.5 150t209.5 58t209.5 -58t141.5 -150t50 -193t-50 -193t-141.5 -150t-209.5 -58t-209.5 58t-141.5 150t-50 193z" />
    <glyph glyph-name="ellipsis" unicode="&#x2026;" horiz-adv-x="4473" 
d="M401 287q0 136 96 240t248 104q153 0 249 -104t96 -240q0 -137 -95.5 -240.5t-249.5 -103.5q-136 0 -240 96t-104 248zM1892 287q0 154 104 249t240 95t240 -95.5t104 -248.5q0 -152 -104 -248t-240 -96t-240 96t-104 248zM3383 287q0 136 96 240t248 104
q153 0 248.5 -104t95.5 -240t-95 -240t-249 -104q-152 0 -248 104t-96 240z" />
    <glyph glyph-name="perthousand" unicode="&#x2030;" horiz-adv-x="4837" 
d="M1331 2089q0 -199 -94.5 -347.5t-250 -226t-327.5 -77.5q-182 0 -333 84t-238.5 233.5t-87.5 333.5q0 181 88.5 332.5t240 237t330.5 85.5q170 0 325.5 -79t251 -228.5t95.5 -347.5zM872 1774v634q0 271 -208 271q-205 0 -205 -271v-634q0 -271 205 -271q208 0 208 271z
M479 -336l-110 62l1953 3289l107 -62zM2806 598q0 -309 -205 -480t-467 -171q-188 0 -339.5 88t-235.5 238t-84 325q0 173 84 323t235 239t340 89q172 0 327.5 -77.5t250 -226t94.5 -347.5zM2347 279v634q0 271 -205 271q-209 0 -209 -271v-634q0 -267 209 -267
q205 0 205 267zM4493 598q0 -209 -100.5 -357t-258 -221t-325.5 -73q-188 0 -339.5 88t-235.5 238t-84 325q0 173 84 323t235 239t340 89q176 0 334.5 -77.5t254 -225.5t95.5 -348zM4035 274v635q0 81 -39.5 178t-178.5 97q-208 0 -208 -275v-635q0 -262 208 -262
q104 0 161 78.5t57 183.5z" />
    <glyph glyph-name="quilsinglleft" unicode="&#x2039;" horiz-adv-x="1282" 
d="M1167 45l-49 -45q-106 126 -226 247.5t-243 229t-254 205.5t-280 190q579 358 1003 869l49 -45q-98 -213 -215.5 -419t-259.5 -405q91 -129 177.5 -270.5t157.5 -274t140 -282.5z" />
    <glyph glyph-name="quilsinglright" unicode="&#x203a;" horiz-adv-x="1282" 
d="M115 1696l49 45q424 -511 1003 -869q-289 -181 -540 -400.5t-463 -471.5l-49 45q204 439 471 827q-268 384 -471 824z" />
    <glyph glyph-name="trademark" unicode="&#x2122;" horiz-adv-x="2974" 
d="M520 2449h-336v234h992v-234h-336v-815h-320v815zM1999 1634l-246 721h-33l21 -147v-574h-320v1049h447l209 -647l12 -119h37l12 119l209 647h442v-1049h-319v574l24 147h-36l-242 -721h-217z" />
    <glyph glyph-name="afii10051" horiz-adv-x="3613" 
d="M1073 90v2503q-37 4 -110 4q-253 0 -417 -118t-242.5 -288t-98.5 -344h-115l25 836h2551l25 -836h-115q-54 289 -174.5 455t-272.5 230.5t-319 64.5q-73 0 -106 -4v-1196q186 92 375 134t346 42q420 0 666 -141t339 -333t93 -358q0 -202 -121 -387.5t-321.5 -298
t-426.5 -112.5q-337 0 -473.5 184.5t-136.5 368.5q0 101 60.5 193.5t201.5 92.5q121 0 197.5 -64t76.5 -161q0 -115 -56 -186t-157 -80q-91 -11 -102 -29v-41q36 -110 197 -131h90q254 43 254 602q0 315 -109 536.5t-452 221.5q-329 0 -541 -168v-1192h287v-90h-1262v90h344
z" />
    <glyph glyph-name="afii10052" horiz-adv-x="2380" 
d="M2351 1823h-115q-64 280 -151 446t-228 245t-366 79h-344v-2503h344v-90h-1319v90h344v2503h-344v90h2159z" />
    <glyph glyph-name="afii10061" horiz-adv-x="2966" 
d="M1147 1450h250q122 0 206.5 26.5t146 130t69.5 318.5q11 310 68.5 486t176 252.5t316.5 76.5q197 0 307.5 -117t110.5 -256q0 -135 -84.5 -235t-239.5 -100q-166 0 -232.5 97t-66.5 226q0 23 6 57t6 54q0 61 -24 61q-72 0 -113.5 -24.5t-67.5 -106.5q-58 -191 -65 -471
q-4 -183 -41 -300t-172 -179l8 -16q378 -6 570 -154t246.5 -354t60.5 -492q5 -319 155 -319q51 0 131 49l45 -70q-202 -147 -442 -147q-184 0 -293.5 47.5t-167 145.5t-82.5 231.5t-59 410.5q-34 302 -117 440t-358 138h-254v-1266h344v-90h-1319v90h344v2503h-344v90h1319
v-90h-344v-1143z" />
    <glyph glyph-name="afii10060" horiz-adv-x="3564" 
d="M1995 0h-1262v90h344v2503q-82 8 -123 8q-315 0 -495.5 -189.5t-253.5 -560.5h-115l29 832h2547l29 -832h-115q-143 746 -761 746q-74 0 -111 -4v-1180q385 201 770 201q273 0 422.5 -88t205.5 -260.5t56 -450.5v-725h344v-90h-1261v90h286v881q0 162 -19 262t-90 162.5
t-218 62.5q-99 0 -240.5 -39.5t-255.5 -95.5v-1233h287v-90z" />
    <glyph glyph-name="afii10145" horiz-adv-x="3244" 
d="M2097 90v2503h-287v90h1262v-90h-344v-2503h344v-90h-1102q-77 -96 -126.5 -206t-83.5 -249t-77 -389h-122q-10 481 -287 844h-1102v90h344v2503h-344v90h1262v-90h-287v-2503h950z" />
    <glyph glyph-name="afii10099" horiz-adv-x="1999" 
d="M754 82h172v-82h-946v82h200v1958h-205v82h205v434h-205v82h435q205 0 344 57v-573h774v-82h-774v-541q131 192 248.5 270t275.5 78q204 0 347.5 -125t213.5 -333.5t70 -458.5q0 -226 -56.5 -432t-175 -407t-308.5 -414.5t-468 -454.5l-57 45q256 319 356 688
q45 162 63.5 282.5t18.5 372.5v705q0 86 -35 188.5t-149 102.5q-71 0 -151.5 -44t-136 -131.5t-56.5 -209.5v-1139z" />
    <glyph glyph-name="afii10109" horiz-adv-x="2241" 
d="M856 983h78h106q89 0 146 26t102 116t76 268q43 240 124 347t277 107q147 0 235.5 -88.5t88.5 -206.5q0 -134 -71 -212t-171 -78q-102 0 -168.5 59t-72.5 170q0 127 -41 127q-97 0 -119 -188q-31 -233 -82.5 -335.5t-130.5 -131.5l4 -13q155 -3 298 -51.5t218 -136.5
q52 -59 77 -152.5t45.5 -228t46 -196.5t81.5 -62q78 0 139 94l53 -45q-70 -108 -180.5 -168.5t-245.5 -60.5q-172 0 -256.5 54t-116.5 147t-81 331q-34 157 -68.5 244.5t-109.5 136.5t-215 49h-66v-823h201v-82h-975v82h201v1626h-201v82h975v-82h-201v-725z" />
    <glyph glyph-name="afii10108" horiz-adv-x="2163" 
d="M184 2040h-209v82h209v434h-209v82h439q199 0 344 57v-573h774v-82h-774v-533q265 340 614 340q232 0 348.5 -91.5t144 -200.5t27.5 -232v-1241h201v-82h-946v82h172v1110q0 243 -44 328.5t-165 85.5q-139 0 -245.5 -116.5t-106.5 -268.5v-1139h172v-82h-946v82h200v1958
z" />
  </font>
</defs>
</svg>
