<?xml version="1.0" standalone="no"?>
<!DOCTYPE svg PUBLIC "-//W3C//DTD SVG 1.1//EN" "http://www.w3.org/Graphics/SVG/1.1/DTD/svg11.dtd" >
<svg xmlns="http://www.w3.org/2000/svg" xmlns:xlink="http://www.w3.org/1999/xlink" version="1.1">
<metadata>
Created by FontForge 20160405 at Sun Nov  4 12:29:42 2018
 By www-data
 
</metadata>
<defs>
<font id="Bodoni" horiz-adv-x="532" >
  <font-face 
    font-family="Bodoni"
    font-weight="400"
    font-stretch="normal"
    units-per-em="1000"
    panose-1="0 0 0 0 0 0 0 0 0 0"
    ascent="800"
    descent="-200"
    x-height="426"
    cap-height="655"
    bbox="-55 -252 1126 857"
    underline-thickness="50"
    underline-position="-155"
    unicode-range="U+0020-2219"
  />
<missing-glyph 
d="M351 17v392h-56v17h217v-17h-63v-392h63v-17h-174q-22 -28 -31.5 -54t-17.5 -51q-2 -8 -4 -13t-3 -9v-0.5v-0.5q-1 -3 -2 -6.5t-3 -8.5l-22 -1q-1 5 -2 8l-2 6v0.5v0.5q-1 4 -2.5 8.5t-3.5 12.5l-4 14t-3 13q-6 18 -11.5 32.5t-15.5 28.5q-4 5 -8 10.5t-9 9.5h-174v17h63
v392h-63v17h217v-17h-56v-392h170v0z" />
    <glyph glyph-name=".notdef" 
d="M351 17v392h-56v17h217v-17h-63v-392h63v-17h-174q-22 -28 -31.5 -54t-17.5 -51q-2 -8 -4 -13t-3 -9v-0.5v-0.5q-1 -3 -2 -6.5t-3 -8.5l-22 -1q-1 5 -2 8l-2 6v0.5v0.5q-1 4 -2.5 8.5t-3.5 12.5l-4 14t-3 13q-6 18 -11.5 32.5t-15.5 28.5q-4 5 -8 10.5t-9 9.5h-174v17h63
v392h-63v17h217v-17h-56v-392h170v0z" />
    <glyph glyph-name="glyph1" horiz-adv-x="0" 
 />
    <glyph glyph-name="glyph2" horiz-adv-x="351" 
 />
    <glyph glyph-name="glyph3" unicode=" " horiz-adv-x="351" 
 />
    <glyph glyph-name="glyph4" unicode="!" horiz-adv-x="299" 
d="M93 45q0 23 17 39.5t39 16.5q4 0 7.5 -0.5t7.5 -1.5q15 -5 28 -18.5t13 -35.5q0 -24 -16 -39.5t-40 -15.5q-22 0 -35.5 12.5t-18.5 27.5q-1 4 -1.5 7.5t-0.5 7.5v0zM117 408q-3 23 -5.5 39.5t-4.5 30.5q-2 10 -4 18.5t-3 16.5q-1 3 -1.5 5.5t-1.5 5.5q-5 20 -9 38t-4 34
q0 33 12 47.5t27 18.5q7 3 14 3.5t12 0.5q4 0 13 -1t19 -5q12 -6 23 -20.5t11 -43.5v-4.5v-5.5q-2 -22 -8.5 -46t-13.5 -60q-3 -15 -6 -33t-6 -39q-3 -27 -6 -59t-4 -65q-2 -30 -3 -60t-1 -56h-35q0 15 -0.5 28t-1.5 26q-2 54 -4.5 93t-6.5 75q0 4 -0.5 8.5t-1.5 9.5v0z" />
    <glyph glyph-name="glyph5" unicode="&#x22;" horiz-adv-x="395" 
d="M145 666l-28 -221h-39l-28 221h95v0zM322 666l-29 -221h-38l-29 221h96v0z" />
    <glyph glyph-name="glyph6" unicode="#" horiz-adv-x="896" 
d="M560 -59h-88l34 178h-187l-34 -178h-88l33 178h-174l17 90h175l36 190h-175l17 90h175l34 177h88l-34 -177h188l34 177h88l-34 -177h175l-17 -90h-175l-37 -190h175l-17 -90h-175l-34 -178v0zM523 209l36 190h-187l-36 -190h187v0z" />
    <glyph glyph-name="glyph7" unicode="$" horiz-adv-x="530" 
d="M44 1l-2 208h13q30 -76 77.5 -128.5t118.5 -66.5v269l-42 12q-75 21 -104.5 65.5t-35.5 92.5q-1 11 -1.5 22t-0.5 21q0 86 57 128.5t127 40.5v74h29v-77q4 0 8.5 -0.5t8.5 -1.5q14 -2 30 -7.5t41 -15.5q9 -4 16 -6t13 -2q7 0 12.5 3.5t11.5 12.5q1 2 2.5 4.5t2.5 5.5h16
l4 -158h-14q-25 56 -54 87t-58 45q-10 5 -20 8.5t-20 5.5v-248l59 -16q65 -18 97 -53t43 -73q5 -17 7 -34t2 -33q0 -105 -63 -151t-139 -45h-3.5h-2.5v-89h-29v91q-28 4 -47 10t-33 12l-8 4l-8 4q-15 7 -24.5 11t-17.5 5h-1.5h-1.5q-16 0 -27.5 -10t-14.5 -27h-24v0z
M280 275v-265q5 -1 9.5 -1h9.5h4h4q48 3 87.5 35t39.5 85q0 8 -0.5 16t-2.5 16q-6 32 -29.5 60.5t-74.5 41.5l-47 12v0zM251 403v244q-4 1 -8.5 1h-9.5q-46 0 -82.5 -32.5t-36.5 -85.5q0 -43 21 -68t46 -37q16 -8 31.5 -12.5t24.5 -6.5l14 -3v0z" />
    <glyph glyph-name="glyph8" unicode="%" horiz-adv-x="844" 
d="M230 -95l-31 14l417 826l32 -14l-418 -826v0zM472 145q0 62 40.5 108.5t102.5 46.5q58 0 101.5 -45t43.5 -110t-43.5 -109.5t-101.5 -44.5q-57 0 -100 44t-43 110v0zM544 166v-42q0 -55 14.5 -80t31.5 -33q7 -4 14 -5t13 -1h4h4q23 3 43 28.5t20 90.5v42q0 59 -17.5 85
t-38.5 32q-4 1 -7.5 1.5t-7.5 0.5q-31 0 -52 -30t-21 -89v0zM84 511q0 66 43 110.5t100 44.5q58 0 101.5 -45t43.5 -110t-43.5 -110t-101.5 -45q-57 0 -100 44.5t-43 110.5v0zM156 532v-42q0 -55 14.5 -80t31.5 -33q7 -4 14 -5t13 -1h4h4q23 3 43 28.5t20 90.5v42
q0 59 -17.5 85t-38.5 32q-4 1 -7.5 1.5t-7.5 0.5q-30 0 -51.5 -30t-21.5 -89v0z" />
    <glyph glyph-name="glyph9" unicode="&#x26;" horiz-adv-x="748" 
d="M573 328h1.5h1.5h25.5t30.5 2q29 3 54 12.5t25 32.5q0 7 -1.5 10.5t-3.5 3.5h-3.5t-3.5 -1q-2 0 -3.5 -0.5t-3.5 -1.5q-6 -3 -12 -4t-12 -1q-27 0 -38.5 13.5t-15.5 29.5q0 4 -0.5 7.5t-0.5 7.5q0 3 0.5 6.5t2.5 7.5q4 13 17 23.5t35 10.5q37 0 51.5 -26t14.5 -63
q0 -72 -55.5 -116t-129.5 -44h-12q2 -9 2.5 -20t0.5 -22q0 -14 -1.5 -30t-5.5 -31q-12 -55 -56 -100t-141 -45q-23 0 -49 2t-52 7q-73 13 -133 56t-60 134q0 71 42.5 108t94.5 53q26 9 51.5 13t44.5 6v5q-70 14 -111 47t-41 100q0 60 42 93t93 45q16 3 32 5t30 2
q78 0 118 -30.5t49 -67.5q1 -6 1.5 -11t0.5 -10v-1.5v-1.5q-1 -24 -15.5 -44t-43.5 -20q-26 0 -39.5 14t-18.5 30q-1 5 -1.5 9t-0.5 8q0 10 6 19t13 16l6 6l5 5l1.5 1.5l0.5 0.5q4 4 7.5 8t3.5 9q0 3 -1.5 7.5t-4.5 8.5q-7 10 -24.5 17.5t-50.5 7.5q-38 0 -69 -19.5
t-31 -76.5v-66q0 -48 17 -69t37 -28q9 -3 18 -4.5t16 -2.5q4 0 8 -0.5t8 -0.5q3 -1 7 -1h8h37v-22h-78q-71 0 -100 -31.5t-37 -68.5q-3 -15 -4 -29.5t-1 -27.5v-6v-5.5v-5.5q3 -66 44.5 -120.5t133.5 -54.5q83 0 118.5 41t43.5 91q2 12 2.5 23.5t0.5 22.5q0 14 -1 28t-3 24
l-56 1q-60 1 -90 -8t-41 -21q-4 -5 -6 -9.5t-2 -8.5q0 -5 1 -8.5t2 -4.5t1.5 -1h0.5h3.5h3.5t3.5 0.5t3.5 1.5q7 2 13 4t12 2q23 0 38.5 -16t15.5 -42q0 -3 -0.5 -5.5t-0.5 -5.5q-4 -14 -17.5 -26t-35.5 -12h-1.5h-1.5q-24 1 -44 21.5t-20 68.5q0 62 50.5 111.5t135.5 48.5
l98 -1v0z" />
    <glyph glyph-name="glyph10" unicode="'" horiz-adv-x="218" 
d="M157 666l-29 -221h-38l-29 221h96v0z" />
    <glyph glyph-name="glyph11" unicode="(" horiz-adv-x="488" 
d="M346 -219l-18 -11q-54 57 -97 133t-66 156q-12 39 -18.5 78t-6.5 76q0 66 33.5 190t154.5 267l20 -9q-25 -39 -42.5 -76t-29.5 -74q-22 -71 -28.5 -143t-6.5 -155q0 -43 4 -98t15 -113q11 -60 31.5 -118t54.5 -102v-1z" />
    <glyph glyph-name="glyph12" unicode=")" horiz-adv-x="488" 
d="M160 -230l-18 11q34 45 54.5 103t31.5 118q11 58 15 113t4 98q0 83 -6.5 155t-28.5 143q-12 37 -29.5 74t-42.5 76l20 9q122 -143 155 -267t33 -190q0 -37 -6.5 -76t-18.5 -78q-23 -80 -66 -156t-97 -132v-1z" />
    <glyph glyph-name="glyph13" unicode="*" horiz-adv-x="499" 
d="M295 488v-19q5 -2 9.5 -3.5t9.5 -2.5q11 -3 21.5 -5.5t20.5 -5.5q30 -7 51.5 -17.5t21.5 -37.5q0 -19 -14 -29t-31 -10q-4 0 -8 1t-7 3q-14 7 -31.5 27t-56.5 55l-17 -10q9 -59 16 -75.5t10 -23.5q1 -3 1.5 -5.5t0.5 -7.5q0 -4 -1 -8.5t-3 -9.5q-5 -10 -14 -18t-24 -8
q-19 0 -29.5 12t-12.5 27v2.5v2.5v2v2q2 9 9 27t18 81l-17 10q-37 -32 -53.5 -52t-29.5 -28q-4 -3 -9 -4.5t-11 -1.5q-21 0 -33 12t-12 27q0 27 20.5 37t50.5 17q11 3 22 5.5t22 6.5q5 1 9.5 2.5t9.5 3.5v19q-5 2 -9.5 3.5t-9.5 2.5q-11 3 -21.5 5.5t-20.5 5.5
q-30 7 -51.5 17.5t-21.5 37.5q0 15 12 27t33 12q6 0 11 -1.5t9 -4.5q13 -9 29.5 -28.5t53.5 -51.5l17 10q-11 64 -18 81.5t-9 26.5v2v2v2.5v2.5q2 15 12.5 27t29.5 12q15 0 24 -8t14 -18q2 -5 3 -9.5t1 -8.5q0 -5 -0.5 -7.5t-1.5 -5.5q-3 -7 -10 -23.5t-16 -75.5l17 -10
q39 35 56.5 55t31.5 27q3 2 7 3t8 1q17 0 31 -9.5t14 -29.5q0 -27 -21 -37.5t-52 -17.5q-12 -3 -24.5 -6t-25.5 -7q-3 -1 -5.5 -2t-5.5 -2v0z" />
    <glyph glyph-name="glyph14" unicode="+" horiz-adv-x="698" 
d="M49 337h279v279h42v-279h279v-42h-279v-278h-42v278h-279v42v0z" />
    <glyph glyph-name="glyph15" unicode="," horiz-adv-x="328" 
d="M141 -152l-12 16q18 14 32 31.5t24 36.5q7 14 10.5 27.5t3.5 25.5v2.5t-1 2.5q-1 5 -3.5 8t-5.5 3q-4 0 -7.5 -1t-7.5 -3q-1 -1 -2 -1.5t-2 -0.5q-6 -3 -11.5 -4t-10.5 -1q-20 0 -35 14t-15 39q0 28 20 41.5t45 13.5q4 0 13 -2.5t20 -10.5q12 -9 23 -28t11 -52
q0 -44 -17 -74.5t-46 -57.5q-6 -6 -12.5 -12t-13.5 -12v-1z" />
    <glyph glyph-name="glyph16" unicode="-" horiz-adv-x="351" 
d="M70 182v45h211v-45h-211v0z" />
    <glyph glyph-name="glyph17" unicode="." horiz-adv-x="308" 
d="M98 45q0 22 13 35.5t28 18.5q4 1 7.5 1.5t7.5 0.5q23 0 39.5 -17t16.5 -39q0 -4 -0.5 -7.5t-1.5 -7.5q-5 -15 -18.5 -27.5t-35.5 -12.5q-24 0 -40 15.5t-16 39.5v0z" />
    <glyph glyph-name="glyph18" unicode="/" horiz-adv-x="484" 
d="M63 -252l-35 12l393 926l35 -13l-393 -925v0z" />
    <glyph glyph-name="glyph19" unicode="0" horiz-adv-x="535" 
d="M42 328q0 28 5 66t17 79q22 72 70 132.5t132 60.5q96 0 161.5 -99t65.5 -239t-55 -223t-120 -106q-14 -4 -26.5 -6.5t-25.5 -2.5q-12 0 -24.5 2t-25.5 7q-65 22 -119.5 105t-54.5 224v0zM154 433v-210q0 -83 18.5 -149t94.5 -66t95 66.5t19 148.5v210q0 119 -29 166.5
t-85 47.5q-65 0 -89 -55.5t-24 -158.5v0z" />
    <glyph glyph-name="glyph20" unicode="1" horiz-adv-x="479" 
d="M195 20v593q0 10 -5.5 13.5t-12.5 3.5h-2h-2h-9.5h-8.5h-4.5h-4.5h-9.5t-11.5 -1q-7 0 -13 -0.5t-10 -0.5l-1 24q20 1 40.5 2.5t41.5 2.5t42.5 2.5t42.5 2.5l41 4l-2 -58v-588h77v-20h-266v20h77v0z" />
    <glyph glyph-name="glyph21" unicode="2" horiz-adv-x="538" 
d="M456 196h23l-9 -196h-414v63l173 162q11 10 26.5 25t31.5 33q27 31 50 74t28 99q1 6 1 12.5v13.5t-0.5 13.5t-0.5 12.5q-1 10 -3 27.5t-10 35.5q-11 28 -37.5 51.5t-78.5 23.5q-37 0 -67.5 -19t-30.5 -45q0 -15 5.5 -22t13.5 -12q1 0 1.5 -0.5t0.5 -1.5q5 -3 10 -7
t11 -12q2 -3 3.5 -5.5t2.5 -4.5q3 -6 4 -12.5t1 -14.5q0 -27 -13.5 -41t-30.5 -18q-5 -2 -10 -2.5t-10 -0.5q-26 0 -46.5 20t-20.5 55q0 62 56.5 113t141.5 51q87 0 136 -39t68 -85q5 -12 8.5 -24t5.5 -23q2 -7 2 -14v-15q0 -7 -0.5 -13.5t-1.5 -13.5q-8 -49 -37.5 -84.5
t-63.5 -63.5q-11 -9 -22.5 -17.5t-21.5 -16.5l-217 -166h276q40 0 50 20.5t14 58.5q0 6 0.5 12t1.5 13v0z" />
    <glyph glyph-name="glyph22" unicode="3" 
d="M298 374v-5q68 -7 123 -53.5t55 -126.5q0 -17 -4 -38.5t-14 -43.5q-19 -44 -70 -80.5t-151 -36.5q-78 0 -121 28t-59 62q-6 13 -9 25.5t-3 23.5q0 35 19 57t47 22q26 0 44.5 -18t18.5 -47q0 -16 -6.5 -26.5t-13.5 -16.5q-3 -3 -6 -4.5t-5 -3.5q-2 -1 -3.5 -2.5t-3.5 -2.5
q-6 -4 -10 -9t-4 -12q0 -3 0.5 -5.5t1.5 -5.5q7 -18 35.5 -33t68.5 -14q8 0 17 1l18 2l38 20q4 3 9 7.5t11 11.5q10 13 19 37.5t9 64.5v113q0 7 -1.5 16t-4.5 18q-8 22 -29 40t-61 18q-9 0 -17.5 -1.5t-16.5 -3.5q-4 -1 -7.5 -1.5t-6.5 -1.5q-7 -1 -13.5 -2t-14.5 -1
q-2 0 -4.5 0.5t-5.5 1.5q-4 1 -8 5.5t-4 12.5v2v3q1 8 7 14.5t18 6.5q7 0 13 -1t12 -3q11 -2 23 -3.5t25 -1.5q40 0 58 18.5t25 40.5q3 12 4 23.5t1 19.5v66q0 45 -19.5 65t-42.5 27q-10 2 -19.5 3t-17.5 1q-33 0 -51 -7.5t-25 -17.5q-3 -4 -4.5 -8.5t-1.5 -7.5t1.5 -6
t3.5 -6q3 -4 8 -8t11 -10l3.5 -3.5l3.5 -3.5q5 -6 8.5 -13t3.5 -15q0 -4 -0.5 -8t-1.5 -9q-5 -16 -18.5 -30t-39.5 -14t-42 18t-16 49q0 5 0.5 10t1.5 11q8 37 47.5 67.5t118.5 30.5q14 0 28.5 -1.5t29.5 -4.5q52 -11 95.5 -44t43.5 -95q0 -66 -41 -99.5t-111 -47.5v0z" />
    <glyph glyph-name="glyph23" unicode="4" horiz-adv-x="544" 
d="M280 20v167h-227v26l279 458h53v-444h103v-40h-103v-167h77v-20h-266v20h84v0zM280 227v314l-196 -314h196v0z" />
    <glyph glyph-name="glyph24" unicode="5" horiz-adv-x="545" 
d="M136 559l-13 -173q1 1 2.5 2t2.5 2q39 31 74 37.5t52 6.5q98 0 148 -44t66 -96q5 -16 7.5 -32t2.5 -30q0 -19 -3.5 -48t-15.5 -60q-19 -51 -67.5 -92.5t-145.5 -41.5q-72 0 -128 35t-56 100q0 32 17.5 54t48.5 22q23 0 42 -13.5t19 -42.5q0 -16 -3.5 -26.5t-13.5 -19.5
l-2 -2l-2 -2q-2 -2 -5 -4.5t-7 -5.5q-5 -4 -10 -10t-5 -13q0 -4 1.5 -10.5t6.5 -13.5q8 -11 26 -20.5t51 -9.5q68 0 93 37t31 82q1 12 1.5 24.5t0.5 23.5v107q0 8 -2 24.5t-10 34.5q-10 25 -35 45.5t-74 20.5q-36 0 -66 -17.5t-51 -46.5l-12 2l21 321q47 -20 81 -26t65 -7
h9.5h8.5q31 0 65 6t78 27l10 -13q-15 -34 -54 -55t-82 -32q-27 -7 -52 -10t-45 -3q-6 0 -11.5 0.5t-11.5 0.5q-7 0 -13.5 1t-12.5 2q-6 0 -11.5 1t-10.5 1v0z" />
    <glyph glyph-name="glyph25" unicode="6" horiz-adv-x="539" 
d="M169 452l-2 -120q14 32 42.5 51t59.5 26q9 2 18 3t18 1q6 0 11.5 -0.5t11.5 -1.5q62 -9 114 -64.5t52 -146.5q0 -95 -66.5 -152.5t-146.5 -57.5q-18 0 -40 3.5t-44 12.5q-53 22 -97 88.5t-44 209.5q0 30 3 68.5t12 78.5q18 81 69 148t159 67q86 0 129.5 -34t43.5 -77
v-6.5t-1 -6.5q-3 -21 -17 -38t-42 -17q-26 0 -39 11t-18 24q-2 5 -2.5 9.5t-0.5 8.5q0 5 1.5 11.5t4.5 12.5l2 6t3 6q0 1 0.5 2.5t1.5 2.5q2 3 3 6t3 6q2 6 4 12.5t2 11.5q0 14 -24.5 22.5t-53.5 8.5q-73 0 -98 -44t-30 -97q-1 -14 -1.5 -28t-0.5 -27v0zM167 256v-115
q0 -53 22 -82t49 -40q13 -6 26 -8.5t23 -2.5q40 0 59.5 23t27.5 50q6 21 7 40.5t1 27.5v98q0 55 -18 99t-77 44q-46 0 -83 -37.5t-37 -96.5v0z" />
    <glyph glyph-name="glyph26" unicode="7" horiz-adv-x="520" 
d="M84 489h-21l26 166h358q8 0 9 -2t1 -10q0 -20 -13 -59.5t-57 -151.5q-26 -66 -42 -117.5t-26 -99.5q-8 -41 -13.5 -83t-10.5 -92l-2 -20l-2 -20h-108q6 69 27.5 130.5t45.5 111.5q12 26 24.5 48t22.5 39q19 33 35.5 62.5t29.5 58.5q13 26 23.5 52.5t19.5 56.5h-261
q-34 0 -44.5 -16.5t-17.5 -38.5q-1 -4 -2 -7.5t-2 -7.5v0z" />
    <glyph glyph-name="glyph27" unicode="8" horiz-adv-x="529" 
d="M199 344l-52 34q-4 3 -14 11t-21 22q-14 17 -26 41.5t-12 55.5q0 10 2 21.5t5 22.5q15 43 59.5 78.5t126.5 35.5q87 0 136.5 -40.5t49.5 -92.5q0 -53 -33 -88t-95 -60l49 -32q5 -3 9 -6t9 -6q59 -45 74 -86t15 -66q0 -91 -63 -144t-139 -55h-3.5h-2.5q-109 0 -167 52.5
t-58 122.5q0 65 46.5 108t104.5 71v0zM334 258l-109 71q-26 -14 -43 -32.5t-28 -37.5q-15 -28 -19.5 -53.5t-5.5 -37.5q0 -2 -0.5 -4t-0.5 -4v-5v-4v-4t1 -4v-4v-4q5 -64 46.5 -95.5t95.5 -31.5q62 0 96.5 38t34.5 85q0 14 -3 32t-12 37q-8 15 -20.5 30t-32.5 28v0zM213 456
l88 -56q25 12 40 27t24 30q11 20 13.5 39t2.5 30q0 57 -32 89t-83 32q-62 0 -90.5 -27.5t-28.5 -60.5t15 -54.5t33 -35.5q4 -4 9 -7t9 -6v0z" />
    <glyph glyph-name="glyph28" unicode="9" horiz-adv-x="536" 
d="M373 203l2 120q-14 -33 -42.5 -51.5t-59.5 -25.5q-9 -2 -18 -3t-18 -1q-7 0 -13.5 0.5t-13.5 1.5q-61 11 -111.5 67t-50.5 145q0 95 66 152.5t147 57.5q18 0 40.5 -3.5t45.5 -13.5q52 -23 95.5 -89.5t43.5 -207.5q0 -30 -3 -69t-13 -80q-18 -80 -69 -146.5t-158 -66.5
q-76 0 -115 24.5t-51 54.5q-4 8 -5.5 16t-1.5 16q0 26 16 47t44 21q25 0 38.5 -11.5t18.5 -25.5q2 -5 2.5 -9t0.5 -8t-1.5 -10t-3.5 -12q-1 -3 -2.5 -6.5t-3.5 -6.5q0 -2 -0.5 -3t-1.5 -2q-4 -8 -8 -17t-4 -19q0 -15 24.5 -23.5t53.5 -8.5q85 0 107 58.5t23 137.5v0z
M375 400v114q0 66 -37 99.5t-83 33.5q-41 0 -60.5 -22.5t-26.5 -49.5q-6 -21 -7 -39.5t-1 -26.5v-1.5v-0.5v-99q0 -55 18.5 -98.5t76.5 -43.5q53 0 84.5 38.5t35.5 84.5v5.5v5.5v0z" />
    <glyph glyph-name="glyph29" unicode=":" horiz-adv-x="308" 
d="M98 45q0 23 17 39.5t39 16.5q4 0 7.5 -0.5t7.5 -1.5q15 -5 28 -18.5t13 -35.5q0 -24 -16 -39.5t-40 -15.5q-22 0 -35.5 12.5t-18.5 27.5q-1 4 -1.5 7.5t-0.5 7.5v0zM98 381q0 22 13 35.5t28 18.5q4 1 7.5 1.5t7.5 0.5q23 0 39.5 -17t16.5 -39q0 -4 -0.5 -7.5t-1.5 -7.5
q-5 -15 -18.5 -28t-35.5 -13q-24 0 -40 16t-16 40v0z" />
    <glyph glyph-name="glyph30" unicode=";" horiz-adv-x="328" 
d="M141 -152l-12 16q18 14 32 31.5t24 36.5q7 14 10.5 27.5t3.5 25.5v2.5t-1 2.5q-1 5 -3.5 8t-5.5 3q-4 0 -7.5 -1t-7.5 -3q-1 -1 -2 -1.5t-2 -0.5q-6 -3 -11.5 -4t-10.5 -1q-20 0 -35 14t-15 39q0 29 20 42t45 13q6 0 12.5 -2t14.5 -6q15 -8 27.5 -28t12.5 -57
q0 -44 -17 -74.5t-46 -57.5q-6 -6 -12.5 -12t-13.5 -12v-1zM111 381q0 22 17 39t39 17q4 0 7.5 -0.5t7.5 -1.5q15 -5 28 -18.5t13 -35.5q0 -24 -16 -40t-40 -16q-22 0 -35.5 13t-18.5 28q-1 4 -1.5 7.5t-0.5 7.5v0z" />
    <glyph glyph-name="glyph31" unicode="&#x3c;" 
d="M14 329l461 266l29 -54l-367 -212l367 -212l-29 -54l-461 266v0z" />
    <glyph glyph-name="glyph32" unicode="=" horiz-adv-x="698" 
d="M49 267h600v-42h-600v42v0zM49 407h600v-42h-600v42v0z" />
    <glyph glyph-name="glyph33" unicode="&#x3e;" 
d="M518 329l-461 -266l-29 54l367 212l-367 212l29 54l461 -266v0z" />
    <glyph glyph-name="glyph34" unicode="?" horiz-adv-x="524" 
d="M182 45q0 23 17 39.5t39 16.5q4 0 7.5 -0.5t7.5 -1.5q15 -5 28 -18.5t13 -35.5q0 -24 -16 -39.5t-40 -15.5q-22 0 -35.5 12.5t-18.5 27.5q-1 4 -1.5 7.5t-0.5 7.5v0zM256 161h-23v15q0 81 18.5 130t41.5 92q1 2 2.5 4.5t2.5 4.5q2 3 4 6.5t4 7.5q11 20 19.5 42t8.5 52
q0 11 -0.5 23.5t-3.5 24.5q-5 32 -25 58t-67 26q-44 0 -70 -21t-35 -47q-2 -7 -3.5 -14.5t-1.5 -14.5q0 -12 8 -15.5t18 -3.5h4h4h2.5h2.5h2.5h2.5q20 0 32.5 -14.5t12.5 -34.5q0 -21 -11.5 -33t-25.5 -17q-5 -1 -10.5 -2t-9.5 -1q-5 0 -11.5 2t-13.5 7q-14 10 -25.5 32
t-11.5 60q0 59 40 97.5t103 38.5q82 0 124 -33.5t55 -74.5q3 -10 4.5 -20t1.5 -19q0 -53 -20 -91t-44 -65q-5 -6 -10 -11l-10 -10l-16 -16t-19 -21q-19 -23 -35 -55t-16 -72v-17v0z" />
    <glyph glyph-name="glyph35" unicode="@" horiz-adv-x="939" 
d="M736 568l-83 -275q-11 -37 -15 -56t-4 -28q0 -25 8.5 -38.5t18.5 -19.5q6 -4 11.5 -5t9.5 -1q12 0 23.5 2.5t24.5 8.5q54 23 100 92t46 166q0 140 -103.5 248t-294.5 108q-182 0 -291.5 -130.5t-109.5 -287.5q0 -160 111.5 -290.5t292.5 -130.5h0.5h0.5q23 0 81 6t123 40
q16 9 32.5 20t32.5 25l22 -28q-88 -64 -159.5 -81t-129.5 -17q-204 0 -330 141t-126 316v6v6q4 165 124 302.5t324 137.5q176 0 305.5 -104t129.5 -287v-6v-5q-3 -110 -66 -201.5t-173 -91.5q-36 0 -60 11.5t-38 25.5q-7 7 -12 14t-8 12q-31 -25 -64.5 -39t-76.5 -14
q-79 0 -120 56.5t-41 132.5q0 110 76 193.5t191 83.5q17 0 41.5 -6t51.5 -30l13 -13t13 -16l15 47h83v0zM546 218l68 240q-7 42 -30 65t-49 29q-5 1 -9.5 1.5t-8.5 0.5q-10 0 -20 -2.5t-20 -6.5q-48 -21 -88 -86t-40 -158q0 -61 15.5 -103t69.5 -42q34 0 59.5 15.5
t41.5 33.5q3 3 6 6.5t5 6.5v0z" />
    <glyph glyph-name="glyph36" unicode="A" horiz-adv-x="617" 
d="M431 20l-74 202h-196l-36 -89q-2 -4 -4 -9l-4 -10q-4 -9 -7.5 -21t-3.5 -26q0 -20 11 -32.5t53 -14.5v-20h-170v20q27 2 46.5 19t29.5 37q2 3 3.5 6t2.5 6l221 567h18l228 -635h68v-20h-275v20h89v0zM350 242l-86 248l-98 -248h184v0z" />
    <glyph glyph-name="glyph37" unicode="B" horiz-adv-x="665" 
d="M42 655h303q105 0 154 -27.5t67 -60.5q8 -16 11 -32.5t3 -28.5q0 -63 -54.5 -99t-119.5 -46q-6 -1 -11.5 -1.5t-11.5 -1.5v-5q101 -16 149 -47t65 -65q9 -17 12 -33t3 -31v-1.5v-1.5q-1 -65 -56 -119.5t-198 -54.5h-316v20h77v615h-77v20v0zM231 20h113q85 0 113.5 46.5
t28.5 104.5q0 81 -34.5 117.5t-76.5 48.5q-17 5 -33.5 6.5t-30.5 1.5h-80v-325v0zM231 365h73q87 0 115.5 36.5t32.5 80.5q1 6 1 11.5v11.5q0 77 -32.5 101t-70.5 28q-9 1 -17.5 1h-16.5h-85v-270v0z" />
    <glyph glyph-name="glyph38" unicode="C" horiz-adv-x="590" 
d="M538 218h24l-8 -218h-26q0 3 -1 8t-3 10q-3 9 -9.5 15.5t-18.5 6.5q-10 0 -20.5 -4.5t-21.5 -11.5q-5 -3 -12 -7t-17 -8q-17 -7 -41.5 -13t-56.5 -6q-110 0 -187.5 82t-86.5 213q0 8 -0.5 16t-0.5 16t0.5 16t0.5 16q9 133 89 225t205 92q25 0 45 -5t36 -10q16 -6 29 -11
t23 -5q4 0 9 0.5t11 3.5t11 9t9 18h24l2 -213h-22q-10 87 -46.5 140.5t-124.5 53.5q-14 0 -30.5 -3t-34.5 -11q-41 -18 -75 -72.5t-34 -168.5v-162q0 -92 30.5 -139t67.5 -65q21 -11 40.5 -14.5t33.5 -3.5q9 0 18.5 1t19.5 3q46 12 88 58t61 148v0z" />
    <glyph glyph-name="glyph39" unicode="D" horiz-adv-x="719" 
d="M42 655h292q159 0 238.5 -80.5t98.5 -177.5q3 -17 4.5 -34t1.5 -33q0 -127 -85 -228.5t-231 -101.5h-319v20h77v616h-77v19v0zM231 20h135q102 0 141.5 85t42.5 187q1 7 1 14.5v14.5q0 194 -56 254.5t-157 60.5h-107v-616v0z" />
    <glyph glyph-name="glyph40" unicode="E" horiz-adv-x="601" 
d="M119 20v616h-77v19h493l11 -189h-24q-11 80 -49.5 125t-115.5 45h-126v-276h36q9 0 18.5 0.5t20.5 3.5q23 7 43 31.5t26 84.5h20v-262h-20q0 2 -0.5 4.5t-1.5 4.5q-11 64 -29.5 88.5t-70.5 24.5h-42v-320h143q10 0 20.5 1t21.5 3q40 8 76.5 45.5t53.5 134.5h24l-21 -204
h-507v20h77v0z" />
    <glyph glyph-name="glyph41" unicode="F" horiz-adv-x="567" 
d="M119 20v616h-77v19h500l11 -210h-24q-7 92 -47 141.5t-125 49.5h-126v-290h64q9 0 18.5 0.5t20.5 3.5q23 7 43 31.5t26 84.5h20v-262h-20q-3 59 -21.5 84t-40.5 32q-11 4 -21 5t-19 1h-70v-306h77v-20h-266v20h77v0z" />
    <glyph glyph-name="glyph42" unicode="G" horiz-adv-x="703" 
d="M557 453h-22q-10 112 -62 151t-113 41h-5.5h-4.5q-108 0 -138.5 -91t-32.5 -200v-12v-12v-1.5v-1.5q0 -24 1 -64t9 -83q11 -65 43.5 -119t103.5 -54q8 0 16 0.5t16 1.5q47 5 86 39t39 133v72h-70v19h252v-19h-70v-39q0 -101 -77.5 -159t-170.5 -63q-5 -1 -9.5 -1h-9.5
q-130 0 -201.5 97t-81.5 213q-1 11 -1.5 21t-0.5 20q0 122 85 223t208 101q37 0 53.5 -5t26.5 -10q1 -1 2 -1.5l1 -0.5q10 -6 22.5 -10t39.5 -4q5 0 11 0.5t12 5.5q5 3 9.5 9t8.5 16h23l2 -213v0z" />
    <glyph glyph-name="glyph43" unicode="H" horiz-adv-x="757" 
d="M231 340v-320h70v-20h-259v20h77v616h-77v19h259v-19h-70v-276h295v276h-70v19h259v-19h-77v-616h77v-20h-259v20h70v320h-295v0z" />
    <glyph glyph-name="glyph44" unicode="I" horiz-adv-x="350" 
d="M119 20v616h-77v19h266v-19h-77v-616h77v-20h-266v20h77v0z" />
    <glyph glyph-name="glyph45" unicode="J" horiz-adv-x="454" 
d="M335 169l-2 -27q-5 -74 -54.5 -113t-109.5 -39q-57 0 -92 25t-50 56q-7 13 -10 25t-3 23q0 27 19 45.5t43 18.5q26 0 43 -16t17 -40q0 -17 -7.5 -28t-16.5 -19q-8 -8 -13 -11.5t-7 -5.5q-1 -1 -1.5 -2t-0.5 -2q0 -4 1.5 -9t3.5 -10q7 -12 22.5 -21.5t43.5 -9.5
q20 0 31 8.5t17 18.5q3 5 5 10.5t3 9.5q0 1 0.5 2t0.5 2q2 6 3.5 12t1.5 14v550h-77v19h266v-19h-77v-467v0z" />
    <glyph glyph-name="glyph46" unicode="K" horiz-adv-x="684" 
d="M231 313l225 230l5 5t6 7q7 8 13 17.5t6 19.5q0 3 -0.5 6.5t-2.5 6.5q-5 12 -24 22t-58 9v19h235v-19q-12 0 -23.5 -2.5t-22.5 -7.5q-33 -14 -71 -50.5t-101 -100.5l-41 -42l256 -413h37v-20h-272v20h92l-188 335l-71 -73v-262h70v-20h-259v20h77v616h-77v19h259v-19h-70
v-323v0z" />
    <glyph glyph-name="glyph47" unicode="L" horiz-adv-x="578" 
d="M119 20v616h-77v19h266v-19h-77v-616h116q8 0 16 1t17 3q52 13 98.5 63t66.5 121h19l-31 -208h-491v20h77v0z" />
    <glyph glyph-name="glyph48" unicode="M" horiz-adv-x="847" 
d="M429 148l187 507h189v-19h-77v-616h77v-20h-266v20h77v575l-222 -607h-18l-232 602v-487q0 -37 9.5 -57t66.5 -26v-20h-178v20q35 -2 51.5 13t23.5 33q4 11 5 21t1 17v475q0 28 -12 40t-26 15q-6 1 -12 1.5t-11 0.5h-18l1 19h189l195 -507v0z" />
    <glyph glyph-name="glyph49" unicode="N" horiz-adv-x="709" 
d="M560 195v374q0 31 -17.5 45t-38.5 19q-8 2 -15.5 2.5t-14.5 0.5v19h193v-19q-52 -1 -67.5 -21t-17.5 -44q-1 -6 -1 -12v-12v-0.5v-1.5v-556h-7l-425 566v-445q0 -7 2 -18t7 -23q7 -19 25.5 -34.5t52.5 -14.5v-20h-194v20h3.5h2.5q2 -1 3.5 -1h2.5q29 1 51.5 19.5
t22.5 71.5v473q0 20 -13 31t-29 16q-9 3 -18 4.5t-15 1.5v19h159l348 -460v0z" />
    <glyph glyph-name="glyph50" unicode="O" horiz-adv-x="731" 
d="M50 328q0 144 85.5 231.5t187.5 103.5q11 1 21.5 2t20.5 1q122 0 219 -95t97 -243q0 -139 -77.5 -223t-170.5 -106q-17 -5 -34 -7t-34 -2q-25 0 -53.5 5.5t-58.5 17.5q-76 33 -139.5 110t-63.5 205v0zM365 647q-12 0 -25 -2t-26 -6q-52 -16 -95 -84t-43 -227
q0 -158 42.5 -226t93.5 -85q14 -5 27 -7t26 -2t26.5 2t27.5 7q51 18 93.5 86t42.5 225q0 144 -36 211t-79 90q-20 11 -39.5 14.5t-35.5 3.5v0z" />
    <glyph glyph-name="glyph51" unicode="P" horiz-adv-x="628" 
d="M119 20v616h-77v19h288q21 0 51 -3t62 -13q53 -16 98 -57.5t45 -125.5q0 -73 -52 -134.5t-205 -61.5h-98v-240h77v-20h-266v20h77v0zM231 279h69q73 0 106 26t44 58q5 14 7 28.5t3 25.5v18v19v6v6v12v12q0 11 -1.5 29t-8.5 37q-11 30 -44.5 55t-105.5 25h-69v-357v0z" />
    <glyph glyph-name="glyph52" unicode="Q" horiz-adv-x="737" 
d="M248 -85l-10 13q38 35 65.5 47t52.5 15q-136 10 -219.5 108.5t-83.5 229.5q0 148 97 243t218 95q122 0 219 -95t97 -243q0 -120 -77 -221.5t-216 -115.5q23 -2 49.5 -18t60.5 -62q4 -5 9 -11.5t11 -12.5q12 -14 26.5 -26t28.5 -14q2 -1 3.5 -1h3.5t4 0.5t4 0.5
q11 3 20.5 12t9.5 20q0 3 -0.5 6t-1.5 5q-1 3 -3.5 6.5t-5.5 7.5q-4 5 -7 11.5t-3 14.5q0 17 10.5 31t29.5 14q4 0 8.5 -1t9.5 -3q10 -4 18 -13t8 -26q0 -49 -41 -81.5t-90 -39.5q-7 -1 -13.5 -1.5t-12.5 -0.5h-6.5t-6.5 1q-28 2 -59.5 21t-79.5 74q-3 3 -6 7t-7 7
q-9 10 -21.5 18t-26.5 8q-7 0 -14.5 -2t-16.5 -6q-8 -4 -16.5 -8.5t-15.5 -9.5l-1.5 -1.5l-1.5 -1.5v-1zM368 647q-12 0 -25 -2t-26 -6q-52 -16 -95 -84t-43 -227q0 -158 42.5 -226t93.5 -85q14 -5 27 -7t26 -2q12 0 24.5 1.5t25.5 5.5q52 17 96 84.5t44 228.5
q0 160 -44 228t-96 84q-13 4 -25.5 5.5t-24.5 1.5v0z" />
    <glyph glyph-name="glyph53" unicode="R" horiz-adv-x="682" 
d="M231 20h77v-20h-266v20h77v616h-77v19h271q20 0 42 -0.5t45 -2.5q70 -5 128.5 -34t58.5 -109q0 -62 -48.5 -106.5t-156.5 -53.5v-4q114 -18 144 -62t42 -153l2 -16t2 -17q1 -5 1.5 -10.5t0.5 -10.5q3 -19 9.5 -35t21.5 -16q5 0 10 1.5t10 4.5t10.5 7t10.5 8q4 3 7.5 6.5
t5.5 6.5l15 -16q-28 -38 -55.5 -45.5t-50.5 -7.5q-60 0 -84.5 29t-34.5 121q-15 144 -42.5 170t-94.5 26h-81v-316v0zM231 356h70q61 0 110.5 27t49.5 127q0 74 -39 100t-115 26h-76v-280v0z" />
    <glyph glyph-name="glyph54" unicode="S" horiz-adv-x="530" 
d="M44 0l-2 209h13q31 -78 71.5 -121t81.5 -62q22 -9 43.5 -13t41.5 -4h6.5t6.5 1q48 3 88 33.5t40 85.5q0 12 -2 27t-8 31q-9 23 -31.5 44t-65.5 32l-118 32q-55 15 -98.5 60t-43.5 141q0 80 52 125t119 45q38 0 63.5 -5.5t43.5 -12.5q12 -5 22 -9.5t20 -6.5q4 -1 8 -1.5
t8 -0.5q8 0 13.5 7.5t9.5 17.5h16l4 -158h-14q-27 62 -61.5 95t-70.5 46q-15 5 -30 7.5t-29 2.5q-58 0 -92.5 -34.5t-34.5 -83.5q0 -52 27 -77t59 -36q10 -4 19 -6.5t18 -4.5l102 -27q64 -17 95.5 -51.5t43.5 -71.5q6 -18 8 -36t2 -34q0 -79 -49 -137.5t-135 -58.5
q-44 0 -75.5 7t-53.5 16q-5 2 -10 4.5t-10 4.5q-15 7 -24.5 11t-17.5 5h-1.5h-1.5q-16 0 -27.5 -10t-14.5 -28h-24v0z" />
    <glyph glyph-name="glyph55" unicode="T" horiz-adv-x="634" 
d="M261 20v616q-110 2 -155 -42.5t-56 -144.5h-28l5 206h580l5 -206h-28q-12 113 -59 150t-152 37v-616h77v-20h-266v20h77v0z" />
    <glyph glyph-name="glyph56" unicode="U" horiz-adv-x="731" 
d="M602 545v-362q0 -92 -65.5 -142.5t-157.5 -50.5q-21 0 -46 2.5t-50 7.5q-62 16 -113 57.5t-51 125.5v453h-77v19h266v-19h-77v-469q0 -72 49.5 -110.5t126.5 -38.5q84 0 120 31.5t47 69.5q6 22 7 42.5t1 35.5v3.5v3.5v361q0 42 -22 54.5t-65 16.5v19h194v-19
q-50 -3 -68.5 -17t-18.5 -74v0z" />
    <glyph glyph-name="glyph57" unicode="V" horiz-adv-x="655" 
d="M14 655h279v-19h-79l169 -462l137 361q6 15 8.5 27.5t2.5 22.5q0 29 -18.5 39.5t-43.5 11.5v19h172v-19q-39 -1 -58.5 -23.5t-35.5 -63.5l-210 -560l-256 647h-67v19v0z" />
    <glyph glyph-name="W" unicode="W" horiz-adv-x="1009" 
d="M14 655h249v-19h-74l171 -459l122 314l-53 145h-69v19h265v-19h-76l173 -466l130 325q9 22 13 36.5t4 24.5q0 47 -29 63.5t-72 16.5v19h227v-19q-42 -3 -63 -29t-38 -66q-3 -7 -6 -15.5t-7 -17.5l-208 -519l-179 467l-185 -467l-242 647h-53v19v0z" />
    <glyph glyph-name="glyph59" unicode="X" horiz-adv-x="700" 
d="M364 409l100 153q2 3 4 9t3 12q1 5 1.5 10t0.5 8q0 2 -0.5 3.5t-0.5 3.5q-4 10 -18.5 19t-38.5 9h-14v19h219v-19q-38 -3 -62 -13t-45 -33q-7 -8 -14 -18t-15 -22l-105 -162l241 -368h58v-20h-266v20h78l-186 280l-116 -179q-1 -1 -2 -3l-2 -4q-2 -4 -4 -9t-3 -11
q-2 -4 -2.5 -8t-0.5 -8q0 -5 1 -10t3 -10q6 -13 22.5 -24.5t51.5 -13.5v-20h-230v20q47 11 75.5 29t52.5 55l142 217l-212 315h-58v19h256v-19h-65l151 -227v0z" />
    <glyph glyph-name="glyph60" unicode="Y" horiz-adv-x="656" 
d="M277 261l-203 375h-60v19h263v-19h-72l169 -330l117 217q2 3 4 6.5t4 7.5q2 5 4.5 12t4.5 15q0 2 0.5 4t0.5 5q1 2 1 4v4v3.5t-1 3.5q0 1 -0.5 3t-0.5 3q-1 3 -3 8t-7 11q-6 8 -18 15t-32 7h-7h-5t-3.5 0.5t-4.5 0.5v19h214v-19q-37 1 -61.5 -22t-41.5 -51
q-6 -11 -11.5 -21t-10.5 -19l-128 -237v-266h77v-20h-266v20h77v241v0z" />
    <glyph glyph-name="glyph61" unicode="Z" horiz-adv-x="615" 
d="M93 489l24 166h456l-388 -635h188q19 0 46 6t56 32q18 17 36 45t34 71h21l-21 -174h-503l404 636h-151q-3 0 -7 -0.5t-14 -1.5q-25 -2 -67.5 -24.5t-89.5 -120.5h-24v0z" />
    <glyph glyph-name="glyph62" unicode="[" horiz-adv-x="446" 
d="M376 -188v-25h-208v868h208v-24h-106v-819h106v0z" />
    <glyph glyph-name="glyph63" unicode="\" 
d="M462 -70h-70l-322 840h70l322 -840v0z" />
    <glyph glyph-name="glyph64" unicode="]" horiz-adv-x="446" 
d="M70 -188h107v819h-107v24h208v-868h-208v25v0z" />
    <glyph glyph-name="glyph65" unicode="^" horiz-adv-x="364" 
d="M182 574l-81 -81h-84l165 165l165 -165h-84l-81 81v0z" />
    <glyph glyph-name="glyph66" unicode="_" 
d="M0 -196v70h532v-70h-532v0z" />
    <glyph glyph-name="glyph67" unicode="`" horiz-adv-x="220" 
d="M122 655l97 -137h-25l-193 137h121v0z" />
    <glyph glyph-name="glyph68" unicode="a" horiz-adv-x="470" 
d="M456 53l14 -13q-7 -10 -15 -18t-16 -13q-21 -14 -40.5 -16.5t-28.5 -2.5q-31 0 -48.5 14t-26.5 31q-3 5 -5 9.5t-3 9.5q-49 -43 -83.5 -53.5t-62.5 -10.5q-56 0 -86 31.5t-30 77.5q0 72 63.5 107t165.5 35h16.5t16.5 -1v112v10.5t-1 10.5q-3 18 -16 32t-50 14
q-24 0 -44 -5.5t-20 -16.5q0 -3 0.5 -6.5t1.5 -6.5q1 -4 2 -7.5t3 -6.5q1 -2 1.5 -3.5t1.5 -3.5l2 -4t3 -4q3 -5 5.5 -11t2.5 -14q0 -24 -15.5 -43t-45.5 -19q-28 0 -45 18.5t-17 50.5q0 45 50.5 72.5t114.5 27.5q91 0 123 -27t38 -59q2 -10 2.5 -19t0.5 -18v-260v-6.5
t1 -7.5q2 -7 6.5 -13t15.5 -6q4 0 8 1t8 3q6 3 12.5 8t11.5 10q2 3 4.5 5.5t3.5 4.5v0zM287 85v139q-77 2 -113.5 -21t-36.5 -103q0 -41 21.5 -55t47.5 -14q7 0 16 2.5t18 7.5q11 5 21.5 12.5t17.5 14.5q4 5 6 9t2 8v0z" />
    <glyph glyph-name="glyph69" unicode="b" horiz-adv-x="501" 
d="M178 54v-54h-161v17h63v618h-63v17h99q20 0 32.5 1t23.5 3q2 1 3.5 1.5t2.5 0.5v-268q3 4 7.5 9.5t11.5 11.5q11 10 29 18t45 8q85 0 146.5 -65.5t61.5 -157.5q0 -101 -62 -162t-136 -62h-1.5h-1.5q-9 0 -24.5 3t-31.5 12q-12 8 -23.5 19.5t-20.5 29.5v0zM367 137v133
q0 66 -18.5 98.5t-41.5 43.5q-9 4 -17.5 6t-16.5 2q-37 0 -64 -23.5t-30 -51.5q-1 -2 -1 -4v-4v-223q0 -46 30.5 -76.5t68.5 -30.5q7 0 15 1t16 4q22 9 40.5 36t18.5 89v0z" />
    <glyph glyph-name="glyph70" unicode="c" horiz-adv-x="413" 
d="M375 111l16 -7q-17 -46 -41 -70t-50 -34q-15 -6 -30 -8t-29 -2q-94 0 -156.5 63.5t-62.5 159.5v10.5t1 10.5q7 76 63 139.5t155 63.5q61 0 104 -30t43 -74q0 -27 -15.5 -46t-41.5 -19q-31 0 -46.5 19.5t-15.5 42.5q0 6 2 12t4 11t4 8.5t4 7.5q5 9 10 15t5 11q0 2 -1.5 5
t-3.5 6q-6 6 -17.5 10.5t-31.5 4.5h-9.5t-8.5 -1q-35 -2 -63.5 -28.5t-28.5 -113.5v-126q0 -67 23 -106t87 -39q53 0 82.5 28.5t48.5 75.5v0z" />
    <glyph glyph-name="glyph71" unicode="d" horiz-adv-x="501" 
d="M323 0v54q-13 -22 -27.5 -35.5t-30.5 -19.5q-11 -5 -22 -7t-21 -2q-76 0 -138 61t-62 163q0 97 64 160t143 63q11 0 26 -3t30 -11q10 -6 19.5 -14t18.5 -19v245h-63v17h100q19 0 32 1t25 4q1 0 2 0.5t2 0.5v-641h63v-17h-161v0zM133 270l1 -133q0 -10 1 -26t6 -33
q7 -26 25.5 -48.5t57.5 -22.5h4h4q34 4 62.5 34t28.5 73v192q0 49 -15.5 72.5t-34.5 32.5q-14 7 -26 8t-19 1q-8 0 -17.5 -2t-19.5 -7q-22 -12 -40.5 -44.5t-17.5 -96.5v0z" />
    <glyph glyph-name="glyph72" unicode="e" horiz-adv-x="440" 
d="M401 119l17 -11q-37 -58 -80 -88t-101 -30q-83 0 -149 58t-66 165q0 90 57.5 157t143.5 67q16 0 36 -3t40 -11q40 -16 75 -58.5t40 -127.5h-280l1 -69q0 -9 0.5 -19t1.5 -20q4 -45 23 -82t73 -37q35 0 78 20.5t90 88.5v0zM134 253h176q2 68 -10.5 117.5t-71.5 49.5
q-38 0 -57 -17.5t-27 -38.5q-6 -14 -7.5 -27t-1.5 -21l-1 -63v0z" />
    <glyph glyph-name="glyph73" unicode="f" horiz-adv-x="294" 
d="M83 409h-56v17h56v33q0 77 31.5 122.5t69.5 63.5q14 7 28 10t26 3q44 0 71 -28t27 -62q0 -3 -1 -9t-4 -13q-4 -9 -12.5 -16.5t-24.5 -7.5q-20 0 -31.5 11.5t-11.5 27.5q0 14 5.5 21.5t12.5 13.5q1 0 1.5 0.5l1.5 1.5q5 5 7.5 10t2.5 13q0 10 -12 17t-26 8h-1.5h-1.5
q-41 0 -50.5 -40t-9.5 -88v-6.5v-6.5v-79h103v-17h-103v-392h63v-17h-224v17h63v392v0z" />
    <glyph glyph-name="glyph74" unicode="g" horiz-adv-x="452" 
d="M126 -67q-17 -15 -23.5 -29t-6.5 -24q0 -6 1.5 -15.5t6.5 -20.5q8 -16 30 -29.5t66 -13.5q75 0 119 32.5t57 70.5q3 9 4.5 17.5t1.5 16.5q0 22 -21 37t-83 15q-22 0 -51 -2.5t-65 -7.5h-9.5h-9.5q-44 3 -80.5 26.5t-36.5 72.5q0 32 13 52t29 32q14 9 25.5 13.5t15.5 5.5
q-26 17 -41 46.5t-15 64.5q0 66 46.5 102.5t101.5 40.5q4 1 8 1h8q15 0 31.5 -3t33.5 -10q7 -3 13.5 -6.5t13.5 -7.5q4 33 26.5 54.5t50.5 21.5h2.5h2.5q23 -2 42 -16.5t19 -38.5q0 -2 -0.5 -7.5t-3.5 -11.5q-3 -8 -10.5 -14.5t-21.5 -6.5q-17 0 -25 8.5t-11 18.5
q-1 5 -1.5 9.5t-0.5 8.5v3.5t1 3.5v3v3q0 5 -2.5 8t-5.5 4q-2 1 -3 1h-2q-3 0 -7 -1.5t-8 -5.5q-9 -6 -16.5 -20.5t-9.5 -35.5q24 -16 38 -44.5t15 -58.5v-3.5v-2.5q0 -11 -2.5 -24t-8.5 -26q-14 -35 -50 -64t-99 -29q-28 0 -50 6.5t-37 13.5q-1 1 -2.5 1.5t-2.5 1.5
q-28 -3 -43.5 -13.5t-15.5 -24.5v-5.5t1 -5.5q1 -18 12 -33t40 -15h2.5t2.5 1h3.5h2.5q21 2 41.5 3.5t41.5 2.5q21 0 41.5 1t41.5 1h6.5h7.5h7.5h6.5q7 0 21.5 -2t30.5 -9q20 -9 37 -28t20 -53q1 -4 1 -7.5v-7.5v-3.5v-3.5q-1 -1 -1 -3v-3q-7 -70 -71.5 -123.5t-162.5 -53.5
q-96 0 -137.5 34t-45.5 75v4v4q0 34 20 53t44 19q15 0 27.5 -11.5t17.5 -28.5v-1zM281 248q0 11 0.5 21.5t0.5 21.5v21t-1 21q-2 32 -17 56.5t-46 24.5q-6 0 -13.5 -1.5t-15.5 -4.5q-14 -7 -26 -24t-13 -51q-1 -19 -1 -38.5t1 -39.5q0 -5 0.5 -9.5t1.5 -9.5q4 -25 18 -46.5
t47 -21.5q28 0 41 14t18 31q3 10 4 19t1 16v0z" />
    <glyph glyph-name="glyph75" unicode="h" horiz-adv-x="529" 
d="M80 635h-63v17h100q13 0 23.5 0.5t20.5 1.5q4 1 8.5 2t8.5 2v-290q41 43 72.5 56t61.5 14h3.5h3.5q50 0 90 -24t40 -77v-320h63v-17h-217v17h56v320v0v1q0 4 -0.5 14t-4.5 20q-5 14 -18.5 26t-41.5 12q-15 0 -42.5 -9.5t-65.5 -56.5v-327h56v-17h-217v17h63v618v0z" />
    <glyph glyph-name="glyph76" unicode="i" horiz-adv-x="261" 
d="M20 17h63v392h-63v17h99h12.5h10.5q8 1 17 2t22 3v-414h63v-17h-224v17v0zM74 588q0 22 16.5 39t39.5 17q4 0 7.5 -0.5t7.5 -1.5q15 -5 28 -18.5t13 -35.5t-13 -35.5t-28 -18.5q-4 -1 -7.5 -1.5t-7.5 -0.5q-23 0 -39.5 17t-16.5 39v0z" />
    <glyph glyph-name="glyph77" unicode="j" horiz-adv-x="274" 
d="M101 409h-77v17h114h10.5h9.5q8 1 17 2t24 3v-491q0 -77 -46 -120.5t-102 -43.5q-52 0 -79 23t-27 58q0 20 14.5 33t37.5 13q22 0 34.5 -12t13.5 -26v-1.5v-1.5q0 -9 -2 -17t-5 -13q0 -1 -0.5 -2t-1.5 -2q-2 -5 -3.5 -9t-1.5 -8t3 -6.5t7 -3.5h3.5h2.5q25 1 39.5 20
t16.5 42v6v5v2v2v4v4q0 6 -0.5 12t-1.5 12v6v6v487v0zM92 588q0 22 16.5 39t39.5 17q4 0 7.5 -0.5t7.5 -1.5q15 -5 28 -18.5t13 -35.5t-13 -35.5t-28 -18.5q-4 -1 -7.5 -1.5t-7.5 -0.5q-23 0 -39.5 17t-16.5 39v0z" />
    <glyph glyph-name="glyph78" unicode="k" horiz-adv-x="498" 
d="M80 17v618h-63v17h100q26 0 38.5 1.5t22.5 4.5v-443l89 87q4 4 9.5 10t11.5 13q3 3 6 6.5t5 7.5q7 9 12 17.5t7 14.5q1 2 1.5 4.5t-0.5 5.5v4t-1 4q-3 9 -9.5 13t-13.5 6q-5 1 -9 1h-8h-11v17h176v-17q-20 -4 -38 -13t-35 -23q-9 -7 -17.5 -15t-17.5 -18l-51 -54
l170 -269h37v-17h-212v17h56l-123 198l-34 -34v-164h56v-17h-217v17h63v0z" />
    <glyph glyph-name="glyph79" unicode="l" horiz-adv-x="258" 
d="M80 635h-63v17h100q19 0 32 1t25 4q1 0 2 0.5t2 0.5v-641h63v-17h-224v17h63v618v0z" />
    <glyph glyph-name="glyph80" unicode="m" horiz-adv-x="765" 
d="M181 431v-63q19 21 36.5 34.5t35.5 21.5q14 7 29 10t30 3q46 0 77.5 -19t39.5 -54q36 43 69.5 58t65.5 15q49 0 85 -24.5t36 -75.5v-320h63v-17h-217v17h56v320v1.5v1.5q0 26 -11.5 48t-44.5 22q-30 0 -51.5 -17t-41.5 -43l-2.5 -2.5t-2.5 -3.5v-327h56v-17h-210v17h56
v320v0v1q0 4 -0.5 14t-4.5 20q-4 15 -15.5 26.5t-35.5 11.5q-19 0 -42.5 -11t-55.5 -55v-327h56v-17h-217v17h63v392h-63v17h100h4h4h6h5q8 0 16.5 1t25.5 4v0z" />
    <glyph glyph-name="glyph81" unicode="n" 
d="M83 409h-63v17h100h4h4h6h5q8 0 16.5 1t25.5 4v-63q41 43 72.5 56t61.5 14h3.5h3.5q50 0 90 -24t40 -77v-320h63v-17h-217v17h56v320v0v1q0 4 -0.5 14t-4.5 20q-6 15 -19.5 26.5t-40.5 11.5q-22 0 -47 -11t-61 -55v-327h56v-17h-217v17h63v392v0z" />
    <glyph glyph-name="glyph82" unicode="o" horiz-adv-x="477" 
d="M22 213q0 90 61.5 157t154.5 67q95 0 156 -68.5t61 -155.5t-61 -155t-156 -68t-155.5 67.5t-60.5 155.5v0zM135 285q-1 -19 -1 -37.5v-37.5q0 -102 19 -153t86 -51q60 0 82 47t22 158v1.5v1.5q0 77 -15.5 141.5t-88.5 64.5h-5.5t-5.5 -1q-34 -3 -62 -33.5t-31 -100.5v0z
" />
    <glyph glyph-name="glyph83" unicode="p" horiz-adv-x="501" 
d="M178 431v-60q2 5 7 13.5t13 17.5q12 13 31.5 24t48.5 11h1.5h1.5q74 -1 136 -63t62 -162q0 -91 -61.5 -156.5t-146.5 -65.5q-29 0 -47 8t-29 19q-6 5 -10 10.5t-7 9.5v-233h63v-17h-224v17h63v605h-63v17h99h12.5h10.5q8 1 17 2t22 3v0zM367 155v133q0 77 -27.5 103.5
t-62.5 26.5q-40 0 -69.5 -30.5t-29.5 -75.5v-223q0 -31 22.5 -52.5t50.5 -28.5q5 -2 11 -2.5t11 -0.5q8 0 17.5 2t20.5 8q21 11 38.5 42.5t17.5 97.5v0z" />
    <glyph glyph-name="glyph84" unicode="q" horiz-adv-x="501" 
d="M323 371v60q17 -3 25.5 -4t16.5 -1h5h6h4h4h100v-17h-63v-605h63v-17h-224v17h63v233q-9 -12 -19 -21t-21 -14q-15 -7 -29.5 -9.5t-24.5 -2.5q-83 0 -145 65t-62 157q0 101 62 163t138 62q32 0 59 -17t42 -49v0zM134 288l-1 -133q-1 -65 17 -97t39 -43q11 -6 21 -8t18 -2
t17.5 1t18.5 5q22 8 40.5 32t18.5 77v192q0 5 -0.5 10.5t-1.5 11.5q-7 31 -32 57.5t-65 26.5t-58.5 -23t-25.5 -50q-4 -16 -5 -31t-1 -26v0z" />
    <glyph glyph-name="glyph85" unicode="r" horiz-adv-x="395" 
d="M20 17h63v392h-63v17h100h10.5h9.5q8 1 17 2t24 3v-89q17 40 51 67t77 27q32 0 48.5 -10.5t24.5 -23.5q3 -6 4.5 -12t1.5 -11q0 -28 -14 -45.5t-36 -17.5q-21 0 -36 13.5t-15 33.5v4t1 4v4v4q0 13 -6.5 16t-18.5 3q-2 0 -5 -0.5t-5 -0.5q-27 -7 -49.5 -44.5t-22.5 -88.5
v-247h63v-17h-224v17v0z" />
    <glyph glyph-name="glyph86" unicode="s" horiz-adv-x="367" 
d="M22 -4v134h14q18 -52 58.5 -87.5t95.5 -35.5q40 0 68 16.5t28 45.5q0 8 -1 17.5t-5 19.5q-5 14 -19.5 27.5t-44.5 21.5l-81 23q-57 17 -79.5 51.5t-22.5 79.5q0 50 25 77.5t55 39.5q14 6 28.5 8.5t25.5 2.5q19 0 34.5 -3t26.5 -7q6 -2 10 -4t7 -3q2 -1 3.5 -1.5t3.5 -1.5
q3 -1 5.5 -2t5.5 -2q2 0 4.5 -0.5t4.5 -0.5q8 0 13 2.5t8 5.5q2 2 3 3.5t2 2.5h13v-118h-13q-25 63 -58 88t-70 25q-44 0 -66 -20t-23 -44v-1.5v-1.5q0 -24 11 -38.5t24 -21.5q6 -4 11.5 -6.5t10.5 -3.5l118 -37q42 -13 65.5 -40t23.5 -73q0 -69 -40 -101.5t-87 -39.5
q-9 -2 -18 -2.5t-18 -0.5q-22 0 -39 4.5t-31 9.5q-13 6 -20.5 10.5t-14.5 5.5q-1 1 -2.5 1h-2.5q-3 0 -6.5 -0.5t-6.5 -1.5q-7 -3 -13 -8.5t-10 -13.5l-14 -1v0z" />
    <glyph glyph-name="glyph87" unicode="t" horiz-adv-x="337" 
d="M20 426h82v141l98 35v-176h87v-17h-87v-329v-2v-2v-4t1 -9q2 -22 9.5 -30t16.5 -10q3 -1 6.5 -1h6.5h1.5h0.5q7 0 24 4.5t41 24.5l10 -12q-16 -15 -35 -26t-38 -17q-11 -3 -21.5 -5t-20.5 -2q-61 0 -80.5 32t-19.5 81v307h-82v17v0z" />
    <glyph glyph-name="glyph88" unicode="u" horiz-adv-x="529" 
d="M449 17h63v-17h-161v57q-5 -6 -10.5 -11.5l-10.5 -10.5q-33 -30 -64.5 -38.5t-54.5 -8.5q-65 0 -92 25.5t-34 57.5q-3 12 -4 24.5t-1 23.5v290h-63v17h100h4h4h6h5q8 0 16.5 1t25.5 4v-342q0 -4 1 -14t5 -21q6 -15 19.5 -26.5t40.5 -11.5q8 0 36.5 7t60.5 45q2 4 4.5 7
t5.5 7v327h-56v17h93h11h10q8 1 17.5 2t22.5 3v-414v0z" />
    <glyph glyph-name="glyph89" unicode="v" horiz-adv-x="477" 
d="M0 426h230v-17h-75l119 -291l91 215q1 2 2 5t2 7q0 2 0.5 3t0.5 3q1 4 2 8.5t1 7.5t-0.5 7.5t-2.5 8.5q-4 10 -15.5 18t-37.5 8v17h160v-17q-28 -2 -45 -15.5t-26 -30.5q-5 -8 -8.5 -16t-6.5 -14l-148 -344h-24l-175 420h-44v17v0z" />
    <glyph glyph-name="glyph90" unicode="w" horiz-adv-x="748" 
d="M0 409v17h204v-17h-49l130 -290l74 169l-54 121h-43v17h213v-17h-59l129 -290l82 203q5 11 7 20.5t1 16.5q0 20 -11 30.5t-25 14.5q-9 3 -17.5 4t-13.5 1v17h180v-17q-33 -4 -49 -19.5t-29 -42.5q-2 -5 -5 -11.5t-6 -13.5l-142 -333h-25l-117 264l-113 -264h-27l-192 420
h-43v0z" />
    <glyph glyph-name="glyph91" unicode="x" horiz-adv-x="502" 
d="M206 198l-145 211h-53v17h217v-17h-45l102 -146l45 66q2 2 3.5 4.5t3.5 4.5q0 1 0.5 1.5t1.5 0.5q5 7 10 15.5t5 22.5q0 13 -11.5 22.5t-41.5 8.5v17h173v-17h-15q-7 0 -14 -2t-14 -5q-17 -7 -32.5 -21t-27.5 -30l-77 -107l158 -227h45v-17h-221v17h58l-115 163l-63 -87
q-1 -1 -2.5 -3.5t-2.5 -4.5q-3 -7 -6 -16.5t-4 -20.5v-2v-2q0 -8 9.5 -15t20.5 -10q4 -1 7.5 -1.5t6.5 -0.5h8v-17h-182v17h8q28 0 51.5 15t40.5 34q10 10 17.5 19.5t12.5 16.5l68 96v0z" />
    <glyph glyph-name="glyph92" unicode="y" horiz-adv-x="467" 
d="M252 -29l-207 438h-45v17h216v-17h-63l147 -308l80 227q2 7 4 15.5t2 17.5q0 18 -11.5 33t-45.5 15h-9v17h161v-17q-28 -2 -43.5 -20t-25.5 -39q-3 -7 -6 -14.5t-5 -13.5l-177 -476q-12 -32 -32.5 -48t-43.5 -21q-5 -1 -10.5 -1.5t-10.5 -0.5q-46 0 -72 21t-29 46v2.5
v2.5q0 28 15 49t38 21q5 0 10.5 -0.5t11.5 -2.5q14 -4 25.5 -14.5t11.5 -30.5q0 -5 -1 -10.5t-3 -10.5l-2 -6l-2 -6q-1 -2 -1.5 -5t-0.5 -6q0 -8 9 -12.5t25 -4.5q11 0 19.5 6.5t13.5 14.5q4 6 6.5 11.5t3.5 8.5l47 122v0z" />
    <glyph glyph-name="glyph93" unicode="z" horiz-adv-x="406" 
d="M43 300l8 126h338l-246 -409h36q16 0 37 1.5t44 7.5q32 9 61 33t43 72h16l-8 -131h-358l249 409h-52q-67 0 -96 -25t-51 -72q-1 -3 -2.5 -6t-2.5 -6h-16v0z" />
    <glyph glyph-name="glyph94" unicode="{" horiz-adv-x="353" 
d="M295 728l5 -34q-6 -1 -14.5 -3.5t-16.5 -7.5q-17 -9 -31.5 -28.5t-14.5 -55.5q0 -16 1 -34t2 -38q1 -7 1.5 -13.5t0.5 -13.5q1 -13 1 -26.5t-1 -27.5q-4 -70 -31.5 -112.5t-89.5 -73.5q64 -30 90.5 -74.5t30.5 -110.5q1 -13 1 -26.5t-1 -27.5q0 -6 -0.5 -11.5t-0.5 -9.5
q-1 -7 -1.5 -13.5t-1.5 -14.5q0 -6 -0.5 -12t-0.5 -13v-12v-12q0 -38 22 -64.5t55 -30.5l-5 -35q-62 8 -93 38t-43 65q-10 28 -11.5 54t-1.5 39v2.5v2.5q0 8 0.5 17t1.5 18q0 9 0.5 18.5t0.5 18.5q0 95 -27.5 133.5t-65.5 40.5v41q5 1 11 2t11 3q27 10 49 47t22 122
q0 7 -0.5 15.5t-0.5 16.5v2.5v2.5q-1 10 -1.5 19t-0.5 17v2.5v2.5q0 13 1.5 39t11.5 54q12 35 43 65t93 37v0z" />
    <glyph glyph-name="glyph95" unicode="|" 
d="M231 -196v1053h70v-1053h-70v0z" />
    <glyph glyph-name="glyph96" unicode="}" horiz-adv-x="353" 
d="M58 -207l-5 34q31 5 54 29.5t23 66.5q0 16 -1 34t-2 38q-1 6 -1.5 12.5t-0.5 13.5q-1 14 -1 27.5t1 26.5q4 66 30.5 110.5t90.5 74.5q-61 31 -88.5 73.5t-32.5 112.5q-1 14 -1 27.5t1 26.5q0 5 0.5 10t1.5 10v3v3q1 6 1.5 12.5t0.5 11.5q0 6 0.5 12t0.5 13v12v12
q0 44 -22.5 66t-54.5 29l5 34q70 -8 100.5 -43t40.5 -75q6 -22 7 -43.5t1 -38.5q0 -9 -0.5 -17t-0.5 -16v-1v-2q0 -8 -0.5 -17t-0.5 -20q0 -98 28 -134.5t64 -39.5v-41q-39 -2 -58.5 -29.5t-26.5 -60.5q-5 -25 -6 -47t-1 -34v-1.5v-1.5q0 -10 0.5 -18t0.5 -16v-1.5v-0.5
q0 -9 0.5 -17.5t0.5 -18.5q0 -17 -1 -38.5t-7 -43.5q-10 -40 -40.5 -75t-100.5 -43v-1z" />
    <glyph glyph-name="glyph97" unicode="~" horiz-adv-x="518" 
d="M449 367h27q-14 -30 -29 -51t-30 -34q-13 -10 -25.5 -15t-24.5 -5q-19 0 -45 4t-72 14q-48 11 -70 14t-33 3h-5.5h-5.5q-14 -1 -27.5 -8t-24.5 -28h-28q18 42 53 75.5t81 33.5q13 0 29 -2t34 -5q10 -2 20.5 -4t20.5 -5q5 -1 9 -2l8 -2q39 -11 60.5 -15t37.5 -4
q9 0 17 7.5t14 16.5q3 3 5 6l4 6v0z" />
    <glyph glyph-name="uni007F" 
 />
    <glyph glyph-name="F" horiz-adv-x="762" 
d="M260 20v616h-37q-87 0 -125.5 -47t-48.5 -126h-27l18 192h552l18 -192h-27q-12 93 -48 127.5t-78 41.5q-12 3 -24 3.5t-24 0.5h-37v-312q29 17 70.5 31.5t95.5 14.5q11 0 22.5 -0.5t23.5 -2.5q58 -8 107 -48t49 -143q0 -83 -48.5 -135t-124.5 -52q-50 0 -74 23t-28 52
q0 3 -0.5 7t-0.5 7q0 27 16 40.5t36 16.5h3h4h4h3q19 -3 34.5 -16.5t15.5 -38.5q0 -15 -3.5 -24t-8.5 -13l-3.5 -3.5t-3.5 -2.5l-1.5 -1.5l-1.5 -1.5q-3 -2 -5 -6.5t-2 -11.5v-1.5t1 -0.5q1 -2 3.5 -4t5.5 -3q2 -1 4.5 -1.5t3.5 -0.5q28 0 38.5 25t12.5 54q1 9 1.5 18
t0.5 17v31.5v31.5v2v2q0 13 -0.5 28.5t-3.5 32.5q-6 35 -31 65t-88 30h-6h-7q-31 -2 -60 -12.5t-49 -21.5l-3 -1.5t-2 -1.5v-285h63v-20h-252v20h77v0z" />
    <glyph glyph-name="uni0081" horiz-adv-x="538" 
d="M231 635v-615h77v-20h-266v20h77v615h-77v20h477l12 -190h-24q-7 65 -28 99.5t-44 50.5q-22 14 -41.5 17t-28.5 3h-134v0z" />
    <glyph glyph-name="D" horiz-adv-x="691" 
d="M231 369h96q63 0 79 30.5t23 95.5q1 4 1.5 8t0.5 8q0 2 0.5 3.5t0.5 3.5q8 76 26 112t88 36q38 0 65.5 -25.5t27.5 -60.5q0 -5 -0.5 -10.5t-2.5 -11.5q-4 -18 -18.5 -33.5t-43.5 -15.5q-23 0 -37.5 11.5t-19.5 24.5q-1 3 -1.5 6t-0.5 6q0 11 2.5 22.5t6.5 26.5q1 5 1 9.5
v9.5v3v3q0 3 -3.5 5t-8.5 3h-3h-3q-23 0 -34 -23.5t-15 -52.5q-2 -13 -3 -26.5t-2 -23.5q0 -4 -0.5 -7.5t-0.5 -6.5q-5 -57 -17 -92t-60 -46v-5q4 -1 8 -1.5t7 -1.5l10 -2t10 -1q39 -7 75.5 -20.5t62.5 -65.5q9 -19 13.5 -46.5t6.5 -56.5q1 -5 1.5 -10t0.5 -11
q0 -2 0.5 -4.5t0.5 -5.5q3 -43 9 -75t25 -32q9 0 19 2t20 9q6 3 11 8t10 11l15 -14q-8 -9 -16 -16t-16 -13q-16 -10 -32 -15t-35 -5q-86 0 -110.5 50.5t-28.5 111.5q0 9 -0.5 19t-1.5 19v6v6q0 11 -1.5 29.5t-7.5 38.5q-8 30 -31.5 54.5t-72.5 24.5h-96v-329h77v-20h-266v20
h77v615h-77v20h266v-20h-77v-266v0z" />
    <glyph glyph-name="N" horiz-adv-x="816" 
d="M260 20v616h-37q-87 0 -125.5 -47t-48.5 -126h-27l18 192h552l18 -192h-27q-12 93 -48 127.5t-78 41.5q-12 3 -24 3.5t-24 0.5h-37v-312q45 26 88 36t78 10q14 0 29 -1t30 -5q48 -9 88 -41.5t40 -104.5v-198h77v-20h-259v20h70v197v0.5v0.5q0 10 -0.5 24.5t-5.5 29.5
q-7 26 -30.5 48t-77.5 22h-4.5h-5.5q-32 -2 -62.5 -12.5t-54.5 -24.5v-285h70v-20h-259v20h77v0z" />
    <glyph glyph-name="bullet" horiz-adv-x="745" 
d="M514 20v616h-70v19h259v-19h-77v-616h77v-20h-227q-6 -4 -16.5 -14t-22.5 -28q-16 -24 -29 -63t-15 -98l-34 -1q-1 24 -6 50.5t-16 54.5q-10 26 -26.5 52t-41.5 47h-227v20h77v616h-77v19h259v-19h-70v-616h283v0z" />
    <glyph glyph-name="guilsinglleft" horiz-adv-x="477" 
d="M184 518h182v-20h-182v-130q25 26 57 47.5t69 21.5q11 0 23 -2t24 -6q37 -15 67.5 -66.5t30.5 -173.5q0 -24 -6 -77.5t-30 -112.5q-23 -58 -68.5 -110.5t-124.5 -77.5v16q66 17 91.5 67.5t25.5 123.5v325q0 6 -0.5 12.5t-2.5 13.5q-3 15 -14 28t-34 13q-33 0 -59.5 -20
t-48.5 -46v-327h63v-17h-224v17h63v481h-92v20h92v117h-63v17h100q19 0 32 1t25 4q1 0 2 0.5t2 0.5v-140v0z" />
    <glyph glyph-name="O" horiz-adv-x="516" 
d="M181 234h36q39 0 55 20.5t23 44.5q1 6 2.5 11.5t2.5 10.5q11 54 27.5 85t65.5 31q30 0 54 -18.5t24 -51.5q0 -24 -13.5 -43t-40.5 -19q-23 0 -37.5 12.5t-14.5 30.5q0 6 1 11.5t2 10.5q0 1 0.5 2t0.5 2q1 2 1.5 4t0.5 4q0 10 -6 12t-14 2h-0.5h-1.5h-1.5h-0.5
q-7 0 -12 -12.5t-9 -27.5q-3 -12 -4.5 -22.5t-2.5 -15.5q0 -2 -0.5 -4t-1.5 -4q-8 -38 -19 -55.5t-32 -23.5v-3q75 -4 105 -29.5t39 -55.5q3 -11 5 -21.5t3 -20.5v-2v-2q3 -26 8.5 -46t24.5 -20q13 0 24 8.5t17 18.5l13 -7q-13 -28 -40 -44.5t-63 -16.5q-51 0 -65 32t-20 71
v4t-1 4q0 2 -0.5 4.5t-0.5 4.5q-10 73 -31.5 90.5t-59.5 17.5h-21l-22 -1v-200h63v-17h-224v17h63v392h-63v17h224v-17h-63v-175v0z" />
    <glyph glyph-name="tilde" horiz-adv-x="536" 
d="M185 518h182v-20h-182v-130q27 31 61 50t79 19q66 0 93 -26.5t34 -58.5q2 -12 3 -24t1 -22v-289h63v-17h-217v17h56v320q0 4 -1 14t-5 21q-6 15 -19.5 26.5t-40.5 11.5q-19 0 -46 -11t-61 -55v-327h56v-17h-217v17h63v481h-93v20h93v117h-63v17h99q20 0 32.5 1t23.5 3
q2 1 3.5 1.5t2.5 0.5v-140v0z" />
    <glyph glyph-name="uni00A0" unicode="&#xa0;" 
 />
    <glyph glyph-name="Z" unicode="&#xa1;" horiz-adv-x="622" 
d="M388 220l123 314q1 2 2 5l2 6q1 4 2.5 8.5t2.5 9.5q2 9 3.5 17t1.5 14q0 18 -11 30t-34 12h-14v19h170v-19q-6 0 -20 -2t-30 -12q-11 -8 -21 -20t-18 -32l-141 -365q-2 -4 -3.5 -7.5t-2.5 -6.5l-0.5 -1l-0.5 -1l-9.5 -19t-17.5 -36q-40 -88 -76.5 -116t-71.5 -28
q-57 0 -97 34t-40 81q0 32 17 55.5t49 23.5q29 0 46 -15.5t19 -34.5q1 -1 1 -3v-4q0 -9 -2.5 -15t-5.5 -11q-2 -2 -3 -4.5t-3 -4.5q-1 -1 -1.5 -2.5t-1.5 -2.5l-0.5 -0.5l-1.5 -1.5l-3 -3t-5 -4q-2 -1 -6 -4t-8 -7l-4 -4l-4 -4q-3 -3 -5 -6.5t-2 -6.5q0 -14 18 -26t51 -12
q29 0 48 20.5t34 45.5q3 5 5.5 9.5t5.5 9.5l-256 543h-69v19h275v-19h-84l197 -416v0zM340 695q-11 0 -22.5 1t-23.5 3q-44 8 -80.5 32t-36.5 68q0 28 17.5 42.5t38.5 15.5h1.5h1.5q26 0 39 -17.5t13 -38.5q0 -6 -2.5 -11.5t-6.5 -10.5l-4 -4l-4 -4l-0.5 -0.5l-1.5 -1.5
q-5 -5 -9 -10t-4 -13q0 -15 16 -21.5t35 -8.5q7 -1 14.5 -1.5t13.5 -0.5h6h6q6 0 13 0.5t15 1.5q19 1 35.5 7.5t16.5 22.5q0 5 -2 9t-5 8q-2 3 -4.5 5t-5.5 5h-0.5t-0.5 1q-6 4 -11 10.5t-5 16.5q0 4 0.5 7.5t1.5 7.5q4 15 16.5 28t34.5 13h4.5t4.5 -1q19 -3 35 -17.5
t16 -39.5q0 -51 -51.5 -77.5t-114.5 -26.5v0z" />
    <glyph glyph-name="cent" unicode="&#xa2;" horiz-adv-x="467" 
d="M252 -29l-207 438h-45v17h216v-17h-63l147 -308l80 227q2 7 4 15.5t2 17.5q0 18 -11.5 33t-45.5 15h-9v17h161v-17q-28 -2 -43.5 -20t-25.5 -39q-3 -7 -6 -14.5t-5 -13.5l-177 -476q-12 -32 -32.5 -48t-43.5 -21q-5 -1 -10.5 -1.5t-10.5 -0.5q-46 0 -72 21t-29 46v2.5
v2.5q0 28 15 49t38 21q5 0 10.5 -0.5t11.5 -2.5q14 -4 25.5 -14.5t11.5 -30.5q0 -5 -1 -10.5t-3 -10.5l-2 -6l-2 -6q-1 -2 -1.5 -5t-0.5 -6q0 -8 9 -12.5t25 -4.5q11 0 19.5 6.5t13.5 14.5q4 6 6.5 11.5t3.5 8.5l47 122v0zM265 483q-77 0 -115 34t-38 76q0 23 15.5 35.5
t34.5 14.5q3 1 5.5 1h5.5q19 0 30.5 -10.5t16.5 -23.5q1 -4 2 -8.5t1 -8.5q0 -7 -2 -13.5t-6 -11.5q-3 -4 -6 -6.5t-7 -4.5q-6 -3 -11 -4.5t-8 -1.5h-2t-2 -1q-4 -1 -8 -4t-4 -13q0 -12 18.5 -20t41.5 -11q5 -1 10.5 -1.5t10.5 -0.5h8h8h8h8q5 0 10.5 0.5t10.5 1.5
q22 3 40 10.5t18 20.5q0 12 -4 14.5t-9 3.5q-1 0 -2.5 0.5t-2.5 0.5q-16 3 -26 12.5t-10 28.5q0 20 13 35.5t37 15.5q26 0 43 -14t17 -37q0 -41 -35 -75.5t-115 -34.5v0z" />
    <glyph glyph-name="endash" unicode="&#xa3;" horiz-adv-x="454" 
d="M335 169l-2 -27q-5 -74 -54.5 -113t-109.5 -39q-57 0 -92 25t-50 56q-7 13 -10 25t-3 23q0 27 19 45.5t43 18.5q26 0 43 -16t17 -40q0 -17 -7.5 -28t-16.5 -19q-8 -8 -13 -11.5t-7 -5.5q-1 -1 -1.5 -2t-0.5 -2q0 -4 1.5 -9t3.5 -10q7 -12 22.5 -21.5t43.5 -9.5
q20 0 31 8.5t17 18.5q3 5 5 10.5t3 9.5q0 1 0.5 2t0.5 2q2 6 3.5 12t1.5 14v550h-77v19h266v-19h-77v-467v0z" />
    <glyph glyph-name="currency" unicode="&#xa4;" horiz-adv-x="774" 
d="M664 662l40 -40l-101 -100q23 -27 37 -57t20 -60q4 -15 5.5 -30t1.5 -30t-1.5 -30t-5.5 -30q-6 -30 -20 -60t-37 -57l101 -100l-40 -40l-100 101q-27 -22 -57 -36.5t-60 -20.5q-15 -4 -30 -5.5t-30 -1.5t-30 1.5t-30 5.5q-30 6 -60 20.5t-57 36.5l-100 -101l-40 40
l101 100q-22 27 -36.5 57t-20.5 60q-4 15 -5.5 30t-1.5 30t1.5 30t5.5 30q6 30 20.5 60t36.5 57l-101 100l40 40l100 -101q27 23 57 37t60 20q15 4 30 5.5t30 1.5t30 -1.5t30 -5.5q30 -6 60 -20t57 -37l100 101v0zM163 345q0 -96 66.5 -163t157.5 -67q92 0 158 67t66 163
t-66 163t-158 67q-91 0 -157.5 -67t-66.5 -163v0z" />
    <glyph glyph-name="emdash" unicode="&#xa5;" horiz-adv-x="542" 
d="M231 636v-616h77v-20h-266v20h77v616h-77v19h295q51 0 80 29t43 64q9 23 13.5 44t5.5 34h24l14 -270h-21q-12 30 -29 46t-35 24q-19 7 -36.5 8.5t-29.5 1.5h-0.5h-0.5h-134v0z" />
    <glyph glyph-name="circumflex" unicode="&#xa6;" horiz-adv-x="308" 
d="M98 45q0 23 17 39.5t39 16.5q4 0 7.5 -0.5t7.5 -1.5q15 -5 28 -18.5t13 -35.5q0 -24 -16 -39.5t-40 -15.5q-22 0 -35.5 12.5t-18.5 27.5q-1 4 -1.5 7.5t-0.5 7.5v0zM98 381q0 22 13 35.5t28 18.5q4 1 7.5 1.5t7.5 0.5q23 0 39.5 -17t16.5 -39q0 -4 -0.5 -7.5t-1.5 -7.5
q-5 -15 -18.5 -28t-35.5 -13q-24 0 -40 16t-16 40v0z" />
    <glyph glyph-name="scaron" unicode="&#xa7;" horiz-adv-x="542" 
d="M319 12l-152 65q-9 4 -21 11.5t-25 18.5q-24 21 -44.5 55.5t-20.5 82.5v9.5t1 8.5q5 46 33.5 86t76.5 49q-28 20 -47.5 58t-19.5 99q0 70 44 110t97 49q7 2 15 2.5t16 0.5q62 0 112 -39t50 -103q0 -23 -12 -35.5t-26 -15.5q-3 -1 -6.5 -1.5t-6.5 -0.5q-25 0 -37.5 16.5
t-12.5 38.5q0 15 6 23t13 15q1 0 1.5 0.5l1.5 1.5l7.5 7.5t5.5 8.5q1 3 1.5 5.5t0.5 5.5v3.5v3.5v2v2q0 16 -19 25.5t-42 13.5l-18 2t-17 1q-61 0 -93.5 -35.5t-33.5 -78.5v-1.5v-1.5q0 -37 17.5 -63.5t52.5 -40.5l165 -67q45 -18 72.5 -56t31.5 -89q1 -4 1 -7.5v-7.5v-3v-3
q-1 -2 -1 -3.5v-3.5l-2 -14t-3 -14q-10 -42 -41 -76.5t-78 -34.5q27 -13 44 -28t27 -30q11 -18 15 -35t4 -30q0 -8 -0.5 -16.5t-1.5 -16.5q-9 -63 -54 -116t-131 -53q-80 0 -128 40t-53 87q-1 3 -1 5.5v5.5q0 24 15.5 42.5t43.5 18.5q21 0 33.5 -15.5t12.5 -40.5
q0 -16 -5.5 -22.5t-13.5 -11.5l-1.5 -1.5t-1.5 -0.5q-2 -1 -4 -2.5t-5 -2.5q-4 -3 -7.5 -7t-3.5 -9t2.5 -11t7.5 -12q12 -17 38.5 -30.5t59.5 -13.5q11 0 24 1.5t27 5.5q32 8 58.5 31t26.5 67q0 37 -12.5 60.5t-27.5 37.5q-9 6 -17 11t-14 7v0zM365 309l-146 60
q-7 3 -16 4.5t-19 1.5h-6.5t-7.5 -1q-27 -3 -50 -20.5t-27 -52.5q0 -1 -0.5 -3t-0.5 -3v-3.5v-3.5v-2.5t1 -2.5v-3v-3q3 -28 22 -51.5t45 -34.5l180 -73q4 -1 9 -2t10 -1q6 0 12.5 1t13.5 3q23 8 42 28t19 53q0 4 -0.5 8t-0.5 8q-4 27 -23 52t-57 41v0z" />
    <glyph glyph-name="H" unicode="&#xa8;" horiz-adv-x="598" 
d="M119 20v616h-77v19h493l11 -189h-24q-11 80 -49.5 125t-115.5 45h-126v-276h37q9 0 21.5 1.5t26.5 7.5q21 9 38.5 34t20.5 77h20v-262h-20q0 2 -0.5 4.5t-1.5 4.5q-11 64 -29.5 88.5t-70.5 24.5h-42v-320h143q8 0 16.5 0.5t16.5 1.5q43 6 82 42.5t57 139.5h24l-21 -204
h-507v20h77v0zM202 714q-5 0 -11.5 0.5t-13.5 2.5q-12 3 -22.5 12.5t-10.5 30.5q0 27 16.5 35.5t41.5 8.5q28 0 40 -8t16 -18q1 -5 1.5 -9.5t0.5 -8.5q0 -3 -0.5 -6.5t-0.5 -7.5q-3 -12 -14.5 -22t-42.5 -10v0zM413 714q-5 0 -10 0.5t-11 1.5q-14 2 -25.5 11.5t-11.5 32.5
t14.5 33.5t43.5 10.5q28 0 40 -8t16 -18q1 -5 1.5 -9.5t0.5 -8.5q0 -3 -0.5 -6.5t-0.5 -7.5q-3 -12 -14.5 -22t-42.5 -10v0z" />
    <glyph glyph-name="I" unicode="&#xa9;" horiz-adv-x="762" 
d="M42 327v4.5v4.5q3 124 94.5 227t244.5 103q141 0 240 -99.5t99 -239.5q0 -139 -98.5 -238t-240.5 -99q-143 0 -241 99.5t-98 237.5v0zM70 327q0 -127 90 -218.5t221 -91.5q130 0 220.5 91.5t90.5 218.5q0 131 -93 221t-218 90q-126 0 -218.5 -90t-92.5 -221v0zM504 406
h-17q-1 9 -4.5 22.5t-9.5 27.5q-10 23 -32 43t-63 20q-36 0 -56 -24t-30 -52q-7 -23 -9.5 -43.5t-3.5 -28.5v-16v-16v-8v-8q2 -92 26 -133t53 -51q7 -3 14 -4t14 -1q41 0 75.5 35.5t45.5 90.5h17l-5 -137h-17q1 8 -2.5 13.5t-8.5 5.5q-7 0 -11 -1.5t-7 -4.5q-2 -1 -4.5 -3
t-5.5 -4q-8 -5 -25 -9t-53 -4q-93 0 -138 52t-54 114q-2 9 -2.5 18t-0.5 18q0 7 0.5 14.5t1.5 14.5q7 72 53 131.5t133 59.5q29 0 44 -2t24 -4q4 -2 7 -3l6 -2t6 -1.5t7 -0.5q1 0 1.5 0.5t1.5 0.5q3 2 5 5t3 7h15l6 -132v0z" />
    <glyph glyph-name="J" unicode="&#xaa;" horiz-adv-x="607" 
d="M558 240h21q-3 -21 -9 -48.5t-18 -56.5q-23 -55 -72 -100t-140 -45q-143 0 -215 104t-72 251q0 124 54 194t119 101q31 14 61 20.5t54 6.5q17 0 32.5 -2t26.5 -5q5 -1 8.5 -2t6.5 -2q4 -1 7 -2l6 -2q15 -5 25 -9t19 -5h1.5h1.5q14 0 22 6t14 18l2 4l2 4l24 1l5 -213
l-22 -1q-11 86 -48 138.5t-126 52.5q-14 0 -31.5 -3.5t-36.5 -13.5q-40 -20 -72.5 -75t-29.5 -166l1 -35l263 5v-20l-263 -4l2 -108q2 -119 55.5 -169t120.5 -50q71 0 127 59.5t74 171.5v0z" />
    <glyph glyph-name="ampersand" unicode="&#xab;" horiz-adv-x="380" 
d="M278 11l-9 -8q-55 64 -115.5 116t-125.5 93q65 41 125.5 92.5t115.5 116.5l9 -8q-31 -54 -66 -104t-73 -97q38 -46 73 -96.5t66 -104.5v0zM352 103l-10 -4q-29 33 -63.5 61.5t-74.5 51.5q40 24 74.5 52.5t63.5 61.5l10 -4q-13 -30 -30.5 -57.5t-39.5 -51.5
q22 -25 39.5 -52.5t30.5 -57.5v0z" />
    <glyph glyph-name="quotesingle" unicode="&#xac;" horiz-adv-x="741" 
d="M699 280v-182h-36v150h-621v32h657v0z" />
    <glyph glyph-name="daggerdbl" unicode="&#xad;" horiz-adv-x="351" 
d="M70 182v45h211v-45h-211v0z" />
    <glyph glyph-name="dagger" unicode="&#xae;" horiz-adv-x="769" 
d="M45 328q0 143 101.5 241.5t237.5 98.5q138 0 239 -98.5t101 -241.5q0 -139 -98.5 -238.5t-241.5 -99.5q-141 0 -240 99.5t-99 238.5v0zM73 328q0 -126 90.5 -218.5t220.5 -92.5q128 0 219.5 90.5t91.5 220.5q0 131 -91.5 221t-219.5 90q-125 0 -218 -90t-93 -221v0z
M329 152h43v-11h-167v11h44v348h-44v11h162q13 0 31.5 -0.5t38.5 -3.5q35 -5 64 -22t29 -56q0 -8 -2 -18t-8 -20q-10 -16 -34 -31t-72 -21v-3q20 -4 34 -9.5t24 -11.5q15 -8 22 -15.5t10 -12.5q6 -10 8.5 -26.5t4.5 -34.5q1 -3 1 -5v-5q3 -24 6.5 -42.5t13.5 -18.5
q2 0 6.5 2.5t8.5 5.5q1 1 2.5 1.5t2.5 1.5q3 3 5.5 5t4.5 4l9 -10q-12 -13 -22 -19.5t-19 -8.5q-6 -1 -12 -1.5t-13 -0.5q-39 0 -55 16t-21 69q-7 81 -21.5 96t-47.5 15h-37v-179v0zM329 342h31h8.5t8.5 1q24 2 44.5 18t20.5 68q0 42 -18.5 56.5t-59.5 14.5h-35v-158v0z" />
    <glyph glyph-name="macron" unicode="&#xaf;" horiz-adv-x="349" 
d="M119 20v616h-77v19h266v-19h-77v-616h77v-20h-266v20h77v0zM69 714q-5 0 -11.5 0.5t-13.5 2.5q-12 3 -22.5 12.5t-10.5 30.5q0 27 16.5 35.5t41.5 8.5q28 0 40 -8t16 -18q1 -5 1.5 -9.5t0.5 -8.5q0 -3 -0.5 -6.5t-0.5 -7.5q-3 -12 -14.5 -22t-42.5 -10v0zM280 714
q-5 0 -10 0.5t-11 1.5q-14 2 -25.5 11.5t-11.5 32.5t14.5 33.5t43.5 10.5t41 -8t15 -18q1 -5 1.5 -9.5t0.5 -8.5q0 -3 -0.5 -6.5t-0.5 -7.5q-3 -12 -14.5 -22t-42.5 -10v0z" />
    <glyph glyph-name="degree" unicode="&#xb0;" horiz-adv-x="294" 
d="M56 595q0 39 27 65t64 26t64 -26t27 -65q0 -37 -26.5 -64t-64.5 -27q-39 0 -65 27t-26 64v0zM81 595q0 -28 19.5 -47t46.5 -19q28 0 47 20t19 46q0 27 -19 46.5t-47 19.5q-27 0 -46.5 -19t-19.5 -47v0z" />
    <glyph glyph-name="at" unicode="&#xb1;" horiz-adv-x="672" 
d="M70 58v41h532v-41h-532v0zM358 175h-42v151h-246v43h246v194h42v-194h244v-43h-244v-151v0z" />
    <glyph glyph-name="P" unicode="&#xb2;" horiz-adv-x="350" 
d="M119 20v616h-77v19h266v-19h-77v-616h77v-20h-266v20h77v0z" />
    <glyph glyph-name="S" unicode="&#xb3;" horiz-adv-x="261" 
d="M20 17h63v392h-63v17h99h12.5h10.5q8 1 17 2t22 3v-414h63v-17h-224v17v0zM74 588q0 22 16.5 39t39.5 17q4 0 7.5 -0.5t7.5 -1.5q15 -5 28 -18.5t13 -35.5t-13 -35.5t-28 -18.5q-4 -1 -7.5 -1.5t-7.5 -0.5q-23 0 -39.5 17t-16.5 39v0z" />
    <glyph glyph-name="T" unicode="&#xb4;" horiz-adv-x="393" 
d="M83 17v392h-63v17h223q53 0 79 20.5t42 99.5h21v-216h-21q-9 39 -35.5 55t-55.5 21q-17 3 -33.5 3h-29.5h-6h-6h-17v-392h63v-17h-224v17h63v0z" />
    <glyph glyph-name="U" unicode="&#xb5;" horiz-adv-x="529" 
d="M449 17h63v-17h-161v57q-5 -6 -10 -11t-11 -10q-35 -32 -67 -40t-52 -8q-25 0 -44 8t-35 24h-4q2 -8 7 -27.5t11 -43.5q1 -4 2 -8.5t2 -8.5q6 -27 10.5 -51.5t4.5 -35.5q0 -42 -17.5 -56t-43.5 -14q-30 0 -41 15t-13 32q-1 6 -1 12v11q0 16 5 50t11 74q1 8 2 15.5t2 14.5
q4 33 7.5 64.5t3.5 55.5v307h98v-337q0 -31 19.5 -52t51.5 -21q29 0 52.5 16.5t39.5 36.5q3 3 5.5 6.5t4.5 6.5v344h98v-409v0z" />
    <glyph glyph-name="V" unicode="&#xb6;" horiz-adv-x="448" 
d="M209 -196v546q-77 2 -121 48.5t-52 101.5q-1 6 -1.5 12.5t-0.5 12.5v7t1 7q4 59 48.5 108.5t125.5 52.5h70v-896h-70v0zM349 -196v896h70v-896h-70v0z" />
    <glyph glyph-name="quoteleft" unicode="&#xb8;" horiz-adv-x="439" 
d="M400 119l17 -11q-36 -57 -84 -87.5t-117 -30.5q-79 0 -136.5 62.5t-57.5 160.5q0 90 57.5 157t142.5 67q16 0 36 -3t40 -11q40 -16 75 -58.5t40 -127.5h-280l1 -69q0 -9 0.5 -19t1.5 -20q4 -45 23 -82t73 -37q35 0 78 20.5t90 88.5v0zM133 253h176q2 68 -10.5 117.5
t-71.5 49.5q-38 0 -57 -17.5t-27 -38.5q-6 -14 -7.5 -27t-1.5 -21l-1 -63v0zM72 588q0 23 16 38.5t35 17.5h2.5h2.5q4 0 7.5 -0.5t7.5 -1.5q15 -5 28 -18.5t13 -35.5t-13 -35.5t-28 -18.5q-4 -1 -7.5 -1.5t-7.5 -0.5q-22 0 -39 17t-17 39v0zM254 588q0 22 16.5 39t39.5 17
q4 0 7.5 -0.5t7.5 -1.5q15 -5 28 -18.5t13 -35.5t-13 -35.5t-28 -18.5q-4 -1 -7.5 -1.5t-7.5 -0.5q-23 0 -39.5 17t-16.5 39v0z" />
    <glyph glyph-name="one" unicode="&#xb9;" horiz-adv-x="1109" 
d="M667 -11h-24l-376 562v-438q0 -61 -24 -92t-77 -31q-5 0 -9.5 0.5t-9.5 0.5q-39 5 -72 29.5t-33 68.5q0 37 18.5 55.5t46.5 18.5q22 0 35.5 -14.5t15.5 -31.5q1 -2 1 -3.5v-3.5q0 -9 -2.5 -17.5t-7.5 -16.5q-1 -1 -1.5 -2t-1.5 -2q-4 -7 -9 -12t-7 -9q-2 -3 -3 -5.5
t-1 -5.5q0 -2 0.5 -4.5t0.5 -4.5q3 -9 11 -16.5t25 -7.5q7 0 15.5 1t16.5 5q18 7 33 29t15 70v474q-2 19 -12.5 28.5t-22.5 13.5q-8 3 -16 3.5t-13 0.5h-25v23h175l314 -477v366q0 48 24.5 85t79.5 37q47 0 84.5 -30t37.5 -73q0 -30 -15.5 -49.5t-42.5 -19.5q-28 0 -43 17.5
t-15 39.5q0 15 4.5 23t10.5 14q1 1 2 2.5t2 2.5q5 4 8 9t3 13q0 2 -0.5 5t-2.5 6q-4 7 -12.5 13.5t-21.5 6.5q-32 0 -55.5 -25.5t-23.5 -77.5v-554v0zM1041 40v-24h-299v24h299v0zM725 266q0 76 50 117t110 46h6.5h6.5q69 0 119 -46t50 -120v-1.5v-1.5q-1 -61 -46.5 -111.5
t-121.5 -50.5q-65 0 -119.5 45.5t-54.5 122.5v0zM987 216v93q0 8 -1.5 16.5t-3.5 17.5q-8 26 -28 47t-55 21q-7 0 -15.5 -1t-16.5 -4q-23 -8 -42 -30t-19 -67v-84q0 -9 1.5 -21t5.5 -25q8 -23 27.5 -42.5t57.5 -19.5q7 0 17 1.5t21 5.5q19 8 35 29t16 63v0z" />
    <glyph glyph-name="G" unicode="&#xba;" horiz-adv-x="412" 
d="M379 111l16 -7q-17 -44 -40.5 -68t-47.5 -35q-16 -6 -32 -8.5t-30 -2.5q-103 0 -163 73t-60 161q0 96 63.5 155t148.5 59q21 0 35 -2.5t27 -6.5q2 0 4.5 -1t5.5 -2q10 -3 17.5 -5.5t13.5 -2.5q8 0 14 4.5t10 14.5h17l4 -150h-18q-1 10 -3 20.5t-5 21.5q-11 34 -37.5 62.5
t-76.5 28.5q-6 0 -11.5 -0.5t-11.5 -1.5q-32 -6 -58 -34t-26 -97v-57h175v-17h-175v-55q0 -76 23 -107t50 -39q10 -3 20.5 -4t19.5 -1q46 0 77.5 23.5t53.5 80.5v0z" />
    <glyph glyph-name="bracketleft" unicode="&#xbb;" horiz-adv-x="380" 
d="M103 413l8 8q55 -65 115.5 -116.5t125.5 -92.5q-65 -41 -125.5 -93t-115.5 -116l-8 8q30 54 64.5 104.5t73.5 96.5q-39 47 -73.5 97t-64.5 104v0zM28 322l11 4q29 -33 63 -61.5t74 -52.5q-40 -23 -74 -51.5t-63 -61.5l-11 4q14 30 31.5 57.5t38.5 52.5q-21 25 -38.5 52
t-31.5 57v0z" />
    <glyph glyph-name="w" unicode="&#xbc;" horiz-adv-x="274" 
d="M101 409h-77v17h114h10.5h9.5q8 1 17 2t24 3v-491q0 -77 -46 -120.5t-102 -43.5q-52 0 -79 23t-27 58q0 20 14.5 33t37.5 13q22 0 34.5 -12t13.5 -26v-1.5v-1.5q0 -9 -2 -17t-5 -13q0 -1 -0.5 -2t-1.5 -2q-2 -5 -3.5 -9t-1.5 -8t3 -6.5t7 -3.5h3.5h2.5q25 1 39.5 20
t16.5 42v6v5v2v2v4v4q0 6 -0.5 12t-1.5 12v6v6v487v0zM92 588q0 22 16.5 39t39.5 17q4 0 7.5 -0.5t7.5 -1.5q15 -5 28 -18.5t13 -35.5t-13 -35.5t-28 -18.5q-4 -1 -7.5 -1.5t-7.5 -0.5q-23 0 -39.5 17t-16.5 39v0z" />
    <glyph glyph-name="bracketright" unicode="&#xbd;" horiz-adv-x="530" 
d="M44 0l-2 209h13q31 -78 71.5 -121t81.5 -62q22 -9 43.5 -13t41.5 -4h6.5t6.5 1q48 3 88 33.5t40 85.5q0 12 -2 27t-8 31q-9 23 -31.5 44t-65.5 32l-118 32q-55 15 -98.5 60t-43.5 141q0 80 52 125t119 45q38 0 63.5 -5.5t43.5 -12.5q12 -5 22 -9.5t20 -6.5q4 -1 8 -1.5
t8 -0.5q8 0 13.5 7.5t9.5 17.5h16l4 -158h-14q-27 62 -61.5 95t-70.5 46q-15 5 -30 7.5t-29 2.5q-58 0 -92.5 -34.5t-34.5 -83.5q0 -52 27 -77t59 -36q10 -4 19 -6.5t18 -4.5l102 -27q64 -17 95.5 -51.5t43.5 -71.5q6 -18 8 -36t2 -34q0 -79 -49 -137.5t-135 -58.5
q-44 0 -75.5 7t-53.5 16q-5 2 -10 4.5t-10 4.5q-15 7 -24.5 11t-17.5 5h-1.5h-1.5q-16 0 -27.5 -10t-14.5 -28h-24v0z" />
    <glyph glyph-name="R" unicode="&#xbe;" horiz-adv-x="367" 
d="M22 -4v134h14q18 -52 58.5 -87.5t95.5 -35.5q40 0 68 16.5t28 45.5q0 8 -1 17.5t-5 19.5q-5 14 -19.5 27.5t-44.5 21.5l-81 23q-57 17 -79.5 51.5t-22.5 79.5q0 50 25 77.5t55 39.5q14 6 28.5 8.5t25.5 2.5q19 0 34.5 -3t26.5 -7q6 -2 10 -4t7 -3q2 -1 3.5 -1.5t3.5 -1.5
q3 -1 5.5 -2t5.5 -2q2 0 4.5 -0.5t4.5 -0.5q8 0 13 2.5t8 5.5q2 2 3 3.5t2 2.5h13v-118h-13q-25 63 -58 88t-70 25q-44 0 -66 -20t-23 -44v-1.5v-1.5q0 -24 11 -38.5t24 -21.5q6 -4 11.5 -6.5t10.5 -3.5l118 -37q42 -13 65.5 -40t23.5 -73q0 -69 -40 -101.5t-87 -39.5
q-9 -2 -18 -2.5t-18 -0.5q-22 0 -39 4.5t-31 9.5q-13 6 -20.5 10.5t-14.5 5.5q-1 1 -2.5 1h-2.5q-3 0 -6.5 -0.5t-6.5 -1.5q-7 -3 -13 -8.5t-10 -13.5l-14 -1v0z" />
    <glyph glyph-name="underscore" unicode="&#xbf;" horiz-adv-x="262" 
d="M40 17h63v392h-63v17h99h12.5h10.5q8 1 17 2t22 3v-414h63v-17h-224v17v0zM-2 588q1 21 12.5 32t26.5 13h2.5h2.5q20 0 32.5 -14t12.5 -31q0 -18 -12.5 -31.5t-32.5 -13.5h-2.5h-2.5q-15 2 -26.5 13t-11.5 32h-1zM173 588q0 17 13 31t32 14q20 0 33 -14t13 -31t-13 -31
t-33 -14q-17 0 -31 13t-14 32v0z" />
    <glyph glyph-name="grave" unicode="&#xc0;" horiz-adv-x="617" 
d="M431 20l-74 202h-196l-36 -89q-2 -4 -4 -9l-4 -10q-4 -9 -7.5 -21t-3.5 -26q0 -20 11 -32.5t53 -14.5v-20h-170v20q27 2 46.5 19t29.5 37q2 3 3.5 6t2.5 6l221 567h18l228 -635h68v-20h-275v20h89v0zM350 242l-86 248l-98 -248h184v0z" />
    <glyph glyph-name="grave" unicode="&#x410;" horiz-adv-x="617" 
d="M431 20l-74 202h-196l-36 -89q-2 -4 -4 -9l-4 -10q-4 -9 -7.5 -21t-3.5 -26q0 -20 11 -32.5t53 -14.5v-20h-170v20q27 2 46.5 19t29.5 37q2 3 3.5 6t2.5 6l221 567h18l228 -635h68v-20h-275v20h89v0zM350 242l-86 248l-98 -248h184v0z" />
    <glyph glyph-name="a" unicode="&#xc1;" horiz-adv-x="642" 
d="M231 635v-258q166 10 241 -27.5t100 -84.5q10 -20 13.5 -39t3.5 -34q0 -97 -53.5 -136.5t-118.5 -49.5q-25 -4 -50 -5t-46 -1h-279v20h77v615h-77v20h479l11 -183h-19q-5 21 -10 38.5t-10 31.5q-19 60 -45 76.5t-82 16.5h-135v0zM231 20h62h3.5h3.5q14 0 31 0.5t36 5.5
q36 8 66 40t30 111q0 112 -55 150t-177 32v-339v0z" />
    <glyph glyph-name="a" unicode="&#x411;" horiz-adv-x="642" 
d="M231 635v-258q166 10 241 -27.5t100 -84.5q10 -20 13.5 -39t3.5 -34q0 -97 -53.5 -136.5t-118.5 -49.5q-25 -4 -50 -5t-46 -1h-279v20h77v615h-77v20h479l11 -183h-19q-5 21 -10 38.5t-10 31.5q-19 60 -45 76.5t-82 16.5h-135v0zM231 20h62h3.5h3.5q14 0 31 0.5t36 5.5
q36 8 66 40t30 111q0 112 -55 150t-177 32v-339v0z" />
    <glyph glyph-name="b" unicode="&#xc2;" horiz-adv-x="665" 
d="M42 655h303q105 0 154 -27.5t67 -60.5q8 -16 11 -32.5t3 -28.5q0 -63 -54.5 -99t-119.5 -46q-6 -1 -11.5 -1.5t-11.5 -1.5v-5q101 -16 149 -47t65 -65q9 -17 12 -33t3 -31v-1.5v-1.5q-1 -65 -56 -119.5t-198 -54.5h-316v20h77v615h-77v20v0zM231 20h113q85 0 113.5 46.5
t28.5 104.5q0 81 -34.5 117.5t-76.5 48.5q-17 5 -33.5 6.5t-30.5 1.5h-80v-325v0zM231 365h73q87 0 115.5 36.5t32.5 80.5q1 6 1 11.5v11.5q0 77 -32.5 101t-70.5 28q-9 1 -17.5 1h-16.5h-85v-270v0z" />
    <glyph glyph-name="b" unicode="&#x412;" horiz-adv-x="665" 
d="M42 655h303q105 0 154 -27.5t67 -60.5q8 -16 11 -32.5t3 -28.5q0 -63 -54.5 -99t-119.5 -46q-6 -1 -11.5 -1.5t-11.5 -1.5v-5q101 -16 149 -47t65 -65q9 -17 12 -33t3 -31v-1.5v-1.5q-1 -65 -56 -119.5t-198 -54.5h-316v20h77v615h-77v20v0zM231 20h113q85 0 113.5 46.5
t28.5 104.5q0 81 -34.5 117.5t-76.5 48.5q-17 5 -33.5 6.5t-30.5 1.5h-80v-325v0zM231 365h73q87 0 115.5 36.5t32.5 80.5q1 6 1 11.5v11.5q0 77 -32.5 101t-70.5 28q-9 1 -17.5 1h-16.5h-85v-270v0z" />
    <glyph glyph-name="c" unicode="&#xc3;" horiz-adv-x="538" 
d="M231 635v-615h77v-20h-266v20h77v615h-77v20h477l12 -190h-24q-7 65 -28 99.5t-44 50.5q-22 14 -41.5 17t-28.5 3h-134v0z" />
    <glyph glyph-name="c" unicode="&#x413;" horiz-adv-x="538" 
d="M231 635v-615h77v-20h-266v20h77v615h-77v20h477l12 -190h-24q-7 65 -28 99.5t-44 50.5q-22 14 -41.5 17t-28.5 3h-134v0z" />
    <glyph glyph-name="d" unicode="&#xc4;" horiz-adv-x="671" 
d="M651 -179h-28q-14 76 -45.5 113t-66.5 52q-25 10 -49 12t-41 2h-208q-72 0 -114 -47t-63 -131l-28 -1l11 199h39q55 0 96.5 87.5t41.5 442.5q0 43 -13.5 63t-81.5 23v19h530v-19h-77v-616h89l8 -199v0zM442 20v616h-86q-91 0 -114 -22.5t-32 -142.5q-1 -16 -2.5 -35
t-2.5 -41q-8 -114 -18 -183.5t-21 -108.5q-11 -42 -22 -58.5t-19 -24.5h317v0z" />
    <glyph glyph-name="d" unicode="&#x414;" horiz-adv-x="671" 
d="M651 -179h-28q-14 76 -45.5 113t-66.5 52q-25 10 -49 12t-41 2h-208q-72 0 -114 -47t-63 -131l-28 -1l11 199h39q55 0 96.5 87.5t41.5 442.5q0 43 -13.5 63t-81.5 23v19h530v-19h-77v-616h89l8 -199v0zM442 20v616h-86q-91 0 -114 -22.5t-32 -142.5q-1 -16 -2.5 -35
t-2.5 -41q-8 -114 -18 -183.5t-21 -108.5q-11 -42 -22 -58.5t-19 -24.5h317v0z" />
    <glyph glyph-name="e" unicode="&#xc5;" horiz-adv-x="601" 
d="M119 20v616h-77v19h493l11 -189h-24q-11 80 -49.5 125t-115.5 45h-126v-276h36q9 0 18.5 0.5t20.5 3.5q23 7 43 31.5t26 84.5h20v-262h-20q0 2 -0.5 4.5t-1.5 4.5q-11 64 -29.5 88.5t-70.5 24.5h-42v-320h143q10 0 20.5 1t21.5 3q40 8 76.5 45.5t53.5 134.5h24l-21 -204
h-507v20h77v0z" />
    <glyph glyph-name="e" unicode="&#x415;" horiz-adv-x="601" 
d="M119 20v616h-77v19h493l11 -189h-24q-11 80 -49.5 125t-115.5 45h-126v-276h36q9 0 18.5 0.5t20.5 3.5q23 7 43 31.5t26 84.5h20v-262h-20q0 2 -0.5 4.5t-1.5 4.5q-11 64 -29.5 88.5t-70.5 24.5h-42v-320h143q10 0 20.5 1t21.5 3q40 8 76.5 45.5t53.5 134.5h24l-21 -204
h-507v20h77v0z" />
    <glyph glyph-name="f" unicode="&#xc6;" horiz-adv-x="1060" 
d="M586 368h82q65 0 80.5 34t21.5 87q0 5 0.5 10.5t1.5 11.5q0 3 0.5 6.5t0.5 6.5q7 61 24 101.5t90 40.5q38 0 65 -24t27 -62v-4v-4q-2 -23 -17.5 -43t-46.5 -20q-27 0 -43.5 15t-16.5 33q0 11 2 21t5 19q3 10 3.5 17t0.5 13v2v2q0 3 -3.5 5t-8.5 3h-3h-3
q-21 0 -31.5 -19.5t-15.5 -43.5q-1 -9 -2 -18.5t-2 -17.5q-1 -10 -2 -19t-1 -18q-7 -71 -18.5 -98t-43.5 -39v-11q3 -1 6 -1.5t5 -1.5q57 -12 98.5 -34t60.5 -90q5 -15 6.5 -36.5t2.5 -44.5q0 -3 0.5 -7t0.5 -8q2 -42 8 -75.5t26 -33.5q9 0 19 2t20 9q6 3 11 8t10 11l15 -14
q-12 -13 -22 -21.5t-20 -14.5q-13 -7 -26.5 -10t-30.5 -3q-95 0 -116 59.5t-25 150.5q0 9 -1.5 29t-9.5 42q-9 29 -32 53t-70 24h-82v-328h77v-20h-266v20h77v328h-82q-47 0 -70 -24t-32 -53q-8 -22 -9.5 -42t-1.5 -29q-4 -91 -25 -150.5t-116 -59.5q-17 0 -30.5 3t-26.5 10
q-10 6 -20 14.5t-22 21.5l15 14q5 -6 10 -11t11 -8q10 -7 20.5 -9t18.5 -2q21 0 26.5 36.5t7.5 80.5q1 1 1 2.5v2.5v2.5v3.5q0 4 0.5 7.5t0.5 6.5q1 18 2.5 34.5t5.5 28.5q19 68 60.5 90t98.5 34q2 1 5 1.5t6 1.5v11q-35 13 -46.5 50.5t-14.5 80.5q-1 7 -1.5 14t-0.5 14
q-2 45 -10.5 79.5t-42.5 34.5h-3h-3q-5 -1 -8.5 -3t-3.5 -5v-2v-2q0 -6 0.5 -13t3.5 -17q3 -9 5 -19t2 -21q0 -18 -16.5 -33t-43.5 -15q-31 0 -46.5 20t-17.5 43v4v4q0 38 27 62t65 24q73 0 90 -40.5t24 -101.5q0 -3 0.5 -6.5t0.5 -6.5q1 -6 1.5 -11.5t0.5 -10.5
q6 -53 21.5 -87t80.5 -34h82v268h-77v19h266v-19h-77v-268v0z" />
    <glyph glyph-name="f" unicode="&#x416;" horiz-adv-x="1060" 
d="M586 368h82q65 0 80.5 34t21.5 87q0 5 0.5 10.5t1.5 11.5q0 3 0.5 6.5t0.5 6.5q7 61 24 101.5t90 40.5q38 0 65 -24t27 -62v-4v-4q-2 -23 -17.5 -43t-46.5 -20q-27 0 -43.5 15t-16.5 33q0 11 2 21t5 19q3 10 3.5 17t0.5 13v2v2q0 3 -3.5 5t-8.5 3h-3h-3
q-21 0 -31.5 -19.5t-15.5 -43.5q-1 -9 -2 -18.5t-2 -17.5q-1 -10 -2 -19t-1 -18q-7 -71 -18.5 -98t-43.5 -39v-11q3 -1 6 -1.5t5 -1.5q57 -12 98.5 -34t60.5 -90q5 -15 6.5 -36.5t2.5 -44.5q0 -3 0.5 -7t0.5 -8q2 -42 8 -75.5t26 -33.5q9 0 19 2t20 9q6 3 11 8t10 11l15 -14
q-12 -13 -22 -21.5t-20 -14.5q-13 -7 -26.5 -10t-30.5 -3q-95 0 -116 59.5t-25 150.5q0 9 -1.5 29t-9.5 42q-9 29 -32 53t-70 24h-82v-328h77v-20h-266v20h77v328h-82q-47 0 -70 -24t-32 -53q-8 -22 -9.5 -42t-1.5 -29q-4 -91 -25 -150.5t-116 -59.5q-17 0 -30.5 3t-26.5 10
q-10 6 -20 14.5t-22 21.5l15 14q5 -6 10 -11t11 -8q10 -7 20.5 -9t18.5 -2q21 0 26.5 36.5t7.5 80.5q1 1 1 2.5v2.5v2.5v3.5q0 4 0.5 7.5t0.5 6.5q1 18 2.5 34.5t5.5 28.5q19 68 60.5 90t98.5 34q2 1 5 1.5t6 1.5v11q-35 13 -46.5 50.5t-14.5 80.5q-1 7 -1.5 14t-0.5 14
q-2 45 -10.5 79.5t-42.5 34.5h-3h-3q-5 -1 -8.5 -3t-3.5 -5v-2v-2q0 -6 0.5 -13t3.5 -17q3 -9 5 -19t2 -21q0 -18 -16.5 -33t-43.5 -15q-31 0 -46.5 20t-17.5 43v4v4q0 38 27 62t65 24q73 0 90 -40.5t24 -101.5q0 -3 0.5 -6.5t0.5 -6.5q1 -6 1.5 -11.5t0.5 -10.5
q6 -53 21.5 -87t80.5 -34h82v268h-77v19h266v-19h-77v-268v0z" />
    <glyph glyph-name="g" unicode="&#xc7;" horiz-adv-x="585" 
d="M91 452h-19l20 214h19q1 -2 2.5 -4t3.5 -5q4 -4 11 -7.5t17 -3.5q20 0 29.5 2t16.5 5q2 1 4 1.5t4 1.5q11 4 31 7t67 3q89 0 152.5 -40.5t63.5 -115.5q0 -14 -5 -35t-23 -43t-53.5 -42.5t-96.5 -34.5v-6q79 -13 138 -61t59 -119q0 -76 -66 -127.5t-206 -51.5
q-81 0 -148 38t-67 108q0 40 19 61.5t48 21.5q27 0 44 -15.5t20 -34.5q1 -1 1 -3v-4q0 -6 -1 -13.5t-5 -14.5q-3 -7 -9 -13t-16 -12q-2 -1 -5.5 -3t-6.5 -3q-7 -4 -12.5 -9.5t-5.5 -14.5q0 -4 1.5 -8.5t4.5 -9.5q12 -20 48.5 -36.5t89.5 -16.5q60 0 103 34.5t43 125.5
q0 72 -22 108t-48 51q-17 9 -32.5 12t-25.5 3l-87 -1v20l83 1q50 0 73 25t31 55q6 20 7 38.5t1 29.5q0 10 -0.5 21t-1.5 23q-5 34 -26 62.5t-78 28.5q-91 0 -133 -52.5t-56 -140.5v0z" />
    <glyph glyph-name="g" unicode="&#x417;" horiz-adv-x="585" 
d="M91 452h-19l20 214h19q1 -2 2.5 -4t3.5 -5q4 -4 11 -7.5t17 -3.5q20 0 29.5 2t16.5 5q2 1 4 1.5t4 1.5q11 4 31 7t67 3q89 0 152.5 -40.5t63.5 -115.5q0 -14 -5 -35t-23 -43t-53.5 -42.5t-96.5 -34.5v-6q79 -13 138 -61t59 -119q0 -76 -66 -127.5t-206 -51.5
q-81 0 -148 38t-67 108q0 40 19 61.5t48 21.5q27 0 44 -15.5t20 -34.5q1 -1 1 -3v-4q0 -6 -1 -13.5t-5 -14.5q-3 -7 -9 -13t-16 -12q-2 -1 -5.5 -3t-6.5 -3q-7 -4 -12.5 -9.5t-5.5 -14.5q0 -4 1.5 -8.5t4.5 -9.5q12 -20 48.5 -36.5t89.5 -16.5q60 0 103 34.5t43 125.5
q0 72 -22 108t-48 51q-17 9 -32.5 12t-25.5 3l-87 -1v20l83 1q50 0 73 25t31 55q6 20 7 38.5t1 29.5q0 10 -0.5 21t-1.5 23q-5 34 -26 62.5t-78 28.5q-91 0 -133 -52.5t-56 -140.5v0z" />
    <glyph glyph-name="h" unicode="&#xc8;" horiz-adv-x="757" 
d="M231 116l295 454v65h-70v20h259v-20h-77v-615h77v-20h-259v20h70v514l-295 -459v-55h70v-20h-259v20h77v615h-77v20h259v-20h-70v-519v0z" />
    <glyph glyph-name="h" unicode="&#x418;" horiz-adv-x="757" 
d="M231 116l295 454v65h-70v20h259v-20h-77v-615h77v-20h-259v20h70v514l-295 -459v-55h70v-20h-259v20h77v615h-77v20h259v-20h-70v-519v0z" />
    <glyph glyph-name="i" unicode="&#xc9;" horiz-adv-x="757" 
d="M231 116l295 454v65h-70v20h259v-20h-77v-615h77v-20h-259v20h70v514l-295 -459v-55h70v-20h-259v20h77v615h-77v20h259v-20h-70v-519v0zM378 695q-77 0 -120.5 30.5t-43.5 73.5q0 24 14 38t31 18q3 1 7 1.5t7 0.5q26 0 39 -17.5t13 -38.5q0 -11 -4.5 -17t-10.5 -11
l-0.5 -0.5l-1.5 -1.5t-2.5 -2t-2.5 -2q-4 -4 -7 -9.5t-3 -11.5q0 -14 15 -20.5t33 -9.5q9 -1 16.5 -1.5t14.5 -0.5h3.5h3.5h3h3q5 0 11 0.5t12 0.5q21 2 38.5 8t17.5 23q0 6 -2.5 10.5t-5.5 7.5q-2 3 -4 5l-3 3t-3 2.5t-3 2.5q-5 4 -8.5 9.5t-3.5 14.5q0 22 14 39t38 17h4.5
t4.5 -1q19 -3 35 -17.5t16 -39.5q0 -51 -51 -77.5t-114 -26.5v0z" />
    <glyph glyph-name="i" unicode="&#x419;" horiz-adv-x="757" 
d="M231 116l295 454v65h-70v20h259v-20h-77v-615h77v-20h-259v20h70v514l-295 -459v-55h70v-20h-259v20h77v615h-77v20h259v-20h-70v-519v0zM378 695q-77 0 -120.5 30.5t-43.5 73.5q0 24 14 38t31 18q3 1 7 1.5t7 0.5q26 0 39 -17.5t13 -38.5q0 -11 -4.5 -17t-10.5 -11
l-0.5 -0.5l-1.5 -1.5t-2.5 -2t-2.5 -2q-4 -4 -7 -9.5t-3 -11.5q0 -14 15 -20.5t33 -9.5q9 -1 16.5 -1.5t14.5 -0.5h3.5h3.5h3h3q5 0 11 0.5t12 0.5q21 2 38.5 8t17.5 23q0 6 -2.5 10.5t-5.5 7.5q-2 3 -4 5l-3 3t-3 2.5t-3 2.5q-5 4 -8.5 9.5t-3.5 14.5q0 22 14 39t38 17h4.5
t4.5 -1q19 -3 35 -17.5t16 -39.5q0 -51 -51 -77.5t-114 -26.5v0z" />
    <glyph glyph-name="j" unicode="&#xca;" horiz-adv-x="691" 
d="M231 369h96q63 0 79 30.5t23 95.5q1 4 1.5 8t0.5 8q0 2 0.5 3.5t0.5 3.5q8 76 26 112t88 36q38 0 65.5 -25.5t27.5 -60.5q0 -5 -0.5 -10.5t-2.5 -11.5q-4 -18 -18.5 -33.5t-43.5 -15.5q-23 0 -37.5 11.5t-19.5 24.5q-1 3 -1.5 6t-0.5 6q0 11 2.5 22.5t6.5 26.5q1 5 1 9.5
v9.5v3v3q0 3 -3.5 5t-8.5 3h-3h-3q-23 0 -34 -23.5t-15 -52.5q-2 -13 -3 -26.5t-2 -23.5q0 -4 -0.5 -7.5t-0.5 -6.5q-5 -57 -17 -92t-60 -46v-5q4 -1 8 -1.5t7 -1.5l10 -2t10 -1q39 -7 75.5 -20.5t62.5 -65.5q9 -19 13.5 -46.5t6.5 -56.5q1 -5 1.5 -10t0.5 -11
q0 -2 0.5 -4.5t0.5 -5.5q3 -43 9 -75t25 -32q9 0 19 2t20 9q6 3 11 8t10 11l15 -14q-8 -9 -16 -16t-16 -13q-16 -10 -32 -15t-35 -5q-86 0 -110.5 50.5t-28.5 111.5q0 9 -0.5 19t-1.5 19v6v6q0 11 -1.5 29.5t-7.5 38.5q-8 30 -31.5 54.5t-72.5 24.5h-96v-329h77v-20h-266v20
h77v615h-77v20h266v-20h-77v-266v0z" />
    <glyph glyph-name="j" unicode="&#x41a;" horiz-adv-x="691" 
d="M231 369h96q63 0 79 30.5t23 95.5q1 4 1.5 8t0.5 8q0 2 0.5 3.5t0.5 3.5q8 76 26 112t88 36q38 0 65.5 -25.5t27.5 -60.5q0 -5 -0.5 -10.5t-2.5 -11.5q-4 -18 -18.5 -33.5t-43.5 -15.5q-23 0 -37.5 11.5t-19.5 24.5q-1 3 -1.5 6t-0.5 6q0 11 2.5 22.5t6.5 26.5q1 5 1 9.5
v9.5v3v3q0 3 -3.5 5t-8.5 3h-3h-3q-23 0 -34 -23.5t-15 -52.5q-2 -13 -3 -26.5t-2 -23.5q0 -4 -0.5 -7.5t-0.5 -6.5q-5 -57 -17 -92t-60 -46v-5q4 -1 8 -1.5t7 -1.5l10 -2t10 -1q39 -7 75.5 -20.5t62.5 -65.5q9 -19 13.5 -46.5t6.5 -56.5q1 -5 1.5 -10t0.5 -11
q0 -2 0.5 -4.5t0.5 -5.5q3 -43 9 -75t25 -32q9 0 19 2t20 9q6 3 11 8t10 11l15 -14q-8 -9 -16 -16t-16 -13q-16 -10 -32 -15t-35 -5q-86 0 -110.5 50.5t-28.5 111.5q0 9 -0.5 19t-1.5 19v6v6q0 11 -1.5 29.5t-7.5 38.5q-8 30 -31.5 54.5t-72.5 24.5h-96v-329h77v-20h-266v20
h77v615h-77v20h266v-20h-77v-266v0z" />
    <glyph glyph-name="k" unicode="&#xcb;" horiz-adv-x="693" 
d="M462 636h-112q-80 0 -94.5 -50.5t-16.5 -208.5q0 -32 -0.5 -70t-1.5 -81v-6v-6q-4 -131 -18.5 -177.5t-83.5 -46.5q-54 0 -86 25t-32 69q0 32 18.5 53t50.5 21q27 0 43 -14.5t19 -32.5v-2.5v-2.5q0 -10 -3.5 -22.5t-12.5 -25.5q-4 -7 -7 -14.5t-3 -17.5q0 -4 3.5 -7.5
t8.5 -4.5q1 -1 2.5 -1h2.5q55 0 71 80.5t16 177.5q0 27 -0.5 54.5t-1.5 53.5q-1 27 -1.5 51t-0.5 43v15.5v15.5v15v15q0 8 -0.5 16.5t-1.5 17.5q-4 26 -22 47.5t-65 21.5h-10.5t-11.5 -1v19h540v-19h-77v-616h77v-20h-266v20h77v616v0z" />
    <glyph glyph-name="k" unicode="&#x41b;" horiz-adv-x="693" 
d="M462 636h-112q-80 0 -94.5 -50.5t-16.5 -208.5q0 -32 -0.5 -70t-1.5 -81v-6v-6q-4 -131 -18.5 -177.5t-83.5 -46.5q-54 0 -86 25t-32 69q0 32 18.5 53t50.5 21q27 0 43 -14.5t19 -32.5v-2.5v-2.5q0 -10 -3.5 -22.5t-12.5 -25.5q-4 -7 -7 -14.5t-3 -17.5q0 -4 3.5 -7.5
t8.5 -4.5q1 -1 2.5 -1h2.5q55 0 71 80.5t16 177.5q0 27 -0.5 54.5t-1.5 53.5q-1 27 -1.5 51t-0.5 43v15.5v15.5v15v15q0 8 -0.5 16.5t-1.5 17.5q-4 26 -22 47.5t-65 21.5h-10.5t-11.5 -1v19h540v-19h-77v-616h77v-20h-266v20h77v616v0z" />
    <glyph glyph-name="l" unicode="&#xcc;" horiz-adv-x="847" 
d="M429 148l187 507h189v-19h-77v-616h77v-20h-266v20h77v575l-222 -607h-18l-232 602v-487q0 -37 9.5 -57t66.5 -26v-20h-178v20q35 -2 51.5 13t23.5 33q4 11 5 21t1 17v475q0 28 -12 40t-26 15q-6 1 -12 1.5t-11 0.5h-18l1 19h189l195 -507v0z" />
    <glyph glyph-name="l" unicode="&#x41c;" horiz-adv-x="847" 
d="M429 148l187 507h189v-19h-77v-616h77v-20h-266v20h77v575l-222 -607h-18l-232 602v-487q0 -37 9.5 -57t66.5 -26v-20h-178v20q35 -2 51.5 13t23.5 33q4 11 5 21t1 17v475q0 28 -12 40t-26 15q-6 1 -12 1.5t-11 0.5h-18l1 19h189l195 -507v0z" />
    <glyph glyph-name="m" unicode="&#xcd;" horiz-adv-x="757" 
d="M231 340v-320h70v-20h-259v20h77v616h-77v19h259v-19h-70v-276h295v276h-70v19h259v-19h-77v-616h77v-20h-259v20h70v320h-295v0z" />
    <glyph glyph-name="m" unicode="&#x41d;" horiz-adv-x="757" 
d="M231 340v-320h70v-20h-259v20h77v616h-77v19h259v-19h-70v-276h295v276h-70v19h259v-19h-77v-616h77v-20h-259v20h70v320h-295v0z" />
    <glyph glyph-name="n" unicode="&#xce;" horiz-adv-x="731" 
d="M50 328q0 144 85.5 231.5t187.5 103.5q11 1 21.5 2t20.5 1q122 0 219 -95t97 -243q0 -139 -77.5 -223t-170.5 -106q-17 -5 -34 -7t-34 -2q-25 0 -53.5 5.5t-58.5 17.5q-76 33 -139.5 110t-63.5 205v0zM365 647q-12 0 -25 -2t-26 -6q-52 -16 -95 -84t-43 -227
q0 -158 42.5 -226t93.5 -85q14 -5 27 -7t26 -2t26.5 2t27.5 7q51 18 93.5 86t42.5 225q0 144 -36 211t-79 90q-20 11 -39.5 14.5t-35.5 3.5v0z" />
    <glyph glyph-name="n" unicode="&#x41e;" horiz-adv-x="731" 
d="M50 328q0 144 85.5 231.5t187.5 103.5q11 1 21.5 2t20.5 1q122 0 219 -95t97 -243q0 -139 -77.5 -223t-170.5 -106q-17 -5 -34 -7t-34 -2q-25 0 -53.5 5.5t-58.5 17.5q-76 33 -139.5 110t-63.5 205v0zM365 647q-12 0 -25 -2t-26 -6q-52 -16 -95 -84t-43 -227
q0 -158 42.5 -226t93.5 -85q14 -5 27 -7t26 -2t26.5 2t27.5 7q51 18 93.5 86t42.5 225q0 144 -36 211t-79 90q-20 11 -39.5 14.5t-35.5 3.5v0z" />
    <glyph glyph-name="o" unicode="&#xcf;" horiz-adv-x="757" 
d="M231 636v-616h70v-20h-259v20h77v616h-77v19h673v-19h-77v-616h77v-20h-259v20h70v616h-295v0z" />
    <glyph glyph-name="o" unicode="&#x41f;" horiz-adv-x="757" 
d="M231 636v-616h70v-20h-259v20h77v616h-77v19h673v-19h-77v-616h77v-20h-259v20h70v616h-295v0z" />
    <glyph glyph-name="p" unicode="&#xd0;" horiz-adv-x="628" 
d="M119 20v616h-77v19h288q21 0 51 -3t62 -13q53 -16 98 -57.5t45 -125.5q0 -73 -52 -134.5t-205 -61.5h-98v-240h77v-20h-266v20h77v0zM231 279h69q73 0 106 26t44 58q5 14 7 28.5t3 25.5v18v19v6v6v12v12q0 11 -1.5 29t-8.5 37q-11 30 -44.5 55t-105.5 25h-69v-357v0z" />
    <glyph glyph-name="p" unicode="&#x420;" horiz-adv-x="628" 
d="M119 20v616h-77v19h288q21 0 51 -3t62 -13q53 -16 98 -57.5t45 -125.5q0 -73 -52 -134.5t-205 -61.5h-98v-240h77v-20h-266v20h77v0zM231 279h69q73 0 106 26t44 58q5 14 7 28.5t3 25.5v18v19v6v6v12v12q0 11 -1.5 29t-8.5 37q-11 30 -44.5 55t-105.5 25h-69v-357v0z" />
    <glyph glyph-name="q" unicode="&#xd1;" horiz-adv-x="590" 
d="M538 218h24l-8 -218h-26q0 3 -1 8t-3 10q-3 9 -9.5 15.5t-18.5 6.5q-10 0 -20.5 -4.5t-21.5 -11.5q-5 -3 -12 -7t-17 -8q-17 -7 -41.5 -13t-56.5 -6q-110 0 -187.5 82t-86.5 213q0 8 -0.5 16t-0.5 16t0.5 16t0.5 16q9 133 89 225t205 92q25 0 45 -5t36 -10q16 -6 29 -11
t23 -5q4 0 9 0.5t11 3.5t11 9t9 18h24l2 -213h-22q-10 87 -46.5 140.5t-124.5 53.5q-14 0 -30.5 -3t-34.5 -11q-41 -18 -75 -72.5t-34 -168.5v-162q0 -92 30.5 -139t67.5 -65q21 -11 40.5 -14.5t33.5 -3.5q9 0 18.5 1t19.5 3q46 12 88 58t61 148v0z" />
    <glyph glyph-name="q" unicode="&#x421;" horiz-adv-x="590" 
d="M538 218h24l-8 -218h-26q0 3 -1 8t-3 10q-3 9 -9.5 15.5t-18.5 6.5q-10 0 -20.5 -4.5t-21.5 -11.5q-5 -3 -12 -7t-17 -8q-17 -7 -41.5 -13t-56.5 -6q-110 0 -187.5 82t-86.5 213q0 8 -0.5 16t-0.5 16t0.5 16t0.5 16q9 133 89 225t205 92q25 0 45 -5t36 -10q16 -6 29 -11
t23 -5q4 0 9 0.5t11 3.5t11 9t9 18h24l2 -213h-22q-10 87 -46.5 140.5t-124.5 53.5q-14 0 -30.5 -3t-34.5 -11q-41 -18 -75 -72.5t-34 -168.5v-162q0 -92 30.5 -139t67.5 -65q21 -11 40.5 -14.5t33.5 -3.5q9 0 18.5 1t19.5 3q46 12 88 58t61 148v0z" />
    <glyph glyph-name="Scaron" unicode="&#xd2;" horiz-adv-x="634" 
d="M261 20v616q-110 2 -155 -42.5t-56 -144.5h-28l5 206h580l5 -206h-28q-12 113 -59 150t-152 37v-616h77v-20h-266v20h77v0z" />
    <glyph glyph-name="Scaron" unicode="&#x422;" horiz-adv-x="634" 
d="M261 20v616q-110 2 -155 -42.5t-56 -144.5h-28l5 206h580l5 -206h-28q-12 113 -59 150t-152 37v-616h77v-20h-266v20h77v0z" />
    <glyph glyph-name="r" unicode="&#xd3;" horiz-adv-x="622" 
d="M388 220l123 314q1 2 2 5l2 6q1 4 2.5 8.5t2.5 9.5q2 9 3.5 17t1.5 14q0 18 -11 30t-34 12h-14v19h170v-19q-6 0 -20 -2t-30 -12q-11 -8 -21 -20t-18 -32l-141 -365q-2 -4 -3.5 -7.5t-2.5 -6.5l-0.5 -1l-0.5 -1l-9.5 -19t-17.5 -36q-40 -88 -76.5 -116t-71.5 -28
q-57 0 -97 34t-40 81q0 32 17 55.5t49 23.5q29 0 46 -15.5t19 -34.5q1 -1 1 -3v-4v-3t-1 -3q-1 -6 -3.5 -12.5t-5.5 -11.5q-3 -4 -5.5 -7.5t-3.5 -4.5q-2 -3 -5.5 -5t-6.5 -4q-1 -1 -2 -1.5t-2 -1.5q-8 -4 -14.5 -10.5t-6.5 -16.5q0 -14 18 -26t51 -12q29 0 48 20.5t34 45.5
q3 5 5.5 9.5t5.5 9.5l-256 543h-69v19h275v-19h-84l197 -416v0z" />
    <glyph glyph-name="r" unicode="&#x423;" horiz-adv-x="622" 
d="M388 220l123 314q1 2 2 5l2 6q1 4 2.5 8.5t2.5 9.5q2 9 3.5 17t1.5 14q0 18 -11 30t-34 12h-14v19h170v-19q-6 0 -20 -2t-30 -12q-11 -8 -21 -20t-18 -32l-141 -365q-2 -4 -3.5 -7.5t-2.5 -6.5l-0.5 -1l-0.5 -1l-9.5 -19t-17.5 -36q-40 -88 -76.5 -116t-71.5 -28
q-57 0 -97 34t-40 81q0 32 17 55.5t49 23.5q29 0 46 -15.5t19 -34.5q1 -1 1 -3v-4v-3t-1 -3q-1 -6 -3.5 -12.5t-5.5 -11.5q-3 -4 -5.5 -7.5t-3.5 -4.5q-2 -3 -5.5 -5t-6.5 -4q-1 -1 -2 -1.5t-2 -1.5q-8 -4 -14.5 -10.5t-6.5 -16.5q0 -14 18 -26t51 -12q29 0 48 20.5t34 45.5
q3 5 5.5 9.5t5.5 9.5l-256 543h-69v19h275v-19h-84l197 -416v0z" />
    <glyph glyph-name="t" unicode="&#xd4;" horiz-adv-x="886" 
d="M499 662v-57h1.5h1.5q128 -3 235 -48.5t107 -184.5q0 -97 -68.5 -170.5t-276.5 -75.5v-106h77v-20h-266v20h77v106q-182 1 -263.5 64.5t-81.5 181.5q0 134 101.5 182t243.5 51v57h-77v20h266v-20h-77v0zM387 146v441q-101 2 -146.5 -33t-60.5 -77q-8 -23 -10 -45t-2 -38
v-65q0 -15 1.5 -33t6.5 -36q12 -44 57 -80t154 -34v0zM499 587v-441q104 -1 161.5 41t57.5 142v65q0 16 -2 38t-10 45q-15 42 -60.5 77t-146.5 33v0z" />
    <glyph glyph-name="t" unicode="&#x424;" horiz-adv-x="886" 
d="M499 662v-57h1.5h1.5q128 -3 235 -48.5t107 -184.5q0 -97 -68.5 -170.5t-276.5 -75.5v-106h77v-20h-266v20h77v106q-182 1 -263.5 64.5t-81.5 181.5q0 134 101.5 182t243.5 51v57h-77v20h266v-20h-77v0zM387 146v441q-101 2 -146.5 -33t-60.5 -77q-8 -23 -10 -45t-2 -38
v-65q0 -15 1.5 -33t6.5 -36q12 -44 57 -80t154 -34v0zM499 587v-441q104 -1 161.5 41t57.5 142v65q0 16 -2 38t-10 45q-15 42 -60.5 77t-146.5 33v0z" />
    <glyph glyph-name="u" unicode="&#xd5;" horiz-adv-x="700" 
d="M364 409l100 153q2 3 4 9t3 12q1 5 1.5 10t0.5 8q0 2 -0.5 3.5t-0.5 3.5q-4 10 -18.5 19t-38.5 9h-14v19h219v-19q-38 -3 -62 -13t-45 -33q-7 -8 -14 -18t-15 -22l-105 -162l241 -368h58v-20h-266v20h78l-186 280l-116 -179q-1 -1 -2 -3l-2 -4q-2 -4 -4 -9t-3 -11
q-2 -4 -2.5 -8t-0.5 -8q0 -5 1 -10t3 -10q6 -13 22.5 -24.5t51.5 -13.5v-20h-230v20q47 11 75.5 29t52.5 55l142 217l-212 315h-58v19h256v-19h-65l151 -227v0z" />
    <glyph glyph-name="u" unicode="&#x425;" horiz-adv-x="700" 
d="M364 409l100 153q2 3 4 9t3 12q1 5 1.5 10t0.5 8q0 2 -0.5 3.5t-0.5 3.5q-4 10 -18.5 19t-38.5 9h-14v19h219v-19q-38 -3 -62 -13t-45 -33q-7 -8 -14 -18t-15 -22l-105 -162l241 -368h58v-20h-266v20h78l-186 280l-116 -179q-1 -1 -2 -3l-2 -4q-2 -4 -4 -9t-3 -11
q-2 -4 -2.5 -8t-0.5 -8q0 -5 1 -10t3 -10q6 -13 22.5 -24.5t51.5 -13.5v-20h-230v20q47 11 75.5 29t52.5 55l142 217l-212 315h-58v19h256v-19h-65l151 -227v0z" />
    <glyph glyph-name="zero" unicode="&#xd6;" horiz-adv-x="753" 
d="M522 20v616h-70v19h258v-19h-76v-616h73l24 -202h-24q-16 99 -67.5 140.5t-158.5 41.5h-439v20h77v616h-77v19h259v-19h-70v-616h291v0z" />
    <glyph glyph-name="zero" unicode="&#x426;" horiz-adv-x="753" 
d="M522 20v616h-70v19h258v-19h-76v-616h73l24 -202h-24q-16 99 -67.5 140.5t-158.5 41.5h-439v20h77v616h-77v19h259v-19h-70v-616h291v0z" />
    <glyph glyph-name="parenright" unicode="&#xd7;" horiz-adv-x="675" 
d="M444 350v286h-70v19h259v-19h-77v-616h77v-20h-266v20h77v311q-25 -9 -51.5 -16t-54.5 -11q-15 -3 -30 -4t-30 -1t-34 1.5t-39 6.5q-43 10 -78.5 39t-35.5 91v199h-77v19h259v-19h-70v-197v-0.5v-0.5q0 -9 0.5 -21.5t4.5 -26.5q8 -24 31 -43.5t78 -19.5q26 0 50.5 4
t44.5 9q10 3 18.5 5.5t13.5 4.5v0z" />
    <glyph glyph-name="parenright" unicode="&#x427;" horiz-adv-x="675" 
d="M444 350v286h-70v19h259v-19h-77v-616h77v-20h-266v20h77v311q-25 -9 -51.5 -16t-54.5 -11q-15 -3 -30 -4t-30 -1t-34 1.5t-39 6.5q-43 10 -78.5 39t-35.5 91v199h-77v19h259v-19h-70v-197v-0.5v-0.5q0 -9 0.5 -21.5t4.5 -26.5q8 -24 31 -43.5t78 -19.5q26 0 50.5 4
t44.5 9q10 3 18.5 5.5t13.5 4.5v0z" />
    <glyph glyph-name="x" unicode="&#xd8;" horiz-adv-x="1074" 
d="M119 636h-77v19h259v-19h-70v-616h250v616h-70v19h252v-19h-70v-616h250v616h-70v19h259v-19h-77v-616h77v-20h-990v20h77v616v0z" />
    <glyph glyph-name="x" unicode="&#x428;" horiz-adv-x="1074" 
d="M119 636h-77v19h259v-19h-70v-616h250v616h-70v19h252v-19h-70v-616h250v616h-70v19h259v-19h-77v-616h77v-20h-990v20h77v616v0z" />
    <glyph glyph-name="y" unicode="&#xd9;" horiz-adv-x="1074" 
d="M843 20v616h-70v19h259v-19h-77v-616h73l24 -202h-24q-16 99 -66.5 140.5t-159.5 41.5h-760v20h77v616h-77v19h259v-19h-70v-616h250v616h-70v19h252v-19h-70v-616h250v0z" />
    <glyph glyph-name="y" unicode="&#x429;" horiz-adv-x="1074" 
d="M843 20v616h-70v19h259v-19h-77v-616h73l24 -202h-24q-16 99 -66.5 140.5t-159.5 41.5h-760v20h77v616h-77v19h259v-19h-70v-616h250v616h-70v19h252v-19h-70v-616h250v0z" />
    <glyph glyph-name="z" unicode="&#xda;" horiz-adv-x="737" 
d="M355 362h87q22 0 52 -1.5t62 -8.5q58 -12 105.5 -48t47.5 -115q0 -102 -55 -139.5t-121 -45.5q-20 -3 -40.5 -3.5t-39.5 -0.5h-287v20h77v616q-106 5 -145.5 -37.5t-59.5 -158.5h-24l15 215h403v-19h-77v-274v0zM355 20h121q6 0 12.5 0.5t13.5 1.5q30 5 54.5 27.5
t25.5 77.5l1 77q1 58 -23 98.5t-116 40.5h-89v-323v0z" />
    <glyph glyph-name="z" unicode="&#x42a;" horiz-adv-x="737" 
d="M355 362h87q22 0 52 -1.5t62 -8.5q58 -12 105.5 -48t47.5 -115q0 -102 -55 -139.5t-121 -45.5q-20 -3 -40.5 -3.5t-39.5 -0.5h-287v20h77v616q-106 5 -145.5 -37.5t-59.5 -158.5h-24l15 215h403v-19h-77v-274v0zM355 20h121q6 0 12.5 0.5t13.5 1.5q30 5 54.5 27.5
t25.5 77.5l1 77q1 58 -23 98.5t-116 40.5h-89v-323v0z" />
    <glyph glyph-name="braceleft" unicode="&#xdb;" horiz-adv-x="936" 
d="M231 362h86q22 0 51 -1.5t59 -7.5q59 -11 108 -47t49 -117q0 -100 -54 -138t-118 -47q-22 -2 -43.5 -3t-40.5 -1h-286v20h77v616h-77v20l266 -1v-19h-77v-274v0zM231 20h120q48 0 70 19.5t30 43.5q4 12 5.5 23.5t1.5 20.5v77q0 58 -23 98.5t-115 40.5h-89v-323v0zM712 20
v616h-77v19h259v-19h-70v-616h70v-20h-259v20h77v0z" />
    <glyph glyph-name="braceleft" unicode="&#x42b;" horiz-adv-x="936" 
d="M231 362h86q22 0 51 -1.5t59 -7.5q59 -11 108 -47t49 -117q0 -100 -54 -138t-118 -47q-22 -2 -43.5 -3t-40.5 -1h-286v20h77v616h-77v20l266 -1v-19h-77v-274v0zM231 20h120q48 0 70 19.5t30 43.5q4 12 5.5 23.5t1.5 20.5v77q0 58 -23 98.5t-115 40.5h-89v-323v0zM712 20
v616h-77v19h259v-19h-70v-616h70v-20h-259v20h77v0z" />
    <glyph glyph-name="bar" unicode="&#xdc;" horiz-adv-x="613" 
d="M231 362h87q22 0 52 -1.5t62 -8.5q58 -12 105.5 -48t47.5 -115q0 -102 -55 -139.5t-121 -45.5q-20 -3 -40.5 -3.5t-39.5 -0.5h-287v20h77v616h-77v19h266v-19h-77v-274v0zM231 20h121q45 0 67 17.5t30 39.5q6 15 7.5 29t1.5 21l1 77q1 58 -23 98.5t-116 40.5h-89v-323v0z
" />
    <glyph glyph-name="bar" unicode="&#x42c;" horiz-adv-x="613" 
d="M231 362h87q22 0 52 -1.5t62 -8.5q58 -12 105.5 -48t47.5 -115q0 -102 -55 -139.5t-121 -45.5q-20 -3 -40.5 -3.5t-39.5 -0.5h-287v20h77v616h-77v19h266v-19h-77v-274v0zM231 20h121q45 0 67 17.5t30 39.5q6 15 7.5 29t1.5 21l1 77q1 58 -23 98.5t-116 40.5h-89v-323v0z
" />
    <glyph glyph-name="braceright" unicode="&#xdd;" horiz-adv-x="586" 
d="M73 449h-27l26 217h24q0 -2 0.5 -5t2.5 -6q2 -6 8 -11t17 -5q10 0 21 2t29 9q6 2 11.5 4t10.5 3q14 4 29 6.5t38 2.5q137 0 204 -92.5t76 -203.5q0 -9 0.5 -18t0.5 -18q0 -151 -81 -247.5t-220 -96.5q-91 0 -146.5 38.5t-65.5 85.5q-2 6 -2.5 11.5t-0.5 10.5q0 32 16 51
t35 24q3 1 6.5 1.5t6.5 0.5q26 0 46 -15.5t20 -44.5q0 -22 -8.5 -32.5t-18.5 -17.5q-1 0 -2 -1t-2 -1q-3 -2 -5.5 -4.5t-5.5 -4.5q-6 -5 -7.5 -11.5t-1.5 -14.5q0 -21 30 -36t66 -20q8 -1 16 -1.5t16 -0.5q6 0 11.5 0.5t11.5 0.5q60 6 110 58.5t50 193.5v77h-264v19h264v86
q0 14 -1 28t-4 29q-9 55 -44.5 100.5t-111.5 45.5q-67 0 -105 -37.5t-57 -82.5q-9 -21 -14 -41t-8 -36v0z" />
    <glyph glyph-name="braceright" unicode="&#x42d;" horiz-adv-x="586" 
d="M73 449h-27l26 217h24q0 -2 0.5 -5t2.5 -6q2 -6 8 -11t17 -5q10 0 21 2t29 9q6 2 11.5 4t10.5 3q14 4 29 6.5t38 2.5q137 0 204 -92.5t76 -203.5q0 -9 0.5 -18t0.5 -18q0 -151 -81 -247.5t-220 -96.5q-91 0 -146.5 38.5t-65.5 85.5q-2 6 -2.5 11.5t-0.5 10.5q0 32 16 51
t35 24q3 1 6.5 1.5t6.5 0.5q26 0 46 -15.5t20 -44.5q0 -22 -8.5 -32.5t-18.5 -17.5q-1 0 -2 -1t-2 -1q-3 -2 -5.5 -4.5t-5.5 -4.5q-6 -5 -7.5 -11.5t-1.5 -14.5q0 -21 30 -36t66 -20q8 -1 16 -1.5t16 -0.5q6 0 11.5 0.5t11.5 0.5q60 6 110 58.5t50 193.5v77h-264v19h264v86
q0 14 -1 28t-4 29q-9 55 -44.5 100.5t-111.5 45.5q-67 0 -105 -37.5t-57 -82.5q-9 -21 -14 -41t-8 -36v0z" />
    <glyph glyph-name="asciitilde" unicode="&#xde;" horiz-adv-x="1048" 
d="M119 20v616h-77v19h266v-19h-77v-284h136q16 138 103 226t211 88q120 0 217 -90t97 -248q0 -133 -83.5 -235.5t-230.5 -102.5q-142 0 -226.5 104.5t-87.5 237.5h-136v-312h77v-20h-266v20h77v0zM493 328q0 -136 32 -202.5t70 -91.5q25 -17 48.5 -21.5t37.5 -4.5
q11 0 22 1.5t22 4.5q54 15 99 83t45 231q0 162 -45 230t-99 83q-11 3 -22 4.5t-22 1.5q-13 0 -37.5 -4.5t-50.5 -23.5q-38 -26 -69 -92t-31 -199v0z" />
    <glyph glyph-name="asciitilde" unicode="&#x42e;" horiz-adv-x="1048" 
d="M119 20v616h-77v19h266v-19h-77v-284h136q16 138 103 226t211 88q120 0 217 -90t97 -248q0 -133 -83.5 -235.5t-230.5 -102.5q-142 0 -226.5 104.5t-87.5 237.5h-136v-312h77v-20h-266v20h77v0zM493 328q0 -136 32 -202.5t70 -91.5q25 -17 48.5 -21.5t37.5 -4.5
q11 0 22 1.5t22 4.5q54 15 99 83t45 231q0 162 -45 230t-99 83q-11 3 -22 4.5t-22 1.5q-13 0 -37.5 -4.5t-50.5 -23.5q-38 -26 -69 -92t-31 -199v0z" />
    <glyph glyph-name="germandbls" unicode="&#xdf;" horiz-adv-x="696" 
d="M465 20v316h-94h-1.5h-1.5q-58 0 -88 -21.5t-43 -149.5q-1 -6 -1.5 -11.5t-0.5 -10.5q-7 -62 -25 -107.5t-96 -45.5q-8 0 -16.5 1t-17.5 4q-20 5 -39 16.5t-33 31.5l16 16q2 -3 5.5 -6.5t8.5 -6.5q3 -4 7.5 -7t9.5 -6q6 -3 11.5 -5.5t10.5 -2.5q18 0 26 34t13 75l2 20
t2 19q2 18 3.5 32.5t4.5 23.5q11 38 40.5 61.5t63.5 35.5q18 7 36 11t33 6v5q-16 1 -35 4.5t-39 10.5q-44 15 -80.5 48.5t-36.5 97.5q0 95 82.5 120t181.5 26h5h4h271v-19h-77v-616h77v-20h-266v20h77v0zM465 356v280h-76q-91 0 -119.5 -29.5t-32.5 -65.5q-1 -8 -1 -15.5
v-15.5q0 -10 0.5 -20.5t1.5 -20.5q6 -43 37.5 -78t119.5 -35h70v0z" />
    <glyph glyph-name="germandbls" unicode="&#x42f;" horiz-adv-x="696" 
d="M465 20v316h-94h-1.5h-1.5q-58 0 -88 -21.5t-43 -149.5q-1 -6 -1.5 -11.5t-0.5 -10.5q-7 -62 -25 -107.5t-96 -45.5q-8 0 -16.5 1t-17.5 4q-20 5 -39 16.5t-33 31.5l16 16q2 -3 5.5 -6.5t8.5 -6.5q3 -4 7.5 -7t9.5 -6q6 -3 11.5 -5.5t10.5 -2.5q18 0 26 34t13 75l2 20
t2 19q2 18 3.5 32.5t4.5 23.5q11 38 40.5 61.5t63.5 35.5q18 7 36 11t33 6v5q-16 1 -35 4.5t-39 10.5q-44 15 -80.5 48.5t-36.5 97.5q0 95 82.5 120t181.5 26h5h4h271v-19h-77v-616h77v-20h-266v20h77v0zM465 356v280h-76q-91 0 -119.5 -29.5t-32.5 -65.5q-1 -8 -1 -15.5
v-15.5q0 -10 0.5 -20.5t1.5 -20.5q6 -43 37.5 -78t119.5 -35h70v0z" />
    <glyph glyph-name="agrave" unicode="&#xe0;" horiz-adv-x="470" 
d="M456 53l14 -13q-7 -10 -15 -18t-16 -13q-21 -14 -40.5 -16.5t-28.5 -2.5q-31 0 -48.5 14t-26.5 31q-3 5 -5 9.5t-3 9.5q-49 -43 -83.5 -53.5t-62.5 -10.5q-56 0 -86 31.5t-30 77.5q0 72 63.5 107t165.5 35h16.5t16.5 -1v112v10.5t-1 10.5q-3 18 -16 32t-50 14
q-24 0 -44 -5.5t-20 -16.5q0 -3 0.5 -6.5t1.5 -6.5q1 -4 2 -7.5t3 -6.5q1 -2 1.5 -3.5t1.5 -3.5l2 -4t3 -4q3 -5 5.5 -11t2.5 -14q0 -24 -15.5 -43t-45.5 -19q-28 0 -45 18.5t-17 50.5q0 45 50.5 72.5t114.5 27.5q91 0 123 -27t38 -59q2 -10 2.5 -19t0.5 -18v-260v-6.5
t1 -7.5q2 -7 6.5 -13t15.5 -6q4 0 8 1t8 3q6 3 12.5 8t11.5 10q2 3 4.5 5.5t3.5 4.5v0zM287 85v139q-77 2 -113.5 -21t-36.5 -103q0 -41 21.5 -55t47.5 -14q7 0 16 2.5t18 7.5q11 5 21.5 12.5t17.5 14.5q4 5 6 9t2 8v0z" />
    <glyph glyph-name="agrave" unicode="&#x430;" horiz-adv-x="470" 
d="M456 53l14 -13q-7 -10 -15 -18t-16 -13q-21 -14 -40.5 -16.5t-28.5 -2.5q-31 0 -48.5 14t-26.5 31q-3 5 -5 9.5t-3 9.5q-49 -43 -83.5 -53.5t-62.5 -10.5q-56 0 -86 31.5t-30 77.5q0 72 63.5 107t165.5 35h16.5t16.5 -1v112v10.5t-1 10.5q-3 18 -16 32t-50 14
q-24 0 -44 -5.5t-20 -16.5q0 -3 0.5 -6.5t1.5 -6.5q1 -4 2 -7.5t3 -6.5q1 -2 1.5 -3.5t1.5 -3.5l2 -4t3 -4q3 -5 5.5 -11t2.5 -14q0 -24 -15.5 -43t-45.5 -19q-28 0 -45 18.5t-17 50.5q0 45 50.5 72.5t114.5 27.5q91 0 123 -27t38 -59q2 -10 2.5 -19t0.5 -18v-260v-6.5
t1 -7.5q2 -7 6.5 -13t15.5 -6q4 0 8 1t8 3q6 3 12.5 8t11.5 10q2 3 4.5 5.5t3.5 4.5v0zM287 85v139q-77 2 -113.5 -21t-36.5 -103q0 -41 21.5 -55t47.5 -14q7 0 16 2.5t18 7.5q11 5 21.5 12.5t17.5 14.5q4 5 6 9t2 8v0z" />
    <glyph glyph-name="K" unicode="&#xe1;" horiz-adv-x="476" 
d="M414 723h16q0 -89 -44 -120.5t-104 -49.5q-4 -1 -8 -2.5t-8 -2.5q-14 -4 -28.5 -8t-29.5 -9q-64 -20 -116.5 -66.5t-49.5 -161.5h9q20 42 45 68.5t51 41.5q24 13 47.5 18.5t42.5 5.5q98 0 157.5 -69.5t59.5 -154.5q0 -90 -65.5 -156.5t-151.5 -66.5q-18 0 -40 4t-45 14
q-49 24 -89.5 88t-40.5 197q0 194 77 262t186 97q7 2 14.5 3.5t15.5 3.5q2 0 4 0.5t5 1.5q32 7 59 19t31 43v0zM135 285q-2 -36 -2 -72.5t2 -73.5q1 -9 3 -26.5t9 -36.5q9 -26 30 -48t61 -22q44 0 65.5 24.5t29.5 53.5q4 15 6 29.5t3 25.5q3 37 2.5 73.5t-2.5 72.5
q-4 57 -22 85.5t-39 39.5q-12 6 -23 8t-20 2t-20.5 -2t-23.5 -9q-20 -11 -37.5 -39.5t-21.5 -84.5v0z" />
    <glyph glyph-name="K" unicode="&#x431;" horiz-adv-x="476" 
d="M414 723h16q0 -89 -44 -120.5t-104 -49.5q-4 -1 -8 -2.5t-8 -2.5q-14 -4 -28.5 -8t-29.5 -9q-64 -20 -116.5 -66.5t-49.5 -161.5h9q20 42 45 68.5t51 41.5q24 13 47.5 18.5t42.5 5.5q98 0 157.5 -69.5t59.5 -154.5q0 -90 -65.5 -156.5t-151.5 -66.5q-18 0 -40 4t-45 14
q-49 24 -89.5 88t-40.5 197q0 194 77 262t186 97q7 2 14.5 3.5t15.5 3.5q2 0 4 0.5t5 1.5q32 7 59 19t31 43v0zM135 285q-2 -36 -2 -72.5t2 -73.5q1 -9 3 -26.5t9 -36.5q9 -26 30 -48t61 -22q44 0 65.5 24.5t29.5 53.5q4 15 6 29.5t3 25.5q3 37 2.5 73.5t-2.5 72.5
q-4 57 -22 85.5t-39 39.5q-12 6 -23 8t-20 2t-20.5 -2t-23.5 -9q-20 -11 -37.5 -39.5t-21.5 -84.5v0z" />
    <glyph glyph-name="quotedbl" unicode="&#xe2;" horiz-adv-x="478" 
d="M83 17v392h-63v17h234q92 0 132.5 -25.5t40.5 -66.5v-3.5v-3.5q-3 -33 -33.5 -62.5t-97.5 -35.5v-4q13 -1 29 -3.5t32 -7.5q35 -10 64 -31.5t29 -60.5q0 -46 -39.5 -84t-106.5 -38h-284v17h63v0zM181 17h75h6.5h7.5q25 2 46.5 20.5t21.5 83.5q0 42 -16 69.5t-64 27.5h-77
v-201v0zM181 234h63h8.5t9.5 1q20 3 37 15.5t19 47.5q1 6 0.5 11t-0.5 11v5.5v5.5v2.5v2.5q-1 28 -13.5 50.5t-70.5 22.5h-53v-175v0z" />
    <glyph glyph-name="quotedbl" unicode="&#x432;" horiz-adv-x="478" 
d="M83 17v392h-63v17h234q92 0 132.5 -25.5t40.5 -66.5v-3.5v-3.5q-3 -33 -33.5 -62.5t-97.5 -35.5v-4q13 -1 29 -3.5t32 -7.5q35 -10 64 -31.5t29 -60.5q0 -46 -39.5 -84t-106.5 -38h-284v17h63v0zM181 17h75h6.5h7.5q25 2 46.5 20.5t21.5 83.5q0 42 -16 69.5t-64 27.5h-77
v-201v0zM181 234h63h8.5t9.5 1q20 3 37 15.5t19 47.5q1 6 0.5 11t-0.5 11v5.5v5.5v2.5v2.5q-1 28 -13.5 50.5t-70.5 22.5h-53v-175v0z" />
    <glyph glyph-name="atilde" unicode="&#xe3;" horiz-adv-x="382" 
d="M83 17v392h-63v17h348l6 -138h-21q-22 92 -60 107t-89 14h-7.5h-7.5h-8v-392h63v-17h-224v17h63v0z" />
    <glyph glyph-name="atilde" unicode="&#x433;" horiz-adv-x="382" 
d="M83 17v392h-63v17h348l6 -138h-21q-22 92 -60 107t-89 14h-7.5h-7.5h-8v-392h63v-17h-224v17h63v0z" />
    <glyph glyph-name="adieresis" unicode="&#xe4;" horiz-adv-x="458" 
d="M28 -131h-22l12 148h15q51 0 69.5 61.5t18.5 264.5q0 41 -15 53.5t-65 12.5v17h396v-17h-63v-392h67l9 -148h-21q-9 77 -54.5 104t-121.5 27h-83q-74 0 -101 -32t-41 -98v-1zM276 17v392h-72q-44 0 -53.5 -18.5t-11.5 -82.5q0 -7 -0.5 -15t-0.5 -17q0 -14 -0.5 -26.5
t-1.5 -24.5q-3 -106 -10.5 -145t-33.5 -63h184v0z" />
    <glyph glyph-name="adieresis" unicode="&#x434;" horiz-adv-x="458" 
d="M28 -131h-22l12 148h15q51 0 69.5 61.5t18.5 264.5q0 41 -15 53.5t-65 12.5v17h396v-17h-63v-392h67l9 -148h-21q-9 77 -54.5 104t-121.5 27h-83q-74 0 -101 -32t-41 -98v-1zM276 17v392h-72q-44 0 -53.5 -18.5t-11.5 -82.5q0 -7 -0.5 -15t-0.5 -17q0 -14 -0.5 -26.5
t-1.5 -24.5q-3 -106 -10.5 -145t-33.5 -63h184v0z" />
    <glyph glyph-name="yright" unicode="&#xe5;" horiz-adv-x="440" 
d="M401 119l17 -11q-37 -58 -80 -88t-101 -30q-83 0 -149 58t-66 165q0 90 57.5 157t143.5 67q16 0 36 -3t40 -11q40 -16 75 -58.5t40 -127.5h-280l1 -69q0 -9 0.5 -19t1.5 -20q4 -45 23 -82t73 -37q35 0 78 20.5t90 88.5v0zM134 253h176q2 68 -10.5 117.5t-71.5 49.5
q-38 0 -57 -17.5t-27 -38.5q-6 -14 -7.5 -27t-1.5 -21l-1 -63v0z" />
    <glyph glyph-name="yright" unicode="&#x435;" horiz-adv-x="440" 
d="M401 119l17 -11q-37 -58 -80 -88t-101 -30q-83 0 -149 58t-66 165q0 90 57.5 157t143.5 67q16 0 36 -3t40 -11q40 -16 75 -58.5t40 -127.5h-280l1 -69q0 -9 0.5 -19t1.5 -20q4 -45 23 -82t73 -37q35 0 78 20.5t90 88.5v0zM134 253h176q2 68 -10.5 117.5t-71.5 49.5
q-38 0 -57 -17.5t-27 -38.5q-6 -14 -7.5 -27t-1.5 -21l-1 -63v0z" />
    <glyph glyph-name="guilsinglright" unicode="&#xe6;" horiz-adv-x="758" 
d="M428 409v-177q61 -1 79 17.5t28 57.5q1 5 2.5 10.5t2.5 11.5q0 1 0.5 2.5t0.5 3.5q10 38 27.5 70t63.5 32q37 0 58 -21.5t21 -48.5q0 -24 -10.5 -38t-23.5 -19q-5 -3 -10.5 -4t-9.5 -1t-8 0.5t-9 1.5q-13 4 -24 13.5t-11 27.5q0 6 0.5 11.5t1.5 10.5q0 1 0.5 2t0.5 2
q1 2 1.5 4t0.5 4v2v2q-1 2 -1.5 4.5t-2.5 3.5q-2 2 -4.5 2.5t-5.5 0.5t-5.5 -0.5t-4.5 -2.5q-1 0 -1.5 -1t-1.5 -1q-3 -4 -5.5 -9t-4.5 -11q-2 -5 -3.5 -10t-1.5 -8q-2 -8 -3.5 -16t-3.5 -15q-7 -30 -16.5 -52t-28.5 -37q3 -1 6 -1.5t6 -1.5l0.5 -0.5t1.5 -0.5
q47 -12 86.5 -34t42.5 -95v-2.5v-2.5q-1 -1 -1 -2.5v-2.5q1 -21 8.5 -37t16.5 -21q2 -1 3.5 -1.5t3.5 -0.5q4 0 9 1.5t10 4.5q7 5 14 10.5t11 12.5l13 -9q-12 -18 -24.5 -30t-24.5 -19q-15 -7 -29 -9.5t-27 -2.5q-37 0 -54 21t-23 47q-4 14 -5.5 27.5t-2.5 23.5v2.5t-1 2.5
q-5 39 -24.5 71t-80.5 31h-11t-12 -1v-198h63v-17h-224v17h63v198q-82 2 -101.5 -22t-27.5 -84q-1 -10 -2.5 -23t-5.5 -26q-6 -27 -22.5 -48.5t-54.5 -21.5q-13 0 -27 2.5t-29 9.5q-12 7 -24.5 18.5t-24.5 30.5l12 9q0 -1 0.5 -1.5l1.5 -1.5q5 -5 11.5 -10.5t13.5 -9.5
q4 -3 9 -4.5t9 -1.5q2 0 4 0.5t4 2.5q9 5 16.5 21.5t7.5 36.5v2v3q-1 1 -1 2v2q3 73 42.5 95t86.5 34q1 0 1.5 0.5l0.5 0.5q3 1 6 1.5t6 1.5q-12 10 -20.5 24t-16.5 39q-4 11 -7.5 25t-7.5 32q0 3 -1.5 8t-2.5 10q-3 7 -6.5 13.5t-7.5 8.5q-2 2 -5 2.5t-6 0.5h-1.5h-1.5
q-2 -1 -3.5 -1.5t-2.5 -1.5t-2 -3.5t-2 -4.5v-2v-2q0 -2 0.5 -4t1.5 -4q0 -1 0.5 -2t0.5 -2q2 -5 2 -10.5v-11.5q0 -19 -13 -29t-29 -13q-3 0 -6 -0.5t-6 -0.5h-2.5h-2.5q-18 3 -32.5 19t-14.5 43t21 48.5t58 21.5q48 0 64.5 -33t26.5 -73q0 -1 0.5 -2.5t0.5 -2.5l4 -14
l4 -14q12 -39 31 -53t73 -13v177h-63v17h224v-17h-63v0z" />
    <glyph glyph-name="guilsinglright" unicode="&#x436;" horiz-adv-x="758" 
d="M428 409v-177q61 -1 79 17.5t28 57.5q1 5 2.5 10.5t2.5 11.5q0 1 0.5 2.5t0.5 3.5q10 38 27.5 70t63.5 32q37 0 58 -21.5t21 -48.5q0 -24 -10.5 -38t-23.5 -19q-5 -3 -10.5 -4t-9.5 -1t-8 0.5t-9 1.5q-13 4 -24 13.5t-11 27.5q0 6 0.5 11.5t1.5 10.5q0 1 0.5 2t0.5 2
q1 2 1.5 4t0.5 4v2v2q-1 2 -1.5 4.5t-2.5 3.5q-2 2 -4.5 2.5t-5.5 0.5t-5.5 -0.5t-4.5 -2.5q-1 0 -1.5 -1t-1.5 -1q-3 -4 -5.5 -9t-4.5 -11q-2 -5 -3.5 -10t-1.5 -8q-2 -8 -3.5 -16t-3.5 -15q-7 -30 -16.5 -52t-28.5 -37q3 -1 6 -1.5t6 -1.5l0.5 -0.5t1.5 -0.5
q47 -12 86.5 -34t42.5 -95v-2.5v-2.5q-1 -1 -1 -2.5v-2.5q1 -21 8.5 -37t16.5 -21q2 -1 3.5 -1.5t3.5 -0.5q4 0 9 1.5t10 4.5q7 5 14 10.5t11 12.5l13 -9q-12 -18 -24.5 -30t-24.5 -19q-15 -7 -29 -9.5t-27 -2.5q-37 0 -54 21t-23 47q-4 14 -5.5 27.5t-2.5 23.5v2.5t-1 2.5
q-5 39 -24.5 71t-80.5 31h-11t-12 -1v-198h63v-17h-224v17h63v198q-82 2 -101.5 -22t-27.5 -84q-1 -10 -2.5 -23t-5.5 -26q-6 -27 -22.5 -48.5t-54.5 -21.5q-13 0 -27 2.5t-29 9.5q-12 7 -24.5 18.5t-24.5 30.5l12 9q0 -1 0.5 -1.5l1.5 -1.5q5 -5 11.5 -10.5t13.5 -9.5
q4 -3 9 -4.5t9 -1.5q2 0 4 0.5t4 2.5q9 5 16.5 21.5t7.5 36.5v2v3q-1 1 -1 2v2q3 73 42.5 95t86.5 34q1 0 1.5 0.5l0.5 0.5q3 1 6 1.5t6 1.5q-12 10 -20.5 24t-16.5 39q-4 11 -7.5 25t-7.5 32q0 3 -1.5 8t-2.5 10q-3 7 -6.5 13.5t-7.5 8.5q-2 2 -5 2.5t-6 0.5h-1.5h-1.5
q-2 -1 -3.5 -1.5t-2.5 -1.5t-2 -3.5t-2 -4.5v-2v-2q0 -2 0.5 -4t1.5 -4q0 -1 0.5 -2t0.5 -2q2 -5 2 -10.5v-11.5q0 -19 -13 -29t-29 -13q-3 0 -6 -0.5t-6 -0.5h-2.5h-2.5q-18 3 -32.5 19t-14.5 43t21 48.5t58 21.5q48 0 64.5 -33t26.5 -73q0 -1 0.5 -2.5t0.5 -2.5l4 -14
l4 -14q12 -39 31 -53t73 -13v177h-63v17h224v-17h-63v0z" />
    <glyph glyph-name="florin" unicode="&#xe7;" horiz-adv-x="392" 
d="M55 278h-17l15 159h18l2 -2t2 -3q3 -3 8.5 -5.5t13.5 -2.5q10 0 16 1t11 3q2 0 4 1t5 2q8 2 22.5 4t42.5 2q69 0 103 -23t43 -50q3 -7 4 -14t1 -13v-3.5v-3.5q-3 -33 -31.5 -62t-88.5 -35l1 -5q12 -1 26.5 -4.5t29.5 -10.5q31 -12 56.5 -36t25.5 -65q0 -53 -48 -87.5
t-135 -34.5q-85 0 -130 31.5t-45 77.5q0 26 15.5 43.5t40.5 17.5q22 0 38 -15t16 -41q0 -6 -2 -12t-5 -11q-2 -4 -5 -7l-6 -6l-4 -4t-3 -4q-4 -4 -6.5 -8t-2.5 -9q0 -3 1.5 -7t5.5 -8q8 -9 26.5 -16t51.5 -7q38 0 55.5 16t23.5 36q4 10 5 20.5t1 17.5q0 5 0.5 10.5t0.5 11.5
q0 5 -0.5 10.5t-0.5 10.5q0 7 -1.5 16t-5.5 18q-7 19 -25 34.5t-56 15.5h-46v16h41q38 0 55 14.5t22 32.5q3 8 4 16.5t1 14.5q0 5 0.5 9.5t0.5 9.5t-0.5 9.5t-0.5 9.5q-3 35 -18 48.5t-32 16.5q-4 0 -7.5 0.5t-7.5 0.5q-10 0 -22 -2t-23 -7q-25 -10 -47 -40t-33 -93v0z" />
    <glyph glyph-name="florin" unicode="&#x437;" horiz-adv-x="392" 
d="M55 278h-17l15 159h18l2 -2t2 -3q3 -3 8.5 -5.5t13.5 -2.5q10 0 16 1t11 3q2 0 4 1t5 2q8 2 22.5 4t42.5 2q69 0 103 -23t43 -50q3 -7 4 -14t1 -13v-3.5v-3.5q-3 -33 -31.5 -62t-88.5 -35l1 -5q12 -1 26.5 -4.5t29.5 -10.5q31 -12 56.5 -36t25.5 -65q0 -53 -48 -87.5
t-135 -34.5q-85 0 -130 31.5t-45 77.5q0 26 15.5 43.5t40.5 17.5q22 0 38 -15t16 -41q0 -6 -2 -12t-5 -11q-2 -4 -5 -7l-6 -6l-4 -4t-3 -4q-4 -4 -6.5 -8t-2.5 -9q0 -3 1.5 -7t5.5 -8q8 -9 26.5 -16t51.5 -7q38 0 55.5 16t23.5 36q4 10 5 20.5t1 17.5q0 5 0.5 10.5t0.5 11.5
q0 5 -0.5 10.5t-0.5 10.5q0 7 -1.5 16t-5.5 18q-7 19 -25 34.5t-56 15.5h-46v16h41q38 0 55 14.5t22 32.5q3 8 4 16.5t1 14.5q0 5 0.5 9.5t0.5 9.5t-0.5 9.5t-0.5 9.5q-3 35 -18 48.5t-32 16.5q-4 0 -7.5 0.5t-7.5 0.5q-10 0 -22 -2t-23 -7q-25 -10 -47 -40t-33 -93v0z" />
    <glyph glyph-name="comma" unicode="&#xe8;" 
d="M181 91l170 287v31h-56v17h217v-17h-63v-392h63v-17h-217v17h56v327l-170 -287v-40h56v-17h-217v17h63v392h-63v17h217v-17h-56v-318v0z" />
    <glyph glyph-name="comma" unicode="&#x438;" 
d="M181 91l170 287v31h-56v17h217v-17h-63v-392h63v-17h-217v17h56v327l-170 -287v-40h56v-17h-217v17h63v392h-63v17h217v-17h-56v-318v0z" />
    <glyph glyph-name="L" unicode="&#xe9;" 
d="M181 91l170 287v31h-56v17h217v-17h-63v-392h63v-17h-217v17h56v327l-170 -287v-40h56v-17h-217v17h63v392h-63v17h217v-17h-56v-318v0zM267 483q-70 0 -111 31.5t-41 78.5q0 23 15 35t32 15q3 0 6.5 0.5t6.5 0.5q24 0 37 -15.5t13 -35.5q0 -3 -1 -8.5t-4 -11.5
q-3 -7 -10.5 -13t-21.5 -8h-2t-2 -1q-5 0 -9.5 -3.5t-4.5 -14.5q0 -13 24.5 -22.5t55.5 -10.5h8h8h8h8q5 0 10 0.5t10 1.5q22 2 41 10t19 21q0 12 -4.5 14.5t-9.5 3.5q-1 0 -2 0.5t-2 0.5q-3 1 -7 2t-8 3q-8 4 -15 12.5t-7 23.5q0 20 13.5 35.5t37.5 15.5h4h3q20 -2 36 -14
t16 -37q0 -54 -40.5 -79.5t-89.5 -29.5q-5 -1 -10 -1h-10v0z" />
    <glyph glyph-name="L" unicode="&#x439;" 
d="M181 91l170 287v31h-56v17h217v-17h-63v-392h63v-17h-217v17h56v327l-170 -287v-40h56v-17h-217v17h63v392h-63v17h217v-17h-56v-318v0zM267 483q-70 0 -111 31.5t-41 78.5q0 23 15 35t32 15q3 0 6.5 0.5t6.5 0.5q24 0 37 -15.5t13 -35.5q0 -3 -1 -8.5t-4 -11.5
q-3 -7 -10.5 -13t-21.5 -8h-2t-2 -1q-5 0 -9.5 -3.5t-4.5 -14.5q0 -13 24.5 -22.5t55.5 -10.5h8h8h8h8q5 0 10 0.5t10 1.5q22 2 41 10t19 21q0 12 -4.5 14.5t-9.5 3.5q-1 0 -2 0.5t-2 0.5q-3 1 -7 2t-8 3q-8 4 -15 12.5t-7 23.5q0 20 13.5 35.5t37.5 15.5h4h3q20 -2 36 -14
t16 -37q0 -54 -40.5 -79.5t-89.5 -29.5q-5 -1 -10 -1h-10v0z" />
    <glyph glyph-name="asterisk" unicode="&#xea;" horiz-adv-x="516" 
d="M181 234h36q39 0 55 20.5t23 44.5q1 6 2.5 11.5t2.5 10.5q11 54 27.5 85t65.5 31q30 0 54 -18.5t24 -51.5q0 -24 -13.5 -43t-40.5 -19q-23 0 -37.5 12.5t-14.5 30.5q0 6 1 11.5t2 10.5q0 1 0.5 2t0.5 2q1 2 1.5 4t0.5 4q0 10 -6 12t-14 2h-0.5h-1.5h-1.5h-0.5
q-7 0 -12 -12.5t-9 -27.5q-3 -12 -4.5 -22.5t-2.5 -15.5q0 -2 -0.5 -4t-1.5 -4q-8 -38 -19 -55.5t-32 -23.5v-3q75 -4 105 -29.5t39 -55.5q3 -11 5 -21.5t3 -20.5v-2v-2q3 -26 8.5 -46t24.5 -20q13 0 24 8.5t17 18.5l13 -7q-13 -28 -40 -44.5t-63 -16.5q-51 0 -65 32t-20 71
v4t-1 4q0 2 -0.5 4.5t-0.5 4.5q-10 73 -31.5 90.5t-59.5 17.5h-21l-22 -1v-200h63v-17h-224v17h63v392h-63v17h224v-17h-63v-175v0z" />
    <glyph glyph-name="asterisk" unicode="&#x43a;" horiz-adv-x="516" 
d="M181 234h36q39 0 55 20.5t23 44.5q1 6 2.5 11.5t2.5 10.5q11 54 27.5 85t65.5 31q30 0 54 -18.5t24 -51.5q0 -24 -13.5 -43t-40.5 -19q-23 0 -37.5 12.5t-14.5 30.5q0 6 1 11.5t2 10.5q0 1 0.5 2t0.5 2q1 2 1.5 4t0.5 4q0 10 -6 12t-14 2h-0.5h-1.5h-1.5h-0.5
q-7 0 -12 -12.5t-9 -27.5q-3 -12 -4.5 -22.5t-2.5 -15.5q0 -2 -0.5 -4t-1.5 -4q-8 -38 -19 -55.5t-32 -23.5v-3q75 -4 105 -29.5t39 -55.5q3 -11 5 -21.5t3 -20.5v-2v-2q3 -26 8.5 -46t24.5 -20q13 0 24 8.5t17 18.5l13 -7q-13 -28 -40 -44.5t-63 -16.5q-51 0 -65 32t-20 71
v4t-1 4q0 2 -0.5 4.5t-0.5 4.5q-10 73 -31.5 90.5t-59.5 17.5h-21l-22 -1v-200h63v-17h-224v17h63v392h-63v17h224v-17h-63v-175v0z" />
    <glyph glyph-name="edieresis" unicode="&#xeb;" horiz-adv-x="493" 
d="M312 409h-44q-66 0 -77.5 -16.5t-12.5 -42.5l-8 -257q-1 -43 -17 -73t-70 -30q-31 0 -55.5 17t-24.5 49q0 27 16.5 42.5t35.5 15.5q20 0 35.5 -10t15.5 -32v-7.5t-2 -7.5q0 -1 -0.5 -1.5l-1.5 -1.5q0 -1 -0.5 -1.5l-0.5 -0.5l-1.5 -3t-0.5 -3v-3.5v-3.5q1 -6 3 -10t8 -4
q32 0 37.5 23.5t6.5 57.5l7 244v8v8q-1 16 -11.5 29.5t-43.5 13.5h-21v17h388v-17h-63v-392h63v-17h-224v17h63v392v0z" />
    <glyph glyph-name="edieresis" unicode="&#x43b;" horiz-adv-x="493" 
d="M312 409h-44q-66 0 -77.5 -16.5t-12.5 -42.5l-8 -257q-1 -43 -17 -73t-70 -30q-31 0 -55.5 17t-24.5 49q0 27 16.5 42.5t35.5 15.5q20 0 35.5 -10t15.5 -32v-7.5t-2 -7.5q0 -1 -0.5 -1.5l-1.5 -1.5q0 -1 -0.5 -1.5l-0.5 -0.5l-1.5 -3t-0.5 -3v-3.5v-3.5q1 -6 3 -10t8 -4
q32 0 37.5 23.5t6.5 57.5l7 244v8v8q-1 16 -11.5 29.5t-43.5 13.5h-21v17h388v-17h-63v-392h63v-17h-224v17h63v392v0z" />
    <glyph glyph-name="igrave" unicode="&#xec;" horiz-adv-x="618" 
d="M20 409v17h170l124 -296l113 296h171v-17h-63v-392h63v-17h-224v17h63v381l-156 -398h-9l-160 394v-321q0 -25 9 -40.5t54 -15.5v-17h-145v17q6 1 8.5 1h3.5h2h2h0.5h0.5q3 0 8 0.5t11 2.5q9 4 17 15t8 35v282q0 34 -15 44.5t-34 11.5h-2.5h-2.5h-17v0z" />
    <glyph glyph-name="igrave" unicode="&#x43c;" horiz-adv-x="618" 
d="M20 409v17h170l124 -296l113 296h171v-17h-63v-392h63v-17h-224v17h63v381l-156 -398h-9l-160 394v-321q0 -25 9 -40.5t54 -15.5v-17h-145v17q6 1 8.5 1h3.5h2h2h0.5h0.5q3 0 8 0.5t11 2.5q9 4 17 15t8 35v282q0 34 -15 44.5t-34 11.5h-2.5h-2.5h-17v0z" />
    <glyph glyph-name="ellipsis" unicode="&#xed;" 
d="M181 222v-205h56v-17h-217v17h63v392h-63v17h217v-17h-56v-171h170v171h-56v17h217v-17h-63v-392h63v-17h-217v17h56v205h-170v0z" />
    <glyph glyph-name="ellipsis" unicode="&#x43d;" 
d="M181 222v-205h56v-17h-217v17h63v392h-63v17h217v-17h-56v-171h170v171h-56v17h217v-17h-63v-392h63v-17h-217v17h56v205h-170v0z" />
    <glyph glyph-name="percent" unicode="&#xee;" horiz-adv-x="477" 
d="M22 213q0 90 61.5 157t154.5 67q95 0 156 -68.5t61 -155.5t-61 -155t-156 -68t-155.5 67.5t-60.5 155.5v0zM135 285q-1 -19 -1 -37.5v-37.5q0 -102 19 -153t86 -51q60 0 82 47t22 158v1.5v1.5q0 77 -15.5 141.5t-88.5 64.5h-5.5t-5.5 -1q-34 -3 -62 -33.5t-31 -100.5v0z
" />
    <glyph glyph-name="percent" unicode="&#x43e;" horiz-adv-x="477" 
d="M22 213q0 90 61.5 157t154.5 67q95 0 156 -68.5t61 -155.5t-61 -155t-156 -68t-155.5 67.5t-60.5 155.5v0zM135 285q-1 -19 -1 -37.5v-37.5q0 -102 19 -153t86 -51q60 0 82 47t22 158v1.5v1.5q0 77 -15.5 141.5t-88.5 64.5h-5.5t-5.5 -1q-34 -3 -62 -33.5t-31 -100.5v0z
" />
    <glyph glyph-name="C" unicode="&#xef;" 
d="M181 409v-392h56v-17h-217v17h63v392h-63v17h492v-17h-63v-392h63v-17h-217v17h56v392h-170v0z" />
    <glyph glyph-name="C" unicode="&#x43f;" 
d="M181 409v-392h56v-17h-217v17h63v392h-63v17h492v-17h-63v-392h63v-17h-217v17h56v392h-170v0z" />
    <glyph glyph-name="eth" unicode="&#xf0;" horiz-adv-x="501" 
d="M178 431v-60q2 5 7 13.5t13 17.5q12 13 31.5 24t48.5 11h1.5h1.5q74 -1 136 -63t62 -162q0 -91 -61.5 -156.5t-146.5 -65.5q-29 0 -47 8t-29 19q-6 5 -10 10.5t-7 9.5v-233h63v-17h-224v17h63v605h-63v17h99h12.5h10.5q8 1 17 2t22 3v0zM367 155v133q0 77 -27.5 103.5
t-62.5 26.5q-40 0 -69.5 -30.5t-29.5 -75.5v-223q0 -31 22.5 -52.5t50.5 -28.5q5 -2 11 -2.5t11 -0.5q8 0 17.5 2t20.5 8q21 11 38.5 42.5t17.5 97.5v0z" />
    <glyph glyph-name="eth" unicode="&#x440;" horiz-adv-x="501" 
d="M178 431v-60q2 5 7 13.5t13 17.5q12 13 31.5 24t48.5 11h1.5h1.5q74 -1 136 -63t62 -162q0 -91 -61.5 -156.5t-146.5 -65.5q-29 0 -47 8t-29 19q-6 5 -10 10.5t-7 9.5v-233h63v-17h-224v17h63v605h-63v17h99h12.5h10.5q8 1 17 2t22 3v0zM367 155v133q0 77 -27.5 103.5
t-62.5 26.5q-40 0 -69.5 -30.5t-29.5 -75.5v-223q0 -31 22.5 -52.5t50.5 -28.5q5 -2 11 -2.5t11 -0.5q8 0 17.5 2t20.5 8q21 11 38.5 42.5t17.5 97.5v0z" />
    <glyph glyph-name="quotedblleft" unicode="&#xf1;" horiz-adv-x="413" 
d="M375 111l16 -7q-17 -46 -41 -70t-50 -34q-15 -6 -30 -8t-29 -2q-94 0 -156.5 63.5t-62.5 159.5v10.5t1 10.5q7 76 63 139.5t155 63.5q61 0 104 -30t43 -74q0 -27 -15.5 -46t-41.5 -19q-31 0 -46.5 19.5t-15.5 42.5q0 6 2 12t4 11t4 8.5t4 7.5q5 9 10 15t5 11q0 2 -1.5 5
t-3.5 6q-6 6 -17.5 10.5t-31.5 4.5h-9.5t-8.5 -1q-35 -2 -63.5 -28.5t-28.5 -113.5v-126q0 -67 23 -106t87 -39q53 0 82.5 28.5t48.5 75.5v0z" />
    <glyph glyph-name="quotedblleft" unicode="&#x441;" horiz-adv-x="413" 
d="M375 111l16 -7q-17 -46 -41 -70t-50 -34q-15 -6 -30 -8t-29 -2q-94 0 -156.5 63.5t-62.5 159.5v10.5t1 10.5q7 76 63 139.5t155 63.5q61 0 104 -30t43 -74q0 -27 -15.5 -46t-41.5 -19q-31 0 -46.5 19.5t-15.5 42.5q0 6 2 12t4 11t4 8.5t4 7.5q5 9 10 15t5 11q0 2 -1.5 5
t-3.5 6q-6 6 -17.5 10.5t-31.5 4.5h-9.5t-8.5 -1q-35 -2 -63.5 -28.5t-28.5 -113.5v-126q0 -67 23 -106t87 -39q53 0 82.5 28.5t48.5 75.5v0z" />
    <glyph glyph-name="two" unicode="&#xf2;" horiz-adv-x="436" 
d="M419 426l9 -162h-21q-14 70 -46.5 109.5t-93.5 35.5v-392h63v-17h-224v17h63v392q-70 4 -95 -36t-42 -97q-1 -3 -1.5 -6t-1.5 -6h-21l9 162h402v0z" />
    <glyph glyph-name="two" unicode="&#x442;" horiz-adv-x="436" 
d="M419 426l9 -162h-21q-14 70 -46.5 109.5t-93.5 35.5v-392h63v-17h-224v17h63v392q-70 4 -95 -36t-42 -97q-1 -3 -1.5 -6t-1.5 -6h-21l9 162h402v0z" />
    <glyph glyph-name="three" unicode="&#xf3;" horiz-adv-x="467" 
d="M252 -29l-207 438h-45v17h216v-17h-63l147 -308l80 227q2 7 4 15.5t2 17.5q0 18 -11.5 33t-45.5 15h-9v17h161v-17q-28 -2 -43.5 -20t-25.5 -39q-3 -7 -6 -14.5t-5 -13.5l-177 -476q-12 -32 -32.5 -48t-43.5 -21q-5 -1 -10.5 -1.5t-10.5 -0.5q-46 0 -72 21t-29 46v2.5
v2.5q0 28 15 49t38 21q5 0 10.5 -0.5t11.5 -2.5q14 -4 25.5 -14.5t11.5 -30.5q0 -5 -1 -10.5t-3 -10.5l-2 -6l-2 -6q-1 -2 -1.5 -5t-0.5 -6q0 -8 9 -12.5t25 -4.5q11 0 19.5 6.5t13.5 14.5q4 6 6.5 11.5t3.5 8.5l47 122v0z" />
    <glyph glyph-name="three" unicode="&#x443;" horiz-adv-x="467" 
d="M252 -29l-207 438h-45v17h216v-17h-63l147 -308l80 227q2 7 4 15.5t2 17.5q0 18 -11.5 33t-45.5 15h-9v17h161v-17q-28 -2 -43.5 -20t-25.5 -39q-3 -7 -6 -14.5t-5 -13.5l-177 -476q-12 -32 -32.5 -48t-43.5 -21q-5 -1 -10.5 -1.5t-10.5 -0.5q-46 0 -72 21t-29 46v2.5
v2.5q0 28 15 49t38 21q5 0 10.5 -0.5t11.5 -2.5q14 -4 25.5 -14.5t11.5 -30.5q0 -5 -1 -10.5t-3 -10.5l-2 -6l-2 -6q-1 -2 -1.5 -5t-0.5 -6q0 -8 9 -12.5t25 -4.5q11 0 19.5 6.5t13.5 14.5q4 6 6.5 11.5t3.5 8.5l47 122v0z" />
    <glyph glyph-name="ocircumflex" unicode="&#xf4;" horiz-adv-x="728" 
d="M413 632v-255q17 28 44 44t61 16q77 0 132.5 -67.5t55.5 -159.5q0 -12 -1.5 -24t-4.5 -24q-14 -65 -64.5 -118.5t-131.5 -53.5q-8 0 -16.5 1.5t-17.5 4.5q-15 4 -29.5 16.5t-27.5 34.5v-243h63v-17h-224v17h63v243q-10 -19 -23 -31t-26 -17q-11 -5 -21.5 -7t-19.5 -2
q-80 0 -130 52t-66 114q-4 14 -5.5 27.5t-1.5 26.5q0 92 50 151t110 72q8 2 16 3t16 1q5 0 22.5 -3t37.5 -15q11 -6 21.5 -16.5t19.5 -25.5v232h-63v17h100q19 0 32 1t25 4q1 0 2 0.5t2 0.5v0zM315 130v174q0 49 -24.5 80.5t-59.5 31.5q-4 0 -8 -0.5t-8 -0.5q-31 -6 -56 -35
t-25 -92v-154q0 -65 29 -95.5t66 -30.5q7 0 16.5 1.5t19.5 6.5q19 9 34.5 35t15.5 79v0zM594 134v154q0 67 -27 95.5t-59 31.5q-2 1 -4.5 1h-5.5q-36 0 -60.5 -31.5t-24.5 -79.5v-175q0 -62 26.5 -92t60.5 -30q7 0 14 1t14 4q25 8 45.5 35.5t20.5 85.5v0z" />
    <glyph glyph-name="ocircumflex" unicode="&#x444;" horiz-adv-x="728" 
d="M413 632v-255q17 28 44 44t61 16q77 0 132.5 -67.5t55.5 -159.5q0 -12 -1.5 -24t-4.5 -24q-14 -65 -64.5 -118.5t-131.5 -53.5q-8 0 -16.5 1.5t-17.5 4.5q-15 4 -29.5 16.5t-27.5 34.5v-243h63v-17h-224v17h63v243q-10 -19 -23 -31t-26 -17q-11 -5 -21.5 -7t-19.5 -2
q-80 0 -130 52t-66 114q-4 14 -5.5 27.5t-1.5 26.5q0 92 50 151t110 72q8 2 16 3t16 1q5 0 22.5 -3t37.5 -15q11 -6 21.5 -16.5t19.5 -25.5v232h-63v17h100q19 0 32 1t25 4q1 0 2 0.5t2 0.5v0zM315 130v174q0 49 -24.5 80.5t-59.5 31.5q-4 0 -8 -0.5t-8 -0.5q-31 -6 -56 -35
t-25 -92v-154q0 -65 29 -95.5t66 -30.5q7 0 16.5 1.5t19.5 6.5q19 9 34.5 35t15.5 79v0zM594 134v154q0 67 -27 95.5t-59 31.5q-2 1 -4.5 1h-5.5q-36 0 -60.5 -31.5t-24.5 -79.5v-175q0 -62 26.5 -92t60.5 -30q7 0 14 1t14 4q25 8 45.5 35.5t20.5 85.5v0z" />
    <glyph glyph-name="otilde" unicode="&#xf5;" horiz-adv-x="502" 
d="M206 198l-145 211h-53v17h217v-17h-45l102 -146l45 66q2 2 3.5 4.5t3.5 4.5q0 1 0.5 1.5t1.5 0.5q5 7 10 15.5t5 22.5q0 13 -11.5 22.5t-41.5 8.5v17h173v-17h-15q-7 0 -14 -2t-14 -5q-17 -7 -32.5 -21t-27.5 -30l-77 -107l158 -227h45v-17h-221v17h58l-115 163l-63 -87
q-1 -1 -2.5 -3.5t-2.5 -4.5q-3 -7 -6 -16.5t-4 -20.5v-2v-2q0 -8 9.5 -15t20.5 -10q4 -1 7.5 -1.5t6.5 -0.5h8v-17h-182v17h8q28 0 51.5 15t40.5 34q10 10 17.5 19.5t12.5 16.5l68 96v0z" />
    <glyph glyph-name="otilde" unicode="&#x445;" horiz-adv-x="502" 
d="M206 198l-145 211h-53v17h217v-17h-45l102 -146l45 66q2 2 3.5 4.5t3.5 4.5q0 1 0.5 1.5t1.5 0.5q5 7 10 15.5t5 22.5q0 13 -11.5 22.5t-41.5 8.5v17h173v-17h-15q-7 0 -14 -2t-14 -5q-17 -7 -32.5 -21t-27.5 -30l-77 -107l158 -227h45v-17h-221v17h58l-115 163l-63 -87
q-1 -1 -2.5 -3.5t-2.5 -4.5q-3 -7 -6 -16.5t-4 -20.5v-2v-2q0 -8 9.5 -15t20.5 -10q4 -1 7.5 -1.5t6.5 -0.5h8v-17h-182v17h8q28 0 51.5 15t40.5 34q10 10 17.5 19.5t12.5 16.5l68 96v0z" />
    <glyph glyph-name="odieresis" unicode="&#xf6;" horiz-adv-x="538" 
d="M83 17v392h-63v17h217v-17h-56v-392h170v392h-56v17h217v-17h-63v-392h75l14 -161h-21q-20 100 -66 122t-102 22h-329v17h63v0z" />
    <glyph glyph-name="odieresis" unicode="&#x446;" horiz-adv-x="538" 
d="M83 17v392h-63v17h217v-17h-56v-392h170v392h-56v17h217v-17h-63v-392h75l14 -161h-21q-20 100 -66 122t-102 22h-329v17h63v0z" />
    <glyph glyph-name="divide" unicode="&#xf7;" horiz-adv-x="472" 
d="M291 17v183q-16 -7 -38 -12.5t-45 -9.5q-14 -2 -28 -3.5t-26 -1.5q-42 0 -61 16t-25 35q-4 12 -4.5 23t-0.5 18v144h-63v17h217v-17h-56v-162q0 -21 12.5 -30.5t28.5 -12.5q5 -1 10 -1.5t9 -0.5q7 0 14 1t15 2q8 2 15 3.5t14 3.5l6 2l6 2v193h-56v17h217v-17h-63v-392h63
v-17h-224v17h63v0z" />
    <glyph glyph-name="divide" unicode="&#x447;" horiz-adv-x="472" 
d="M291 17v183q-16 -7 -38 -12.5t-45 -9.5q-14 -2 -28 -3.5t-26 -1.5q-42 0 -61 16t-25 35q-4 12 -4.5 23t-0.5 18v144h-63v17h217v-17h-56v-162q0 -21 12.5 -30.5t28.5 -12.5q5 -1 10 -1.5t9 -0.5q7 0 14 1t15 2q8 2 15 3.5t14 3.5l6 2l6 2v193h-56v17h217v-17h-63v-392h63
v-17h-224v17h63v0z" />
    <glyph glyph-name="oslash" unicode="&#xf8;" horiz-adv-x="760" 
d="M740 0h-720v17h63v392h-63v17h217v-17h-56v-392h150v392h-56v17h210v-17h-56v-392h150v392h-56v17h217v-17h-63v-392h63v-17v0z" />
    <glyph glyph-name="oslash" unicode="&#x448;" horiz-adv-x="760" 
d="M740 0h-720v17h63v392h-63v17h217v-17h-56v-392h150v392h-56v17h210v-17h-56v-392h150v392h-56v17h217v-17h-63v-392h63v-17v0z" />
    <glyph glyph-name="question" unicode="&#xf9;" horiz-adv-x="763" 
d="M677 17h72l14 -163h-21q0 4 -0.5 6.5t-0.5 5.5q-8 51 -45.5 92.5t-128.5 41.5h-547v17h63v392h-63v17h217v-17h-56v-392h150v392h-56v17h210v-17h-56v-392h150v392h-56v17h217v-17h-63v-392v0z" />
    <glyph glyph-name="question" unicode="&#x449;" horiz-adv-x="763" 
d="M677 17h72l14 -163h-21q0 4 -0.5 6.5t-0.5 5.5q-8 51 -45.5 92.5t-128.5 41.5h-547v17h63v392h-63v17h217v-17h-56v-392h150v392h-56v17h210v-17h-56v-392h150v392h-56v17h217v-17h-63v-392v0z" />
    <glyph glyph-name="A" unicode="&#xfa;" horiz-adv-x="529" 
d="M273 248l48 -1q99 -2 139.5 -30.5t50.5 -61.5q2 -9 3 -17.5t1 -16.5q0 -10 -2 -21.5t-8 -22.5q-12 -29 -47.5 -53t-106.5 -24h-239v17h63v392h-21q-11 0 -27 -1t-33 -8q-25 -10 -47.5 -39.5t-29.5 -94.5h-17l10 160h326v-17h-63v-161v0zM273 17h39q57 0 73 16.5t18 36.5
v6.5v6.5v12v12v6v6v17v18q0 5 -0.5 10t-1.5 11q-4 21 -20 38.5t-60 17.5h-48v-214v0z" />
    <glyph glyph-name="A" unicode="&#x44a;" horiz-adv-x="529" 
d="M273 248l48 -1q99 -2 139.5 -30.5t50.5 -61.5q2 -9 3 -17.5t1 -16.5q0 -10 -2 -21.5t-8 -22.5q-12 -29 -47.5 -53t-106.5 -24h-239v17h63v392h-21q-11 0 -27 -1t-33 -8q-25 -10 -47.5 -39.5t-29.5 -94.5h-17l10 160h326v-17h-63v-161v0zM273 17h39q57 0 73 16.5t18 36.5
v6.5v6.5v12v12v6v6v17v18q0 5 -0.5 10t-1.5 11q-4 21 -20 38.5t-60 17.5h-48v-214v0z" />
    <glyph glyph-name="slash" unicode="&#xfb;" horiz-adv-x="676" 
d="M181 248h47q88 0 141.5 -32t53.5 -94q0 -10 -2 -21.5t-8 -23.5q-12 -29 -47.5 -53t-106.5 -24h-239v17h63v392h-63v17h224v-17h-63v-161v0zM181 17h39q56 0 72.5 16.5t18.5 36.5v6.5v6.5v12v12v6v6v17v18q0 5 -0.5 10t-1.5 11q-4 21 -20 38.5t-60 17.5h-48v-214v0z
M593 17h63v-17h-224v17h63v392h-63v17h224v-17h-63v-392v0z" />
    <glyph glyph-name="slash" unicode="&#x44b;" horiz-adv-x="676" 
d="M181 248h47q88 0 141.5 -32t53.5 -94q0 -10 -2 -21.5t-8 -23.5q-12 -29 -47.5 -53t-106.5 -24h-239v17h63v392h-63v17h224v-17h-63v-161v0zM181 17h39q56 0 72.5 16.5t18.5 36.5v6.5v6.5v12v12v6v6v17v18q0 5 -0.5 10t-1.5 11q-4 21 -20 38.5t-60 17.5h-48v-214v0z
M593 17h63v-17h-224v17h63v392h-63v17h224v-17h-63v-392v0z" />
    <glyph glyph-name="udieresis" unicode="&#xfc;" horiz-adv-x="437" 
d="M181 248h47q106 0 150 -39t45 -85v-1.5v-1.5q0 -10 -2.5 -21.5t-8.5 -24.5q-13 -28 -48.5 -51.5t-104.5 -23.5h-239v17h63v392h-63v17h224v-17h-63v-161v0zM181 17h38q49 0 70 12t22 76v2v3q1 50 -9 85.5t-73 35.5h-48v-214v0z" />
    <glyph glyph-name="udieresis" unicode="&#x44c;" horiz-adv-x="437" 
d="M181 248h47q106 0 150 -39t45 -85v-1.5v-1.5q0 -10 -2.5 -21.5t-8.5 -24.5q-13 -28 -48.5 -51.5t-104.5 -23.5h-239v17h63v392h-63v17h224v-17h-63v-161v0zM181 17h38q49 0 70 12t22 76v2v3q1 50 -9 85.5t-73 35.5h-48v-214v0z" />
    <glyph glyph-name="period" unicode="&#xfd;" horiz-adv-x="420" 
d="M58 287h-20l5 150h22q5 -10 11 -14t14 -4q6 0 13.5 2t17.5 5l6 2l6 2q11 3 24 5t34 2q92 0 146 -61t60 -133q1 -5 1 -9.5v-9.5q0 -91 -59.5 -162.5t-164.5 -71.5q-10 0 -20 1t-20 3q-44 8 -80.5 36.5t-36.5 76.5q0 22 11.5 35t25.5 17q5 2 9 2.5t8 0.5q19 0 31.5 -10.5
t17.5 -23.5q1 -4 2 -7.5t1 -7.5q0 -11 -5 -18.5t-11 -13.5q-2 -3 -4 -5t-4 -5q-2 -1 -3 -2.5t-2 -3.5q-2 -4 -2.5 -8t-0.5 -9v-2v-3v-2.5v-3.5q0 -13 15.5 -19.5t33.5 -9.5q10 -2 19 -2.5t16 -0.5q51 0 73 27t29 59q4 18 5 34.5t2 28.5v2v2l2 55h-175v17h175l-2 57
q0 11 -1 26t-4 30q-6 29 -26.5 53t-67.5 24q-49 0 -84 -35t-43 -98v0z" />
    <glyph glyph-name="period" unicode="&#x44d;" horiz-adv-x="420" 
d="M58 287h-20l5 150h22q5 -10 11 -14t14 -4q6 0 13.5 2t17.5 5l6 2l6 2q11 3 24 5t34 2q92 0 146 -61t60 -133q1 -5 1 -9.5v-9.5q0 -91 -59.5 -162.5t-164.5 -71.5q-10 0 -20 1t-20 3q-44 8 -80.5 36.5t-36.5 76.5q0 22 11.5 35t25.5 17q5 2 9 2.5t8 0.5q19 0 31.5 -10.5
t17.5 -23.5q1 -4 2 -7.5t1 -7.5q0 -11 -5 -18.5t-11 -13.5q-2 -3 -4 -5t-4 -5q-2 -1 -3 -2.5t-2 -3.5q-2 -4 -2.5 -8t-0.5 -9v-2v-3v-2.5v-3.5q0 -13 15.5 -19.5t33.5 -9.5q10 -2 19 -2.5t16 -0.5q51 0 73 27t29 59q4 18 5 34.5t2 28.5v2v2l2 55h-175v17h175l-2 57
q0 11 -1 26t-4 30q-6 29 -26.5 53t-67.5 24q-49 0 -84 -35t-43 -98v0z" />
    <glyph glyph-name="thorn" unicode="&#xfe;" horiz-adv-x="722" 
d="M181 229h89q6 90 67.5 149t146.5 59q8 0 16.5 -0.5t16.5 -2.5q69 -12 126 -69t57 -152q0 -96 -58.5 -153.5t-128.5 -67.5q-7 -1 -14.5 -1.5t-14.5 -0.5q-91 0 -151.5 64t-62.5 159h-89v-196h63v-17h-224v17h63v392h-63v17h224v-17h-63v-180v0zM382 286q-1 -9 -1.5 -18
t-0.5 -17v-18v-18q0 -117 23.5 -163t81.5 -46q65 0 84.5 51t19.5 157v2v3v29.5t-1 31.5q-3 52 -23 96t-80 44q-9 0 -19.5 -2t-21.5 -7q-21 -11 -39.5 -39.5t-22.5 -85.5v0z" />
    <glyph glyph-name="thorn" unicode="&#x44e;" horiz-adv-x="722" 
d="M181 229h89q6 90 67.5 149t146.5 59q8 0 16.5 -0.5t16.5 -2.5q69 -12 126 -69t57 -152q0 -96 -58.5 -153.5t-128.5 -67.5q-7 -1 -14.5 -1.5t-14.5 -0.5q-91 0 -151.5 64t-62.5 159h-89v-196h63v-17h-224v17h63v392h-63v17h224v-17h-63v-180v0zM382 286q-1 -9 -1.5 -18
t-0.5 -17v-18v-18q0 -117 23.5 -163t81.5 -46q65 0 84.5 51t19.5 157v2v3v29.5t-1 31.5q-3 52 -23 96t-80 44q-9 0 -19.5 -2t-21.5 -7q-21 -11 -39.5 -39.5t-22.5 -85.5v0z" />
    <glyph glyph-name="ydieresis" unicode="&#xff;" horiz-adv-x="505" 
d="M3 39l12 14l2 -2l2 -2q7 -8 16 -14t19 -6q14 0 19.5 13t8.5 28q0 2 0.5 4.5t0.5 4.5q0 1 0.5 3t0.5 3v0.5v0.5q1 3 1.5 6t0.5 6q7 39 31.5 73t115.5 44v4q-74 0 -107.5 24t-41.5 53q-2 7 -3 14t-1 13t1 12.5t3 13.5q9 29 45.5 53t114.5 24h241v-17h-63v-392h63v-17h-224
v17h63v193h-44q-29 0 -53.5 -16t-37.5 -90q-10 -61 -30 -87.5t-55 -26.5q-32 0 -56.5 12.5t-44.5 36.5v0zM324 227v182h-56q-30 0 -45.5 -10.5t-22.5 -23.5q-4 -8 -5.5 -15t-2.5 -12q-1 -7 -1.5 -14.5t-0.5 -15.5q0 -6 0.5 -12t1.5 -11q6 -35 24 -49.5t39 -17.5q4 -1 7.5 -1
h7.5h54v0z" />
    <glyph glyph-name="ydieresis" unicode="&#x44f;" horiz-adv-x="505" 
d="M3 39l12 14l2 -2l2 -2q7 -8 16 -14t19 -6q14 0 19.5 13t8.5 28q0 2 0.5 4.5t0.5 4.5q0 1 0.5 3t0.5 3v0.5v0.5q1 3 1.5 6t0.5 6q7 39 31.5 73t115.5 44v4q-74 0 -107.5 24t-41.5 53q-2 7 -3 14t-1 13t1 12.5t3 13.5q9 29 45.5 53t114.5 24h241v-17h-63v-392h63v-17h-224
v17h63v193h-44q-29 0 -53.5 -16t-37.5 -90q-10 -61 -30 -87.5t-55 -26.5q-32 0 -56.5 12.5t-44.5 36.5v0zM324 227v182h-56q-30 0 -45.5 -10.5t-22.5 -23.5q-4 -8 -5.5 -15t-2.5 -12q-1 -7 -1.5 -14.5t-0.5 -15.5q0 -6 0.5 -12t1.5 -11q6 -35 24 -49.5t39 -17.5q4 -1 7.5 -1
h7.5h54v0z" />
    <glyph glyph-name="amacron" unicode="&#x101;" 
 />
    <glyph glyph-name="OE" unicode="&#x152;" horiz-adv-x="1019" 
d="M231 340v-320h70v-20h-259v20h77v616h-77v19h259v-19h-70v-276h295v276h-70v19h259v-19h-77v-274h86q22 0 51.5 -1.5t60.5 -7.5q58 -12 106.5 -48t48.5 -116q0 -105 -56.5 -142t-124.5 -44q-20 -2 -38.5 -2.5t-36.5 -0.5h-279v20h70v320h-295v0zM638 20h121
q50 0 71.5 21.5t28.5 46.5q3 10 4.5 20t1.5 19v19.5v19.5v6v6v13.5v12.5q0 9 -0.5 18t-1.5 18q-3 39 -28.5 71t-107.5 32h-89v-323v0z" />
    <glyph glyph-name="glyph258" unicode="&#x153;" horiz-adv-x="705" 
d="M181 222v-205h56v-17h-217v17h63v392h-63v17h217v-17h-56v-171h170v171h-56v17h217v-17h-63v-161h47q90 0 131.5 -27.5t54.5 -60.5q5 -12 7 -24t2 -22q0 -8 -1.5 -17t-4.5 -18q-10 -29 -46 -54t-112 -25h-232v17h56v205h-170v0zM449 17h38q62 0 76 19.5t16 47.5
q1 9 1.5 17.5t0.5 17.5t-0.5 17.5t-1.5 17.5q-4 39 -21 58t-61 19h-48v-214v0z" />
    <glyph glyph-name="perthousand" unicode="&#x160;" horiz-adv-x="955" 
d="M574 362h86q22 0 51.5 -1.5t60.5 -7.5q58 -12 106.5 -48t48.5 -116q0 -105 -56.5 -142t-124.5 -44q-20 -2 -38.5 -2.5t-36.5 -0.5h-286v20h77v616h-112q-80 0 -94.5 -50.5t-16.5 -208.5q0 -32 -0.5 -70t-1.5 -81v-6v-6q-4 -131 -18.5 -177.5t-83.5 -46.5q-54 0 -86 25
t-32 69q0 32 18.5 53t50.5 21q27 0 43 -14.5t19 -32.5v-2.5v-2.5q0 -10 -3.5 -22.5t-12.5 -25.5q-4 -7 -7 -14.5t-3 -17.5q0 -4 3.5 -7.5t8.5 -4.5q1 -1 2.5 -1h2.5q55 0 71 80.5t16 177.5q0 27 -0.5 54.5t-1.5 53.5q-1 27 -1.5 51t-0.5 43v15.5v15.5v15v15q0 44 -16 75
t-95 27v19h540v-19h-77v-274v0zM574 20h121q50 0 71.5 21.5t28.5 46.5q3 10 4.5 20t1.5 19v19.5v19.5v6v6v13.5v12.5q0 9 -0.5 18t-1.5 18q-3 39 -28.5 71t-107.5 32h-89v-323v0z" />
    <glyph glyph-name="eight" unicode="&#x161;" horiz-adv-x="666" 
d="M312 409h-44q-66 0 -77.5 -16.5t-12.5 -42.5l-8 -257q-1 -43 -17 -73t-70 -30q-31 0 -55.5 17t-24.5 49q0 27 16.5 42.5t35.5 15.5q20 0 35.5 -10t15.5 -32v-7.5t-2 -7.5q0 -1 -0.5 -1.5l-1.5 -1.5q0 -1 -0.5 -1.5l-0.5 -0.5l-1.5 -3t-0.5 -3v-3.5v-3.5q1 -6 3 -10t8 -4
q32 0 37.5 23.5t6.5 57.5l7 244v8v8q-1 16 -11.5 29.5t-43.5 13.5h-21v17h388v-17h-63v-161h48q104 0 149 -39.5t45 -95.5q0 -8 -1.5 -17t-4.5 -18q-11 -29 -46 -53.5t-112 -24.5h-239v17h63v392v0zM410 17h39q51 0 69 15t21 32q1 5 1 10v10v12v12v6v6v17v18v6.5t-1 7.5
q-2 23 -17.5 42.5t-63.5 19.5h-48v-214v0z" />
    <glyph glyph-name="greater" unicode="&#x192;" horiz-adv-x="382" 
d="M83 17v392h-63v17h348l6 -138h-21q-22 92 -60 107t-89 14h-7.5h-7.5h-8v-392h63v-17h-224v17h63v0z" />
    <glyph glyph-name="glyph237" unicode="&#x2c6;" 
 />
    <glyph glyph-name="seven" unicode="&#x2dc;" 
 />
    <glyph glyph-name="dollar" unicode="&#x2013;" horiz-adv-x="698" 
d="M49 337h600v-42h-600v42v0z" />
    <glyph glyph-name="numbersign" unicode="&#x2014;" horiz-adv-x="983" 
d="M927 201v-32h-871v32h871v0z" />
    <glyph glyph-name="four" unicode="&#x2018;" horiz-adv-x="327" 
d="M187 719l12 -16q-19 -13 -33.5 -31.5t-23.5 -37.5q-7 -13 -10.5 -26.5t-3.5 -24.5v-2v-2q2 -4 4.5 -8t6.5 -4q3 0 6 1l6 2q1 1 3 1.5t3 1.5q6 3 11.5 4.5t10.5 1.5q3 0 7 -0.5t7 -1.5q14 -5 25 -17.5t11 -34.5q0 -28 -20 -42t-45 -14q-3 0 -6.5 0.5t-6.5 1.5
q-20 6 -36.5 29.5t-16.5 61.5q0 49 26.5 91.5t62.5 65.5v0z" />
    <glyph glyph-name="quoteright" unicode="&#x2019;" horiz-adv-x="327" 
d="M140 413l-12 17l6 4t6 5q14 13 27.5 31.5t22.5 38.5q4 10 6.5 20.5t2.5 19.5v1.5v0.5q-1 6 -4 10.5t-7 4.5q-2 0 -5.5 -1t-6.5 -3l-1 -0.5l-1 -0.5q-1 -1 -2 -1.5t-2 -0.5q-3 -1 -5.5 -2t-5.5 -2t-5.5 -1h-5.5q-20 0 -35 14.5t-15 39.5q0 28 20 41.5t45 13.5
q3 0 6.5 -0.5t6.5 -1.5q20 -6 36.5 -28.5t16.5 -62.5q0 -31 -15.5 -72t-73.5 -85v0z" />
    <glyph glyph-name="parenleft" unicode="&#x201a;" horiz-adv-x="328" 
d="M141 -152l-12 16q18 14 32 31.5t24 36.5q7 14 10.5 27.5t3.5 25.5v2.5t-1 2.5q-1 5 -3.5 8t-5.5 3q-4 0 -7.5 -1t-7.5 -3q-1 -1 -2 -1.5t-2 -0.5q-6 -3 -11.5 -4t-10.5 -1q-20 0 -35 14t-15 39q0 28 20 41.5t45 13.5q4 0 13 -2.5t20 -10.5q12 -9 23 -28t11 -52
q0 -44 -17 -74.5t-46 -57.5q-6 -6 -12.5 -12t-13.5 -12v-1z" />
    <glyph glyph-name="oe" unicode="&#x201c;" horiz-adv-x="525" 
d="M187 721l12 -17q-17 -12 -29.5 -25t-20.5 -26q-11 -19 -16 -36.5t-5 -31.5v-2v-2q2 -4 4.5 -8t6.5 -4t6.5 1t5.5 2l1.5 1.5l1.5 1.5q4 2 9.5 3.5t15.5 1.5q20 0 35.5 -14t15.5 -40q0 -28 -20 -41.5t-45 -13.5t-46 23.5t-21 69.5q0 30 15.5 71.5t73.5 85.5v0zM384 721
l12 -16l-10 -8t-9 -7q-34 -31 -43 -59.5t-9 -45.5v-2t1 -2q1 -4 3 -7t5 -4q0 -1 0.5 -1h1.5q4 0 6.5 1t5.5 2l1.5 1.5l1.5 1.5q4 2 9.5 3.5t15.5 1.5q21 0 36 -14t15 -40q0 -28 -20 -41.5t-45 -13.5q-27 0 -47 25t-20 68q0 30 15.5 71.5t73.5 85.5v0z" />
    <glyph glyph-name="B" unicode="&#x201d;" horiz-adv-x="525" 
d="M141 415l-12 16q14 10 24.5 20.5t18.5 21.5q15 21 21 41.5t6 36.5v2v2q-1 4 -4 8t-6 4t-5.5 -0.5t-4.5 -2.5q-1 0 -2.5 -1t-3.5 -2q-4 -2 -9.5 -3.5t-15.5 -1.5q-20 0 -35 14t-15 39q0 29 19.5 42t42.5 14h1.5h1.5q27 0 47 -25t20 -68q0 -45 -16.5 -75t-44.5 -57
q-7 -6 -14 -12.5t-14 -12.5v0zM338 415l-12 16q14 10 24.5 20.5t18.5 21.5q15 21 21 41.5t6 36.5v2v2q-1 4 -4 8t-6 4t-5.5 -0.5t-4.5 -2.5q-1 0 -2.5 -1t-3.5 -2q-4 -2 -9.5 -3.5t-15.5 -1.5q-19 0 -34.5 14.5t-15.5 39.5q0 29 20 42t45 13q27 0 47 -25t20 -68t-15 -72
t-42 -55q-7 -8 -15 -15t-17 -15v0z" />
    <glyph glyph-name="quotedblbase" unicode="&#x201e;" horiz-adv-x="525" 
d="M141 -153l-12 16q19 14 34 32.5t24 37.5q6 13 9.5 26.5t3.5 24.5v1.5v0.5q-1 6 -4 10t-7 4h-5t-4 -2q-1 0 -2.5 -1t-3.5 -2q-4 -2 -9.5 -4t-15.5 -2q-24 0 -37.5 16t-13.5 37q0 29 20.5 42t45.5 13q4 0 9 -0.5t9 -2.5q18 -6 33 -27t15 -63q0 -29 -15.5 -70.5t-73.5 -85.5
v-1zM338 -153l-12 16q18 14 33 33t25 40q6 13 9 25t3 23v2.5t-1 2.5q-1 5 -3.5 8t-5.5 3h-3.5t-3.5 -1q-2 0 -4 -1.5t-4 -2.5q-5 -2 -11 -4t-15 -2q-19 0 -34.5 13.5t-15.5 39.5q0 29 20 42t45 13q26 0 46.5 -23.5t20.5 -69.5q0 -42 -15 -71t-42 -55q-7 -8 -15 -15t-17 -15
v-1z" />
    <glyph glyph-name="glyph233" unicode="&#x2020;" horiz-adv-x="577" 
d="M275 345v34q-4 1 -8.5 1h-8.5q-17 0 -36.5 -5t-46.5 -16q-2 -1 -3.5 -1.5t-2.5 -1.5q-19 -7 -37 -13.5t-35 -6.5q-24 0 -39.5 14.5t-15.5 36.5q0 5 0.5 10t1.5 11q4 16 14 29t31 13q16 0 33.5 -5t36.5 -12q2 0 4 -0.5t4 -1.5q41 -13 64 -17t34 -4h3t2 1h3h2q0 14 -2 31
t-5 35q-3 13 -5.5 25t-5.5 23q-2 9 -4.5 17t-4.5 15q-7 22 -9.5 37t-2.5 27q0 23 18.5 36t41.5 13q25 0 36.5 -18t11.5 -40q0 -14 -5.5 -32.5t-16.5 -50.5q-1 -2 -1.5 -3.5t-1.5 -3.5q-6 -19 -12 -42.5t-6 -54.5v-14q2 -1 5.5 -1h7.5q12 0 34 4t61 17q2 1 4 1.5t3 0.5
q3 1 5 2t4 1q17 6 33 10t30 4q23 0 35 -19t12 -44q0 -22 -15.5 -36.5t-39.5 -14.5q-17 0 -35 6.5t-37 13.5q-1 1 -2.5 1.5t-3.5 1.5q-28 11 -47.5 16t-36.5 5h-4h-4q-3 0 -5 -0.5t-4 -0.5v-34q0 -143 7 -183.5t15 -60.5t15 -59t7 -178q0 -52 -15 -70t-33 -19h-1.5h-1.5
q-24 0 -35.5 15t-16.5 33q-3 12 -3.5 23t-0.5 18q0 40 4 81.5t10 90.5q2 12 4.5 34.5t5.5 51.5q5 45 9 102t4 117v2v2v0z" />
    <glyph glyph-name="glyph236" unicode="&#x2021;" horiz-adv-x="570" 
d="M427 356v-19h-175q0 -23 -2.5 -48t-7.5 -51q-10 -46 -29.5 -89.5t-48.5 -72.5l2 -5q1 1 2 1.5t1 1.5q19 14 44.5 26t54.5 12q5 0 9.5 -0.5t9.5 -0.5q19 -3 38.5 -9.5l40.5 -13.5q33 -11 47 -13.5t21 -2.5q25 0 39.5 19.5t24.5 43.5q2 4 3.5 8.5t3.5 8.5l23 -6
q-1 -3 -2.5 -6.5t-3.5 -6.5q-1 -3 -2 -5.5t-2 -4.5q-21 -52 -47.5 -92.5t-79.5 -40.5q-31 0 -58 9.5t-51 21.5q-8 4 -15 8t-14 7q-13 7 -30 11.5t-36 4.5q-9 0 -23.5 -5t-30.5 -11q-3 -1 -6 -2.5l-7 -3.5q-11 -5 -21 -9.5t-17 -7.5l-7 21q39 12 55.5 34.5t21.5 46.5
q3 15 3.5 28.5t0.5 25.5v3.5v3.5q0 25 -1.5 46t-4.5 40q-2 18 -4.5 36t-5.5 39h-98v19h95q-1 10 -1.5 22.5t-1.5 26.5v16.5v15.5q0 112 66 170.5t151 58.5q66 0 103.5 -28t50.5 -62q3 -10 5 -19.5t2 -18.5q0 -23 -15.5 -39t-34.5 -18q-1 -1 -3 -1h-4q-27 0 -45 17.5
t-18 39.5q0 15 6.5 26t14.5 20l1.5 1.5l0.5 0.5q2 2 4 4.5t4 4.5q2 3 3.5 5.5t1.5 5.5t-1 6t-4 7q-6 9 -23.5 17t-46.5 8q-58 0 -84 -23.5t-33 -52.5q-3 -9 -4 -18.5t-1 -17.5q0 -29 3.5 -53.5t7.5 -43.5q2 -8 3.5 -15.5t2.5 -14.5q2 -10 3 -21.5t1 -26.5h175v0z" />
    <glyph glyph-name="glyph257" unicode="&#x2022;" horiz-adv-x="698" 
d="M251 350q0 41 29 69.5t69 28.5q41 0 69.5 -28.5t28.5 -69.5q0 -40 -28.5 -69t-69.5 -29q-40 0 -69 28.5t-29 69.5v0z" />
    <glyph glyph-name="glyph232" unicode="&#x2026;" horiz-adv-x="868" 
d="M98 45q0 22 13 35.5t28 18.5q4 1 7.5 1.5t7.5 0.5q23 0 39.5 -17t16.5 -39q0 -4 -0.5 -7.5t-1.5 -7.5q-5 -15 -18.5 -27.5t-35.5 -12.5q-24 0 -40 15.5t-16 39.5v0zM378 45q0 22 13 35.5t28 18.5q4 1 7.5 1.5t7.5 0.5q23 0 39.5 -17t16.5 -39q0 -4 -0.5 -7.5t-1.5 -7.5
q-5 -15 -18.5 -27.5t-35.5 -12.5q-24 0 -40 15.5t-16 39.5v0zM658 45q0 22 13 35.5t28 18.5q4 1 7.5 1.5t7.5 0.5q23 0 39.5 -17t16.5 -39q0 -4 -0.5 -7.5t-1.5 -7.5q-5 -15 -18.5 -27.5t-35.5 -12.5q-24 0 -40 15.5t-16 39.5v0z" />
    <glyph glyph-name="v" unicode="&#x2030;" horiz-adv-x="1210" 
d="M230 -95l-31 14l417 826l32 -14l-418 -826v0zM472 145q0 62 40.5 108.5t102.5 46.5q58 0 101.5 -45t43.5 -110t-43.5 -109.5t-101.5 -44.5q-57 0 -100 44t-43 110v0zM544 166v-42q0 -55 14.5 -80t31.5 -33q7 -4 14 -5t13 -1h4h4q23 3 43 28.5t20 90.5v42q0 59 -17.5 85
t-38.5 32q-4 1 -7.5 1.5t-7.5 0.5q-31 0 -52 -30t-21 -89v0zM838 145q0 66 43 110.5t100 44.5q58 0 101.5 -45t43.5 -110t-43.5 -109.5t-101.5 -44.5q-57 0 -100 44t-43 110v0zM910 166v-42q0 -55 14.5 -80t31.5 -33q7 -4 14 -5t13 -1h4h4q23 3 43 28.5t20 90.5v42
q0 59 -17.5 85t-38.5 32q-4 1 -7.5 1.5t-7.5 0.5q-30 0 -51.5 -30t-21.5 -89v0zM84 511q0 66 43 110.5t100 44.5q58 0 101.5 -45t43.5 -110t-43.5 -110t-101.5 -45q-57 0 -100 44.5t-43 110.5v0zM156 532v-42q0 -55 14.5 -80t31.5 -33q7 -4 14 -5t13 -1h4h4q23 3 43 28.5
t20 90.5v42q0 59 -17.5 85t-38.5 32q-4 1 -7.5 1.5t-7.5 0.5q-30 0 -51.5 -30t-21.5 -89v0z" />
    <glyph glyph-name="glyph243" unicode="&#x2039;" horiz-adv-x="306" 
d="M278 11l-9 -8q-55 64 -115.5 116t-125.5 93q65 41 125.5 92.5t115.5 116.5l9 -8q-31 -54 -66 -104t-73 -97q38 -46 73 -96.5t66 -104.5v0z" />
    <glyph glyph-name="less" unicode="&#x203a;" horiz-adv-x="306" 
d="M28 413l9 8q53 -65 114 -116.5t127 -92.5q-66 -41 -126.5 -93t-114.5 -116l-9 8q30 54 64.5 104.5t73.5 96.5q-39 47 -73.5 97t-64.5 104v0z" />
    <glyph glyph-name="six" unicode="&#x2122;" horiz-adv-x="560" 
d="M122 517v210h-80v23h188v-23h-80v-210h-28v0zM386 517l-77 210v-210h-28v233h49l70 -197l69 197h49v-233h-28v210l-77 -210h-27v0z" />
    <glyph glyph-name="periodcentered" unicode="&#x2219;" horiz-adv-x="193" 
d="M42 369q0 24 16 39.5t39 15.5t38.5 -15.5t15.5 -39.5q0 -22 -15.5 -38t-38.5 -16q-24 0 -39.5 16t-15.5 38v0z" />
    <glyph glyph-name="s" 
 />
    <glyph glyph-name="backslash" 
 />
    <glyph glyph-name="nine" 
 />
    <glyph glyph-name="colon" 
 />
    <glyph glyph-name="Y" 
 />
    <glyph glyph-name="X" 
 />
    <glyph glyph-name="asciicircum" 
 />
    <glyph glyph-name="semicolon" 
 />
    <glyph glyph-name="equal" 
 />
    <glyph glyph-name="exclam" 
 />
    <glyph glyph-name="five" 
 />
    <glyph glyph-name="Q" 
 />
    <glyph glyph-name="quotedblright" 
 />
    <glyph glyph-name="hyphen" 
 />
    <glyph glyph-name="space" 
 />
    <glyph glyph-name="E" 
 />
    <glyph glyph-name="M" 
 />
    <glyph glyph-name="plus" 
 />
    <glyph glyph-name="glyph229" 
 />
    <glyph glyph-name="glyph230" 
 />
    <glyph glyph-name="glyph231" 
 />
    <glyph glyph-name="glyph234" 
 />
    <glyph glyph-name="glyph235" 
 />
    <glyph glyph-name="glyph238" 
 />
    <glyph glyph-name="glyph239" 
 />
    <glyph glyph-name="glyph240" 
 />
    <glyph glyph-name="glyph241" 
 />
    <glyph glyph-name="glyph242" 
 />
    <glyph glyph-name="glyph244" 
 />
    <glyph glyph-name="glyph245" 
 />
    <glyph glyph-name="glyph246" 
 />
    <glyph glyph-name="glyph247" 
 />
    <glyph glyph-name="glyph248" 
 />
    <glyph glyph-name="glyph249" 
 />
    <glyph glyph-name="glyph250" 
 />
    <glyph glyph-name="glyph251" 
 />
    <glyph glyph-name="glyph252" 
 />
    <glyph glyph-name="glyph253" 
 />
    <glyph glyph-name="glyph254" 
 />
    <glyph glyph-name="glyph255" 
 />
    <glyph glyph-name="glyph256" 
 />
    <glyph glyph-name="glyph267" 
 />
    <glyph glyph-name="glyph268" 
 />
    <glyph glyph-name="glyph269" 
 />
    <glyph glyph-name="glyph270" 
 />
    <glyph glyph-name="glyph271" 
 />
    <glyph glyph-name="glyph272" 
 />
    <glyph glyph-name="glyph273" 
 />
    <glyph glyph-name="glyph274" 
 />
    <glyph glyph-name="glyph275" 
 />
    <glyph glyph-name="glyph276" 
 />
    <glyph glyph-name="glyph277" 
 />
    <glyph glyph-name="glyph278" 
 />
    <glyph glyph-name="glyph279" 
 />
    <glyph glyph-name="glyph280" 
 />
    <glyph glyph-name="glyph281" 
 />
    <glyph glyph-name="glyph282" 
 />
    <glyph glyph-name="glyph283" 
 />
    <glyph glyph-name="glyph284" 
 />
    <glyph glyph-name="glyph285" 
 />
    <glyph glyph-name="glyph286" 
 />
    <glyph glyph-name="glyph287" 
 />
    <glyph glyph-name="glyph288" 
 />
    <glyph glyph-name="glyph289" 
 />
    <glyph glyph-name="glyph290" 
 />
    <glyph glyph-name="glyph291" 
 />
    <glyph glyph-name="glyph292" 
 />
    <glyph glyph-name="glyph293" 
 />
    <glyph glyph-name="glyph294" 
 />
    <glyph glyph-name="glyph295" 
 />
    <glyph glyph-name="glyph296" 
 />
    <glyph glyph-name="glyph297" 
 />
    <glyph glyph-name="glyph298" 
 />
    <glyph glyph-name="glyph299" 
 />
    <glyph glyph-name="glyph300" 
 />
    <glyph glyph-name="glyph301" 
 />
    <glyph glyph-name="glyph302" 
 />
    <glyph glyph-name="glyph303" 
 />
    <glyph glyph-name="glyph304" 
 />
    <glyph glyph-name="glyph305" 
 />
    <glyph glyph-name="glyph306" 
 />
    <glyph glyph-name="glyph307" 
 />
    <glyph glyph-name="glyph308" 
 />
    <glyph glyph-name="glyph309" 
 />
    <glyph glyph-name="glyph310" 
 />
    <glyph glyph-name="glyph311" 
 />
    <glyph glyph-name="glyph312" 
 />
    <glyph glyph-name="glyph313" 
 />
    <glyph glyph-name="glyph314" 
 />
    <glyph glyph-name="glyph315" 
 />
    <glyph glyph-name="glyph316" 
 />
    <glyph glyph-name="glyph317" 
 />
    <glyph glyph-name="glyph318" 
 />
    <glyph glyph-name="glyph319" 
 />
    <glyph glyph-name="glyph320" 
 />
    <glyph glyph-name="glyph321" 
 />
    <glyph glyph-name="glyph322" 
 />
    <glyph glyph-name="glyph323" 
 />
    <glyph glyph-name="glyph324" 
 />
    <glyph glyph-name="glyph325" 
 />
    <glyph glyph-name="glyph326" 
 />
    <glyph glyph-name="glyph327" 
 />
    <glyph glyph-name="glyph328" 
 />
    <glyph glyph-name="glyph329" 
 />
    <glyph glyph-name="glyph330" 
 />
    <glyph glyph-name="glyph331" 
 />
    <glyph glyph-name="glyph332" 
 />
    <glyph glyph-name="glyph333" 
 />
    <glyph glyph-name="glyph334" 
 />
    <glyph glyph-name="glyph335" 
 />
    <glyph glyph-name="glyph336" 
 />
    <glyph glyph-name="glyph337" 
 />
    <glyph glyph-name="glyph338" 
 />
    <glyph glyph-name="glyph339" 
 />
    <glyph glyph-name="glyph340" 
 />
    <glyph glyph-name="glyph341" 
 />
    <glyph glyph-name="glyph342" 
 />
    <glyph glyph-name="glyph343" 
 />
    <glyph glyph-name="glyph344" 
 />
    <glyph glyph-name="glyph345" 
 />
    <glyph glyph-name="glyph346" 
 />
    <glyph glyph-name="glyph347" 
 />
    <glyph glyph-name="glyph348" 
 />
    <glyph glyph-name="glyph349" 
 />
    <glyph glyph-name="glyph350" 
 />
    <glyph glyph-name="glyph351" 
 />
    <glyph glyph-name="glyph352" 
 />
    <glyph glyph-name="glyph353" 
 />
    <glyph glyph-name="glyph354" 
 />
    <glyph glyph-name="glyph355" 
 />
    <glyph glyph-name="glyph356" 
 />
    <glyph glyph-name="glyph357" 
 />
    <glyph glyph-name="glyph358" 
 />
    <glyph glyph-name="glyph359" 
 />
    <glyph glyph-name="glyph360" 
 />
    <glyph glyph-name="glyph361" 
 />
    <glyph glyph-name="glyph362" 
 />
    <glyph glyph-name="glyph363" 
 />
    <glyph glyph-name="glyph364" 
 />
    <glyph glyph-name="glyph365" 
 />
    <glyph glyph-name="glyph366" 
 />
    <glyph glyph-name="glyph367" 
 />
    <glyph glyph-name="glyph368" 
 />
    <glyph glyph-name="glyph369" 
 />
    <glyph glyph-name="glyph370" 
 />
    <glyph glyph-name="glyph371" 
 />
    <glyph glyph-name="glyph372" 
 />
    <glyph glyph-name="glyph373" 
 />
    <glyph glyph-name="glyph374" 
 />
    <glyph glyph-name="glyph375" 
 />
    <glyph glyph-name="glyph376" 
 />
    <glyph glyph-name="glyph377" 
 />
    <glyph glyph-name="glyph378" 
 />
    <glyph glyph-name="glyph379" 
 />
    <glyph glyph-name="glyph380" 
 />
    <glyph glyph-name="glyph381" 
 />
    <glyph glyph-name="glyph382" 
 />
    <glyph glyph-name="glyph383" 
 />
    <glyph glyph-name="glyph384" 
 />
    <glyph glyph-name="glyph385" 
 />
    <glyph glyph-name="glyph386" 
 />
    <glyph glyph-name="glyph387" 
 />
    <glyph glyph-name="glyph388" 
 />
    <glyph glyph-name="glyph389" 
 />
    <glyph glyph-name="glyph390" 
 />
    <glyph glyph-name="glyph391" 
 />
    <glyph glyph-name="glyph392" 
 />
    <glyph glyph-name="glyph393" 
 />
    <glyph glyph-name="glyph394" 
 />
    <glyph glyph-name="glyph395" 
 />
    <glyph glyph-name="glyph396" 
 />
    <glyph glyph-name="glyph397" 
 />
    <glyph glyph-name="glyph398" 
 />
    <glyph glyph-name="glyph399" 
 />
    <glyph glyph-name="glyph400" 
 />
    <glyph glyph-name="glyph401" 
 />
    <glyph glyph-name="glyph402" 
 />
    <glyph glyph-name="glyph403" 
 />
    <glyph glyph-name="glyph404" 
 />
    <glyph glyph-name="glyph405" 
 />
    <glyph glyph-name="glyph406" 
 />
    <glyph glyph-name="glyph407" 
 />
    <glyph glyph-name="glyph408" 
 />
    <glyph glyph-name="glyph409" 
 />
    <glyph glyph-name="glyph410" 
 />
    <glyph glyph-name="glyph411" 
 />
    <glyph glyph-name="glyph412" 
 />
    <glyph glyph-name="glyph413" 
 />
    <glyph glyph-name="glyph414" 
 />
    <glyph glyph-name="glyph415" 
 />
    <glyph glyph-name="glyph416" 
 />
    <glyph glyph-name="glyph417" 
 />
    <glyph glyph-name="glyph418" 
 />
    <glyph glyph-name="glyph419" 
 />
    <glyph glyph-name="glyph420" 
 />
    <glyph glyph-name="glyph421" 
 />
    <glyph glyph-name="glyph422" 
 />
    <glyph glyph-name="glyph423" 
 />
    <glyph glyph-name="glyph424" 
 />
    <glyph glyph-name="glyph425" 
 />
    <glyph glyph-name="glyph426" 
 />
    <glyph glyph-name="glyph427" 
 />
    <glyph glyph-name="glyph428" 
 />
    <glyph glyph-name="glyph429" 
 />
    <glyph glyph-name="glyph430" 
 />
    <glyph glyph-name="glyph431" 
 />
    <glyph glyph-name="glyph432" 
 />
    <glyph glyph-name="glyph433" 
 />
    <glyph glyph-name="glyph434" 
 />
    <glyph glyph-name="glyph435" 
 />
    <glyph glyph-name="glyph436" 
 />
    <glyph glyph-name="glyph437" 
 />
    <glyph glyph-name="glyph438" 
 />
    <glyph glyph-name="glyph439" 
 />
    <glyph glyph-name="glyph440" 
 />
    <glyph glyph-name="glyph441" 
 />
    </font>
</defs>
</svg>
