<svg width="1900" height="1695" fill="none" xmlns="http://www.w3.org/2000/svg"><path d="M650.164 803.942c-5.838-12.215-11.675-24.985-17.513-37.199-18.242-.555-35.755-1.111-53.998-1.666l17.513 38.309c18.243 0 36.485 0 53.998.556zm-119.671-2.221c-5.838-13.325-11.675-26.65-17.513-40.53-18.242-1.111-35.755-2.221-53.998-3.332 5.838 14.436 11.676 28.316 17.513 42.196 18.243 1.111 35.755 1.111 53.998 1.666zm59.836 1.11l-17.513-38.309c-18.243-.555-35.756-1.666-53.998-2.776l17.513 39.975c18.242.555 36.485 1.11 53.998 1.11zm180.236 1.666c-5.838-12.215-11.675-23.874-17.513-36.089-18.242 0-35.755 0-53.998-.555 5.838 12.215 11.675 24.429 17.513 36.089 18.243.555 36.485.555 53.998.555zm-59.836 0l-17.513-36.644c-18.242 0-35.755-.555-53.997-1.11 5.837 12.214 11.675 24.984 17.512 37.199 18.243 0 35.756 0 53.998.555zM2092.05 486.918a85133.749 85133.749 0 0 0-17.51-386.98c-16.78 51.079-35.02 96.051-54 135.47a65505.445 65505.445 0 0 1 17.52 318.69c18.97-18.322 37.21-40.53 53.99-67.18zM831.13 803.942c-5.837-12.215-11.675-23.874-17.513-36.089h-53.998c5.838 12.215 11.676 23.874 17.513 36.089 17.513.555 35.756.555 53.998 0zm59.836-.556l-17.513-36.643c-18.243.555-35.756.555-53.998 1.11 5.837 12.215 11.675 23.874 17.513 36.089 18.242 0 35.755 0 53.998-.556zm120.404-2.22c-5.84-13.325-11.679-26.095-17.516-38.865-18.243 1.11-35.756 1.666-53.998 2.221 5.837 12.214 11.675 24.984 17.513 37.754 17.512 0 35.755-.555 54.001-1.11zM37.944 679.02c5.838 31.092 11.676 60.517 17.513 89.388 18.243 2.776 35.756 5.552 53.998 7.773-5.837-24.984-11.675-51.079-17.513-77.729C73.7 692.9 56.187 686.793 37.945 679.02zm191.912 108.821c-5.838-19.433-11.675-39.975-17.513-60.518-18.242-3.331-35.755-7.218-53.998-11.104 5.838 22.763 11.675 44.972 17.513 67.18 18.243 1.666 36.485 3.331 53.998 4.442zm-59.836-4.997c-5.837-22.209-11.675-44.417-17.512-67.736-18.243-4.441-35.756-8.883-53.998-14.435a8301.059 8301.059 0 0 0 17.513 76.619c18.242 1.665 35.755 3.886 53.997 5.552zm1752.74-429.176c-8.02-96.051-16.05-187.106-24.81-273.718-7.29 16.656-15.32 33.312-23.35 48.858 3.65 35.534 7.3 72.177 10.95 109.376.73 6.663 0 16.657-1.46 22.764-1.46 5.552-2.92 4.997-3.65-1.666-3.65-39.975-8.03-79.395-11.67-117.704-8.03 15.546-16.06 31.092-24.08 45.527 8.02 74.953 16.78 153.793 24.81 236.519 17.51-21.098 35.75-44.417 53.26-69.956zM410.092 798.39c-5.837-14.991-11.675-29.982-17.513-45.527-18.242-1.666-35.755-3.332-53.997-5.553 5.837 16.657 11.675 32.758 17.512 48.859 18.243.555 36.485 1.11 53.998 2.221zm-120.4-6.108c-5.838-17.766-11.676-36.088-17.513-54.41-18.243-2.776-35.756-5.552-53.998-8.883 5.837 20.542 11.675 39.975 17.513 59.407 18.242 1.666 36.485 2.776 53.998 3.886zm180.236 7.773c-5.838-13.88-11.675-28.315-17.513-42.751-18.243-1.11-35.755-2.776-53.998-4.441 5.838 15.545 11.675 30.536 17.513 45.527 18.242.555 36.485 1.11 53.998 1.665zm-119.671-4.441c-5.838-16.101-11.675-32.758-17.513-49.414-18.243-2.221-35.755-4.442-53.998-7.218 5.838 18.322 11.675 36.089 17.513 53.856 18.242.555 35.755 1.665 53.998 2.776zM1911.82 649.039c-5.84-74.398-11.68-146.02-17.51-214.866-17.52 20.543-35.76 39.42-54 56.631 5.84 59.407 11.67 121.036 17.51 184.885 18.97-8.329 36.49-17.212 54-26.65zm-180.24 71.621c-5.84-45.527-11.67-89.943-17.51-132.694-17.51 11.104-35.76 21.098-54 30.536a13636.1 13636.1 0 0 1 17.51 116.594c18.25-4.997 36.49-9.439 54-14.436zm60.57-18.877a21633.23 21633.23 0 0 0-17.52-154.903c-17.51 13.325-35.75 25.54-53.99 37.199 5.83 43.862 11.67 88.834 17.51 134.916 18.24-5.552 35.75-11.104 54-17.212zm-120.4 34.423c-5.84-39.42-11.68-77.729-17.52-114.928-17.51 8.883-35.75 17.212-53.99 24.985 5.83 32.757 11.67 66.625 17.51 101.047 18.24-3.331 36.48-7.217 54-11.104zm180.23-57.741a25403.878 25403.878 0 0 0-17.51-181.554c-17.51 16.102-35.76 31.647-54 45.528 5.84 50.524 11.68 103.268 17.51 157.123 18.25-6.662 36.49-13.88 54-21.097zm120.4-67.181c-5.83-88.833-11.67-174.89-17.51-257.061-17.51 26.095-35.75 50.524-54 72.177 5.84 70.511 11.68 143.244 17.52 218.752 18.24-9.994 36.48-21.098 53.99-33.868zm59.84-50.524c-5.84-108.265-11.68-212.644-17.51-312.027-17.52 34.978-35.03 66.625-54 95.496 5.84 83.837 11.67 171.004 17.51 262.058 18.24-12.769 36.49-28.315 54-45.527zm-420.31 188.216c-5.84-34.423-11.67-67.735-17.51-99.937-17.51 7.217-35.76 14.435-54 21.097 5.84 28.871 11.68 58.297 17.51 88.834 18.25-3.331 35.76-6.663 54-9.994zm-589.6 52.19c16.06-.556 32.84-1.111 48.89-1.666-5.84-13.88-11.67-27.205-17.51-40.53-10.22.555-20.43 1.665-31.38 2.221-7.29.555-15.32 1.11-22.619 1.11 5.839 12.77 11.679 26.095 17.509 38.865h5.11zm839.89-370.324c-8.03-81.061-16.05-158.79-24.81-232.077-7.3 13.325-15.33 26.094-23.35 38.864 3.65 30.537 7.3 61.628 10.94 93.275.73 5.552 0 14.436-1.46 18.877-1.46 4.442-2.91 3.887-3.64-1.665-3.65-34.423-8.03-67.736-11.68-100.493-8.03 12.77-16.05 24.984-24.08 36.644 8.03 64.404 16.78 131.584 24.81 202.096 17.51-16.657 35.76-35.534 53.27-55.521zm-310.85 328.683c-5.84-29.981-11.68-58.852-17.52-87.168-17.51 6.108-35.75 12.215-54 17.212a8839.85 8839.85 0 0 1 17.52 78.284c18.24-2.776 36.48-5.552 54-8.328zm-240.08 27.205c-5.83-18.877-11.67-37.199-17.51-55.521-18.24 2.776-35.75 5.552-54 8.328 5.84 16.657 11.68 33.868 17.52 51.08 18.24-1.111 35.75-2.221 53.99-3.887zm-59.83 4.442c-5.84-17.212-11.68-33.868-17.51-50.524-18.25 2.221-35.76 4.442-54 6.662 5.84 15.546 11.67 31.092 17.51 46.638 18.24-.555 35.76-1.666 54-2.776zm-173.67 8.328h3.65l50.35-1.666-17.52-43.306c-10.94 1.111-21.16 1.666-32.1 2.776-7.3.555-14.6 1.111-21.16 1.666 4.37 12.77 10.21 26.65 16.78 40.53-.73 0-.73 0 0 0zm113.1-4.997c-5.83-15.546-11.67-31.092-17.51-46.637-18.24 2.22-35.76 3.886-54 5.552 5.84 14.435 11.68 28.871 17.52 43.861 18.24-1.11 36.48-1.665 53.99-2.776zm300.64-26.095c-5.84-26.094-11.68-52.189-17.51-77.174-17.52 4.997-35.76 9.994-54 14.436 5.84 22.763 11.67 45.527 17.51 69.401 18.24-2.221 36.49-4.442 54-6.663zm-59.84 7.218a5804.814 5804.814 0 0 0-17.51-68.291c-18.24 4.442-35.75 8.329-54 12.215 5.84 19.988 11.68 41.085 17.52 62.183 18.24-2.22 35.75-3.886 53.99-6.107zm-60.56 6.107c-5.84-21.098-11.68-41.085-17.51-61.073-18.25 3.332-35.76 6.663-54 9.994 5.84 18.322 11.67 36.644 17.51 56.076 18.24-1.665 36.49-3.331 54-4.997zm-420.309 21.098c-5.837-12.769-11.675-24.984-17.513-37.199-18.242.556-35.755 1.111-53.998 1.666l17.513 36.644c18.243-.556 36.485-1.111 53.998-1.111zm-590.328-62.183c-8.027-22.208-16.784-44.972-24.81-68.846-8.027-1.666-15.324-3.331-23.351-5.552 3.649 11.104 7.297 21.653 10.946 32.202.729 1.666 0 3.887-1.46 4.442-1.459.555-2.918-.555-3.648-2.776-3.649-11.66-8.027-23.319-11.675-35.534-8.027-2.22-16.054-3.886-24.08-6.107 8.026 25.54 16.053 50.524 24.809 74.953 17.513 2.776 35.026 4.997 53.269 7.218zm120.4 11.104c-8.026-19.432-16.783-38.864-24.81-58.852-8.026-1.11-15.323-2.221-23.35-3.331 3.649 8.883 7.297 18.322 10.946 27.205.729 1.666 0 3.331-1.46 3.886-1.459.556-2.919-.555-3.648-2.22-3.649-9.994-8.027-19.988-11.676-29.982-8.026-1.11-16.053-2.776-24.08-3.886 8.027 21.098 16.054 42.196 24.81 62.738 16.783 1.666 35.026 3.332 53.268 4.442zm-60.565-4.997c-8.027-20.542-16.783-41.64-24.81-63.294-8.026-1.11-15.323-2.776-23.35-4.441 3.648 9.994 7.297 19.432 10.945 29.426.73 1.666 0 3.331-1.459 3.886-1.459.556-2.919-.555-3.649-2.22-3.648-10.549-8.026-21.654-11.675-32.203l-24.08-4.997c8.027 23.319 16.053 46.083 24.81 67.736 17.513 2.776 35.755 4.442 53.268 6.107zM299.907 732.32c-8.026-24.429-16.783-49.414-24.81-75.508-8.026-2.221-15.323-4.442-23.35-6.663 3.649 12.215 7.297 23.874 10.946 35.533.729 2.221 0 3.887-1.46 4.442-1.459.555-2.919-.555-3.648-2.776-3.649-12.77-8.027-26.095-11.676-39.42-8.026-2.776-16.053-4.997-24.08-7.773 8.027 28.316 16.054 56.076 24.81 83.282 17.513 3.331 35.756 6.107 53.268 8.883zm-59.835-9.994c-8.027-27.205-16.783-54.966-24.81-83.836-8.027-2.776-15.324-5.552-23.35-8.329l10.945 39.975c.73 2.221 0 4.442-1.459 4.997-1.46.556-2.919-1.11-3.649-3.331-3.648-14.435-8.027-29.426-11.675-43.861l-24.08-9.994c8.026 32.202 16.053 63.294 24.81 93.83 17.512 3.887 35.755 7.218 53.268 10.549zm421.038 38.309c-8.027-16.656-16.054-33.867-24.81-50.523-8.027-.556-15.324-.556-23.351-1.111 3.649 7.773 7.297 15.546 10.946 22.764.73 1.11 0 2.776-1.46 3.331-1.459.555-2.918 0-3.648-1.666-3.649-8.328-8.027-16.656-11.675-24.984l-24.08-1.666c8.026 17.767 16.053 34.978 24.809 52.19 16.784.555 35.026 1.11 53.269 1.665zm-120.401-4.996c-8.027-18.322-16.054-36.644-24.81-55.521-8.027-.556-15.324-1.666-23.35-2.776 3.648 8.328 7.297 17.211 10.945 25.539.73 1.666 0 3.332-1.459 3.332-1.46.555-2.919-.556-3.649-1.666-3.648-9.439-8.027-18.322-11.675-27.761l-24.08-3.331c8.027 19.988 16.053 39.42 24.81 58.297 17.512 1.666 35.025 2.776 53.268 3.887zm59.835 2.776c-8.026-17.212-16.053-34.979-24.809-52.745-8.027-.555-15.324-1.111-23.351-1.666 3.649 8.328 7.297 16.101 10.946 23.874.729 1.666 0 2.776-1.46 3.331-1.459.556-2.919 0-3.648-1.665-3.649-8.884-8.027-17.767-11.675-26.095-8.027-.555-16.054-1.666-24.081-2.221 8.027 18.322 16.054 37.199 24.81 54.966 17.513 1.11 35.755 1.665 53.268 2.221zM59.836 672.357c-8.027-41.085-16.784-83.836-24.08-128.808-8.027-6.107-15.324-13.325-23.351-20.543 3.648 21.653 7.297 43.307 10.946 64.404.73 3.887 0 6.663-1.46 7.218-1.46.555-2.919-2.221-3.648-6.107-3.649-23.319-8.027-47.193-11.676-71.622-1.46-1.666-3.648-3.331-5.108-5.552v102.158c1.46 11.104 3.649 21.653 5.108 32.202 16.784 10.549 35.026 19.433 53.269 26.65zM2046.81 1599h13.87c-3.65-12.21-8.03-23.87-11.68-34.98l-2.19 34.98zm-70.78 0h63.49c.73-17.21 2.18-34.42 2.91-52.19-16.78-45.53-35.02-86.61-53.99-123.26-3.65 60.52-8.03 118.82-12.41 175.45zm105.08-13.32l4.38 13.32H2103v-403.64c-1.46-2.22-2.19-3.88-3.65-6.1-6.57 139.35-12.4 270.94-18.24 396.42zm-152.51-264.84c-8.03 97.72-16.05 189.88-24.81 277.6v.56h29.19c2.19-26.65 4.38-53.3 6.57-80.51.73-7.77 2.19-8.32 3.65-1.11 1.45 7.22 2.18 19.44 1.45 27.21-1.45 18.32-2.91 36.64-4.37 54.41h27.73c4.37-60.52 9.48-123.26 13.86-187.66-16.78-32.76-35.03-62.74-53.27-90.5zM119.671 693.455c-8.027-34.978-16.783-71.622-24.81-109.376-8.026-4.441-15.324-9.438-23.35-13.88l10.945 53.3c.73 2.776 0 6.107-1.46 6.107-1.459.555-2.918-1.665-3.648-4.997-3.648-19.432-8.026-38.864-11.675-58.852-8.027-5.552-16.053-11.104-24.08-17.766 8.027 43.861 16.053 86.057 24.81 126.587 17.513 7.773 35.755 13.88 53.268 18.877zm60.565 16.101c-8.026-30.536-16.783-62.183-24.81-94.94-8.026-3.332-15.323-7.218-23.35-10.549 3.649 15.546 7.297 30.536 10.946 45.527.729 2.776 0 4.997-1.46 5.552-1.459.555-2.919-1.111-3.648-3.887-3.649-16.656-8.027-33.312-11.676-50.524-8.026-3.886-16.053-8.328-24.08-12.769 8.027 37.199 16.054 72.732 24.81 107.71 17.513 4.997 35.026 9.994 53.268 13.88zm540.709 52.19c-8.027-16.656-16.053-32.757-24.81-49.414-8.026 0-15.323-.555-23.35-.555 3.648 7.218 7.297 14.991 10.945 22.208.73 1.111 0 2.776-1.459 3.332-1.459.555-2.919 0-3.649-1.666-3.648-8.328-8.026-16.101-11.675-24.429-8.026-.555-16.053-.555-24.08-1.11 8.027 17.211 16.054 33.867 24.81 50.523 17.513.556 35.026.556 53.268 1.111zM2042.43 118.815c-2.18-40.53-4.37-79.95-7.29-118.815h-31.38v.555c-1.46 8.884-2.92 8.328-3.65-.555h-29.19c5.84 77.174 11.68 157.679 17.52 242.071 18.97-36.644 37.21-77.174 53.99-123.256zm-720.94 596.849c-8.03-24.985-16.05-48.859-24.81-72.733-8.03 2.221-15.32 4.997-23.35 7.218 3.65 9.994 7.3 19.987 10.94 30.536.73 1.666 0 4.442-1.45 5.552-1.46 1.111-2.92.556-3.65-1.11-3.65-11.104-8.03-22.208-11.68-32.757-8.02 2.221-16.05 4.441-24.08 6.662 8.03 21.653 16.78 43.862 24.81 67.181 17.51-3.887 35.76-7.218 53.27-10.549zm180.24-48.304c-8.03-34.422-16.06-67.735-24.81-99.937-8.03 4.442-15.33 8.328-23.35 12.215 3.64 13.325 7.29 27.205 10.94 41.64.73 2.221 0 6.107-1.46 7.773-1.46 1.666-2.92 1.11-3.65-1.11-3.65-14.991-8.02-29.982-11.67-44.417-8.03 3.886-16.06 7.773-24.08 11.659 8.02 28.871 16.78 59.408 24.81 90.499 17.51-6.662 35.75-12.214 53.27-18.322zm300.63-174.89c-8.02-69.401-16.05-135.471-24.81-198.765-7.29 11.104-15.32 21.098-23.35 31.647 3.65 26.095 7.3 52.745 10.95 80.505.73 4.997 0 12.215-1.46 16.101-1.46 3.887-2.92 3.332-3.65-1.665-3.65-29.426-8.03-58.297-11.67-86.613-8.03 10.549-16.06 20.543-24.09 29.981 8.03 55.521 16.79 113.263 24.81 173.781 17.52-13.88 35.76-28.871 53.27-44.972zm-421.03 209.869c-8.03-27.761-16.06-54.411-24.81-79.95-8.03 2.776-15.33 5.552-23.36 8.328l10.95 33.312c.73 2.221 0 4.997-1.46 6.107-1.46 1.111-2.92 1.111-3.65-1.11-3.65-12.215-8.02-24.429-11.67-36.088-8.03 2.776-16.06 5.552-24.08 8.328 8.02 23.874 16.78 48.303 24.81 73.287 17.51-3.886 35.75-7.773 53.27-12.214zm180.23-58.297c-8.03-39.42-16.05-77.174-24.81-113.263-8.03 4.997-15.32 9.994-23.35 14.991 3.65 14.99 7.3 30.536 10.95 46.637.73 2.776 0 6.663-1.46 8.884-1.46 2.22-2.92 1.665-3.65-1.111-3.65-17.211-8.03-33.868-11.68-50.524-8.02 4.997-16.05 9.439-24.08 13.88 8.03 32.758 16.79 66.625 24.81 101.604a2109.503 2109.503 0 0 0 53.27-21.098zm-119.67 42.195c-8.03-30.536-16.05-60.517-24.81-89.388-8.03 3.331-15.32 6.662-23.35 9.994 3.65 12.214 7.3 24.429 10.95 37.199.73 2.221 0 5.552-1.46 6.662-1.46 1.666-2.92 1.111-3.65-1.11-3.65-13.325-8.03-26.65-11.68-39.975-8.02 3.331-16.05 6.662-24.08 9.993 8.03 26.095 16.79 53.3 24.81 81.061 17.52-4.442 35.03-8.883 53.27-14.436zm180.24-69.956c-8.03-44.972-16.06-87.723-24.81-129.363-7.3 6.107-15.33 12.214-23.35 17.766 3.64 17.212 7.29 34.979 10.94 52.745.73 3.331 0 7.773-1.46 9.994s-2.92 1.666-3.65-1.111c-3.64-19.432-8.02-38.309-11.67-57.186-8.03 6.107-16.05 11.659-24.08 17.212 8.03 36.643 16.78 74.953 24.81 114.928 17.51-7.773 35.02-16.101 53.27-24.985zM780.781 761.746c-8.027-16.101-16.054-32.202-24.81-48.858H732.62l10.946 21.653c.73 1.11 0 2.776-1.459 3.331-1.46.555-2.919 0-3.649-1.111-3.648-7.772-8.027-16.101-11.675-23.873-8.027 0-16.054 0-24.08-.556 8.026 16.657 16.053 32.758 24.809 49.414h53.269zm901.179-179.332c-8.02-51.635-16.05-101.048-24.81-148.241-7.29 7.218-15.32 14.435-23.35 21.098 3.65 19.987 7.3 39.975 10.95 60.518.73 3.886 0 8.883-1.46 11.659-1.46 2.776-2.92 2.221-3.65-1.666-3.65-22.208-8.03-43.861-11.68-64.959-8.02 7.218-16.05 13.88-24.08 20.543 8.03 41.64 16.79 85.502 24.81 131.029 17.52-8.884 35.76-18.877 53.27-29.981zm59.84-40.531c-8.03-59.407-16.06-116.593-24.81-171.004-7.3 8.884-15.33 17.767-23.35 26.095 3.65 22.764 7.29 46.082 10.94 69.401.73 4.442 0 10.549-1.46 13.88-1.46 3.331-2.92 2.776-3.64-1.665-3.65-25.54-8.03-50.524-11.68-74.954-8.03 8.329-16.05 16.657-24.08 24.985 8.03 47.748 16.78 98.272 24.81 150.461a789.14 789.14 0 0 0 53.27-37.199zm-720.22 211.535c-8.02-17.767-16.05-34.978-24.808-51.635-8.026.556-15.323 1.666-23.35 2.221 3.648 7.218 7.297 14.991 10.946 22.764.729 1.11 0 2.776-1.46 3.886-1.459.555-2.919 0-3.648-1.11-3.649-8.328-8.027-16.101-11.676-24.429-8.026.555-16.053 1.11-24.08 2.22 8.027 16.657 16.054 33.313 24.81 50.524 17.513-2.22 35.026-3.331 53.266-4.441zm-60.563 3.331c-8.027-16.656-16.053-33.312-24.81-49.969-8.027.556-15.324 1.111-23.35 1.666l10.945 21.653c.73 1.11 0 2.776-1.459 3.331-1.46.555-2.919 0-3.649-1.11-3.648-7.773-8.026-16.101-11.675-23.874-8.027.555-16.053 1.11-24.08 1.11 8.027 16.101 16.053 32.758 24.81 49.414 17.513-.555 35.755-1.111 53.268-2.221zm-59.835 2.776c-8.027-16.656-16.054-32.757-24.81-48.858-8.027.555-15.324.555-23.351 1.11l10.946 21.653c.729 1.111 0 2.776-1.46 3.331-1.459.556-2.918 0-3.648-1.11-3.649-7.773-8.027-15.546-11.675-23.319-8.027 0-16.054.556-24.081.556 8.027 16.101 16.054 32.202 24.81 48.858 17.513-1.111 35.026-1.666 53.269-2.221zm-59.836 1.666c-8.027-16.101-16.053-32.202-24.81-48.859-8.027 0-15.324.556-23.35.556l10.945 21.653c.73 1.11 0 2.776-1.459 3.331-1.46.555-2.919 0-3.649-1.111-3.648-7.772-8.026-15.545-11.675-23.318h-24.08c8.027 16.101 16.053 32.757 24.81 48.858 16.783-.555 35.025-1.11 53.268-1.11zm180.964-19.988c1.46 3.887 3.65 7.773 5.11 11.66 17.51-1.111 35.76-2.777 53.27-3.887v-1.11a2543.127 2543.127 0 0 0-24.08-53.3c-7.3 1.11-15.33 2.22-22.62 2.776 3.65 7.773 7.29 15.546 10.94 23.318.73 1.111 0 3.332-1.46 3.887 0 0-.73 0-.73.555-.73 0-2.19-.555-2.92-1.665-3.64-8.329-8.02-17.212-11.67-25.54-1.46 0-3.65.555-5.11.555-6.57.555-12.4 1.666-18.97 2.221 5.11 13.325 11.67 26.65 18.24 40.53zm239.34-14.435c-8.02-22.764-16.05-44.972-24.81-66.625-8.02 2.221-15.32 3.886-23.35 5.552l10.95 28.315c.73 1.666 0 3.887-1.46 4.997-1.46 1.111-2.92.555-3.65-1.11-3.65-9.994-8.03-20.543-11.67-30.537-8.03 1.666-16.06 3.887-24.08 5.552 8.02 19.988 16.78 40.531 24.81 61.629 17.51-2.221 35.02-4.997 53.26-7.773zm-60.56 8.883c-8.03-21.098-16.05-41.641-24.81-61.628-8.03 1.666-15.32 3.331-23.35 4.442 3.65 8.883 7.3 17.211 10.94 26.094.73 1.666 0 3.332-1.46 4.442-1.45 1.11-2.91.555-3.64-1.11-3.65-9.439-8.03-18.877-11.68-28.316-8.03 1.666-16.05 2.776-24.08 4.442 8.03 18.877 16.78 38.309 24.81 57.741 17.51-1.665 35.76-3.886 53.27-6.107zm-59.84 7.218c-8.02-19.433-16.05-38.865-24.81-57.187-8.02 1.111-15.32 2.776-23.35 3.887 3.65 8.328 7.3 16.101 10.95 24.429.73 1.666 0 3.331-1.46 4.442-1.46 1.11-2.92.555-3.65-1.111-3.65-8.883-8.03-17.766-11.67-26.65-2.19.555-4.38.555-6.57 1.111-5.84 1.11-11.68 1.665-17.51 2.776 8.02 17.766 16.05 36.088 24.81 54.41 17.51-2.221 35.75-3.886 53.26-6.107zM32.107 676.244C21.16 671.802 10.945 666.25.73 660.698v96.606c16.053 3.887 32.836 7.218 48.89 9.994-5.838-29.426-11.675-59.407-17.513-91.054zM1077.77 865.015c-.73 0-.73 0 0 0-5.84 13.88-12.41 27.76-18.24 41.085 7.29.555 14.59 1.11 21.16 1.666 10.94 1.11 21.16 1.665 32.1 2.776l17.52-43.307-50.35-1.665s-1.46-.555-2.19-.555zm-378.716 31.646c18.243 0 35.756-.555 53.998-.555 5.838-12.214 11.675-23.874 17.513-36.088h-53.998l-17.513 36.643zm420.306 14.436c18.24 1.666 35.76 3.331 54 5.552a2070.172 2070.172 0 0 0 17.51-46.638c-18.24-1.11-35.75-1.665-53.99-2.776-5.11 14.991-11.68 29.426-17.52 43.862zm60.57 6.107c18.24 2.221 35.75 4.442 54 6.663 5.83-16.657 11.67-33.313 17.51-50.524-18.24-1.111-35.76-2.221-54-3.332-5.84 16.101-11.67 31.647-17.51 47.193zm-157.62-53.855h-4.38c-5.83 13.325-11.67 26.095-17.51 38.865 7.3.555 15.32 1.11 22.62 1.11 10.22.555 20.43 1.11 31.38 2.221 5.84-13.325 11.67-27.205 17.51-40.53-17.51-.556-33.56-1.111-49.62-1.666zm-263.42 32.757h53.998c5.837-12.214 11.675-23.874 17.512-36.088h-53.998c-5.107 12.214-10.945 24.429-17.512 36.088zm60.565.555c18.242 0 35.755.556 53.998 1.111l17.513-36.644c-18.243 0-35.756-.555-53.998-.555-5.838 12.215-11.676 23.874-17.513 36.088zm59.835 1.111c18.243.555 35.756 1.11 53.998 1.666 5.838-12.215 11.676-24.985 17.513-37.199-18.242-.556-35.755-.556-53.998-1.111l-17.513 36.644zm59.836 1.666c18.243.555 35.755 1.665 53.998 2.22 5.838-12.769 11.676-25.539 17.516-38.864-18.246-.555-35.759-1.111-54.001-1.111-5.108 12.77-10.946 25.54-17.513 37.755zm300.634 25.539c18.25 2.776 35.76 4.997 54 8.328 5.84-18.322 11.68-36.644 17.51-55.521-18.24-1.11-35.75-2.776-53.99-3.886-5.84 17.211-11.68 34.423-17.52 51.079zm420.31 122.143c18.24 9.44 35.76 19.44 54 30.54 5.84-42.75 11.67-87.168 17.51-132.695-17.51-4.997-35.75-9.994-54-13.881-5.1 39.42-10.94 78.286-17.51 116.036zm-119.67-52.187c18.24 6.667 35.76 13.327 54 21.097 5.84-32.201 11.67-65.513 17.51-99.936-18.24-3.331-35.75-6.663-54-9.439a11947.21 11947.21 0 0 1-17.51 88.278zm59.84 23.877c18.24 7.77 35.75 16.1 53.99 24.98 5.84-37.2 11.68-75.507 17.52-114.926-18.25-4.442-35.76-8.329-54-11.66-5.84 34.978-11.68 68.291-17.51 101.606zm120.4 62.74c18.24 11.66 35.75 23.87 53.99 37.19 5.84-49.96 11.68-101.6 17.52-154.898-17.52-6.108-35.76-12.215-54-17.212a22441.37 22441.37 0 0 1-17.51 134.92zM1420 958.845c18.24 4.441 35.75 9.438 54 14.435 5.83-24.984 11.67-50.524 17.51-77.174-18.24-2.221-35.76-4.441-54-6.662-5.84 23.874-11.67 47.192-17.51 69.401zm59.83 16.656c18.25 5.552 35.76 11.104 54 17.212 5.84-28.316 11.68-57.742 17.52-87.168-18.25-2.776-35.76-5.552-54-7.773-5.11 26.095-11.68 52.189-17.52 77.729zm-119.67-29.981c18.25 3.886 35.76 7.773 54 12.214a5799.53 5799.53 0 0 0 17.51-68.29c-18.24-2.221-35.75-3.887-53.99-5.552-5.84 20.542-11.68 41.64-17.52 61.628zm-60.56-11.104c18.24 2.776 35.75 6.107 54 9.993 5.83-19.987 11.67-40.53 17.51-61.072-18.24-1.666-35.76-3.332-54-4.442-5.11 18.322-11.67 37.199-17.51 55.521zm-1020.854-8.328c18.243-2.777 35.755-4.997 53.998-7.218 5.838-16.656 11.675-33.313 17.513-49.414-18.243 1.111-35.756 1.666-53.998 2.776-5.838 17.212-11.675 35.534-17.513 53.856zM5.838 1018.81c-1.46 10.55-3.649 21.65-5.108 32.2v101.6c1.46-1.66 3.648-3.88 5.108-5.55 3.648-24.43 8.026-48.3 11.675-71.07.73-3.88 2.189-6.66 3.648-6.1 1.46.55 2.19 3.33 1.46 7.21-3.649 20.55-7.297 42.2-10.946 63.85 7.297-7.21 15.324-13.88 23.35-20.54 8.027-44.97 16.054-87.72 24.81-128.253-18.242 7.773-36.484 16.103-53.997 26.653zM1080.69 840.03c-19.7 0-39.41-.555-59.11-.555C680.812 837.254 340.041 829.481 0 850.024v39.42c167.102-32.202 340.041-30.537 510.791-33.868 170.021-3.331 340.771-3.331 510.789.555 19.7.556 39.41 1.111 59.11 1.111 170.02 4.441 342.96 7.217 513.71 28.315 86.1 10.549 172.21 25.54 255.39 54.411 86.84 29.981 182.43 77.172 252.48 168.782V918.87c-158.34-64.96-340.04-63.849-510.06-69.956-170.75-6.663-340.77-7.218-511.52-8.884zM49.62 897.217c-16.054 2.776-32.837 6.107-48.89 9.993v96.61c10.215-6.111 20.431-11.107 31.377-15.549 5.837-31.092 11.675-61.628 17.513-91.054zm48.89 67.18c17.513-5.552 35.755-9.994 53.998-14.435 5.837-23.319 11.675-45.528 17.512-67.736-18.242 1.666-35.755 3.887-53.997 6.107-5.838 24.43-11.676 49.969-17.513 76.064zM37.944 986.05c17.513-7.773 35.756-13.88 53.998-19.432 5.838-26.65 11.676-52.745 17.513-77.729-18.242 2.22-35.755 4.996-53.998 7.772-5.837 28.316-11.675 58.297-17.513 89.389zM2081.11 0h-37.95c2.19 33.313 3.65 67.18 5.84 101.603A1397.672 1397.672 0 0 0 2081.11 0zm-231.32 725.657c-83.18 28.316-170.02 43.862-255.39 53.856-170.75 20.542-342.96 23.318-512.98 27.76-19.7.555-39.41 1.11-59.11 1.11-170.018 3.332-340.769 3.332-510.789.556C341.5 805.607 167.831 807.273.73 775.626v38.865c339.31 20.542 680.81 12.769 1021.58 10.549 19.7 0 39.41 0 59.11-.556 170.02-1.665 340.77-2.22 510.79-8.328 170.75-6.107 351.72-4.997 510.06-70.511V557.984c-70.05 91.055-165.64 137.692-252.48 167.673zm231.32-645.152c5.84 124.922 12.4 257.062 17.51 396.419 1.46-2.221 2.19-3.886 3.65-6.107V4.442c-6.57 27.76-13.86 52.745-21.16 76.063zM338.582 917.76c18.242-2.22 35.755-3.886 53.997-5.552 5.838-15.546 11.676-30.536 17.513-45.527-18.242.555-35.755 1.666-53.998 2.221-5.837 16.101-11.675 32.202-17.512 48.858zm180.236-14.99c18.242-1.111 35.755-1.666 53.998-2.776l17.513-38.31c-18.243.556-35.756.556-53.998 1.111l-17.513 39.975zm-59.836 3.886c18.243-1.11 35.756-2.221 53.998-3.331 5.838-13.325 11.675-27.205 17.513-40.53-18.243.555-35.755 1.11-53.998 1.665-5.837 13.881-11.675 27.761-17.513 42.196zm119.671-6.662c18.243-.555 35.756-1.111 53.998-1.666 5.838-12.214 11.675-24.984 17.513-37.199-18.242 0-35.755.555-53.998.555-5.108 12.77-11.675 25.54-17.513 38.31zm-420.308 48.303c18.243-4.442 35.756-7.773 53.998-11.104 5.838-20.543 11.675-40.531 17.513-60.518-18.243 1.11-35.755 2.776-53.998 4.442-5.838 21.653-11.675 44.416-17.513 67.18zm240.072-36.644c18.243-1.666 35.755-3.331 53.998-4.442 5.838-14.435 11.675-28.87 17.513-42.751-18.243.556-35.756 1.111-53.998 1.666-5.108 14.991-11.675 29.981-17.513 45.527zm240.802-13.88c18.242-.555 35.755-1.111 53.997-1.111l17.513-36.643c-18.242 0-35.755 0-53.998.555-5.837 12.77-11.675 24.984-17.512 37.199zm-421.038 37.754c18.242-3.331 35.755-6.107 53.998-8.883 5.837-18.322 11.675-36.644 17.513-54.411-18.243 1.111-35.756 2.221-53.998 3.887-5.108 19.432-11.676 39.42-17.513 59.407zM1780.47 1123.19c18.24 13.88 36.49 28.87 54 45.52 5.84-58.29 11.68-118.81 17.51-181.55-17.51-7.772-35.75-14.99-54-21.098-5.83 53.858-11.67 106.598-17.51 157.128zM727.512 903.324c-8.026 16.101-16.053 32.757-24.809 49.414 8.026 0 16.053-.556 24.08-.556 3.648-7.773 8.027-15.546 11.675-23.874.73-1.11 2.189-1.665 3.649-1.11 1.459.555 2.189 2.221 1.459 3.331l-10.946 21.653h23.351c8.027-16.101 16.053-32.202 24.81-48.858a852.336 852.336 0 0 0-53.269 0zM1568.13 1023.8c-8.03 39.42-16.05 77.73-24.81 114.38 8.03 5.55 16.05 11.1 24.08 17.21 3.65-18.32 8.03-37.2 11.67-56.63.73-3.33 2.19-3.89 3.65-1.11 1.46 2.22 2.19 7.21 1.46 9.99-3.65 17.77-7.29 35.53-10.94 52.75 8.02 5.55 15.32 11.65 23.35 17.76 8.02-41.08 16.78-83.83 24.81-128.81-17.52-9.43-35.03-17.76-53.27-25.54zm-240.07-73.283c-8.03 24.984-16.06 49.413-24.81 73.283 8.02 2.78 16.05 5.56 24.08 8.33 3.65-11.66 8.02-23.87 11.67-36.086.73-2.221 2.19-2.776 3.65-1.111 1.46 1.111 2.19 3.887 1.46 6.107-3.65 11.1-7.3 22.21-10.95 33.31 8.03 2.78 15.33 5.56 23.36 8.33 8.02-25.54 16.78-52.188 24.81-79.949-17.52-4.441-35.76-8.883-53.27-12.214zm119.67 29.981c-8.03 31.092-16.06 61.072-24.81 89.942 8.02 3.89 16.05 7.77 24.08 11.66 3.65-14.43 8.03-29.43 11.67-44.42.73-2.22 2.19-2.77 3.65-1.11 1.46 1.67 2.19 5.56 1.46 7.78-3.65 13.88-7.3 27.76-10.94 41.08 8.02 3.89 15.32 8.33 23.35 12.22 8.02-32.21 16.78-65.52 24.81-99.941-16.79-6.107-35.03-12.214-53.27-17.211zm-360.47-64.404c-8.03 18.322-16.06 36.644-24.81 54.41 5.83.555 11.67 1.666 17.51 2.776 2.19.556 4.38.555 6.57 1.111 3.64-8.884 8.02-17.767 11.67-26.65.73-1.666 2.19-2.221 3.65-1.111 1.46 1.111 2.19 2.776 1.46 4.442-3.65 8.328-7.3 16.101-10.95 24.429 8.03 1.11 15.33 2.221 23.35 3.887 8.03-18.878 16.06-37.755 24.81-57.187-16.78-2.221-35.02-4.442-53.26-6.107zm753.05 258.726c18.24 17.21 36.48 36.09 54 56.63 5.83-68.84 11.67-140.47 17.51-214.86-17.51-10-35.76-18.325-54-26.653-5.11 63.853-10.95 125.473-17.51 184.883zm-692.49-252.619c-8.03 19.432-16.05 38.865-24.81 57.742 8.03 1.665 16.05 2.776 24.08 4.441 3.65-9.438 8.03-18.877 11.68-28.315.73-1.666 2.19-2.221 3.64-1.111 1.46 1.111 2.19 2.776 1.46 4.442-3.64 8.883-7.29 17.211-10.94 26.095 8.03 1.665 15.32 2.776 23.35 4.442 8.03-19.988 16.05-40.531 24.81-61.073-17.51-2.221-35.76-4.442-53.27-6.663zm59.84 7.773c-8.03 21.098-16.06 41.641-24.81 61.628 8.02 1.666 16.05 3.331 24.08 5.552 3.65-9.994 8.02-19.987 11.67-29.981.73-1.666 2.19-2.221 3.65-1.111 1.46 1.111 2.19 3.332 1.46 4.997-3.65 9.439-7.3 18.877-10.95 27.761 8.03 1.67 15.33 3.89 23.35 5.55 8.03-21.651 16.06-43.304 24.81-66.068-17.51-3.331-35.02-6.107-53.26-8.328zm59.83 9.439c-8.02 22.763-16.05 44.971-24.81 66.627 8.03 2.22 16.06 4.44 24.08 6.66 3.65-10.55 8.03-21.653 11.68-32.757.73-1.666 2.19-2.221 3.65-1.111 1.46 1.111 2.18 3.887 1.46 5.552-3.65 9.994-7.3 20.546-10.95 30.536 8.03 2.22 15.32 4.44 23.35 7.22 8.03-23.32 16.05-47.749 24.81-72.178-16.78-4.442-35.03-7.773-53.27-10.549zm240.8 60.517c-8.02 34.98-16.05 68.85-24.81 101.05 8.03 4.44 16.06 9.44 24.08 13.88 3.65-16.1 8.03-32.76 11.68-49.97.73-2.78 2.19-3.33 3.65-1.11 1.46 2.22 2.19 6.11 1.46 8.88-3.65 15.55-7.3 31.09-10.95 46.08 8.03 5 15.32 9.44 23.35 15 8.03-36.09 16.78-73.85 24.81-113.27-17.51-7.21-35.75-13.88-53.27-20.54zm119.67 52.19c-8.02 45.53-16.05 88.83-24.81 130.47 8.03 6.67 16.06 13.33 24.08 20.55 3.65-21.1 8.03-42.75 11.68-64.96.73-3.89 2.19-4.44 3.65-1.67 1.46 2.78 2.19 8.33 1.46 11.66-3.65 20.54-7.3 40.53-10.95 59.96 8.03 6.67 15.33 13.88 23.35 21.1 8.03-47.19 16.79-96.6 24.81-147.68-16.78-10-35.02-19.99-53.27-29.43zm240.81 189.33c-8.03 82.17-16.06 161.01-24.81 235.4 8.02 14.99 16.05 29.99 24.08 46.09 3.64-38.31 8.02-77.18 11.67-117.15.73-6.67 2.19-7.22 3.65-1.67s2.19 16.1 1.46 22.77c-3.65 37.19-7.3 73.28-10.95 108.82 8.03 15.54 15.33 32.2 23.35 48.85 8.03-86.05 16.79-177.11 24.81-272.6-16.78-25.54-35.02-48.86-53.26-70.51zm32.1-2.78c18.25 22.21 36.49 46.08 54 72.18 5.84-82.17 11.68-167.68 17.51-257.06-17.51-12.77-35.75-23.88-53.99-34.43-5.84 76.07-11.68 149.35-17.52 219.31zm131.35-133.81c-17.51-17.21-35.76-32.75-54-46.08-5.84 91.06-11.67 178.22-17.51 262.06 18.24 28.87 36.48 60.52 54 95.5 5.83-98.83 11.67-202.65 17.51-311.48zm6.57 6.67c-5.84 111.04-11.68 217.08-17.52 318.69 18.98 39.42 37.22 84.39 54 136.02 5.84-122.14 12.41-250.95 17.51-386.98-17.51-26.65-35.75-48.86-53.99-67.73zm-229.86 67.18c-8.03 70.51-16.05 137.13-24.81 201.54 8.03 11.66 16.05 24.43 24.08 36.64 3.65-32.76 8.03-66.07 11.68-99.94.73-5.55 2.18-6.1 3.64-1.66 1.46 5 2.19 13.32 1.46 18.88-3.64 31.64-7.29 62.73-10.94 92.72 8.02 12.77 15.32 25.54 23.35 38.86 8.03-73.29 16.78-150.46 24.81-231.52-17.51-19.99-35.76-38.31-53.27-55.52zm-120.4-92.17c-8.03 52.19-16.05 102.16-24.81 149.91 8.03 7.77 16.05 16.1 24.08 24.98 3.65-24.43 8.03-48.85 11.68-74.39.72-3.89 2.18-5 3.64-1.67s2.19 9.44 1.46 13.88c-3.65 23.32-7.29 46.64-10.94 68.85 8.02 8.32 15.32 17.21 23.35 26.09 8.02-54.41 16.78-111.04 24.81-170.45-17.51-13.88-35.03-26.09-53.27-37.2zm59.84 41.09c-8.03 60.52-16.06 118.26-24.81 173.22 8.02 9.44 16.05 19.99 24.08 29.98 3.64-27.76 8.02-56.63 11.67-86.05.73-5 2.19-5.56 3.65-1.67 1.46 3.89 2.19 11.11 1.46 16.1-3.65 27.21-7.3 53.86-10.95 79.95 8.03 10 15.33 20.55 23.35 31.65 8.03-62.74 16.79-128.81 24.81-198.21-16.78-16.1-35.02-31.09-53.26-44.97zm-360.48-163.788c-8.02 27.76-16.05 54.968-24.81 80.508 8.03 3.33 16.06 6.66 24.08 9.99 3.65-13.32 8.03-26.09 11.68-39.97.73-2.23 2.19-2.78 3.65-1.11 1.46 1.66 2.19 4.44 1.46 6.66l-10.95 36.64c8.03 3.33 15.32 6.66 23.35 10 8.03-28.88 16.78-58.3 24.81-88.838-17.51-4.442-35.02-9.439-53.27-13.88zm-1020.85-40.53c-8.027 22.208-16.054 44.416-24.81 67.735l24.08-4.997c3.649-10.549 8.027-21.653 11.675-32.202.73-1.666 2.19-2.776 3.649-2.221 1.459.555 2.189 2.221 1.459 3.887-3.648 9.438-7.297 19.432-10.945 29.426 8.027-1.666 15.324-2.776 23.35-4.442 8.027-21.653 16.054-42.196 24.81-62.739-17.513 1.666-35.755 3.887-53.268 5.553zm-120.401 17.766c-8.027 26.65-16.053 54.411-24.81 82.722 8.027-2.77 16.054-5.55 24.08-7.77 3.649-13.32 8.027-26.094 11.676-38.863.729-2.221 2.189-3.332 3.648-2.776 1.46.555 2.189 2.776 1.46 4.441-3.649 11.66-7.297 23.318-10.946 35.538 8.027-2.23 15.324-4.45 23.35-6.67 8.027-25.536 16.054-51.076 24.81-75.505-17.512 2.776-35.755 5.552-53.268 8.883zm59.836-9.994c-8.027 24.43-16.054 48.859-24.81 74.396 8.027-2.22 16.053-4.44 24.08-6.105 3.648-11.659 8.027-23.874 11.675-34.978.73-1.666 2.189-2.776 3.649-2.776 1.459.555 2.189 2.221 1.459 4.441-3.648 10.549-7.297 21.098-10.945 32.203 8.026-1.666 15.323-3.887 23.35-5.552 8.027-23.319 16.053-46.083 24.81-68.291-17.513 1.666-35.026 4.442-53.268 6.662zm120.4-13.88c-8.026 20.543-16.053 41.086-24.809 62.184 8.026-1.666 16.053-2.777 24.08-3.887 3.648-9.994 8.026-19.987 11.675-29.426.73-1.666 2.189-2.221 3.648-2.221 1.46.555 2.19 2.221 1.46 3.887-3.649 8.883-7.297 17.766-10.946 27.205 8.027-1.11 15.324-2.221 23.351-3.331 8.027-19.988 16.053-39.42 24.81-58.852-17.513 1.11-35.756 2.776-53.269 4.441zM66.403 989.937c-8.027 39.973-16.783 82.173-24.81 126.033 8.027-6.11 16.053-12.22 24.08-17.77 3.649-19.99 8.027-39.42 11.675-58.29.73-3.34 2.19-5 3.649-5 1.46.55 2.189 3.33 1.46 6.11-3.65 17.21-7.298 34.97-10.946 52.74 7.297-5 15.324-9.44 23.35-13.88 8.027-37.75 16.054-73.84 24.81-108.821-17.513 5.552-35.755 11.66-53.268 18.878zm420.308-77.73c-8.027 18.877-16.053 38.31-24.81 58.297l24.08-3.331c3.649-9.439 8.027-18.322 11.675-27.76.73-1.666 2.19-2.221 3.649-1.666 1.459.555 2.189 2.221 1.459 3.331l-10.945 24.984c8.027-1.11 15.324-1.665 23.35-2.776 8.027-18.877 16.054-37.198 24.81-54.965-17.513 1.666-35.026 2.776-53.268 3.886zm-299.907 41.086c-8.027 29.981-16.784 61.077-24.81 93.277 8.026-3.33 16.053-6.66 24.08-10 3.648-14.99 8.027-29.42 11.675-43.857.73-2.221 2.189-3.887 3.649-3.332 1.459.556 2.189 2.776 1.459 4.997-3.648 13.322-7.297 26.092-10.945 39.972 8.026-2.77 15.323-5.55 23.35-8.32 8.027-28.876 16.053-56.636 24.81-83.841-17.513 3.331-35.756 7.217-53.268 11.104zm-60.566 16.101c-8.026 34.426-16.783 69.956-24.809 107.156 8.026-4.44 16.053-8.88 24.08-12.77 3.648-17.21 8.026-33.87 11.675-49.97.73-2.78 2.189-4.44 3.648-3.89 1.46.56 2.19 2.78 1.46 5.56-3.649 14.99-7.297 29.98-10.946 45.52 8.027-3.88 15.324-7.21 23.351-10.55 8.026-32.75 16.053-64.4 24.81-94.936-17.513 3.886-35.026 8.328-53.269 13.88zm421.038-61.073c-8.027 17.767-16.053 36.088-24.81 54.965 8.027-.555 16.054-1.665 24.081-2.22 3.648-8.884 8.026-17.767 11.675-26.095.729-1.666 2.189-2.221 3.648-1.666 1.46.556 2.189 2.221 1.46 3.331-3.649 7.773-7.297 16.102-10.946 23.874 8.027-.555 15.324-1.11 23.351-1.665 8.026-17.767 16.053-34.978 24.809-52.745-17.513.555-35.755 1.666-53.268 2.221zm360.473-2.776c-8.027 16.656-16.054 32.757-24.81 48.858 8.027.555 16.053.555 24.08 1.111 3.649-7.773 8.027-15.546 11.675-23.874.73-1.111 2.189-1.666 3.649-1.111 1.459.555 2.189 2.221 1.459 3.331l-10.945 21.654c8.026.555 15.323 1.11 23.35 1.665 8.027-16.656 16.054-33.312 24.81-49.969-17.513-.555-35.755-1.11-53.268-1.665zm-60.565-1.666c-8.027 16.101-16.054 32.202-24.81 48.303 8.026 0 16.053.556 24.08.556 3.648-7.773 8.027-15.546 11.675-23.319.73-1.111 2.189-1.666 3.649-1.111 1.459.556 2.189 2.221 1.459 3.332l-10.946 21.653c8.027.555 15.324.555 23.351 1.11 8.027-16.101 16.053-32.757 24.81-48.858-17.513-1.111-35.026-1.666-53.268-1.666zm-59.836-1.11c-8.027 16.101-16.053 32.202-24.81 48.303h24.08c3.649-7.773 8.027-15.546 11.676-23.319.729-1.11 2.189-1.666 3.648-1.11 1.459.555 2.189 2.221 1.459 3.331l-10.945 21.653c8.027 0 15.324 0 23.35.555 8.027-16.101 16.054-32.202 24.81-48.303-17.513-.555-35.755-.555-53.268-1.11zm180.236 4.997c-8.026 16.656-16.053 33.312-24.809 49.968 8.026.556 16.053 1.111 24.08 2.221 3.648-8.328 8.026-16.101 11.675-24.429.73-1.11 2.189-1.666 3.648-1.11 1.46.555 2.189 2.22 1.46 3.886-3.649 7.218-7.297 14.991-10.946 22.208 8.027.556 15.324 1.666 23.351 2.221 8.027-17.211 16.057-34.423 24.807-51.634-17.51-1.11-35.023-2.221-53.266-3.331zm113.106 8.328c.73 0 .73 0 0 0 .73-.555.73-.555 0 0-17.51-2.221-35.76-3.331-53.27-4.442-1.46 3.887-3.65 7.773-5.11 11.66v.555c-6.57 13.325-12.4 26.65-18.97 39.975 6.57.555 12.4 1.11 18.97 2.22 1.46 0 3.65.556 5.11.556 3.65-8.328 8.03-16.656 11.68-24.985.72-1.11 1.45-1.665 2.91-1.665 0 0 .73 0 .73.555 1.46.555 2.19 2.776 1.46 3.886-3.65 7.773-7.29 15.546-10.94 23.319 7.29 1.111 15.32 1.666 22.62 2.776 9.48-18.322 17.51-36.088 24.81-54.41zM607.112 906.1c-8.027 17.212-16.054 34.423-24.81 52.19l24.08-1.666c3.649-8.328 8.027-16.656 11.675-24.984.73-1.111 2.189-2.221 3.649-1.666 1.459.555 2.189 2.221 1.459 3.331-3.648 7.773-7.297 14.991-10.945 22.764 8.026-.555 15.323-1.111 23.35-1.111 8.027-17.211 16.054-33.867 24.81-50.524-17.513 0-35.755.556-53.268 1.666zm59.835-2.221c-8.026 16.656-16.053 33.313-24.81 50.524 8.027-.555 16.054-.555 24.081-1.11 3.648-8.328 8.026-16.101 11.675-24.429.729-1.111 2.189-2.221 3.648-1.666 1.46.555 2.189 2.221 1.46 3.331-3.649 7.218-7.297 14.991-10.946 22.209 8.027 0 15.324-.556 23.351-.556 8.026-16.656 16.053-32.757 24.809-49.413-17.512.555-35.025 1.11-53.268 1.11zM1982.6 254.285C1976.76 166.007 1970.19 81.06 1963.63 0h-28.46c3.65 39.42 6.57 79.95 10.21 121.035.73 7.773 0 19.988-1.45 27.206-1.46 7.217-2.92 6.662-3.65-1.111-3.65-47.748-8.03-93.83-11.68-139.357a3127.917 3127.917 0 0 1-24.08 58.297c8.03 88.278 16.78 180.998 24.81 278.714 17.51-27.76 35.76-57.741 53.27-90.499z" fill="#363535"/><path d="M1585.53 534.666c3.3 16.656 6.59 33.868 9.89 50.524.66 2.776 0 7.218-1.32 8.883-1.32 1.666-2.64.555-3.3-2.221-3.29-18.322-7.25-36.643-10.54-54.965-7.26 2.776-14.51 6.107-21.76 8.883 7.25 36.644 15.16 73.843 22.42 112.152 16.48-3.886 32.3-7.773 48.78-12.214-7.25-40.531-14.5-80.506-22.41-119.37-7.92 2.221-15.17 5.552-21.76 8.328zm-271.62 88.833c3.3 11.659 6.6 23.874 9.89 36.089.66 2.22 0 4.996-1.32 6.107-1.31 1.11-2.63.555-3.29-1.666-3.3-13.325-7.25-26.095-10.55-38.864-7.25 1.665-14.5 3.886-21.76 5.552 7.26 26.095 15.17 52.189 22.42 79.395 16.48-2.221 32.3-4.997 48.78-7.773-7.25-28.316-14.5-56.632-22.41-83.837-7.91 1.111-15.16 2.776-21.76 4.997zm-162.83 37.199c3.29 9.994 6.59 19.433 9.88 29.426.66 1.666 0 3.887-1.31 4.997-1.32 1.111-2.64.555-3.3-1.11-3.3-10.549-7.25-21.653-10.55-32.202-7.25 1.665-14.5 2.776-21.75 4.441 7.25 21.098 14.5 43.307 22.41 65.515 16.48-1.666 32.3-3.887 48.79-6.107-7.26-23.319-14.51-46.638-22.42-68.846-7.91 1.11-15.16 2.776-21.75 3.886zm54.05-11.104c3.3 10.549 6.6 21.098 9.89 31.647.66 1.665 0 4.441-1.31 5.552-1.32 1.11-2.64.555-3.3-1.666-3.3-11.659-7.25-22.763-10.55-33.867-7.25 1.665-14.5 3.331-21.76 4.441 7.26 22.764 15.17 46.083 22.42 69.401 16.48-2.221 32.3-4.441 48.79-6.662-7.26-24.985-14.51-49.414-22.42-73.843-7.91 1.666-14.5 3.331-21.76 4.997zm54.06-12.77c3.3 11.104 6.6 22.208 9.89 33.313.66 2.22 0 4.441-1.32 5.552-1.31 1.11-2.63.555-3.29-1.666-3.3-12.215-7.25-24.429-10.55-36.644-7.25 1.666-14.5 3.332-21.76 4.997 7.26 24.429 15.17 48.859 22.42 74.398 16.48-2.221 32.3-4.442 48.79-7.218-7.26-26.65-14.51-52.744-22.42-78.839-7.25 2.776-14.5 4.441-21.76 6.107zm163.5-44.416c3.3 13.325 6.59 27.205 9.89 41.085.66 2.221 0 5.552-1.32 7.218-1.32 1.665-2.63.555-3.29-1.666-3.3-14.991-7.26-29.981-10.55-44.417l-21.76 6.663c7.25 29.426 15.17 59.962 22.42 90.499 16.48-2.776 32.3-6.107 48.78-8.884-7.25-32.757-14.5-64.959-22.41-96.606-7.91 1.666-15.17 3.887-21.76 6.108zm108.12-36.644c3.3 15.545 6.6 31.091 9.89 47.192.66 2.776 0 6.663-1.32 8.328-1.32 1.666-2.63.556-3.29-2.22-3.3-17.212-7.26-34.423-10.55-51.08-7.25 2.777-14.51 5.553-21.76 7.773 7.25 33.868 15.17 68.846 22.42 104.38 16.48-3.332 32.3-7.218 48.78-11.105-7.25-37.754-14.5-74.953-22.41-111.041-7.91 2.776-14.51 4.997-21.76 7.773zm-54.06 19.432c3.3 14.435 6.59 29.426 9.89 43.861.66 2.776 0 6.108-1.32 7.773-1.32 1.666-2.64.556-3.29-1.665-3.3-16.101-7.26-32.202-10.55-47.748-7.25 2.221-14.51 4.997-21.76 7.217 7.25 31.647 15.16 63.849 22.42 97.162 16.48-3.331 32.3-6.663 48.78-9.994-7.25-34.978-14.5-69.401-22.41-103.269-7.91 1.666-15.17 3.887-21.76 6.663zm-380.39 96.051c3.29 9.439 6.59 18.322 9.89 27.76.65 1.666 0 3.887-1.32 4.442-1.32 1.11-2.64.555-3.3-1.11-3.3-9.994-7.25-19.988-10.55-29.982-7.25 1.111-14.5 2.776-21.75 3.887 7.25 19.987 15.16 40.53 22.41 61.628 16.48-1.666 32.31-3.331 48.79-5.552-7.25-22.209-14.51-43.862-22.42-64.96-7.25 1.111-14.5 2.777-21.75 3.887zm783.86-92.72c5.28 45.527 10.55 91.61 15.82 139.358 1.32 0 1.98-.556 3.3-.556V568.533c-6.59 3.332-12.53 6.663-19.12 9.994zm19.12-240.405c-5.27 5.552-10.55 11.104-15.82 16.656 5.27 42.196 10.55 86.058 15.82 129.919V338.122zM976.37 756.749c-6.593.555-13.185 1.111-19.119 1.666 5.275 13.325 10.549 27.205 15.823 41.085h3.296l45.49-1.665c-5.27-14.436-10.55-28.871-15.82-43.307-9.892.555-19.781 1.666-29.67 2.221zm34.94-2.776c5.28 14.436 10.55 28.871 15.82 43.306 16.48-.555 32.31-1.11 48.79-2.22-5.28-15.546-10.55-30.537-15.82-46.083-16.49 2.221-32.31 3.887-48.79 4.997zm-23.072-64.404c3.296 8.328 6.592 16.101 9.889 24.429.659 1.666 0 3.331-1.319 3.886-1.318.556-2.637.556-3.296-1.11-3.297-8.883-7.252-17.767-10.548-26.65-1.978.555-3.956.555-5.934 1.11-5.274.556-10.548 1.666-15.822 2.221 7.252 17.767 14.504 36.089 22.415 54.411 16.477-1.666 32.307-2.776 48.787-4.442-7.25-19.432-14.51-38.865-22.42-57.742-7.91 1.666-15.16 2.776-21.752 3.887zm54.062-8.884c3.29 8.884 6.59 17.212 9.89 26.095.66 1.666 0 3.332-1.32 4.442-1.32 1.11-2.64.555-3.3-1.111-3.3-9.438-7.25-18.877-10.55-28.315-7.25 1.11-14.5 2.221-21.75 3.886 7.25 18.877 14.5 38.31 22.41 57.742 16.48-1.666 32.31-3.331 48.79-4.997-7.25-20.543-14.51-41.085-22.42-61.073-7.91 1.111-14.5 2.221-21.75 3.331zm783.2-77.729c5.28 41.086 10.55 83.282 15.82 126.033 16.49-2.776 32.31-6.108 48.79-9.994-5.27-46.638-10.55-92.72-15.82-137.692-15.82 7.773-32.31 14.991-48.79 21.653z" fill="#1F1F1F"/><path d="M976.371 807.273c-17.801.555-35.601 1.11-53.401 1.11-307.217 7.218-615.094 8.884-922.97 5.552v12.215c307.876 1.11 615.094.555 922.97-1.666 17.8 0 35.6-.555 53.401-.555 307.879-2.776 615.749-1.11 922.969-19.987v-59.963c-301.28 58.297-615.09 54.966-922.969 63.294z" fill="#1F1F1F"/><path d="M1282.93 724.547c5.27 19.432 10.55 39.42 15.82 59.407 16.48-1.11 32.31-2.22 48.79-2.776a5262.77 5262.77 0 0 0-15.83-63.293c-16.48 2.22-32.96 4.441-48.78 6.662zm-54.06 7.218c5.27 18.322 10.55 37.199 15.82 56.076 16.48-1.111 32.3-1.666 48.79-2.776-5.28-19.988-10.55-39.975-15.83-59.408-16.48 1.666-32.96 3.887-48.78 6.108zm-54.72 6.107c5.27 17.212 10.55 34.423 15.82 52.19 16.48-.555 32.31-1.666 48.79-2.776-5.28-18.877-10.55-37.199-15.82-55.521-16.49 2.221-32.31 4.442-48.79 6.107zm162.84-20.543c5.27 21.098 10.55 42.196 15.82 63.849 16.48-1.11 32.3-2.221 48.79-3.331-5.28-22.763-10.55-45.527-15.83-67.735-16.48 2.22-32.3 4.441-48.78 7.217zm465.44-296.481c3.3 22.764 6.59 46.082 9.89 69.401.66 3.887 0 9.439-1.32 12.215s-2.64 1.665-3.3-2.776c-3.29-25.54-7.25-50.524-10.54-74.953-7.26 4.996-14.51 9.993-21.76 14.435 7.25 49.414 15.16 100.493 22.41 152.127 16.49-6.662 32.31-13.325 48.79-21.098-7.25-56.076-14.5-111.042-22.42-164.342-7.91 4.997-14.5 9.994-21.75 14.991zm-410.72 288.153a6537.898 6537.898 0 0 1 15.82 68.291c16.48-1.11 32.3-2.221 48.79-3.331-5.28-24.43-10.55-48.859-15.83-72.733-16.48 2.776-32.96 4.997-48.78 7.773zm247.88-197.654c3.3 18.322 6.59 36.089 9.89 54.41.66 3.332 0 7.773-1.32 9.439-1.32 2.221-2.64 1.11-3.29-2.221-3.3-19.987-7.26-39.975-10.55-59.407-7.25 3.331-14.51 6.662-21.76 9.438 7.25 39.42 15.16 79.395 22.42 120.481 16.48-4.442 32.3-8.884 48.78-13.881-7.25-43.861-14.5-86.612-22.41-128.808-7.91 3.886-15.17 7.218-21.76 10.549zm-519.5 232.632c5.27 16.101 10.55 32.758 15.82 48.859 16.48-.556 32.31-1.666 48.79-2.221-5.28-17.767-10.55-34.978-15.83-52.19-16.48 2.221-32.96 3.887-48.78 5.552zm-54.06 4.997c5.27 14.991 10.55 30.537 15.82 46.082 16.48-.555 32.31-1.665 48.79-2.22-5.28-16.657-10.55-32.758-15.82-48.859a773.32 773.32 0 0 1-48.79 4.997zm811.55-388.646c-6.59 6.663-13.84 12.77-21.09 18.877 3.29 24.985 6.59 49.969 9.89 75.509.66 4.441 0 10.549-1.32 13.88-1.32 2.776-2.64 1.666-3.3-2.776-3.29-27.76-7.25-54.966-10.55-81.616-7.25 6.108-14.5 11.66-21.75 17.212 7.25 53.855 15.16 108.821 22.41 166.007 16.49-7.773 32.31-16.656 48.13-26.65v-3.331c-7.91-61.073-15.16-119.925-22.42-177.112zm-106.14 262.614c5.28 37.754 10.55 76.618 15.83 115.483 16.48-2.221 32.3-4.997 48.78-8.328-5.27-42.751-10.55-84.392-15.82-124.922-16.48 6.663-32.31 12.215-48.79 17.767zm-54.06 16.656c5.28 34.978 10.55 70.512 15.83 106.6 16.48-2.221 32.3-4.441 48.78-6.662-5.27-38.865-10.55-77.174-15.82-114.373-16.48 4.997-32.96 9.994-48.79 14.435zm30.99-184.329c3.3 21.098 6.59 42.196 9.89 63.849.66 3.886 0 8.883-1.32 11.104s-2.64 1.11-3.3-2.776c-3.29-23.319-7.25-46.082-10.54-68.846-7.26 4.442-14.51 8.328-21.76 12.215 7.25 45.527 15.16 92.72 22.41 140.467 16.49-5.552 32.31-11.659 48.79-17.766-7.25-51.635-14.5-101.603-22.41-151.017-7.92 4.442-15.17 8.328-21.76 12.77zm-54.72 29.426c3.3 19.432 6.59 38.865 9.89 58.852.66 3.331 0 8.328-1.32 10.549s-2.64 1.11-3.3-2.221c-3.29-21.653-7.25-42.751-10.54-63.849-7.26 3.887-14.51 7.218-21.76 11.104 7.25 42.196 15.16 85.503 22.42 129.919 16.48-4.997 32.3-9.994 48.78-15.546-7.25-47.748-14.5-93.83-22.41-139.357-7.91 3.331-14.51 7.218-21.76 10.549zm-193.82 205.427c5.27 26.095 10.54 52.19 15.82 78.84 16.48-1.111 32.3-2.776 48.78-4.442-5.27-28.316-10.54-56.631-15.82-83.836-16.48 3.331-32.3 6.662-48.78 9.438zm-54.06 9.994a7999.275 7999.275 0 0 1 15.82 73.287c16.48-1.11 32.3-2.776 48.79-3.886-5.28-26.65-10.55-52.19-15.83-78.285-16.48 3.332-32.96 6.108-48.78 8.884zm216.89-45.527c5.28 32.202 10.55 64.959 15.83 98.272 16.48-1.666 32.3-3.887 48.78-6.108-5.27-35.533-10.55-71.066-15.82-105.489-16.48 4.996-32.3 8.883-48.79 13.325zm-108.11 24.984c5.27 27.761 10.54 56.076 15.82 84.392 16.48-1.666 32.3-3.332 48.78-4.997-5.27-30.537-10.54-60.518-15.82-90.499-16.48 4.442-32.96 7.773-48.78 11.104zm54.05-11.659c5.28 29.981 10.55 60.517 15.83 91.054 16.48-1.666 32.3-3.331 48.78-5.552-5.27-32.757-10.55-65.515-15.82-97.717-16.48 4.442-32.3 8.328-48.79 12.215zm-240.63-59.407c3.3 12.769 6.6 25.539 9.89 38.309.66 2.221 0 4.997-1.32 6.662-1.31 1.111-2.63.556-3.29-1.665-3.3-13.88-7.25-27.761-10.55-41.641-7.25 2.221-14.5 3.887-21.76 6.107 7.26 27.761 15.17 56.076 22.42 84.947 16.48-2.776 32.3-5.552 48.78-8.328-7.25-30.536-14.5-60.518-22.41-89.944-7.91 1.666-14.5 3.887-21.76 5.553zm157.57 386.424c-7.25 35.537-14.51 69.957-22.42 103.827 7.25 2.77 14.51 4.99 21.76 7.77 3.3-16.66 7.25-33.87 10.55-51.08.66-2.77 1.97-3.89 3.29-2.22s1.98 5.55 1.32 8.33c-3.29 15.54-6.59 31.65-9.89 47.19 7.25 2.78 13.85 5 21.1 7.77 7.25-36.08 14.5-73.28 22.41-111.04-15.82-3.33-32.3-7.215-48.12-10.547zm108.78 26.097c-7.26 41.08-14.51 81.06-22.42 119.92 7.25 3.33 14.51 6.67 21.76 9.44 3.29-19.43 7.25-38.86 10.55-58.85.65-3.33 1.97-4.44 3.29-2.22s1.98 6.11 1.32 9.44c-3.3 18.32-6.59 36.09-9.89 54.41 7.25 3.33 13.85 6.66 21.1 9.99 7.25-41.64 14.5-84.95 22.41-128.25-15.82-5-32.3-9.44-48.12-13.88zm-54.72-13.88c-7.25 37.75-14.51 74.95-22.42 111.59 7.25 2.78 14.51 5.56 21.76 8.89 3.29-18.32 7.25-36.09 10.55-54.97.66-2.77 1.97-3.88 3.29-2.22 1.32 1.67 1.98 5.55 1.32 8.89-3.3 17.21-6.59 33.86-9.89 50.52 7.25 2.78 13.85 5.55 21.1 8.88 7.25-38.86 14.5-78.84 22.41-119.37-15.82-3.88-31.64-8.33-48.12-12.21zm-162.84-33.869c-7.25 30.539-14.5 61.069-22.42 90.499 7.26 2.22 14.51 4.44 21.76 6.66 3.3-14.43 7.25-29.42 10.55-44.41.66-2.23 1.98-3.34 3.29-1.67 1.32 1.67 1.98 4.44 1.32 7.22-3.29 13.88-6.59 27.2-9.89 40.53 7.26 2.22 13.85 4.44 21.1 6.66 7.25-31.65 14.5-63.29 22.42-96.051-15.83-3.331-31.65-6.662-48.13-9.438zM976.371 840.03c-17.801 0-35.601-.555-53.401-.555A85248.076 85248.076 0 0 0 0 837.809v12.77c307.217-3.331 615.094-2.221 922.97 5.552 17.8.555 35.6 1.111 53.401 1.111 307.879 8.328 621.689 4.997 922.969 63.293v-60.517c-306.56-18.322-615.09-17.212-922.969-19.988zm168.769 93.275c-7.25 22.209-14.5 43.862-22.41 64.96 7.25 1.665 14.5 2.775 21.75 4.445 3.3-10.552 7.26-21.102 10.55-31.65.66-1.666 1.98-2.221 3.3-1.111 1.32 1.111 1.98 3.331 1.32 4.997-3.3 9.994-6.6 19.432-9.89 29.424 7.25 1.67 13.84 2.78 21.09 4.44 7.26-22.76 14.51-45.523 22.42-68.842-15.16-2.776-31.65-4.997-48.13-6.663zm108.78 13.881c-7.25 24.984-14.5 49.968-22.41 73.844 7.25 1.66 14.5 3.33 21.75 5 3.3-12.22 7.25-23.88 10.55-36.093.66-2.221 1.98-2.776 3.3-1.666 1.32 1.11 1.97 3.886 1.32 5.552-3.3 11.107-6.6 22.207-9.89 33.317 7.25 1.66 13.84 3.33 21.09 4.99 7.25-25.54 14.51-51.632 22.42-78.282-15.82-2.221-31.65-4.442-48.13-6.662zm108.78 16.656c-7.25 28.871-14.5 56.628-22.42 84.388 7.26 2.22 14.51 3.89 21.76 6.11 3.3-13.88 7.25-27.2 10.55-41.08.66-2.23 1.98-2.78 3.3-1.67 1.31 1.11 1.97 4.44 1.31 6.66-3.29 12.77-6.59 25.54-9.89 38.31 7.26 2.22 13.85 3.89 21.1 6.11 7.25-29.43 14.5-59.41 22.42-89.945-15.83-3.331-32.31-6.107-48.13-8.883zm-54.72-8.884c-7.25 26.65-14.5 53.302-22.41 78.842 7.25 1.66 14.5 3.88 21.75 5.55 3.3-12.77 7.25-25.54 10.55-38.86.66-2.225 1.98-2.781 3.3-1.67 1.31 1.11 1.97 3.89 1.31 6.11-3.29 12.21-6.59 23.87-9.88 35.53 7.25 1.67 13.84 3.89 21.09 5.55 7.25-27.2 14.51-55.518 22.42-83.834-15.17-2.221-31.65-4.442-48.13-7.218zm-108.12-14.99c-7.25 23.319-14.5 46.638-22.41 69.402 7.25 1.66 14.5 3.33 21.75 4.44 3.3-11.1 7.25-22.763 10.55-33.867.66-1.666 1.98-2.776 3.3-1.666 1.32 1.111 1.97 3.332 1.32 5.552-3.3 10.549-6.6 21.101-9.89 31.091 7.25 1.67 13.84 3.33 21.09 4.44 7.26-23.871 14.51-48.3 22.42-73.285-15.82-1.665-32.31-3.886-48.13-6.107zm699.48 240.402c-5.27 43.86-10.55 87.17-15.82 129.37 5.27 4.99 10.55 10.55 15.82 16.65v-146.02zm-3.3-233.184c-5.27 47.192-10.54 93.834-15.82 139.354 6.59 3.33 13.19 6.67 19.12 10.55V948.296c-1.32-.555-1.98-.555-3.3-1.11zm-153.6 106.604c-7.26 47.74-14.51 94.38-22.42 139.91 7.25 3.88 14.5 8.33 21.76 12.21 3.29-22.76 7.25-45.52 10.54-68.84.66-3.89 1.98-5 3.3-2.78 1.32 2.22 1.98 7.22 1.32 11.11-3.3 21.09-6.59 42.19-9.89 63.29 7.25 3.89 13.84 8.33 21.1 12.77 7.25-48.86 14.5-98.83 22.41-150.46-15.82-5.56-31.64-11.66-48.12-17.21zm54.71 19.98c-7.25 51.64-14.5 102.16-22.41 151.57 7.25 4.45 14.5 9.44 21.75 14.44 3.3-24.43 7.26-49.41 10.55-74.4.66-3.88 1.98-5.55 3.3-2.77 1.32 2.77 1.98 8.32 1.32 12.21-3.3 23.32-6.59 46.08-9.89 68.85 7.25 4.99 13.84 9.99 21.1 14.99 7.25-53.3 14.5-107.71 22.41-163.79-15.82-7.22-32.3-14.43-48.13-21.1z" fill="#1F1F1F"/><path d="M976.37 865.57h-3.296c-5.274 13.88-10.548 27.76-15.823 41.085 6.593.556 13.186 1.111 19.119 1.666 9.889.555 19.119 1.666 29.01 2.221 5.27-14.436 10.55-28.871 15.82-43.306-14.5-.556-29.667-1.111-44.83-1.666zm712.01 171c-7.26 43.87-14.51 87.17-22.42 129.37 7.25 3.33 14.5 7.22 21.76 11.1 3.29-21.1 7.25-42.19 10.54-63.29.66-3.33 1.98-4.44 3.3-2.22 1.32 2.22 1.98 6.66 1.32 10.55-3.3 19.43-6.59 39.42-9.89 58.29 7.25 3.33 13.85 7.22 21.1 11.11 7.25-44.97 14.5-91.61 22.41-138.8-15.82-6.11-32.3-11.66-48.12-16.11zm153.6-101.044c-5.27 42.751-10.54 84.944-15.82 126.034 16.48 6.66 32.31 13.88 48.79 21.65 5.27-44.97 10.55-91.053 15.82-137.69-16.48-3.331-32.96-6.663-48.79-9.994zm-371.16 48.303c-7.25 32.761-14.51 64.961-22.42 96.611 7.26 2.22 14.51 4.99 21.76 7.21 3.3-15.54 7.25-31.64 10.55-47.19.66-2.78 1.98-3.33 3.29-1.66 1.32 1.66 1.98 4.99 1.32 7.77-3.29 14.43-6.59 29.42-9.89 43.86 7.26 2.22 13.85 5 21.1 7.22 7.25-33.87 14.5-68.29 22.41-103.272-15.16-4.441-31.64-7.773-48.12-10.549zm-117.35-99.937c-5.28 21.653-10.55 42.751-15.82 63.849 16.48 2.221 32.3 4.997 48.78 7.217 5.28-22.208 10.55-44.971 15.82-67.735-16.48-1.11-32.96-2.221-48.78-3.331zm108.12 7.773a7999.275 7999.275 0 0 1-15.82 73.287c16.48 2.776 32.3 5.552 48.78 8.884a9664.37 9664.37 0 0 0 15.83-78.285c-15.83-1.665-32.31-2.776-48.79-3.886zm-162.84-11.104c-5.27 19.987-10.55 39.975-15.82 59.407 16.48 2.221 32.3 4.442 48.78 6.662 5.28-21.098 10.55-42.195 15.83-63.293-16.48-1.111-32.31-2.221-48.79-2.776zm108.78 6.662a6532.012 6532.012 0 0 1-15.82 68.291c16.48 2.776 32.3 4.997 48.78 7.773 5.28-23.874 10.55-48.303 15.83-72.733-16.49-.555-32.31-1.665-48.79-3.331zm-162.84-9.994c-5.27 18.877-10.55 37.754-15.82 56.076 16.48 2.221 32.3 3.887 48.78 6.107 5.28-19.432 10.55-39.419 15.83-59.407-16.49-1.11-32.31-1.665-48.79-2.776zm-262.385 38.865c-7.252 18.322-14.504 36.643-22.415 54.41 5.274.555 10.548 1.666 15.822 2.221 1.978.555 3.956.555 5.933 1.11 3.297-8.883 7.252-17.766 10.549-26.65.659-1.665 1.977-2.221 3.296-1.11 1.318.555 1.978 2.776 1.318 3.886-3.296 8.329-6.592 16.657-9.888 24.43 7.251 1.11 13.84 2.22 21.1 3.331 7.25-18.877 14.5-37.754 22.41-57.187-15.82-1.11-31.644-2.776-48.125-4.441zm917.035 208.756c-15.82-9.99-31.64-18.87-48.13-26.65-7.25 56.63-14.5 111.6-22.41 165.45 7.25 5.56 14.5 11.66 21.75 17.22 3.3-26.65 7.26-53.86 10.55-81.06.66-4.45 1.98-5.56 3.3-2.78 1.32 2.78 1.98 9.44 1.32 13.88-3.3 24.98-6.59 49.97-9.89 74.95 7.25 6.11 13.84 12.22 21.1 18.88 7.25-57.19 14.5-116.04 21.75-176 .66-1.67.66-2.78.66-3.89zm-708.71-250.397c-5.27 17.767-10.55 34.978-15.82 52.19 16.48 1.665 32.3 3.886 48.78 5.552 5.28-18.322 10.55-36.644 15.83-55.521-16.49-.555-32.97-1.666-48.79-2.221zm-54.72-2.776c-5.27 16.656-10.55 32.757-15.82 48.858 16.48 1.666 32.3 3.332 48.78 4.997 5.28-17.211 10.55-34.423 15.83-52.189-16.48 0-32.31-.556-48.79-1.666zm543.24 40.531c-5.28 33.312-10.55 66.069-15.83 98.272 16.49 4.44 32.31 8.33 48.79 13.32 5.27-34.419 10.55-69.952 15.82-105.485-16.48-2.221-32.96-4.442-48.78-6.107zm108.12 14.435c-5.28 39.42-10.55 77.727-15.83 115.487 16.48 5.55 32.31 11.1 48.79 17.76 5.27-41.08 10.55-82.723 15.82-124.919-15.82-3.331-32.3-6.107-48.78-8.328zm-759.48-59.408c-5.27 14.436-10.55 29.427-15.82 43.307 16.48 1.665 32.3 2.776 48.79 4.441 5.27-14.99 10.54-30.536 15.82-46.082-16.48-.555-32.96-1.11-48.79-1.666zm54.06 2.221c-5.27 15.546-10.55 31.092-15.82 46.083 16.48 1.665 32.3 3.331 48.79 4.997 5.27-16.101 10.54-32.203 15.82-48.859-16.48-1.11-32.31-1.665-48.79-2.221zm-44.83 51.635c-7.25 19.432-14.5 38.864-22.41 57.741 7.25 1.111 14.5 2.221 21.75 3.887 3.3-9.439 7.25-18.877 10.55-28.316.66-1.665 1.98-2.221 3.3-1.11 1.32 1.11 1.98 2.776 1.32 4.442-3.3 8.883-6.6 17.211-9.89 26.094 7.25 1.111 13.84 2.221 21.09 3.332 7.26-19.988 14.51-39.975 22.42-61.073-15.82-1.666-32.31-3.332-48.13-4.997zm696.19-2.221c-5.28 36.088-10.55 71.622-15.83 106.6 16.49 5 32.31 9.44 48.79 14.99 5.27-37.75 10.55-75.508 15.82-114.373-16.48-2.776-32.3-4.996-48.78-7.217zm-216.9-22.764c-5.28 26.65-10.55 52.745-15.82 78.84 16.48 3.331 32.3 6.107 48.78 9.439 5.28-27.761 10.55-55.521 15.82-83.837-16.48-1.666-32.96-3.331-48.78-4.442zm54.06 4.442c-5.28 28.871-10.55 56.631-15.82 84.392 16.48 3.331 32.3 6.662 48.78 10.549 5.28-29.426 10.55-59.963 15.82-90.499-16.48-1.111-32.3-2.776-48.78-4.442zm54.06 5.552c-5.28 31.092-10.55 61.073-15.83 91.054 16.49 3.886 32.31 7.776 48.79 11.656 5.27-32.198 10.55-64.4 15.82-97.713-15.82-1.666-32.3-3.331-48.78-4.997zm-533.35 21.098c-7.25 20.543-14.5 41.085-22.41 61.073 7.25 1.11 14.5 2.776 21.75 3.886 3.3-9.993 7.26-19.987 10.55-29.981.66-1.666 1.98-2.221 3.3-1.11 1.32 1.11 1.98 2.776 1.32 4.441-3.3 9.439-6.6 18.322-9.89 27.761 7.25 1.11 13.84 2.776 21.09 3.886 7.26-21.098 14.51-42.751 22.42-64.404-15.82-2.221-31.65-3.886-48.13-5.552zm-428.52-200.43l9.889 18.322c.659 1.11 0 2.221-1.318 2.776-1.319.555-2.638 0-3.297-1.111-3.296-6.662-7.252-13.325-10.548-19.987l-21.756 1.665c7.252 13.881 14.504 27.761 22.415 41.641 16.482-.555 32.304-1.665 48.786-2.221-7.252-14.435-14.504-28.87-22.415-42.751-7.911.556-14.504 1.111-21.756 1.666zm-271.617 12.215l9.889 16.656c.66 1.11 0 2.221-1.318 2.776-1.319.555-2.637 0-3.296-1.111-3.297-6.107-7.252-12.214-10.549-18.321-7.252 0-14.504 0-21.755.555a1130.662 1130.662 0 0 0 22.415 37.754c16.481 0 32.304-.555 48.785-.555-7.252-12.77-14.504-25.54-22.415-37.754-7.911-.556-14.504 0-21.756 0zm-162.837-.001c3.296 5.552 6.592 11.104 9.888 17.212.66 1.11 0 2.221-1.318 2.776-1.319.555-2.637 0-3.296-1.111-3.297-6.107-7.252-12.214-10.549-18.877-7.251 0-14.503 0-21.755-.555 7.252 12.77 14.503 25.54 22.415 38.865 16.481 0 32.304.555 48.785.555-7.252-12.77-14.504-25.54-22.415-38.309-7.911-.556-14.504-.556-21.755-.556zm54.719.556l9.889 16.656c.659 1.11 0 2.221-1.319 2.776-1.318.555-2.637 0-3.296-1.111-3.296-6.107-7.252-12.214-10.548-18.321h-21.756c7.252 12.769 14.504 25.539 22.415 38.309h48.785a1130.662 1130.662 0 0 0-22.415-37.754c-7.911-.555-15.163-.555-21.755-.555zm54.059 0l9.889 16.656c.659 1.11 0 2.221-1.318 2.776-1.319.555-2.638 0-3.297-1.11-3.296-6.108-7.252-12.215-10.548-18.322h-21.756a1135.115 1135.115 0 0 0 22.415 37.754c16.482 0 32.304 0 48.786-.555a1134.13 1134.13 0 0 0-22.415-37.755c-7.911.556-15.163.556-21.756.556zm162.838-3.887c3.296 5.552 6.593 11.66 9.889 17.212.659 1.11 0 2.22-1.319 2.776-1.318.555-2.637 0-3.296-1.111-3.296-6.107-7.252-12.77-10.548-18.877-7.252.555-14.504.555-21.756.555 7.252 12.77 14.504 25.54 22.415 38.31 16.482-.556 32.304-.555 48.786-1.111a1196.615 1196.615 0 0 0-22.415-39.42c-7.911 1.111-15.163 1.666-21.756 1.666zm108.779-5.552c3.296 6.107 6.592 12.215 9.888 17.767.66 1.11.001 2.221-1.318 2.776-1.319.555-2.637 0-3.296-1.111-3.297-6.662-7.252-13.325-10.549-19.432-7.251.555-14.503 1.11-21.755 1.11 7.252 13.325 14.504 26.65 22.415 39.975 16.481-.555 32.304-1.11 48.785-1.665-7.252-13.88-14.504-27.761-22.415-41.086-7.911 1.111-15.163 1.666-21.755 1.666zm-54.72 3.331c3.297 5.552 6.593 11.66 9.889 17.767.66 1.11 0 2.221-1.318 2.776-1.319.555-2.637 0-3.297-1.11-3.296-6.663-7.252-12.77-10.548-18.878-7.252.556-14.504.556-21.756 1.111 7.252 12.77 14.504 26.095 22.415 39.42 16.482-.556 32.304-1.111 48.786-1.666-7.252-13.325-14.504-26.65-22.415-39.975-7.911 0-14.504 0-21.756.555zm-379.735 4.442c3.297 5.552 6.593 11.659 9.889 17.212.659 1.11 0 2.22-1.318 2.776-1.319.555-2.637 0-3.297-1.111-3.296-6.107-7.252-12.77-10.548-18.877-7.252 0-14.504-.555-21.756-.555a1196.615 1196.615 0 0 0 22.415 39.42c16.482 0 32.304.555 48.786.555-7.252-12.77-14.504-25.54-22.415-38.865-7.911 0-15.163-.555-21.756-.555zm-139.764 40.53c5.274 9.994 10.548 20.543 15.822 30.537 16.481 0 32.304.555 48.785.555-5.274-9.994-10.548-19.988-15.822-29.426-16.482-.555-32.304-1.111-48.785-1.666zM.66 777.292v31.091c14.504 0 29.667.556 44.17.556-5.273-9.994-10.548-20.543-15.822-30.537-9.889-.555-19.118-.555-28.348-1.11zM89 780.068c5.275 9.993 10.549 19.987 15.823 29.426 16.482 0 32.304.555 48.786.555-5.274-9.439-10.549-19.432-15.823-28.871-16.481-.555-32.963-.555-48.785-1.11zM65.267 733.43l9.89 18.322c.659 1.111 0 2.221-1.32 2.776-1.318.555-2.636 0-3.296-1.11-3.296-6.663-7.251-13.325-10.548-19.988-7.252-.555-14.504-.555-21.756-1.11 7.252 13.88 14.504 27.76 22.416 41.641 16.481.555 32.304 1.11 48.785 1.11-7.252-13.325-14.504-26.65-22.415-40.53-7.911-.555-14.504-.555-21.756-1.111zm54.72 2.776c3.296 6.108 6.593 11.66 9.889 17.767.659 1.111 0 2.221-1.319 2.776-1.318.555-2.637 0-3.296-1.11-3.296-6.663-7.252-12.77-10.548-19.433-7.252-.555-14.504-.555-21.756-1.11 7.252 13.325 14.504 27.205 22.415 40.53 16.482.555 32.304.555 48.786 1.111a1196.615 1196.615 0 0 0-22.415-39.42c-7.912-.555-15.163-1.111-21.756-1.111zm-108.78-5.552c3.296 6.107 6.593 12.77 9.889 18.877.66 1.111 0 2.221-1.319 2.776-1.318.555-2.637 0-3.296-1.11-3.296-6.663-7.252-13.88-10.548-20.543-1.319 0-3.296 0-4.615-.555v32.757c1.319 3.331 3.296 6.108 4.615 9.439 16.482.555 32.304 1.11 48.785 1.665-7.251-13.88-14.503-27.76-22.415-41.64-7.251-1.111-14.503-1.666-21.096-1.666zm940.111 28.316c-9.23.555-18.46 1.666-28.349 2.221-6.592.555-13.844 1.11-20.437 1.665 5.274 12.77 10.548 25.54 15.823 38.865h3.955c14.504-.555 29.667-1.11 44.171-1.666-3.956-13.88-9.23-27.76-15.163-41.085zm-591.359 23.319c5.274 9.438 10.548 18.877 15.822 27.76h48.786l-15.822-28.315c-16.482.555-32.304.555-48.786.555zm-54.061.555c5.274 9.438 10.548 18.877 15.822 27.76h48.786c-5.274-9.438-10.548-18.877-15.822-27.76h-48.786zm-54.059-.555l15.822 28.315h48.786c-5.275-9.438-10.549-18.877-15.823-27.76-16.481 0-32.963 0-48.785-.555zm162.838 0l15.822 28.315c16.482 0 32.304 0 48.786-.555l-15.823-28.315c-16.481 0-32.963 0-48.785.555zm464.782-77.73c3.296 7.218 6.593 14.436 9.889 22.209.659 1.11 0 2.776-1.318 3.886-1.319.556-2.638 0-3.297-1.11-3.296-8.328-7.252-16.101-10.548-23.874-7.252 1.11-14.504 1.666-21.756 2.776 7.252 16.101 14.504 32.757 22.415 48.858 16.482-1.11 32.304-2.221 48.786-3.886-7.252-17.212-14.504-34.423-22.415-51.635-7.911 1.111-14.504 2.221-21.756 2.776zm-410.721 76.619l15.822 28.316c16.482 0 32.304-.555 48.785-.555-5.274-9.994-10.548-19.433-15.822-28.871-16.481.555-32.304 1.11-48.785 1.11zm247.883-58.852c3.296 6.663 6.593 12.77 9.889 19.432.659 1.111 0 2.776-1.318 3.332-1.319.555-2.637 0-3.297-1.111-3.296-7.218-7.252-13.88-10.548-21.098l-21.756 1.666c7.252 13.88 14.504 28.316 22.415 42.751 16.482-.555 32.304-1.666 48.786-2.776-7.252-14.991-14.504-29.981-22.415-44.417-7.911.555-14.504 1.666-21.756 2.221zm-519.502 59.963l15.823 28.315h48.785l-15.822-28.315h-48.786zm-54.059-1.111c5.274 9.439 10.548 19.432 15.822 28.871 16.482 0 32.304 0 48.786.555l-15.822-28.315c-16.482-.556-32.964-.556-48.786-1.111zm833.311-33.312a2630.821 2630.821 0 0 0-21.756-53.3c-6.592 1.11-13.844 2.221-20.437 2.776l9.889 23.319c.66 1.11 0 3.331-1.318 3.886 0 0-.66 0-.66.555-1.318 0-1.977-.555-2.637-1.665-3.296-8.328-7.251-17.212-10.548-25.54-1.318 0-3.296.555-4.615.555-5.933.555-11.207 1.666-17.141 2.221 5.934 13.325 11.208 26.095 17.141 39.42v.555c1.319 3.887 3.297 7.773 4.615 11.659 15.823-1.11 32.304-2.776 48.127-3.886 0 .555-.001.555-.66-.555 0 .555 0 .555 0 0zm-127.898 18.322l15.822 36.643c16.482-.555 32.304-1.11 48.786-1.665-5.274-12.77-10.548-26.095-15.823-38.865-15.822 1.666-32.303 2.776-48.785 3.887zm-54.059 3.331l15.822 34.978c16.482-.555 32.304-1.11 48.785-1.11l-15.822-36.644c-16.481.555-32.304 1.666-48.785 2.776zm30.986-58.297c3.296 7.218 6.592 13.88 9.889 21.098.659 1.11 0 2.776-1.319 3.331-1.318.555-2.637 0-3.296-1.11-3.296-7.773-7.252-15.546-10.548-22.764-7.252.555-14.504 1.666-21.756 2.221 7.252 15.546 14.504 31.092 22.415 46.638 16.481-1.111 32.304-2.221 48.785-3.332-7.251-16.656-14.503-32.757-22.415-48.858-7.911 1.11-14.503 2.221-21.755 2.776zm-54.061 5.552l9.889 19.988c.659 1.11 0 2.776-1.319 3.331-1.318.555-2.637 0-3.296-1.11-3.297-7.218-7.252-14.436-10.548-21.654-7.252.556-14.504 1.666-21.756 2.221 7.252 14.991 14.504 29.426 22.415 44.972 16.481-1.11 32.304-1.665 48.785-2.776-7.252-15.546-14.503-31.092-22.415-46.637-7.911.555-15.163 1.11-21.755 1.665zm-193.823 61.628l15.822 29.982c16.482 0 32.304-.556 48.786-.556-5.274-10.549-10.548-20.542-15.822-31.091-16.482 1.11-32.964 1.665-48.786 1.665zm-54.719 1.666c5.274 9.438 10.548 19.432 15.822 29.426 16.482 0 32.304-.555 48.786-.555l-15.823-29.981c-16.481.555-32.304.555-48.785 1.11zm217.557-7.773l15.823 33.312c16.481-.555 32.304-.555 48.785-1.11l-15.822-34.978c-16.482 1.11-32.963 1.666-48.786 2.776zm-108.778 4.441c5.274 9.994 10.548 20.543 15.822 31.092 16.482 0 32.304-.555 48.786-1.11-5.275-10.549-10.549-21.653-15.823-32.202-16.481 1.11-32.304 1.665-48.785 2.22zm54.059-2.22c5.274 10.549 10.548 21.098 15.822 32.202 16.482-.555 32.304-.555 48.786-1.11l-15.822-33.313c-16.482 1.11-32.304 1.666-48.786 2.221zm-239.972-36.644l9.889 16.656c.659 1.111 0 2.221-1.319 2.776-1.318.555-2.637 0-3.296-1.11-3.297-6.108-7.252-12.215-10.548-18.322-7.252 0-14.504.555-21.756.555 7.252 12.77 14.504 25.54 22.415 37.754 16.481 0 32.304-.555 48.785-1.11-7.252-12.77-14.503-25.54-22.415-38.31-7.911.556-15.163.556-21.755 1.111zM602.568 892.22c-7.252 13.325-14.504 26.65-22.415 39.975 7.251.555 14.503 1.11 21.755 1.11 3.297-6.662 7.252-12.769 10.549-19.432.659-1.11 1.977-1.666 3.296-1.11 1.318.555 1.978 1.665 1.318 2.776-3.296 6.107-6.592 12.214-9.889 17.766 7.252.556 13.845 1.111 21.097 1.111 7.252-13.325 14.504-27.206 22.415-41.086-15.822.555-31.645 0-48.126-1.11zm108.778 4.997c-7.252 14.435-14.504 28.871-22.415 42.751l21.756 1.666c3.296-6.663 7.252-13.881 10.548-21.098.659-1.111 1.978-1.666 3.296-1.111 1.319.555 1.978 2.221 1.319 3.331-3.296 6.663-6.593 12.77-9.889 19.433 7.252.555 13.845 1.11 21.096 1.665 7.252-14.435 14.504-29.426 22.415-44.416-15.822-.556-32.304-1.666-48.126-2.221zm-54.059-2.776c-7.252 13.88-14.504 27.76-22.415 41.085l21.756 1.666c3.296-6.663 7.251-13.325 10.548-19.988.659-1.11 1.978-1.665 3.296-1.11 1.319.555 1.978 1.666 1.319 2.776l-9.889 18.322c7.252.555 13.844 1.11 21.096 1.665 7.252-13.88 14.504-28.315 22.415-42.751-15.822 0-32.304-.555-48.126-1.665zm-162.838-4.997c-7.252 12.77-14.504 25.539-22.415 38.309 7.252 0 14.504.555 21.756.555 3.296-6.107 7.252-12.214 10.548-18.877.659-1.11 1.978-1.665 3.296-1.11 1.319.555 1.978 1.666 1.319 2.776-3.297 5.552-6.593 11.659-9.889 17.211 7.252.556 13.844.556 21.096 1.111 7.252-12.77 14.504-26.095 22.415-38.865-15.822-.555-32.304-1.11-48.126-1.11zm-271.618-1.666c-7.252 12.77-14.504 25.54-22.415 38.31 7.252 0 14.504-.556 21.755-.556 3.297-6.107 7.252-12.214 10.549-18.321.659-1.111 1.978-1.666 3.296-1.111 1.319.555 1.978 1.666 1.319 2.776-3.297 5.552-6.593 11.104-9.889 17.212 7.252 0 13.844 0 21.096-.556 7.252-12.769 14.504-25.539 22.415-37.754a695.737 695.737 0 0 0-48.126 0zm108.778-.555a1131.357 1131.357 0 0 1-22.415 37.754h21.756c3.296-6.107 7.252-12.214 10.548-18.322.66-1.11 1.978-1.665 3.297-1.11 1.318.555 1.977 1.666 1.318 2.776l-9.889 16.656h21.097a1133.394 1133.394 0 0 1 22.415-37.754h-48.127zm108.121 1.11c-7.252 12.77-14.504 25.54-22.415 37.755 7.252 0 14.504.555 21.755.555 3.297-6.108 7.252-12.215 10.549-18.322.659-1.111 1.977-1.666 3.296-1.111 1.318.556 1.978 1.666 1.319 2.776l-9.889 16.657c7.251 0 13.844.555 21.096.555 7.252-12.77 14.504-25.54 22.415-38.309-15.822 0-31.645-.556-48.126-.556zm-54.06-1.11a1131.357 1131.357 0 0 1-22.415 37.754c7.252 0 14.504 0 21.756.556 3.296-6.108 7.252-12.215 10.548-18.322.66-1.111 1.978-1.666 3.297-1.111 1.318.555 1.977 1.666 1.318 2.776l-9.889 16.657c7.252 0 13.845 0 21.097.555a1131.357 1131.357 0 0 1 22.415-37.754c-15.823-.556-32.304-.556-48.127-1.111zm-108.778 0c-7.252 12.77-14.504 25.54-22.415 37.754h21.755c3.297-6.107 7.252-12.214 10.549-18.322.659-1.11 1.977-1.665 3.296-1.11 1.318.555 1.978 1.666 1.318 2.776l-9.889 16.656h21.097a1135.115 1135.115 0 0 1 22.415-37.754h-48.126zM.66 856.131v31.092c9.23-.555 18.46-.555 28.348-1.11 5.274-9.994 10.549-20.543 15.823-30.537-14.504.556-29.667.555-44.171.555zm4.615 36.644c-1.319 3.332-3.297 6.108-4.615 9.439v32.757c1.318 0 3.296 0 4.615-.555 3.296-6.663 7.252-13.88 10.548-20.543.66-1.11 1.978-1.666 3.296-1.11 1.319.555 1.978 1.665 1.319 2.776-3.296 6.107-6.593 12.77-9.89 18.877 7.253-.555 13.845-1.111 21.097-1.111 7.252-13.88 14.504-27.76 22.415-41.64-15.822 0-32.304.555-48.785 1.11zm814.85 10.549c-7.252 15.546-14.504 31.092-22.415 46.638 7.252.555 14.504 1.665 21.756 2.22 3.296-7.773 7.252-14.99 10.548-22.763.659-1.111 1.978-1.666 3.296-1.111 1.319.556 1.978 2.221 1.319 3.332-3.297 7.217-6.593 13.88-9.889 21.098 7.252.555 13.844 1.665 21.096 2.22 7.252-16.101 14.504-32.202 22.415-48.858-15.822-.555-32.304-1.666-48.126-2.776zm54.059 3.887c-7.252 16.656-14.504 32.757-22.415 48.858 7.252 1.11 14.504 1.666 21.756 2.776 3.296-7.773 7.252-16.101 10.548-23.874.659-1.11 1.978-1.666 3.297-1.11 1.318.555 1.977 2.22 1.318 3.886-3.296 7.218-6.593 14.435-9.889 22.208 7.252 1.111 13.845 1.666 21.097 2.776 7.251-16.656 14.503-33.867 22.415-51.079-15.823-1.665-31.645-3.331-48.127-4.441zm-823.42-51.635c-5.274 9.994-10.549 19.988-15.823 30.537 16.482-.555 32.304-1.111 48.786-1.111 5.274-9.993 10.548-19.987 15.822-29.426-16.481-.555-32.963 0-48.785 0zm714.642 44.417c-7.252 14.99-14.504 29.981-22.415 44.417 7.252.555 14.504 1.11 21.755 2.22 3.297-7.217 7.252-14.435 10.549-21.653.659-1.11 1.977-1.665 3.296-1.11 1.319.555 1.978 2.221 1.319 3.331l-9.889 19.988c7.251.555 13.844 1.665 21.096 2.22 7.252-14.99 14.504-30.536 22.415-46.637-15.822-.555-31.645-1.666-48.126-2.776zm202.395-34.978c-14.504-.556-29.667-1.111-44.171-1.666h-3.956c-5.274 13.325-10.548 26.095-15.822 38.865 6.593.555 13.845 1.11 20.437 1.665 9.23.555 18.46 1.666 28.349 2.221 4.614-13.88 9.889-27.205 15.163-41.085zm-419.293 25.539c-7.252 13.325-14.504 26.095-22.415 38.865 7.252.555 14.504.555 21.756 1.11 3.296-6.107 7.252-12.77 10.548-18.877.659-1.11 1.978-1.665 3.297-1.11 1.318.555 1.977 1.665 1.318 2.776-3.296 5.552-6.593 11.659-9.889 17.211 7.252.556 13.845.556 21.097 1.111 7.251-13.325 14.503-26.65 22.415-39.975-15.823 0-32.304-.556-48.127-1.111zm-118.009-36.088l-15.822 28.315c16.481 0 32.304.556 48.785.556l15.823-28.316c-16.482-.555-32.304-.555-48.786-.555zm108.779.555c-5.274 9.994-10.549 19.432-15.823 29.426 16.482.555 32.304.555 48.786 1.11l15.822-29.981c-16.481 0-32.963 0-48.785-.555zm-162.838-1.11c-5.275 9.438-10.549 18.877-15.823 27.76 16.482 0 32.304 0 48.786.555l15.822-28.315c-16.481.555-32.963 0-48.785 0zm108.12 1.11l-15.822 28.315c16.481.556 32.304.556 48.785 1.111 5.274-9.439 10.548-19.432 15.822-28.871-15.822-.555-32.303-.555-48.785-.555zm-162.84-1.11c-5.274 9.438-10.548 18.877-15.822 27.76h48.786c5.274-9.438 10.548-18.877 15.822-27.76H321.72zM59.993 891.11c-7.252 13.88-14.504 27.76-22.415 41.64 7.252-.555 14.503-.555 21.755-1.11 3.297-6.663 7.252-13.325 10.549-19.988.659-1.11 1.977-1.665 3.296-1.11 1.318.555 1.978 1.666 1.318 2.776l-9.888 18.322c7.251-.555 13.844-.555 21.096-1.111 7.252-13.325 14.504-27.205 22.415-40.53-15.822 0-32.304.555-48.126 1.111zm916.378 24.984c.659 0 .659 0 0 0 .659-.555.659-.555 0 0-15.823-1.666-32.304-3.331-48.127-4.442-1.318 3.887-3.296 7.773-4.615 11.66v.555c-5.933 13.325-11.207 26.65-17.14 39.42 5.933.555 11.207 1.665 17.14 2.22 1.319 0 3.297.556 4.615.556 3.297-8.328 7.252-16.657 10.549-24.985.659-1.11 1.318-1.665 2.637-1.665 0 0 .659 0 .659.555 1.318.555 1.978 2.776 1.318 3.886l-9.889 23.319c6.593 1.11 13.845 2.221 20.438 2.776 8.57-17.767 15.822-35.533 22.415-53.855 0 .555 0 0 0 0zm-708.71-62.183l-15.822 28.315h48.785c5.274-9.438 10.548-18.877 15.823-27.76-16.482-.555-32.304-.555-48.786-.555zm-54.059.555l-15.823 28.315c16.482 0 32.304-.555 48.786-.555l15.822-28.315c-16.481 0-32.963 0-48.785.555zm542.575 4.441l-15.823 33.313c16.482.555 32.304 1.665 48.786 2.776l15.822-34.978c-16.481-.555-32.304-.555-48.785-1.111zm108.778 2.776l-15.822 36.644c16.481 1.111 32.304 2.221 48.785 3.331 5.275-12.769 10.549-25.539 15.823-38.864-16.482 0-32.963-.555-48.786-1.111zm-760.132-6.662c-5.274 9.994-10.548 19.432-15.822 29.426 16.481-.555 32.304-.555 48.785-1.11 5.274-9.439 10.549-19.433 15.823-28.871-16.482 0-32.304.555-48.786.555zm54.059-.555c-5.274 9.438-10.548 19.432-15.822 28.871 16.482-.556 32.304-.556 48.786-.556l15.822-28.315h-48.786zm-44.83 34.978c-7.252 13.325-14.504 26.65-22.415 40.53 7.252-.555 14.504-.555 21.756-1.11 3.296-6.663 7.252-12.77 10.548-19.433.659-1.11 1.978-1.665 3.296-1.11 1.319.555 1.978 1.666 1.319 2.776-3.296 6.107-6.593 11.659-9.889 17.767 7.252 0 13.845-.555 21.097-.555a1194.763 1194.763 0 0 1 22.414-39.42c-15.822 0-31.644 0-48.126.555zm696.844-29.426l-15.823 34.978c16.482 1.11 32.304 1.666 48.786 2.776l15.822-36.644c-16.481 0-32.963-.555-48.785-1.11zm-217.558-3.887l-15.822 29.982c16.482.555 32.304 1.11 48.786 1.665 5.274-9.994 10.548-20.543 15.822-31.091-16.482 0-32.304-.556-48.786-.556zm54.718.556c-5.274 10.549-10.548 20.542-15.822 31.091 16.481.556 32.304 1.111 48.785 1.666 5.275-10.549 10.549-21.098 15.823-32.202-16.482 0-32.963 0-48.786-.555zm54.061 1.11c-5.274 10.549-10.548 21.653-15.822 32.202 16.482.555 32.304 1.666 48.785 2.221l15.823-33.313c-16.482-.555-32.963-.555-48.786-1.11zm-534.004 30.537c-7.252 12.769-14.504 26.094-22.415 39.419 7.252 0 14.504-.555 21.756-.555 3.296-6.107 7.252-12.77 10.548-18.877.659-1.11 1.978-1.666 3.296-1.11 1.319.555 1.978 1.665 1.319 2.776-3.297 5.552-6.593 11.659-9.889 17.211 7.252 0 13.844-.555 21.096-.555 7.252-12.77 14.504-25.54 22.415-38.309-15.163-.556-31.644-.556-48.126 0z" fill="#1F1F1F"/></svg>