<svg width="503" height="71" fill="none" xmlns="http://www.w3.org/2000/svg"><path d="M87.412 60.533l-1.736 1.764-1.764-1.764h-2.351V67h2.351v-3.93l1.75 1.804 1.75-1.805V67h2.352v-6.467h-2.352zm4.566.082v1.764h5.462v2.857h-3.446v-.588h2.858v-1.681h-3.124c-.488 0-.887.084-1.197.253-.305.164-.53.394-.676.69-.142.292-.212.64-.212 1.046 0 .61.17 1.105.512 1.483.342.374.866.561 1.573.561h6.063v-4.621c0-.533-.141-.96-.424-1.278-.282-.324-.729-.486-1.34-.486h-6.05zm9.679 0h6.35v1.846h-3.999V67h-2.351v-6.385zm8.215 0v1.764h5.463v2.857h-3.446v-.588h2.858v-1.681h-3.124c-.488 0-.887.084-1.197.253a1.547 1.547 0 0 0-.676.69c-.142.292-.212.64-.212 1.046 0 .61.17 1.105.512 1.483.342.374.866.561 1.573.561h6.063v-4.621c0-.533-.141-.96-.424-1.278-.282-.324-.729-.486-1.34-.486h-6.05zm9.707 0h5.038c.456 0 .834.078 1.135.233.3.15.521.36.663.629.145.264.218.565.218.902 0 .447-.08.788-.239 1.025-.16.233-.35.385-.574.458.2.114.385.299.554.554.173.255.26.529.26.82 0 .534-.142.962-.424 1.285-.283.32-.73.479-1.34.479h-5.291v-1.764h4.62v-.588h-2.774v-1.681h2.775v-.588h-4.621v-1.764zm8.906 0h2.352v3.61l3.274-3.61h2.434V67h-2.352v-3.794L130.755 67h-2.27v-6.385zm9.96 0h2.35v2.017h2.858v-2.017h2.352V67h-2.352v-2.434h-2.857V67h-2.352v-6.385zm24.012 1.764v-1.764h-5.12c-.61 0-1.057.162-1.34.486-.282.319-.424.745-.424 1.278v2.857c0 .534.142.962.424 1.285.283.32.73.479 1.34.479h5.12v-1.764h-4.532V62.38h4.532zM166.75 67h-2.352v-6.385h7.56V67h-2.351v-4.621h-2.858V67zm13.445-6.549c.606 0 1.05.16 1.333.479.287.319.431.747.431 1.285v3.021c0 .534-.142.962-.424 1.285-.283.32-.73.479-1.34.479h-4.621c-.61 0-1.058-.16-1.34-.479-.283-.323-.424-.751-.424-1.285v-3.021c0-.538.141-.966.424-1.285.287-.32.734-.479 1.34-.479h4.62zm-4.033 1.764v3.021h3.445v-3.021h-3.445zM186.107 67h4.102c.538 0 .939-.185 1.203-.554.269-.369.403-.83.403-1.38v-2.77c0-.537-.143-.965-.43-1.284-.283-.32-.727-.479-1.333-.479h-6.296v9.83h2.351V67zm0-4.703h3.357v2.768h-3.357v-2.768zm7.41-1.682h7.054v1.764h-2.351V67h-2.352v-4.621h-2.351v-1.764zm8.653 0h2.352v3.61l3.274-3.61h2.434V67h-2.352v-3.794L204.44 67h-2.27v-6.385zm9.918 0h6.132c.442 0 .813.078 1.114.233.301.15.527.357.677.622.15.26.226.563.226.909 0 .35-.112.652-.335.902-.219.25-.486.426-.8.527.2.036.394.123.581.26.191.136.344.307.458.512.118.205.178.424.178.656 0 .534-.142.962-.424 1.285-.283.32-.729.479-1.34.479h-6.467v-6.385zm2.352 1.764v2.857h3.445v-.574h-2.857v-1.709h2.857v-.574h-3.445zm7.771-1.764h2.352v2.017h2.857v-2.017h2.352V67h-2.352v-2.434h-2.857V67h-2.352v-6.385zm17.725 0h2.352V67h-2.352v-6.385zm-5.879 4.621h2.858v-.588h-2.27v-1.681h2.536c.46 0 .848.098 1.162.294.315.196.547.449.698.759.15.305.225.617.225.936 0 .305-.039.581-.116.827a1.694 1.694 0 0 1-.369.636 1.743 1.743 0 0 1-.65.43c-.259.1-.576.151-.95.151h-5.475v-6.385h2.351v4.621zm10.082-4.62h2.352v2.187h2.686v-2.188h2.352v1.764c0 .378-.109.69-.328.936-.214.242-.422.379-.622.41.219.064.43.226.636.486.209.255.314.597.314 1.025V67h-2.352v-2.352h-2.686V67h-2.352v-1.764c0-.428.103-.77.308-1.025.205-.255.419-.417.643-.485-.201-.037-.411-.176-.629-.417-.215-.242-.322-.552-.322-.93v-1.764zm16.767 0h7.055v1.763h-2.352V67h-2.351v-4.621h-2.352v-1.764zm15.011-.165c.606 0 1.051.16 1.333.479.287.319.431.747.431 1.285v3.021c0 .534-.141.962-.424 1.285-.283.32-.729.479-1.34.479h-4.621c-.611 0-1.057-.16-1.34-.479-.282-.323-.424-.751-.424-1.285v-3.021c0-.538.142-.966.424-1.285.287-.32.734-.479 1.34-.479h4.621zm-4.033 1.764v3.021h3.445v-3.021h-3.445zm7.621-1.6h6.132c.442 0 .814.078 1.114.233.301.15.527.357.677.622.15.26.226.563.226.909 0 .35-.112.652-.335.902-.219.25-.486.426-.8.527.2.036.394.123.581.26.191.136.344.307.458.512.118.205.178.424.178.656 0 .534-.142.962-.424 1.285-.283.32-.729.479-1.34.479h-6.467v-6.385zm2.352 1.764v2.857h3.445v-.574h-2.857v-1.709h2.857v-.574h-3.445zm8.093-1.764v1.764h5.462v2.857h-3.446v-.588h2.858v-1.681H291.7c-.488 0-.887.084-1.197.253-.305.164-.53.394-.676.69-.142.292-.212.64-.212 1.046 0 .61.171 1.105.512 1.483.342.374.866.561 1.573.561h6.063v-4.621c0-.533-.141-.96-.424-1.278-.282-.324-.729-.486-1.339-.486h-6.05zM301.966 67h4.102c.538 0 .939-.185 1.203-.554.269-.369.403-.83.403-1.38v-2.77c0-.537-.143-.965-.43-1.284-.283-.32-.727-.479-1.333-.479h-6.296v9.83h2.351V67zm0-4.703h3.357v2.768h-3.357v-2.768zm13.993-1.846c.606 0 1.05.16 1.333.479.287.319.431.747.431 1.285v3.021c0 .534-.142.962-.424 1.285-.283.32-.729.479-1.34.479h-4.621c-.611 0-1.058-.16-1.34-.479-.283-.323-.424-.751-.424-1.285v-3.021c0-.538.141-.966.424-1.285.287-.32.734-.479 1.34-.479h4.621zm-4.033 1.764v3.021h3.445v-3.021h-3.445zm7.621-1.6h6.132c.442 0 .813.078 1.114.233.301.15.526.357.677.622.15.26.225.563.225.909 0 .35-.111.652-.335.902-.218.25-.485.426-.799.527.2.036.394.123.581.26.191.136.344.307.458.512.118.205.177.424.177.656 0 .534-.141.962-.423 1.285-.283.32-.73.479-1.34.479h-6.467v-6.385zm2.351 1.764v2.857h3.446v-.574h-2.858v-1.709h2.858v-.574h-3.446z" fill="#007967"/><path d="M17.979.44c-2.712 0-5.127.626-7.247 1.88-2.096 1.253-3.725 2.939-4.887 5.058-1.14 2.12-1.71 4.432-1.71 6.938h53.629V.44H17.978zm0 31.513H59.37c0-1.846-.319-3.566-.957-5.161a12.134 12.134 0 0 0-2.803-4.307c-1.23-1.276-2.7-2.255-4.409-2.94-1.709-.706-3.589-1.059-5.64-1.059H4.137c0 1.823.33 3.566.99 5.23a13.789 13.789 0 0 0 2.804 4.306c1.207 1.208 2.666 2.165 4.375 2.872 1.709.706 3.6 1.06 5.674 1.06zM4.136 50h41.357c2.074 0 3.976-.376 5.708-1.128 1.732-.752 3.19-1.755 4.375-3.008 1.208-1.276 2.142-2.768 2.803-4.477a14.5 14.5 0 0 0 .991-5.264H4.136V50zm72.667 0h20.508c2.689 0 4.705-.923 6.05-2.769 1.344-1.845 2.016-4.147 2.016-6.904V26.484c0-2.688-.729-4.83-2.187-6.425-1.436-1.596-3.657-2.393-6.665-2.393h-31.48v49.15h11.758V50zm0-23.516h16.782v13.843H76.803V26.484zm64.362-9.228c3.03 0 5.252.797 6.665 2.392 1.435 1.596 2.153 3.737 2.153 6.426v15.108c0 2.666-.706 4.808-2.119 6.425-1.413 1.596-3.646 2.393-6.699 2.393h-23.106c-3.053 0-5.286-.797-6.699-2.393-1.413-1.617-2.119-3.76-2.119-6.425V26.074c0-2.689.706-4.83 2.119-6.426 1.436-1.595 3.669-2.392 6.699-2.392h23.106zm-20.166 8.818v15.108h17.226V26.074h-17.226zm32.643-8.408V50H165.4V26.484h5.947v2.94h11.758v-2.94c0-2.688-.718-4.83-2.154-6.425-1.412-1.596-3.634-2.393-6.665-2.393h-20.644zM189.703.85v17.226h-3.008v8.819h3.008v14.287c0 2.666.706 4.808 2.119 6.425 1.413 1.596 3.646 2.393 6.699 2.393h17.022v-8.818h-14.082V26.894h14.082v-8.818h-14.082V.85h-11.758z" fill="#F6BC01"/><path d="M283.938.44h-18.047l-13.023 13.876L239.846.44h-18.047V50h18.047V19.956l13.022 14.15 13.023-14.15V50h18.047V.44zm7.999 17.636v8.819h27.309v14.287H302.02v-2.94h14.287v-8.408h-15.62c-2.438 0-4.432.422-5.982 1.265-1.526.82-2.654 1.97-3.383 3.452-.707 1.458-1.06 3.201-1.06 5.23 0 3.053.855 5.525 2.564 7.416 1.709 1.869 4.329 2.803 7.861 2.803h30.317V26.895c0-2.666-.706-4.797-2.119-6.392-1.413-1.618-3.646-2.427-6.699-2.427h-30.249zM346.421 50h20.507c2.689 0 4.695-.923 6.016-2.769 1.345-1.845 2.017-4.147 2.017-6.904V26.484c0-2.688-.718-4.83-2.154-6.425-1.412-1.596-3.634-2.393-6.665-2.393h-31.479v49.15h11.758V50zm0-23.516h16.782v13.843h-16.782V26.484zm32.438-8.408V50h11.757V37.832h14.288V50h12.167v-9.16c0-1.937-.66-3.6-1.982-4.99-1.322-1.413-2.712-2.268-4.17-2.564.866-.114 1.777-.456 2.735-1.025a7.29 7.29 0 0 0 2.426-2.29c.661-.98.991-2.12.991-3.418v-8.477h-12.167V28.16h-14.288V18.076h-11.757zm70.992 11.758h-14.219v8.408h24.781V26.895c0-2.666-.707-4.797-2.119-6.392-1.413-1.618-3.646-2.427-6.7-2.427h-21.909c-3.008 0-5.229.81-6.665 2.427-1.435 1.595-2.153 3.726-2.153 6.392v14.287c0 2.666.718 4.808 2.153 6.425 1.436 1.596 3.657 2.393 6.665 2.393h30.728v-8.818h-27.788V26.894h17.226v2.94zm13.263-11.758h35.274v8.819H486.63V50h-11.758V26.895h-11.758v-8.819z" fill="#AA2B31"/></svg>