<svg width="870" height="50" fill="none" xmlns="http://www.w3.org/2000/svg"><path d="M836.14 25.265v-2.132c-1.506-.79-2.655-2.092-3.605-3.276-1.704-2.132-4.437-4.856-6.298-4.856-10.299-.434-8.754 2.842-9.744 5.29-.793-.276-1.822-.987-2.535-1.54l-6.14 2.566c3.09 1.382 6.536 6.12 6.536 6.12l-3.882.434s6.456 3.71 9.03 5.408c2.576 1.697 5.586.276 4.992-1.698-.555-2.013-4.714-6.119-4.714-6.119s5.427-2.447 8.873-3.868c2.376 2.447 5.03 3.632 7.486 3.671z" fill="#093E8C"/><path d="M817.205 15.751s-4.872.277-8.041 1.145c-3.565-.276-10.299-4.58-10.299-4.58v2.29l5.308 3.988-4.714 1.697-2.574-2.132s-1.426 2.014-2.575 2.566c-2.733-.434-4.159-1.855-4.159-1.855l4 .987c2.298-.71 4.279-7.146 3.882-9.001-1.584 2.566-4.436 5.408-4.436 5.408l-1.862-.71c4.001-2.566 3.288-9.001 1.862-12.554.713 4.421-2.02 9.988-5.743 12.12-7.011 5.842-.436 5.724 4.317 8.013 9.744 6 3.882 23.963 3.882 23.963 7.01-3.553 6.734-16.857 5.862-22.107.436-.987 2.733-2.566 5.03-3.987l6.299-2.843 3.96-2.408z" fill="#093E8C"/><path d="M830.118 15.751c1.75 0 3.169-1.538 3.169-3.434 0-1.897-1.42-3.435-3.17-3.435s-3.168 1.538-3.168 3.435c0 1.896 1.419 3.434 3.169 3.434z" fill="#AA2B31"/><path d="M787.973 14.488c1.386-.948 1.703-2.921.713-4.461-1.03-1.54-2.97-2.013-4.397-1.066-1.386.908-1.703 2.921-.713 4.461 1.03 1.5 3.01 1.974 4.397 1.066z" fill="#007967"/><path d="M753.861 44.951v-1.934c-7.169-2.409-14.774-8.843-19.844-15.555-6.377-8.448 5.822-9.198 6.06-10.303.277-3.04-.792-5.211-2.297-6.474a3.261 3.261 0 0 0 1.267-2.448c.08-1.776-1.267-3.237-3.05-3.237-1.782 0-3.287 1.46-3.406 3.237-.08 1.777 1.267 3.237 3.05 3.237.277 0 .554-.04.832-.118.277 1.342 0 2.29-.357 3.592-32.678 3.474-30.222 19.66-29.985 19.147 3.526-7.54 10.695-10.107 13.626-10.304 2.179 11.764 3.684 15.317 12.002 18.2 3.684 1.262 8.833 1.776 8.833 1.776s-1.149-1.106-1.94-3.04c4.871 3.356 10.06 4.54 15.21 4.224zM731.8 34.963c1.03 1.46 2.139 3.04 4.555 4.145-5.664-.631-4.555-4.145-4.555-4.145z" fill="#F6BC01"/><path d="M723.084 16.922c1.782 0 3.367-1.855 3.486-4.145.119-2.29-1.228-4.145-3.01-4.145-1.783 0-3.368 1.855-3.486 4.145-.159 2.29 1.188 4.145 3.01 4.145zm-64.18-2.198l-.99 3.277-.158.67C649.2 14.37 640.842 9 640.842 9s-3.327.947-3.842.592c0 0 13.943 11.212 18.538 14.29-.674 6.12-5.665 13.463-5.665 13.463s7.13 7.342 18.26 3.237c15.765-5.527 9.507-15.989 2.852-16.739-2.574-.434-5.98-1.737-9.546-3.355.12-.197.317-.434.515-.79.396-3.474-3.05-4.974-3.05-4.974zm-.673 17.923c.713-1.105 2.02-5.211 2.02-5.211l6.734 3.158s-5.585 2.053-8.754 2.053z" fill="#093E8C"/><path d="M648.962 28.58c-2.218-1.46-5.268-.75-6.853 1.58-1.584 2.368-1.07 5.448 1.149 6.908 2.218 1.46 5.268.75 6.853-1.579 1.584-2.329 1.069-5.408-1.15-6.908zm-46.246-8.92c1.545-3.277 4.99-11.528 3.446-19.423-.871 6.198-5.189 19.107-13.626 20.962-2.258.158-2.416 0-2.416 0s.158-6.869-1.228-10.817c0 0-.356 8.764-3.604 12.041 6.06 1.737 19.844 7.382 9.15 20.647C585.644 38.609 582 39.635 582 39.635l10.853 6.711-2.06 2.922s8.992-2.053 15.37-2.409c1.9-4.697 5.505-20.844-3.447-27.2zm-4.318 24.91s3.288-1.027 3.803-6.198c0 0 .158 5.921.158 6.356-.04-.474-3.96-.158-3.96-.158z" fill="#093E8C"/><path d="M593.923 19.146c1.903 0 3.446-1.272 3.446-2.842s-1.543-2.842-3.446-2.842c-1.903 0-3.446 1.272-3.446 2.842s1.543 2.842 3.446 2.842z" fill="#093E8C"/><path d="M595.388 6.395a3.203 3.203 0 0 0 3.209-3.197A3.203 3.203 0 0 0 595.388 0a3.203 3.203 0 0 0-3.208 3.198 3.203 3.203 0 0 0 3.208 3.197z" fill="#AA2B31"/><path d="M516.209 6.71c.04 0 .04-.039.08-.039-.04.04-.04.04-.08.04zm1.941-.512c-.634 0-1.268.158-1.783.434a3.96 3.96 0 0 1 1.782-.434z" fill="red"/><path d="M516.288 6.671c.04 0 .08-.04.08-.04-.04.04-.04.04-.08.04z" fill="#5DA3F2"/><path d="M553.68 24.673c-1.149-1.895-5.902-11.962-15.091-14.133a4.164 4.164 0 0 1-1.426.277 3.872 3.872 0 0 1-2.219-.672c-2.099 0-4.396.435-6.892 1.382 0 0-2.93 3.119-7.882 1.974a3.873 3.873 0 0 1-2.02.553 3.73 3.73 0 0 1-1.862-.474c-2.218 1.5-3.327 5.961 4.397 14.607 0 6.553-2.297 16.185-11.685 19.462 10.655 1.263 14.458-6.317 14.458-6.317s3.723.277 7.09-.236a29.758 29.758 0 0 1-1.268 1.776c-1.03 1.026-2.178 2.487-2.178 2.487s6.179-.553 8.278-2.29c2.416-2.013 6.338-4.934 9.427-13.62-.752 6.554.317 11.765 8.358 16.542-1.505-3.908-6.1-14.528.515-21.318zm-18.22-6.711c1.663 1.54 2.138 2.329 2.534 5.685.357 1.934-.118 5.882-2.376 10.027-.634-.79-1.743-1.46-1.743-1.46l3.05-2.527s-7.684-7.146-8.912-10.304l-5.348 2.29s-4.832-1.974-5.228-2.645l5.11 1.618 4.95-2.368c1.506-2.25 3.843-3.987 3.843-3.987s.356.197.911.552c-.198-.158-.396-.355-.594-.513 0 0 6.06 4.974 9.982 3.356.871 1.342-3.209 1.894-6.18.276z" fill="#093E8C"/><path d="M520.17 13.461c.832-.513 1.506-1.342 1.783-2.329.04-.158.08-.316.08-.434v-.079c.039-.158.039-.316.039-.513a3.899 3.899 0 0 0-3.922-3.908 3.96 3.96 0 0 0-1.782.434c-.04 0-.08.04-.08.04-.039 0-.039.039-.079.039a3.882 3.882 0 0 0-1.98 3.395c0 .158 0 .355.04.513v.079a3.942 3.942 0 0 0 2.06 2.842l-.04.04a3.73 3.73 0 0 0 1.861.474c.753 0 1.426-.237 2.02-.593zm18.379-2.841h-.04c.08-.04.159-.04.238-.08.357-.158.673-.355.99-.592.08-.04.12-.118.198-.197l.04-.04a3.905 3.905 0 0 0 1.149-2.763c0-2.172-1.743-3.948-3.922-3.948a3.94 3.94 0 0 0-1.505.316c-1.98.829-2.931 3.158-2.06 5.132a3.74 3.74 0 0 0 1.466 1.737h-.08a3.872 3.872 0 0 0 2.219.671c.396.04.871-.04 1.307-.237zm-81.723 11.392c1.36-2.03.546-4.952-1.819-6.526-2.365-1.574-5.385-1.204-6.746.827-1.36 2.03-.546 4.952 1.82 6.526 2.364 1.574 5.384 1.204 6.745-.827z" fill="#093E8C"/><path d="M480.373 1c-11.605 20.805-28.043 24.792-28.043 24.792 2.178 11.093-6.932 5.882-10.893 3.158h.356l-2.257-12.514c2.297-.671 4-3.04 4-5.922 0-3.356-2.376-6.119-5.268-6.119-2.891 0-5.268 2.724-5.268 6.119 0 3.356 2.377 6.119 5.268 6.119.159 0 .357-.04.515-.079l1.901 11.883c-.633-.435-1.03-.75-1.03-.75l1.466 2.92c4.436 11.134 13.27 8.41 15.17 3.988 5.902 5.685 2.536 13.58 2.536 13.58s2.733.553 18.735.119c.198-5.448-2.535-15.199-10.1-24.002 4.911-2.488 11.447-13.62 12.912-23.292zm-42.065 14.37c-2.337 0-4.199-2.171-4.199-4.856 0-2.684 1.862-4.856 4.199-4.856 2.337 0 4.198 2.172 4.198 4.856 0 2.684-1.9 4.856-4.198 4.856z" fill="#007967"/><path d="M364.241 15.225c1.703 1.342 3.921 1.342 4.951.04 1.03-1.303.476-3.435-1.228-4.777-1.703-1.343-3.921-1.343-4.95-.04-1.03 1.303-.476 3.435 1.227 4.777z" fill="#F6BC01"/><path d="M401.95 19.291c-1.782-2.448-4.436-5.369-7.486-8.25-2.456-2.33-5.308-4.738-7.803-6.475.198-.553.435-1.105.633-1.737l-1.07 1.421c-2.02-1.342-3.722-2.25-4.792-2.25-.396 0-.713.118-.95.355-.872.948.356 3.237 2.297 5.803-4.16 4.264-9.427 8.093-14.339 8.962-1.426 4.303-5.347 10.224-11.685 10.224-2.06-1.42-4.713-2.447-5.743-7.58-.12-.63.396 18.002 14.774 15.752 5.15-.829 13.943-3.08 19.29 2.053 1.228 1.618-7.407 10.856-7.407 10.856s15.606-9.198 16.399-13.304c.831-4.105-14.379-6.119-14.379-6.119s3.684-6.355-3.09-12.474c0-1.658 3.843-2.448 7.25-6.948 1.9 2.329 4.238 4.697 5.94 6.316 4.596 4.342 10.616 9.04 13.072 9.04.396 0 .753-.118.95-.355.516-.513.872-1.619-1.86-5.29zm-38.342 11.962c-4.08.197-5.823-2.132-5.823-2.132 6.14 1.224 11.012-6.435 11.012-6.435 1.544.237 3.96 2.921 4.277 4.185-6.14.71-9.466 4.382-9.466 4.382zm19.924-23.884c-1.743-2.33-2.496-3.869-2.258-4.224 0 0 .04-.04.158-.04.713 0 2.14.711 4.08 2.014-.634.71-1.268 1.5-1.98 2.25zm19.527 16.422s-.04.04-.158.04c-1.505 0-6.298-3.04-12.28-8.725-2.574-2.447-4.594-4.618-6.06-6.434.595-.869 1.149-1.895 1.664-3.04 2.1 1.46 4.634 3.553 7.486 6.237 6.892 6.514 9.744 11.212 9.348 11.922zm-81.864 2.553l-1.188.119C319.651 8.777 305.51 1 305.51 1l-7.368 19.423c.199.158.397.355.595.592.871-2.369 6.812-18.673 7.09-18.989 6.852 4.659 11.407 12.673 11.447 24.753l-18.656 2.013s-3.922.79-7.328.118c-2.812-.552-7.407-1.579-9.665-.236-4.832 2.21 2.139 4.697 7.526 9.71 1.862 1.738 2.614 8.962 2.06 11.568h15.408c-.238-1.816-1.624-12.988-2.496-15.436 4.239.474 10.14-.276 12.993-2.013-.436 8.764-1.664 16.028-1.941 17.488h1.188c.475-1.184 3.644-9.474 3.644-22.739 1.782-.197 2.773-.276 2.773-.276l-1.585-.632zm-3.96 3.593c-2.773.473-12.597 1.855-19.45-.119 8.319-1.066 15.092-1.816 19.489-2.329 0 .83-.04 1.619-.04 2.448z" fill="#093E8C"/><path d="M298.143 20.344c-.515-.395-1.149-.71-1.822-.83-.04 0-.08 0-.12-.039-.078 0-.158-.04-.197-.04-.12 0-.238-.039-.396-.039-2.298 0-4.199 1.974-4.199 4.422 0 2.447 1.862 4.421 4.199 4.421.237 0 .435-.04.673-.079 1.98-.315 3.525-2.131 3.525-4.342 0-.277-.04-.592-.079-.869 0-.079-.04-.158-.08-.276 0-.04 0-.079-.039-.118-.158-.632-.475-1.185-.91-1.698-.16-.158-.357-.316-.555-.513z" fill="#007967"/><path d="M239.714 49.82c2.455-3.237 2.852-5.96 3.446-14.448l7.763.67-7.605-4.42c0-.277.04-.554.04-.87 0-3.592-3.209-8.092-11.17-10.382-.555-.197-12.28-5.645-13.032-14.527 0 0-2.456 9.04 12.12 20.37 1.506 5.448 2.971 15.633-.237 22.304l8.675 1.303z" fill="#093E8C"/><path d="M232.861 18.633c1.822 1.224 4.08 1.066 5.11-.394.99-1.461.356-3.632-1.466-4.896-1.822-1.223-4.08-1.066-5.11.395-1.03 1.46-.356 3.671 1.466 4.895z" fill="#093E8C"/><path d="M223.355 8.37a4.192 4.192 0 0 0 4.198-4.185A4.192 4.192 0 0 0 223.355 0a4.192 4.192 0 0 0-4.199 4.185 4.192 4.192 0 0 0 4.199 4.184z" fill="#AA2B31"/><path d="M191.423 7.198c-4.991 2.566-16.953 3.474-20.32 1.224-.673 1.895-5.11 2.96-6.853.276 0 0-16.28 4.619-9.268 18.791-1.03-7.777 3.367-11.29 6.179-12.356.95 6.435-2.416 14.409-5.783 18.16-6.734.394-10.378-.474-10.378-.474s9.308 13.027 19.805-2.566c-.198 5.21-2.693 11.566-5.941 16.106l.118 1.737S176.49 38.03 174.43 14.501c8.318.158 14.3-3.395 16.993-7.303z" fill="#093E8C"/><path d="M167.578 9.211c2.013 0 3.644-1.838 3.644-4.105 0-2.268-1.631-4.106-3.644-4.106-2.012 0-3.644 1.838-3.644 4.106 0 2.267 1.632 4.105 3.644 4.105z" fill="#F6BC01"/><path d="M153.16 48.254a3.757 3.757 0 0 0 3.763-3.75 3.757 3.757 0 0 0-3.763-3.75 3.757 3.757 0 0 0-3.763 3.75 3.757 3.757 0 0 0 3.763 3.75z" fill="#007967"/><path d="M105.848 27.282c-5.704 0-10.299 4.619-10.299 10.264 0 5.685 4.634 10.264 10.299 10.264 5.703 0 10.298-4.58 10.298-10.264 0-5.685-4.634-10.264-10.298-10.264zm0 18.791c-4.714 0-8.556-3.829-8.556-8.527 0-4.698 3.842-8.527 8.556-8.527 4.713 0 8.555 3.83 8.555 8.527 0 4.698-3.842 8.527-8.555 8.527z" fill="#093E8C"/><path d="M86.518 37.862l11.09-10.935-2.217-1.935c.356-.552.713-.355 1.148-1.145 1.347-2.368-4.278-5.921-6.417-6.632.951-.552 2.536-1.026 5.11-1.342.594 3.198 1.901 8.409 8.714 11.29 1.228.08 1.704.119 1.862.119-.277-.197-8.397-5.961-6.852-17.725a3.975 3.975 0 0 0 2.733 1.105c2.139 0 3.842-1.697 3.842-3.75 0-.355-.08-.71-.159-1.066l.317-.079s-1.148-2.882-4.634-2.763l-3.486.157s0 2.132.357 3.12c-.04.197-.08.433-.08.63 0 .711.198 1.343.555 1.896-2.575-.671-12.794-1.421-18.696 8.487-2.179 4.5 9.744 9.712 9.744 9.712l-3.367 7.5c.317.987.476 2.014.476 3.08-.04.079-.04.158-.04.276zm15.21-34.069c1.703 0 3.13 1.382 3.13 3.119a3.13 3.13 0 0 1-3.13 3.118c-1.703 0-3.129-1.381-3.129-3.118 0-1.737 1.426-3.119 3.13-3.119z" fill="#AA2B31"/><path d="M76.893 47.81c.119 0 .237 0 .317-.04.079 0 .158 0 .198-.039.119 0 .198-.04.317-.04.079 0 .158-.039.237-.039.08 0 .198-.04.278-.04.079 0 .158-.039.237-.039.08-.04.159-.04.277-.079.08-.04.159-.04.238-.079.08-.04.159-.04.238-.079.079-.039.158-.039.237-.079.08-.039.159-.039.238-.078.08-.04.159-.08.277-.119.08-.04.12-.04.198-.079.08-.04.198-.079.278-.118.04-.04.119-.04.158-.08a1.19 1.19 0 0 0 .317-.157c.04-.04.08-.04.158-.08.12-.039.198-.118.317-.197.04-.039.08-.039.12-.078.118-.08.237-.158.316-.198.04 0 .04-.04.08-.04l.356-.236s.04 0 .04-.04c.118-.079.237-.197.356-.276 2.258-1.816 3.763-4.58 3.842-7.698v-.316c0-1.066-.158-2.132-.475-3.08-.08-.236-.159-.473-.238-.67 0-.04-.04-.08-.04-.119-.079-.236-.198-.434-.316-.67 0-.04-.04-.08-.04-.08-.119-.197-.238-.434-.357-.631v-.04c-.118-.197-.277-.395-.396-.631-.04-.04-.04-.08-.079-.08-.158-.197-.277-.394-.436-.592l-.04-.039a6.062 6.062 0 0 0-.475-.513l-.04-.04-.514-.513-.08-.079c-.356-.316-.752-.631-1.188-.868-.04-.04-.079-.04-.118-.08a9.08 9.08 0 0 0-.634-.355c-.04 0-.08-.04-.08-.04-.197-.118-.395-.196-.633-.315 0 0-.04 0-.04-.04-.237-.078-.435-.197-.673-.276-.04 0-.08-.04-.119-.04-.238-.078-.475-.157-.713-.197h-.08c-.237-.04-.435-.118-.673-.157-.04 0-.079 0-.118-.04a4.334 4.334 0 0 0-.713-.079h-.159c-.237 0-.515-.04-.752-.04-1.902 0-3.724.514-5.229 1.422-.04 0-.08.04-.08.04-.039.039-.078.039-.118.078C67.941 30.52 66 33.756 66 37.428c0 5.684 4.634 10.264 10.299 10.264h.514c-.04.118.04.118.08.118zm-9.269-10.264c0-4.698 3.842-8.527 8.556-8.527 4.713 0 8.555 3.83 8.555 8.527 0 4.698-3.842 8.527-8.555 8.527-4.714 0-8.556-3.83-8.556-8.527zm34.104-27.516a3.124 3.124 0 0 0 3.13-3.118 3.124 3.124 0 0 0-3.13-3.119A3.124 3.124 0 0 0 98.6 6.912a3.124 3.124 0 0 0 3.13 3.119z" fill="#AA2B31"/><path d="M26.618 8.567S22.182 6.75 16.478 10.5c-6.06 3.987-4.754 14.607-1.387 17.094-2.138-4.303-3.01-12.475 4.357-11.054 0 0-1.98 22.541-19.448 33.437 5.189.513 17.032-8.093 22.895-17.922 7.05 2.25 5.585 3.197 5.585 3.197l-8.002 12.87S38.461 36.2 37.392 33.398c-1.347-3.711-10.537-7.54-10.537-7.54l2.456-6.12s2.931.632 4.239-.276c3.208-2.29 2.891-3.908 2.891-3.908s-5.625 3.04-6.337-2.763c-.396-3.395-3.486-4.224-3.486-4.224z" fill="#093E8C"/><path d="M28.242 7.738a3.875 3.875 0 0 0 3.882-3.87A3.875 3.875 0 0 0 28.242 0a3.875 3.875 0 0 0-3.882 3.869 3.875 3.875 0 0 0 3.882 3.869z" fill="#007967"/></svg>