<!-- Made in Mondrian.io -->
<svg xmlns="http://www.w3.org/2000/svg" width="512" height="512" xmlns:mondrian="https://mondrian.io/xml">
<path fill="rgba(255, 255, 255, 1)" d="M15.31196228,8.71172465 C15.31196228,12.85387183 11.95410946,16.21172465 7.81196228,16.21172465 C3.66981511,16.21172465 0.31196228,12.85387183 0.31196228,8.71172465 C0.31196228,4.56957748 3.66981511,1.21172465 7.81196228,1.21172465 C11.95410946,1.21172465 15.31196228,4.56957748 15.31196228,8.71172465z M6.94444212,12.68291417 L12.50895825,7.11839804 C12.69790986,6.92944643 12.69790986,6.62306538 12.50895825,6.43411377 L11.82467398,5.74982949 C11.63572236,5.56084764 11.32934132,5.56084764 11.14035946,5.74982949 L6.60228486,10.28787385 L4.48356511,8.16915409 C4.29461349,7.98020248 3.98823244,7.98020248 3.79925059,8.16915409 L3.11496632,8.85343836 C2.92601470,9.04238998 2.92601470,9.34877102 3.11496632,9.53772264 L6.26012761,12.68288393 C6.44910946,12.87186578 6.75546027,12.87186578 6.94444212,12.68291417z " stroke="rgba(255, 255, 255, 1)" stroke-width="1" stroke-linecap="butt" stroke-linejoin="miter"/>
</svg>
