<svg width="16" height="15" fill="none" xmlns="http://www.w3.org/2000/svg"><path d="M13.112 0H2.398C1.174 0 .178.986.178 2.197v10.606c0 1.211.996 2.197 2.22 2.197h10.714c1.224 0 2.22-.986 2.22-2.197V2.197C15.332.986 14.336 0 13.112 0zM7.785 11.426c-2.204 0-3.996-1.774-3.996-3.955s1.792-3.955 3.996-3.955c2.203 0 3.995 1.774 3.995 3.955 0 2.18-1.792 3.955-3.995 3.955zm4.44-7.031a1.327 1.327 0 0 1-1.332-1.319c0-.727.597-1.318 1.331-1.318.735 0 1.332.591 1.332 1.318 0 .727-.597 1.319-1.332 1.319z" fill="#FFC000"/><path d="M12.224 2.637a.442.442 0 0 0-.444.44c0 .242.2.439.444.439a.442.442 0 0 0 .444-.44.442.442 0 0 0-.444-.44zM7.785 4.395c-1.714 0-3.108 1.38-3.108 3.076 0 1.696 1.394 3.076 3.108 3.076 1.713 0 3.107-1.38 3.107-3.076 0-1.696-1.394-3.076-3.107-3.076z" fill="#FFC000"/></svg>