<svg width="30" height="30" fill="none" xmlns="http://www.w3.org/2000/svg"><g clip-path="url(#clip0)" fill="#FFC000"><path d="M23.671 18.608a2.975 2.975 0 0 0-2.089-1.013c-.822 0-1.519.316-2.215.95l-1.962 2.025-.506-.253-.633-.317a21.708 21.708 0 0 1-6.899-7.468l1.456-1.456.57-.506c1.329-1.33 1.329-3.038 0-4.367L9.62 4.43l-.57-.57-1.202-1.202c-.633-.57-1.329-.95-2.088-.95-.76 0-1.52.38-2.152.95h-.064L1.393 4.873a4.62 4.62 0 0 0-1.33 2.912c-.19 1.835.38 3.607.823 4.683a29.81 29.81 0 0 0 14.747 15.823A15.443 15.443 0 0 0 21.583 30c1.455 0 2.72-.506 3.67-1.582.317-.443.697-.76 1.14-1.203l.822-.76c.633-.695.95-1.455.95-2.214 0-.76-.38-1.52-1.013-2.152l-3.481-3.481zm2.279 6.645l-.76.76-1.203 1.265a3.038 3.038 0 0 1-2.405 1.013h-.253c-1.899-.126-3.67-.886-4.937-1.519A28.101 28.101 0 0 1 2.47 11.9c-.57-1.582-.823-2.785-.697-3.988.064-.696.317-1.329.886-1.835L4.81 3.924c.317-.316.633-.506.95-.506.38 0 .696.253.886.443l.063.063 1.14 1.14.569.569 1.772 1.772c.633.633.633 1.266 0 1.962l-.57.506-1.582 1.583h-.063c-.506.57-.443 1.076-.317 1.455v.064c.507 1.076 1.14 2.088 2.089 3.29v.064a23.227 23.227 0 0 0 7.025 5.823l.064.063c.19.127.443.19.633.19.506 0 .822-.38.949-.443l2.152-2.215c.253-.19.57-.443.95-.443.442 0 .759.253.948.443l3.482 3.544c.632.633.632 1.266 0 1.962zM16.203 7.152c1.645.253 3.164 1.076 4.367 2.278 1.202 1.203 1.962 2.659 2.278 4.367.064.38.443.697.823.697h.127c.506-.127.822-.57.76-1.013a9.747 9.747 0 0 0-8.039-8.038c-.506-.063-.95.253-1.012.696-.064.443.253.95.696 1.013z"/><path d="M29.937 13.228A16.076 16.076 0 0 0 16.709 0a.864.864 0 1 0-.253 1.709A14.367 14.367 0 0 1 28.29 13.48c.063.443.38.76.823.76l.127-.064c.506-.063.822-.506.696-.95z"/></g><defs><clipPath id="clip0"><path fill="#fff" d="M0 0h30v30H0z"/></clipPath></defs></svg>